<svg width="216" height="200" viewBox="0 0 216 200" fill="none" xmlns="http://www.w3.org/2000/svg">
<path d="M38.3562 88.584H42.0091V178.995H44.7489V180.821H46.5753V184.474H33.7899V180.821H35.6164V178.995H38.3562V88.584Z" fill="#252640"/>
<path d="M105.023 88.584H108.676V178.995H111.416V180.821H113.242V184.474H100.457V180.821H102.283V178.995H105.023V88.584Z" fill="#252640"/>
<path d="M171.69 88.584H175.342V178.995H178.082V180.821H179.909V184.474H167.123V180.821H168.95V178.995H171.69V88.584Z" fill="#252640"/>
<path d="M23.5506 87.6709C15.7766 107.519 7.04635 95.9407 3.65295 87.6709H23.5506H46.2247H68.8988H89.2592H111.008H131.831H153.117H171.164H190.136H210.959C202.815 104.985 193.683 94.885 190.136 87.6709C183.472 104.985 174.711 94.885 171.164 87.6709C164.5 103.718 156.356 94.3572 153.117 87.6709C145.343 105.407 135.687 95.061 131.831 87.6709C124.057 104.562 114.71 94.7091 111.008 87.6709C102.864 106.252 93.1153 95.4129 89.2592 87.6709C80.7448 106.252 72.1379 95.4129 68.8988 87.6709C59.2739 105.829 49.7724 95.2369 46.2247 87.6709C37.7104 106.674 27.561 95.5888 23.5506 87.6709Z" fill="#FEDE88"/>
<path d="M18.7214 138.038C22.4213 137.603 24.8097 141.691 25.5707 143.974C24.3433 142.501 23.047 142.595 22.0977 143.093C21.2646 143.53 20.771 144.388 20.2456 145.168C16.0846 151.346 11.7669 151.854 10.0454 151.28C11.5681 151.28 12.5178 150.359 13.1088 149.365C13.5866 148.561 13.6843 147.603 13.7312 146.669C13.8982 143.339 14.6628 142.907 15.0682 141.691C13.2418 141.691 11.8721 145.263 11.8721 144.431C11.8721 140.099 15.5249 138.414 18.7214 138.038Z" fill="#412222"/>
<path d="M63.565 133.391C62.8344 131.93 58.6371 125.172 57.1723 125.172C55.7075 125.172 53.0632 133.391 53.0632 133.391L43.9308 141.61C40.43 142.523 33.2458 143.985 32.515 142.523C31.7841 141.062 29.1665 140.697 27.9491 140.697C27.397 140.697 25.3004 140.697 22.013 144.35C18.7255 148.003 22.4697 153.178 24.7527 155.309C22.774 156.527 19.0906 159.144 20.1863 159.875C21.2821 160.606 21.8607 164.137 22.013 165.811H20.1863C19.4253 167.333 18.3598 170.195 20.1863 169.464C22.4694 168.551 24.2959 169.921 25.209 169.464C25.9395 169.099 25.5134 167.485 25.209 166.724C24.6002 164.441 23.9305 159.875 26.1223 159.875C28.3141 159.875 31.2973 157.744 32.515 156.679C33.276 156.983 36.4419 157.683 43.0172 158.049C49.5926 158.414 53.0629 155.765 53.9762 154.396C56.5332 152.569 60.5211 154.548 62.1953 155.765C61.5864 157.135 60.3686 160.058 60.3686 160.788C60.3686 161.519 58.2377 159.875 57.1723 158.962C57.9029 160.788 56.8679 163.071 56.259 163.985C58.8159 164.715 61.2819 164.289 62.1953 163.985C62.4867 161.653 64.3473 157.811 65.7834 155.193C66.2951 154.26 65.9204 153.133 64.8893 152.872C64.3759 152.741 63.8863 152.633 63.565 152.569C61.0077 151.839 58.2377 148.612 57.1723 147.09C58.0855 142.98 56.259 139.784 56.259 139.784C55.5284 137.957 56.5635 136.587 57.1723 136.131C58.6335 136.131 59.912 137.653 60.3686 138.414C61.8268 140.844 63.2869 140.062 63.5655 139.784C64.4787 138.871 63.1089 137.957 63.565 137.957C63.565 137.957 66.5541 139.717 67.6751 136.587C68.4929 134.304 64.9348 133.543 63.565 133.391Z" fill="#FFF9DA"/>
<path d="M20.091 164.44L21.0043 165.81C19.9084 167.271 19.9388 168.702 20.0911 169.463C19.4822 170.224 18.0819 171.655 17.3513 169.463C16.6207 167.271 18.8734 165.201 20.091 164.44Z" fill="#412222"/>
<path d="M55.7079 158.505C56.0732 158.14 57.2296 158.657 57.534 158.962C58.2649 160.057 57.2299 162.767 56.6208 163.984C56.1643 164.593 54.612 165.354 53.8815 163.528C52.9682 161.245 55.2513 158.962 55.7079 158.505Z" fill="#412222"/>
<path d="M41.0957 158.505C39.2692 157.044 38.5081 151.504 38.3559 148.916L39.7258 149.373C40.0911 154.487 41.7045 157.287 42.4655 158.048C42.4655 158.505 42.1915 159.236 41.0957 158.505Z" fill="#412222"/>
<path d="M61.187 127.148C61.187 128.169 60.0324 128.782 59.0794 129.074C58.4264 129.274 57.9171 128.843 57.5787 128.25C57.3142 127.787 56.8366 127.475 55.7076 127.911C53.9684 128.584 53.8455 132.684 53.8399 135.584C53.8386 136.264 53.6904 136.938 53.3858 137.547C50.5702 143.177 47.5081 146.804 44.5343 146.086C42.088 145.495 41.7028 143.844 42.0396 142.323C42.2079 141.563 43.0123 141.124 43.7112 140.781C45.5788 139.862 48.3882 136.939 49.3149 131.564C50.4904 124.747 53.5852 123.943 55.7076 124.258C57.5341 124.258 61.187 125.633 61.187 127.148Z" fill="#412222"/>
<path d="M42.8355 150.778L35.1657 151.111C34.2304 151.152 33.3108 150.724 32.905 149.88C31.3111 146.566 32.0785 143.067 32.7509 141.588C32.9031 141.435 33.4815 141.222 34.5774 141.588C35.6733 141.953 38.9914 141.435 40.5135 141.131C41.8833 140.674 44.2578 140.126 42.7966 141.588C41.5499 142.834 42.6522 146.829 43.6644 149.487C43.8927 150.087 43.4764 150.75 42.8355 150.778Z" fill="#05B163"/>
<path d="M84.4754 120.686C88.1752 120.252 90.5636 124.339 91.3247 126.622C90.0973 125.149 88.8009 125.244 87.8516 125.741C87.0186 126.178 86.525 127.037 85.9995 127.817C81.8385 133.994 77.5209 134.502 75.7993 133.928C77.3221 133.928 78.2718 133.008 78.8628 132.014C79.3406 131.21 79.4382 130.251 79.4851 129.317C79.6522 125.988 80.4168 125.555 80.8222 124.339C78.9957 124.339 77.6261 127.911 77.6261 127.079C77.6261 122.747 81.2788 121.062 84.4754 120.686Z" fill="#412222"/>
<path d="M129.319 116.039C128.588 114.578 124.391 107.82 122.926 107.82C121.461 107.82 118.817 116.039 118.817 116.039L109.685 124.259C106.184 125.172 98.9997 126.633 98.2689 125.172C97.5381 123.711 94.9204 123.345 93.703 123.345C93.1509 123.345 91.0543 123.345 87.7669 126.998C84.4795 130.651 88.2236 135.826 90.5066 137.957C88.528 139.175 84.8445 141.793 85.9403 142.524C87.036 143.254 87.6146 146.785 87.7669 148.46H85.9403C85.1792 149.982 84.1138 152.843 85.9403 152.113C88.2234 151.199 90.0498 152.569 90.963 152.113C91.6935 151.747 91.2673 150.134 90.963 149.373C90.3541 147.09 89.6844 142.524 91.8762 142.524C94.068 142.524 97.0512 140.393 98.2689 139.327C99.0299 139.632 102.196 140.332 108.771 140.697C115.347 141.062 118.817 138.414 119.73 137.044C122.287 135.218 126.275 137.196 127.949 138.414C127.34 139.784 126.123 142.706 126.123 143.437C126.123 144.167 123.992 142.524 122.926 141.61C123.657 143.437 122.622 145.72 122.013 146.633C124.57 147.364 127.036 146.938 127.949 146.633C128.241 144.302 130.101 140.46 131.537 137.842C132.049 136.909 131.674 135.782 130.643 135.52C130.13 135.389 129.64 135.282 129.319 135.218C126.762 134.487 123.992 131.26 122.926 129.738C123.839 125.629 122.013 122.432 122.013 122.432C121.282 120.606 122.317 119.236 122.926 118.779C124.387 118.779 125.666 120.301 126.123 121.062C127.581 123.493 129.041 122.711 129.319 122.432C130.233 121.519 128.863 120.606 129.319 120.606C129.319 120.606 132.308 122.365 133.429 119.236C134.247 116.953 130.689 116.192 129.319 116.039Z" fill="#FFF9DA"/>
<path d="M85.845 147.089L86.7582 148.459C85.6623 149.92 85.6928 151.351 85.845 152.112C85.2362 152.873 83.8358 154.303 83.1053 152.112C82.3747 149.92 84.6273 147.85 85.845 147.089Z" fill="#412222"/>
<path d="M121.462 141.153C121.827 140.788 122.984 141.306 123.288 141.61C124.019 142.706 122.984 145.415 122.375 146.633C121.918 147.242 120.366 148.003 119.635 146.176C118.722 143.893 121.005 141.61 121.462 141.153Z" fill="#412222"/>
<path d="M106.85 141.153C105.023 139.692 104.262 134.152 104.11 131.564L105.48 132.021C105.845 137.135 107.458 139.936 108.219 140.697C108.219 141.153 107.945 141.884 106.85 141.153Z" fill="#412222"/>
<path d="M126.941 109.796C126.941 110.817 125.786 111.431 124.833 111.723C124.18 111.922 123.671 111.492 123.333 110.899C123.068 110.435 122.591 110.123 121.461 110.56C119.722 111.232 119.599 115.333 119.594 118.232C119.592 118.913 119.444 119.587 119.14 120.196C116.324 125.825 113.262 129.453 110.288 128.734C107.842 128.143 107.457 126.493 107.793 124.972C107.962 124.211 108.766 123.773 109.465 123.429C111.333 122.51 114.142 119.587 115.069 114.213C116.244 107.395 119.339 106.591 121.461 106.907C123.288 106.907 126.941 108.281 126.941 109.796Z" fill="#412222"/>
<path d="M108.589 133.426L100.92 133.76C99.9844 133.8 99.0647 133.373 98.659 132.529C97.065 129.214 97.8325 125.715 98.5049 124.236C98.6571 124.084 99.2355 123.871 100.331 124.236C101.427 124.601 104.745 124.084 106.267 123.779C107.637 123.323 110.012 122.775 108.551 124.236C107.304 125.483 108.406 129.477 109.418 132.136C109.647 132.735 109.23 133.398 108.589 133.426Z" fill="#05B163"/>
<path d="M151.142 138.038C154.842 137.603 157.23 141.691 157.991 143.974C156.764 142.501 155.467 142.595 154.518 143.093C153.685 143.53 153.191 144.388 152.666 145.168C148.505 151.346 144.187 151.854 142.466 151.28C143.988 151.28 144.938 150.359 145.529 149.365C146.007 148.561 146.105 147.603 146.151 146.669C146.319 143.339 147.083 142.907 147.489 141.691C145.662 141.691 144.292 145.263 144.292 144.431C144.292 140.099 147.945 138.414 151.142 138.038Z" fill="#412222"/>
<path d="M195.985 133.391C195.255 131.93 191.057 125.172 189.593 125.172C188.128 125.172 185.483 133.391 185.483 133.391L176.351 141.61C172.85 142.523 165.666 143.985 164.935 142.523C164.204 141.062 161.587 140.697 160.369 140.697C159.817 140.697 157.721 140.697 154.433 144.35C151.146 148.003 154.89 153.178 157.173 155.309C155.194 156.527 151.511 159.144 152.607 159.875C153.702 160.606 154.281 164.137 154.433 165.811H152.607C151.846 167.333 150.78 170.195 152.607 169.464C154.89 168.551 156.716 169.921 157.629 169.464C158.36 169.099 157.934 167.485 157.629 166.724C157.02 164.441 156.351 159.875 158.543 159.875C160.734 159.875 163.718 157.744 164.935 156.679C165.696 156.983 168.862 157.683 175.438 158.049C182.013 158.414 185.483 155.765 186.396 154.396C188.954 152.569 192.941 154.548 194.616 155.765C194.007 157.135 192.789 160.058 192.789 160.788C192.789 161.519 190.658 159.875 189.593 158.962C190.323 160.788 189.288 163.071 188.679 163.985C191.236 164.715 193.702 164.289 194.616 163.985C194.907 161.653 196.768 157.811 198.204 155.193C198.715 154.26 198.341 153.133 197.31 152.872C196.796 152.741 196.307 152.633 195.985 152.569C193.428 151.839 190.658 148.612 189.593 147.09C190.506 142.98 188.679 139.784 188.679 139.784C187.949 137.957 188.984 136.587 189.593 136.131C191.054 136.131 192.332 137.653 192.789 138.414C194.247 140.844 195.707 140.062 195.986 139.784C196.899 138.871 195.529 137.957 195.985 137.957C195.985 137.957 198.974 139.717 200.095 136.587C200.913 134.304 197.355 133.543 195.985 133.391Z" fill="#FFF9DA"/>
<path d="M152.511 164.44L153.425 165.81C152.329 167.271 152.359 168.702 152.511 169.463C151.903 170.224 150.502 171.655 149.772 169.463C149.041 167.271 151.294 165.201 152.511 164.44Z" fill="#412222"/>
<path d="M188.128 158.505C188.493 158.14 189.65 158.657 189.954 158.962C190.685 160.057 189.65 162.767 189.041 163.984C188.585 164.593 187.032 165.354 186.302 163.528C185.388 161.245 187.672 158.962 188.128 158.505Z" fill="#412222"/>
<path d="M173.516 158.505C171.689 157.044 170.928 151.504 170.776 148.916L172.146 149.373C172.511 154.487 174.125 157.287 174.886 158.048C174.886 158.505 174.612 159.236 173.516 158.505Z" fill="#412222"/>
<path d="M193.607 127.148C193.607 128.169 192.453 128.782 191.5 129.074C190.847 129.274 190.337 128.843 189.999 128.25C189.734 127.787 189.257 127.475 188.128 127.911C186.389 128.584 186.266 132.684 186.26 135.584C186.259 136.264 186.111 136.938 185.806 137.547C182.99 143.177 179.928 146.804 176.955 146.086C174.508 145.495 174.123 143.844 174.46 142.323C174.628 141.563 175.433 141.124 176.131 140.781C177.999 139.862 180.808 136.939 181.735 131.564C182.911 124.747 186.005 123.943 188.128 124.258C189.954 124.258 193.607 125.633 193.607 127.148Z" fill="#412222"/>
<path d="M175.256 150.778L167.586 151.111C166.651 151.152 165.731 150.724 165.325 149.88C163.731 146.566 164.499 143.067 165.171 141.588C165.323 141.435 165.902 141.222 166.998 141.588C168.094 141.953 171.412 141.435 172.934 141.131C174.304 140.674 176.678 140.126 175.217 141.588C173.97 142.834 175.072 146.829 176.085 149.487C176.313 150.087 175.897 150.75 175.256 150.778Z" fill="#05B163"/>
<rect x="11.8721" y="184.475" width="191.781" height="4.56621" rx="2.2831" fill="#252640"/>
<rect x="7.30594" y="189.041" width="199.087" height="10.9589" rx="5.47945" fill="#AB1A1A"/>
<path d="M207.882 76.5284C209.673 76.9194 210.959 78.4969 210.959 80.3297C210.959 82.367 205.853 84.0186 199.555 84.0186H11.4029C5.10512 84.0186 1.3696 83.7729 1.3696 81.7355C1.3696 79.615 2.87308 77.7963 4.95069 77.3715C50.1125 68.1367 97.3449 48.2593 101.819 9.91663C101.845 9.49008 102.913 9.13281 104.224 9.13281H108.287C109.598 9.13281 110.666 9.49005 110.692 9.91657C125.133 49.0803 167.35 67.6775 207.882 76.5284Z" fill="#DB2525"/>
<path d="M14.6108 84.0143C88.7375 62.8645 106.047 27.6179 106.212 11.9108C110.67 47.4501 77.8088 82.7048 59.0724 84.4802L14.6108 84.0143Z" fill="#FFFCEA"/>
<path d="M200.902 85.9663C130.403 65.5944 110.043 28.728 106.823 13.7437C103.615 43.6112 143.866 83.4205 162.519 85.5641L200.902 85.9663Z" fill="#FFFCEA"/>
<path d="M86.7534 84.7702C101.174 70.4221 106.452 32.9828 106.672 11.9155C106.418 36.1607 119.736 70.6166 134.239 85.2678L86.7534 84.7702Z" fill="#FFFCEA"/>
<rect y="80.3652" width="215.525" height="8.21918" rx="4.10959" fill="#AB1A1A"/>
<ellipse cx="106.849" cy="9.13242" rx="10.0457" ry="9.13242" fill="#FFFCEA"/>
</svg>
