<svg width="101" height="20" viewBox="0 0 101 20" fill="none" xmlns="http://www.w3.org/2000/svg">
<path d="M11.275 4.05C11.7083 4.86667 11.8083 5.9 11.575 7.15H11.55C10.9667 7.25 10.3417 7.31667 9.675 7.35C9.00833 7.36667 8.38333 7.29167 7.8 7.125C7.9 6.675 7.80833 6.3 7.525 6C7.24167 5.7 6.9 5.50833 6.5 5.425C6.1 5.34167 5.70833 5.38333 5.325 5.55C4.95833 5.71667 4.74167 6.03333 4.675 6.5C4.64167 6.61667 4.625 6.73333 4.625 6.85C4.64167 6.95 4.65833 7.05833 4.675 7.175C4.80833 7.575 5.025 7.84167 5.325 7.975C5.625 8.10833 5.95 8.2 6.3 8.25C7.18333 8.35 8 8.63333 8.75 9.1C9.51667 9.56667 10.1417 10.1583 10.625 10.875C10.925 11.2583 11.15 11.675 11.3 12.125C11.45 12.5583 11.5333 13.0083 11.55 13.475C11.5833 13.9417 11.55 14.4167 11.45 14.9C11.3667 15.3667 11.225 15.8167 11.025 16.25C10.825 16.7667 10.5583 17.2083 10.225 17.575C9.89167 17.9417 9.50833 18.2417 9.075 18.475C8.65833 18.7083 8.2 18.8833 7.7 19C7.21667 19.1 6.71667 19.1417 6.2 19.125C5.46667 19.1083 4.73333 18.9833 4 18.75C3.28333 18.5 2.64167 18.1583 2.075 17.725C1.50833 17.2917 1.05833 16.7667 0.725 16.15C0.391667 15.5167 0.25 14.8 0.3 14L0.3 13.925V13.85C0.883333 13.7667 1.525 13.75 2.225 13.8C2.925 13.8333 3.55833 13.8417 4.125 13.825C4.15833 14.3583 4.36667 14.7583 4.75 15.025C5.15 15.2917 5.56667 15.425 6 15.425C6.45 15.4083 6.83333 15.2583 7.15 14.975C7.48333 14.6917 7.6 14.2583 7.5 13.675C7.45 13.275 7.3 12.9583 7.05 12.725C6.8 12.475 6.5 12.275 6.15 12.125C5.81667 11.975 5.45 11.8667 5.05 11.8C4.65 11.7167 4.275 11.6417 3.925 11.575C3.59167 11.5083 3.28333 11.4 3 11.25C2.71667 11.1 2.45833 10.925 2.225 10.725C1.45833 9.99167 0.958333 9.18333 0.725 8.3C0.508333 7.41667 0.5 6.55833 0.7 5.725C0.9 4.89167 1.275 4.13333 1.825 3.45C2.39167 2.76667 3.075 2.25833 3.875 1.925C4.275 1.75833 4.71667 1.65 5.2 1.6C5.68333 1.53333 6.16667 1.51667 6.65 1.55C7.15 1.56667 7.63333 1.63333 8.1 1.75C8.58333 1.86667 9.025 2.01667 9.425 2.2C10.225 2.61667 10.8417 3.23333 11.275 4.05ZM18.0088 5.175C17.7755 5.225 17.5921 5.31667 17.4588 5.45C17.4255 5.48333 17.3921 5.54167 17.3588 5.625C17.3421 5.69167 17.3255 5.74167 17.3088 5.775C17.2755 5.825 17.2421 6.11667 17.2088 6.65C17.1921 7.18333 17.1755 7.81667 17.1588 8.55C17.1421 9.28333 17.1338 10.05 17.1338 10.85C17.1338 11.6333 17.1588 12.3167 17.2088 12.9C17.2588 13.3833 17.3838 13.8583 17.5838 14.325C17.8005 14.775 18.1505 15.0667 18.6338 15.2C19.0005 15.2333 19.3421 15.1833 19.6588 15.05C19.9921 14.9 20.2421 14.6583 20.4088 14.325C20.5921 13.9417 20.6671 13.5417 20.6338 13.125C20.6171 12.6917 20.6505 12.2667 20.7338 11.85C20.9671 11.8833 21.2255 11.8917 21.5088 11.875C21.8088 11.8583 22.1088 11.85 22.4088 11.85C22.7088 11.85 23.0005 11.8583 23.2838 11.875C23.5838 11.8917 23.8505 11.9333 24.0838 12C24.3671 12.8667 24.4421 13.7333 24.3088 14.6C24.1755 15.45 23.8838 16.2167 23.4338 16.9C22.9838 17.5833 22.3921 18.15 21.6588 18.6C20.9421 19.0333 20.1255 19.2583 19.2088 19.275C18.6088 19.3583 17.9921 19.3583 17.3588 19.275C16.7255 19.2083 16.1338 19.05 15.5838 18.8C15.0338 18.5333 14.5671 18.1667 14.1838 17.7C13.8171 17.2333 13.6005 16.65 13.5338 15.95C13.5005 15.35 13.4755 14.725 13.4588 14.075C13.4421 13.425 13.4255 12.7 13.4088 11.9C13.4088 11.0833 13.4088 10.1667 13.4088 9.15C13.4255 8.11667 13.4421 6.925 13.4588 5.575C13.4255 5.29167 13.4338 5.00833 13.4838 4.725C13.5505 4.425 13.6338 4.15 13.7338 3.9C13.8838 3.46667 14.0671 3.06667 14.2838 2.7C14.5171 2.33333 14.7921 2.00833 15.1088 1.725C15.2921 1.59167 15.4921 1.48333 15.7088 1.4C15.9255 1.3 16.1505 1.21667 16.3838 1.15C17.1505 0.899999 17.9088 0.799999 18.6588 0.85C19.4088 0.899999 20.1088 1.075 20.7588 1.375C21.4255 1.65833 22.0255 2.04167 22.5588 2.525C23.0921 3.00833 23.5171 3.56667 23.8338 4.2C24.1505 4.81667 24.3421 5.49167 24.4088 6.225C24.4755 6.95833 24.3755 7.70833 24.1088 8.475C23.4921 8.60833 22.8838 8.65833 22.2838 8.625C21.7005 8.575 21.0921 8.49167 20.4588 8.375C20.4088 8.05833 20.3755 7.7 20.3588 7.3C20.3588 6.9 20.3171 6.53333 20.2338 6.2C20.1505 5.85 19.9921 5.56667 19.7588 5.35C19.5421 5.13333 19.1921 5.03333 18.7088 5.05C18.4921 5.08333 18.2588 5.125 18.0088 5.175ZM35.5408 1.325C35.8575 1.325 36.1408 1.33333 36.3908 1.35L37.0658 18.85C36.7825 18.9 36.4742 18.9333 36.1408 18.95C35.8242 18.9667 35.5075 18.975 35.1908 18.975C34.8908 18.975 34.5908 18.975 34.2908 18.975C34.0075 18.975 33.7658 18.9833 33.5658 19H33.5408C33.4575 18.45 33.3992 17.8833 33.3658 17.3C33.3492 16.7 33.3325 16.1083 33.3158 15.525C33.3158 14.9417 33.3075 14.3583 33.2908 13.775C33.2742 13.1917 33.2325 12.6333 33.1658 12.1L33.1408 12.075C32.6575 11.9917 32.1742 11.95 31.6908 11.95C31.2075 11.95 30.7242 12.0083 30.2408 12.125C30.1908 12.7083 30.1658 13.2833 30.1658 13.85C30.1825 14.4167 30.1992 14.9833 30.2158 15.55C30.2325 16.1167 30.2325 16.675 30.2158 17.225C30.2158 17.7583 30.1742 18.2917 30.0908 18.825C29.8908 18.9417 29.6242 19 29.2908 19C28.9575 19 28.6242 18.9833 28.2908 18.95C27.9575 18.9167 27.6408 18.8917 27.3408 18.875C27.0575 18.8583 26.8408 18.8917 26.6908 18.975C26.6575 18.5083 26.6158 17.875 26.5658 17.075C26.5325 16.2583 26.4992 15.35 26.4658 14.35C26.4325 13.3333 26.3992 12.2583 26.3658 11.125C26.3492 9.99167 26.3325 8.85833 26.3158 7.725C26.2992 6.575 26.2908 5.475 26.2908 4.425C26.3075 3.35833 26.3242 2.4 26.3408 1.55V1.525H26.3658H26.4158C26.6658 1.575 26.9242 1.59167 27.1908 1.575C27.4742 1.55833 27.7492 1.54167 28.0158 1.525C28.2992 1.50833 28.5742 1.5 28.8408 1.5C29.1075 1.5 29.3575 1.53333 29.5908 1.6C29.7408 2.75 29.8158 3.86667 29.8158 4.95C29.8158 6.03333 29.9158 7.10833 30.1158 8.175H30.1408C30.5575 8.275 31.0075 8.30833 31.4908 8.275C31.9742 8.225 32.4242 8.18333 32.8408 8.15H32.8658C32.9658 7 33.0158 5.925 33.0158 4.925C33.0325 3.925 33.0158 2.825 32.9658 1.625C33.1658 1.55833 33.4075 1.5 33.6908 1.45C33.9908 1.4 34.2992 1.36667 34.6158 1.35C34.9325 1.31667 35.2408 1.30833 35.5408 1.325ZM46.5914 15.575C47.6581 15.625 48.7581 15.6333 49.8914 15.6V15.65C49.9247 16.1833 49.9331 16.7417 49.9164 17.325C49.8997 17.8917 49.8247 18.425 49.6914 18.925C47.9914 18.9083 46.2581 18.9333 44.4914 19C42.7414 19.05 41.0581 19.0083 39.4414 18.875C39.4414 17.425 39.4247 15.9917 39.3914 14.575C39.3581 13.1417 39.3331 11.7167 39.3164 10.3C39.2997 8.88333 39.2997 7.46667 39.3164 6.05C39.3331 4.63333 39.3831 3.20833 39.4664 1.775C40.1164 1.74167 40.8164 1.71667 41.5664 1.7C42.3331 1.66667 43.0997 1.64167 43.8664 1.625C44.6331 1.60833 45.3747 1.59167 46.0914 1.575C46.8081 1.55833 47.4414 1.55 47.9914 1.55C48.5414 1.55 48.9831 1.55833 49.3164 1.575C49.6497 1.59167 49.8164 1.60833 49.8164 1.625C49.8997 2.20833 49.9164 2.8 49.8664 3.4C49.8331 4 49.8164 4.59167 49.8164 5.175V5.2C49.2831 5.31667 48.7414 5.39167 48.1914 5.425C47.6581 5.44167 47.1164 5.45 46.5664 5.45C46.0164 5.43333 45.4664 5.425 44.9164 5.425C44.3664 5.425 43.8164 5.45 43.2664 5.5H43.1914L43.1664 5.525C43.1831 6.00833 43.1581 6.50833 43.0914 7.025C43.0414 7.525 43.0747 8 43.1914 8.45L43.2164 8.475C43.7164 8.50833 44.2247 8.525 44.7414 8.525C45.2581 8.525 45.7747 8.53333 46.2914 8.55V8.575C46.3747 9.14167 46.3997 9.70833 46.3664 10.275C46.3331 10.8417 46.3247 11.4333 46.3414 12.05C46.0914 12.1167 45.8081 12.1583 45.4914 12.175C45.1747 12.175 44.8664 12.175 44.5664 12.175C44.2831 12.175 44.0247 12.1833 43.7914 12.2C43.5581 12.2167 43.3997 12.2583 43.3164 12.325C43.2331 12.8083 43.1997 13.35 43.2164 13.95C43.2497 14.55 43.2831 15.05 43.3164 15.45L43.3414 15.475C44.4414 15.475 45.5247 15.5083 46.5914 15.575ZM59.4775 2.275C59.9775 2.65833 60.3775 3.09167 60.6775 3.575C61.0442 4.14167 61.3442 4.73333 61.5775 5.35C61.8275 5.95 62.0275 6.58333 62.1775 7.25C62.2609 7.51667 62.3109 7.78333 62.3275 8.05C62.3609 8.3 62.3859 8.55833 62.4025 8.825C62.3692 9.60833 62.3359 10.4 62.3025 11.2C62.2859 11.9833 62.2025 12.7583 62.0525 13.525C62.0525 13.5417 62.0442 13.55 62.0275 13.55C62.0275 13.55 62.0275 13.5583 62.0275 13.575C61.6942 14.5583 61.2359 15.4917 60.6525 16.375C60.0859 17.2583 59.4859 18.0917 58.8525 18.875C57.7525 18.9083 56.6442 18.9333 55.5275 18.95C54.4109 18.95 53.3275 18.95 52.2775 18.95C52.2775 18.95 52.2692 18.9583 52.2525 18.975C52.0692 17.6583 51.9525 16.3 51.9025 14.9C51.8525 13.4833 51.8275 12.05 51.8275 10.6C51.8275 9.15 51.8359 7.69167 51.8525 6.225C51.8859 4.74167 51.8859 3.275 51.8525 1.825C51.8692 1.80833 51.8775 1.79167 51.8775 1.775C51.8942 1.75833 51.9109 1.74167 51.9275 1.725C52.3942 1.60833 52.8775 1.53333 53.3775 1.5C53.8942 1.45 54.4109 1.43333 54.9275 1.45C55.4442 1.45 55.9525 1.45833 56.4525 1.475C56.9692 1.49167 57.4692 1.49167 57.9525 1.475C58.4859 1.60833 58.9942 1.875 59.4775 2.275ZM58.0275 13.1C58.1609 12.95 58.2775 12.8 58.3775 12.65C58.6609 12.2167 58.8609 11.7417 58.9775 11.225C59.1109 10.7083 59.1109 10.1417 58.9775 9.525C58.9275 9.275 58.8692 9.01667 58.8025 8.75C58.7359 8.46667 58.6359 8.2 58.5025 7.95C58.3859 7.7 58.2359 7.48333 58.0525 7.3C57.8692 7.1 57.6359 6.95 57.3525 6.85C57.0692 6.81667 56.7609 6.8 56.4275 6.8C56.0942 6.78333 55.7775 6.80833 55.4775 6.875H55.4275H55.4025V6.975C55.4359 7.425 55.4525 7.90833 55.4525 8.425C55.4525 8.94167 55.4442 9.48333 55.4275 10.05C55.4109 10.6 55.4025 11.1667 55.4025 11.75C55.4025 12.3167 55.4192 12.8833 55.4525 13.45C55.6359 13.6167 55.8859 13.6917 56.2025 13.675C56.5359 13.6583 56.8525 13.6333 57.1525 13.6C57.2359 13.6167 57.3109 13.6083 57.3775 13.575C57.4442 13.525 57.5192 13.4833 57.6025 13.45C57.7692 13.35 57.9109 13.2333 58.0275 13.1ZM74.3631 2.05C74.6798 2.08333 74.9381 2.15833 75.1381 2.275C75.2381 4.40833 75.2714 6.56667 75.2381 8.75C75.2048 10.9167 75.0714 13.075 74.8381 15.225C74.7048 16.325 74.2881 17.2583 73.5881 18.025C72.8881 18.7917 71.9381 19.2333 70.7381 19.35C70.0381 19.4167 69.3131 19.3833 68.5631 19.25C67.8131 19.1333 67.1298 18.9167 66.5131 18.6C65.9131 18.2667 65.4048 17.8333 64.9881 17.3C64.5881 16.75 64.3714 16.0917 64.3381 15.325C64.3381 13.125 64.3631 10.9083 64.4131 8.675C64.4631 6.44167 64.4714 4.225 64.4381 2.025L64.4131 2H64.4381C64.6881 2 64.9631 1.99167 65.2631 1.975C65.5798 1.95833 65.8964 1.95 66.2131 1.95C66.5298 1.95 66.8381 1.96667 67.1381 2C67.4381 2.01667 67.7131 2.05833 67.9631 2.125V2.15C67.7798 6.18333 67.8548 10.275 68.1881 14.425C68.3048 14.825 68.5131 15.1167 68.8131 15.3C69.1298 15.4833 69.4548 15.5667 69.7881 15.55C70.1214 15.5333 70.4298 15.4167 70.7131 15.2C70.9964 14.9833 71.1798 14.6833 71.2631 14.3C71.3464 12.3 71.3881 10.2667 71.3881 8.2C71.4048 6.13333 71.4381 4.13333 71.4881 2.2C71.7048 2.18333 71.9798 2.15833 72.3131 2.125C72.6631 2.075 73.0131 2.04167 73.3631 2.025C73.7131 2.00833 74.0464 2.01667 74.3631 2.05ZM87.9352 16.275C87.9352 16.4417 87.9435 16.5917 87.9602 16.725C87.9935 17.325 88.0102 17.7833 88.0102 18.1C88.0102 18.4 87.9852 18.625 87.9352 18.775C87.9018 18.9083 87.8352 18.9833 87.7352 19C87.6352 19 87.4935 19 87.3102 19C87.1268 18.9833 86.8852 18.9833 86.5852 19C86.3018 19.0167 85.8102 19.0333 85.1102 19.05C84.4268 19.0667 83.4768 19.075 82.2602 19.075C81.0602 19.075 79.4518 19.0583 77.4352 19.025V18.575C77.4852 17.325 77.5268 16.2 77.5602 15.2C77.5935 14.1833 77.6102 13.2417 77.6102 12.375C77.6268 11.4917 77.6352 10.6417 77.6352 9.825C77.6352 9.00833 77.6268 8.175 77.6102 7.325C77.5935 6.475 77.5768 5.575 77.5602 4.625C77.5435 3.65833 77.5268 2.59167 77.5102 1.425C77.6768 1.35833 77.9352 1.30833 78.2852 1.275C78.6352 1.225 79.0102 1.2 79.4102 1.2C79.8102 1.2 80.2018 1.225 80.5852 1.275C80.9685 1.325 81.2768 1.4 81.5102 1.5C81.4768 2.58333 81.4602 3.7 81.4602 4.85C81.4768 5.98333 81.4935 7.125 81.5102 8.275C81.5268 9.425 81.5352 10.575 81.5352 11.725C81.5518 12.8583 81.5518 13.9583 81.5352 15.025V15.05C81.6518 15.0167 81.8685 15.0083 82.1852 15.025C82.5185 15.025 82.9018 15.0333 83.3352 15.05C83.7685 15.0667 84.2268 15.0917 84.7102 15.125C85.2102 15.1417 85.6768 15.1583 86.1102 15.175C86.5602 15.1917 86.9518 15.2083 87.2852 15.225C87.6352 15.225 87.8768 15.2167 88.0102 15.2C88.0102 15.3833 88.0018 15.5667 87.9852 15.75C87.9685 15.9167 87.9518 16.0917 87.9352 16.275ZM96.8336 15.575C97.9003 15.625 99.0003 15.6333 100.134 15.6V15.65C100.167 16.1833 100.175 16.7417 100.159 17.325C100.142 17.8917 100.067 18.425 99.9336 18.925C98.2336 18.9083 96.5003 18.9333 94.7336 19C92.9836 19.05 91.3003 19.0083 89.6836 18.875C89.6836 17.425 89.6669 15.9917 89.6336 14.575C89.6003 13.1417 89.5753 11.7167 89.5586 10.3C89.5419 8.88333 89.5419 7.46667 89.5586 6.05C89.5753 4.63333 89.6253 3.20833 89.7086 1.775C90.3586 1.74167 91.0586 1.71667 91.8086 1.7C92.5753 1.66667 93.3419 1.64167 94.1086 1.625C94.8753 1.60833 95.6169 1.59167 96.3336 1.575C97.0503 1.55833 97.6836 1.55 98.2336 1.55C98.7836 1.55 99.2253 1.55833 99.5586 1.575C99.8919 1.59167 100.059 1.60833 100.059 1.625C100.142 2.20833 100.159 2.8 100.109 3.4C100.075 4 100.059 4.59167 100.059 5.175V5.2C99.5253 5.31667 98.9836 5.39167 98.4336 5.425C97.9003 5.44167 97.3586 5.45 96.8086 5.45C96.2586 5.43333 95.7086 5.425 95.1586 5.425C94.6086 5.425 94.0586 5.45 93.5086 5.5H93.4336L93.4086 5.525C93.4253 6.00833 93.4003 6.50833 93.3336 7.025C93.2836 7.525 93.3169 8 93.4336 8.45L93.4586 8.475C93.9586 8.50833 94.4669 8.525 94.9836 8.525C95.5003 8.525 96.0169 8.53333 96.5336 8.55V8.575C96.6169 9.14167 96.6419 9.70833 96.6086 10.275C96.5753 10.8417 96.5669 11.4333 96.5836 12.05C96.3336 12.1167 96.0503 12.1583 95.7336 12.175C95.4169 12.175 95.1086 12.175 94.8086 12.175C94.5253 12.175 94.2669 12.1833 94.0336 12.2C93.8003 12.2167 93.6419 12.2583 93.5586 12.325C93.4753 12.8083 93.4419 13.35 93.4586 13.95C93.4919 14.55 93.5253 15.05 93.5586 15.45L93.5836 15.475C94.6836 15.475 95.7669 15.5083 96.8336 15.575Z" fill="#FEDE88"/>
</svg>
