<svg width="34" height="181" viewBox="0 0 34 181" fill="none" xmlns="http://www.w3.org/2000/svg">
<path d="M6.09 160.705C7.56 159.925 9.42 159.745 11.67 160.165L11.67 160.21C11.85 161.26 11.97 162.385 12.03 163.585C12.06 164.785 11.925 165.91 11.625 166.96C10.815 166.78 10.14 166.945 9.6 167.455C9.06 167.965 8.715 168.58 8.565 169.3C8.415 170.02 8.49 170.725 8.79 171.415C9.09 172.075 9.66 172.465 10.5 172.585C10.71 172.645 10.92 172.675 11.13 172.675C11.31 172.645 11.505 172.615 11.715 172.585C12.435 172.345 12.915 171.955 13.155 171.415C13.395 170.875 13.56 170.29 13.65 169.66C13.83 168.07 14.34 166.6 15.18 165.25C16.02 163.87 17.085 162.745 18.375 161.875C19.065 161.335 19.815 160.93 20.625 160.66C21.405 160.39 22.215 160.24 23.055 160.21C23.895 160.15 24.75 160.21 25.62 160.39C26.46 160.54 27.27 160.795 28.05 161.155C28.98 161.515 29.775 161.995 30.435 162.595C31.095 163.195 31.635 163.885 32.055 164.665C32.475 165.415 32.79 166.24 33 167.14C33.18 168.01 33.255 168.91 33.225 169.84C33.195 171.16 32.97 172.48 32.55 173.8C32.1 175.09 31.485 176.245 30.705 177.265C29.925 178.285 28.98 179.095 27.87 179.695C26.73 180.295 25.44 180.55 24 180.46L23.865 180.46L23.73 180.46C23.58 179.41 23.55 178.255 23.64 176.995C23.7 175.735 23.715 174.595 23.685 173.575C24.645 173.515 25.365 173.14 25.845 172.45C26.325 171.73 26.565 170.98 26.565 170.2C26.535 169.39 26.265 168.7 25.755 168.13C25.245 167.53 24.465 167.32 23.415 167.5C22.695 167.59 22.125 167.86 21.705 168.31C21.255 168.76 20.895 169.3 20.625 169.93C20.355 170.53 20.16 171.19 20.04 171.91C19.89 172.63 19.755 173.305 19.635 173.935C19.515 174.535 19.32 175.09 19.05 175.6C18.78 176.11 18.465 176.575 18.105 176.995C16.785 178.375 15.33 179.275 13.74 179.695C12.15 180.085 10.605 180.1 9.105 179.74C7.605 179.38 6.24 178.705 5.01 177.715C3.78 176.695 2.865 175.465 2.265 174.025C1.965 173.305 1.77 172.51 1.68 171.64C1.56 170.77 1.53 169.9 1.59 169.03C1.62 168.13 1.74 167.26 1.95 166.42C2.16 165.55 2.43 164.755 2.76 164.035C3.51 162.595 4.62 161.485 6.09 160.705ZM8.115 148.584C8.205 149.004 8.37 149.334 8.61 149.574C8.67 149.634 8.775 149.694 8.925 149.754C9.045 149.784 9.135 149.814 9.195 149.844C9.285 149.904 9.81 149.964 10.77 150.024C11.73 150.054 12.87 150.084 14.19 150.114C15.51 150.144 16.89 150.159 18.33 150.159C19.74 150.159 20.97 150.114 22.02 150.024C22.89 149.934 23.745 149.709 24.585 149.349C25.395 148.959 25.92 148.329 26.16 147.459C26.22 146.799 26.13 146.184 25.89 145.614C25.62 145.014 25.185 144.564 24.585 144.264C23.895 143.934 23.175 143.799 22.425 143.859C21.645 143.889 20.88 143.829 20.13 143.679C20.19 143.259 20.205 142.794 20.175 142.284C20.145 141.744 20.13 141.204 20.13 140.664C20.13 140.124 20.145 139.599 20.175 139.089C20.205 138.549 20.28 138.069 20.4 137.649C21.96 137.139 23.52 137.004 25.08 137.244C26.61 137.484 27.99 138.009 29.22 138.819C30.45 139.629 31.47 140.694 32.28 142.014C33.06 143.304 33.465 144.774 33.495 146.424C33.645 147.504 33.645 148.614 33.495 149.754C33.375 150.894 33.09 151.959 32.64 152.949C32.16 153.939 31.5 154.779 30.66 155.469C29.82 156.129 28.77 156.519 27.51 156.639C26.43 156.699 25.305 156.744 24.135 156.774C22.965 156.804 21.66 156.834 20.22 156.864C18.75 156.864 17.1 156.864 15.27 156.864C13.41 156.834 11.265 156.804 8.835 156.774C8.325 156.834 7.815 156.819 7.305 156.729C6.765 156.609 6.27 156.459 5.82 156.279C5.04 156.009 4.32 155.679 3.66 155.289C3 154.869 2.415 154.374 1.905 153.804C1.665 153.474 1.47 153.114 1.32 152.724C1.14 152.334 0.989997 151.929 0.869997 151.509C0.419997 150.129 0.239997 148.764 0.329998 147.414C0.419997 146.064 0.734996 144.804 1.275 143.634C1.785 142.434 2.475 141.354 3.345 140.394C4.215 139.434 5.22 138.669 6.36 138.099C7.47 137.529 8.685 137.184 10.005 137.064C11.325 136.944 12.675 137.124 14.055 137.604C14.295 138.714 14.385 139.809 14.325 140.889C14.235 141.939 14.085 143.034 13.875 144.174C13.305 144.264 12.66 144.324 11.94 144.354C11.22 144.354 10.56 144.429 9.96 144.579C9.33 144.729 8.82 145.014 8.43 145.434C8.04 145.824 7.86 146.454 7.89 147.324C7.95 147.714 8.025 148.134 8.115 148.584ZM1.185 117.027C1.185 116.457 1.2 115.947 1.23 115.497L32.73 114.282C32.82 114.792 32.88 115.347 32.91 115.947C32.94 116.517 32.955 117.087 32.955 117.657C32.955 118.197 32.955 118.737 32.955 119.277C32.955 119.787 32.97 120.222 33 120.582L33 120.627C32.01 120.777 30.99 120.882 29.94 120.942C28.86 120.972 27.795 121.002 26.745 121.032C25.695 121.032 24.645 121.047 23.595 121.077C22.545 121.107 21.54 121.182 20.58 121.302L20.535 121.347C20.385 122.217 20.31 123.087 20.31 123.957C20.31 124.827 20.415 125.697 20.625 126.567C21.675 126.657 22.71 126.702 23.73 126.702C24.75 126.672 25.77 126.642 26.79 126.612C27.81 126.582 28.815 126.582 29.805 126.612C30.765 126.612 31.725 126.687 32.685 126.837C32.895 127.197 33 127.677 33 128.277C33 128.877 32.97 129.477 32.91 130.077C32.85 130.677 32.805 131.247 32.775 131.787C32.745 132.297 32.805 132.687 32.955 132.957C32.115 133.017 30.975 133.092 29.535 133.182C28.065 133.242 26.43 133.302 24.63 133.362C22.8 133.422 20.865 133.482 18.825 133.542C16.785 133.572 14.745 133.602 12.705 133.632C10.635 133.662 8.655 133.677 6.765 133.677C4.845 133.647 3.12 133.617 1.59 133.587L1.545 133.587L1.545 133.542L1.545 133.452C1.635 133.002 1.665 132.537 1.635 132.057C1.605 131.547 1.575 131.052 1.545 130.572C1.515 130.062 1.5 129.567 1.5 129.087C1.5 128.607 1.56 128.157 1.68 127.737C3.75 127.467 5.76 127.332 7.71 127.332C9.66 127.332 11.595 127.152 13.515 126.792L13.515 126.747C13.695 125.997 13.755 125.187 13.695 124.317C13.605 123.447 13.53 122.637 13.47 121.887L13.47 121.842C11.4 121.662 9.465 121.572 7.665 121.572C5.865 121.542 3.885 121.572 1.725 121.662C1.60499 121.302 1.5 120.867 1.41 120.357C1.32 119.817 1.26 119.262 1.23 118.692C1.17 118.122 1.155 117.567 1.185 117.027ZM26.835 97.1355C26.925 95.2155 26.94 93.2355 26.88 91.1955L26.97 91.1955C27.93 91.1355 28.935 91.1205 29.985 91.1505C31.005 91.1805 31.965 91.3155 32.865 91.5555C32.835 94.6155 32.88 97.7355 33 100.915C33.09 104.065 33.015 107.095 32.775 110.005C30.165 110.005 27.585 110.035 25.035 110.095C22.455 110.155 19.89 110.2 17.34 110.23C14.79 110.26 12.24 110.26 9.69 110.23C7.14 110.2 4.575 110.11 1.995 109.96C1.935 108.79 1.88999 107.53 1.86 106.18C1.8 104.8 1.755 103.42 1.72499 102.04C1.69499 100.66 1.66499 99.3255 1.635 98.0355C1.605 96.7455 1.59 95.6055 1.59 94.6155C1.59 93.6255 1.605 92.8305 1.63499 92.2305C1.66499 91.6305 1.69499 91.3305 1.72499 91.3305C2.77499 91.1805 3.84 91.1505 4.92 91.2405C6 91.3005 7.065 91.3305 8.11499 91.3305L8.15999 91.3305C8.36999 92.2905 8.505 93.2655 8.56499 94.2555C8.59499 95.2155 8.60999 96.1905 8.60999 97.1805C8.57999 98.1705 8.56499 99.1605 8.56499 100.15C8.56499 101.14 8.60999 102.13 8.7 103.12L8.7 103.255L8.745 103.3C9.61499 103.27 10.515 103.315 11.445 103.435C12.345 103.525 13.2 103.465 14.01 103.255L14.055 103.21C14.115 102.31 14.145 101.395 14.145 100.465C14.145 99.5355 14.16 98.6055 14.19 97.6755L14.235 97.6755C15.255 97.5255 16.275 97.4805 17.295 97.5405C18.315 97.6005 19.38 97.6155 20.49 97.5855C20.61 98.0355 20.685 98.5455 20.715 99.1155C20.715 99.6855 20.715 100.24 20.715 100.78C20.715 101.29 20.73 101.755 20.76 102.175C20.79 102.595 20.865 102.88 20.985 103.03C21.855 103.18 22.83 103.24 23.91 103.21C24.99 103.15 25.89 103.09 26.61 103.03L26.655 102.985C26.655 101.005 26.715 99.0555 26.835 97.1355ZM2.89499 73.9404C3.58499 73.0404 4.36499 72.3204 5.23499 71.7804C6.25499 71.1204 7.31999 70.5804 8.42999 70.1604C9.50999 69.7104 10.65 69.3504 11.85 69.0804C12.33 68.9304 12.81 68.8404 13.29 68.8104C13.74 68.7504 14.205 68.7054 14.685 68.6754C16.095 68.7354 17.52 68.7954 18.96 68.8554C20.37 68.8854 21.765 69.0354 23.145 69.3054C23.175 69.3054 23.19 69.3204 23.19 69.3504C23.19 69.3504 23.205 69.3504 23.235 69.3504C25.005 69.9504 26.685 70.7754 28.275 71.8254C29.865 72.8454 31.365 73.9254 32.775 75.0654C32.835 77.0454 32.88 79.0404 32.91 81.0504C32.91 83.0604 32.91 85.0104 32.91 86.9004C32.91 86.9004 32.925 86.9154 32.955 86.9454C30.585 87.2754 28.14 87.4854 25.62 87.5754C23.07 87.6654 20.49 87.7104 17.88 87.7104C15.27 87.7104 12.645 87.6954 10.005 87.6654C7.33499 87.6054 4.69499 87.6054 2.08499 87.6654C2.05499 87.6354 2.025 87.6204 1.995 87.6204C1.96499 87.5904 1.93499 87.5604 1.90499 87.5304C1.69499 86.6904 1.55999 85.8204 1.49999 84.9204C1.40999 83.9904 1.38 83.0604 1.40999 82.1304C1.40999 81.2004 1.42499 80.2854 1.45499 79.3854C1.48499 78.4554 1.48499 77.5554 1.45499 76.6854C1.69499 75.7254 2.17499 74.8104 2.89499 73.9404ZM22.38 76.5504C22.11 76.3104 21.84 76.1004 21.57 75.9204C20.79 75.4104 19.935 75.0504 19.005 74.8404C18.075 74.6004 17.055 74.6004 15.945 74.8404C15.495 74.9304 15.03 75.0354 14.55 75.1554C14.04 75.2754 13.56 75.4554 13.11 75.6954C12.66 75.9054 12.27 76.1754 11.94 76.5054C11.58 76.8354 11.31 77.2554 11.13 77.7654C11.07 78.2754 11.04 78.8304 11.04 79.4304C11.01 80.0304 11.055 80.6004 11.175 81.1404L11.175 81.2304L11.175 81.2754L11.355 81.2754C12.165 81.2154 13.035 81.1854 13.965 81.1854C14.895 81.1854 15.87 81.2004 16.89 81.2304C17.88 81.2604 18.9 81.2754 19.95 81.2754C20.97 81.2754 21.99 81.2454 23.01 81.1854C23.31 80.8554 23.445 80.4054 23.415 79.8354C23.385 79.2354 23.34 78.6654 23.28 78.1254C23.31 77.9754 23.295 77.8404 23.235 77.7204C23.145 77.6004 23.07 77.4654 23.01 77.3154C22.83 77.0154 22.62 76.7604 22.38 76.5504ZM2.48999 47.1464C2.54999 46.5764 2.68499 46.1114 2.89499 45.7514C6.73499 45.5714 10.62 45.5114 14.55 45.5714C18.45 45.6314 22.335 45.8714 26.205 46.2914C28.185 46.5314 29.865 47.2814 31.245 48.5414C32.625 49.8014 33.42 51.5114 33.63 53.6714C33.75 54.9314 33.69 56.2364 33.45 57.5864C33.24 58.9364 32.85 60.1664 32.28 61.2764C31.68 62.3564 30.9 63.2714 29.94 64.0214C28.95 64.7414 27.765 65.1314 26.385 65.1914C22.425 65.1914 18.435 65.1464 14.415 65.0564C10.395 64.9664 6.40499 64.9514 2.44499 65.0114L2.39999 65.0564L2.39999 65.0114C2.39999 64.5614 2.38499 64.0664 2.35499 63.5264C2.32499 62.9564 2.30999 62.3864 2.30999 61.8164C2.30999 61.2464 2.33999 60.6914 2.39999 60.1514C2.42999 59.6114 2.50499 59.1164 2.62499 58.6664L2.66999 58.6664C9.92999 58.9964 17.295 58.8614 24.765 58.2614C25.485 58.0514 26.01 57.6764 26.34 57.1364C26.67 56.5664 26.82 55.9814 26.79 55.3814C26.76 54.7814 26.55 54.2264 26.16 53.7164C25.77 53.2064 25.23 52.8764 24.54 52.7264C20.94 52.5764 17.28 52.5014 13.56 52.5014C9.83999 52.4714 6.23999 52.4114 2.75999 52.3214C2.72999 51.9314 2.68499 51.4364 2.62499 50.8364C2.53499 50.2064 2.47499 49.5764 2.44499 48.9464C2.41499 48.3164 2.42999 47.7164 2.48999 47.1464ZM28.095 22.7167C28.395 22.7167 28.665 22.7017 28.905 22.6717C29.985 22.6117 30.81 22.5817 31.38 22.5817C31.92 22.5817 32.325 22.6267 32.595 22.7167C32.835 22.7767 32.97 22.8967 33 23.0767C33 23.2567 33 23.5117 33 23.8417C32.97 24.1717 32.97 24.6067 33 25.1467C33.03 25.6567 33.06 26.5417 33.09 27.8017C33.12 29.0317 33.135 30.7417 33.135 32.9317C33.135 35.0917 33.105 37.9867 33.045 41.6167L32.235 41.6167C29.985 41.5267 27.96 41.4517 26.16 41.3917C24.33 41.3317 22.635 41.3017 21.075 41.3017C19.485 41.2717 17.955 41.2567 16.485 41.2567C15.015 41.2567 13.515 41.2717 11.985 41.3017C10.455 41.3317 8.83499 41.3617 7.12499 41.3917C5.38499 41.4217 3.46499 41.4517 1.36499 41.4817C1.24499 41.1817 1.15499 40.7167 1.09499 40.0867C1.00499 39.4567 0.959993 38.7817 0.959993 38.0617C0.959993 37.3417 1.00499 36.6367 1.09499 35.9467C1.18499 35.2567 1.31999 34.7017 1.49999 34.2817C3.44999 34.3417 5.45999 34.3717 7.52999 34.3717C9.56999 34.3417 11.625 34.3117 13.695 34.2817C15.765 34.2517 17.835 34.2367 19.905 34.2367C21.945 34.2067 23.925 34.2067 25.845 34.2367L25.89 34.2367C25.83 34.0267 25.815 33.6367 25.845 33.0667C25.845 32.4667 25.86 31.7767 25.89 30.9967C25.92 30.2167 25.965 29.3917 26.025 28.5217C26.055 27.6217 26.085 26.7817 26.115 26.0017C26.145 25.1917 26.175 24.4867 26.205 23.8867C26.205 23.2567 26.19 22.8217 26.16 22.5817C26.49 22.5817 26.82 22.5967 27.15 22.6267C27.45 22.6567 27.765 22.6867 28.095 22.7167ZM26.835 6.69953C26.925 4.77953 26.94 2.79953 26.88 0.759526L26.97 0.759526C27.93 0.699526 28.935 0.684526 29.985 0.714526C31.005 0.744526 31.965 0.879526 32.865 1.11953C32.835 4.17953 32.88 7.29953 33 10.4795C33.09 13.6295 33.015 16.6595 32.775 19.5695C30.165 19.5695 27.585 19.5995 25.035 19.6595C22.455 19.7195 19.89 19.7645 17.34 19.7945C14.79 19.8245 12.24 19.8245 9.68999 19.7945C7.13999 19.7645 4.57499 19.6745 1.99499 19.5245C1.93499 18.3545 1.88999 17.0945 1.85999 15.7445C1.79999 14.3645 1.75499 12.9845 1.72499 11.6045C1.69499 10.2245 1.66499 8.88953 1.63499 7.59953C1.60499 6.30953 1.58999 5.16953 1.58999 4.17953C1.58999 3.18953 1.60499 2.39453 1.63499 1.79453C1.66499 1.19453 1.69499 0.894528 1.72499 0.894528C2.77499 0.744527 3.83999 0.714527 4.91999 0.804527C5.99999 0.864527 7.06499 0.894528 8.11499 0.894527L8.15999 0.894527C8.36999 1.85453 8.50499 2.82953 8.56499 3.81953C8.59499 4.77953 8.60999 5.75453 8.60999 6.74453C8.57999 7.73453 8.56499 8.72453 8.56499 9.71453C8.56499 10.7045 8.60999 11.6945 8.69999 12.6845L8.69999 12.8195L8.74499 12.8645C9.61499 12.8345 10.515 12.8795 11.445 12.9995C12.345 13.0895 13.2 13.0295 14.01 12.8195L14.055 12.7745C14.115 11.8745 14.145 10.9595 14.145 10.0295C14.145 9.09953 14.16 8.16953 14.19 7.23953L14.235 7.23953C15.255 7.08953 16.275 7.04453 17.295 7.10453C18.315 7.16453 19.38 7.17953 20.49 7.14953C20.61 7.59953 20.685 8.10953 20.715 8.67953C20.715 9.24953 20.715 9.80453 20.715 10.3445C20.715 10.8545 20.73 11.3195 20.76 11.7395C20.79 12.1595 20.865 12.4445 20.985 12.5945C21.855 12.7445 22.83 12.8045 23.91 12.7745C24.99 12.7145 25.89 12.6545 26.61 12.5945L26.655 12.5495C26.655 10.5695 26.715 8.61953 26.835 6.69953Z" fill="#FEDE88"/>
</svg>
