<svg width="141" height="77" viewBox="0 0 141 77" fill="none" xmlns="http://www.w3.org/2000/svg">
<path d="M8.675 8.115C8.255 8.205 7.925 8.37 7.685 8.61C7.625 8.67 7.565 8.775 7.505 8.925C7.475 9.045 7.445 9.135 7.415 9.195C7.355 9.285 7.295 9.81 7.235 10.77C7.205 11.73 7.175 12.87 7.145 14.19C7.115 15.51 7.1 16.89 7.1 18.33C7.1 19.74 7.145 20.97 7.235 22.02C7.325 22.89 7.55 23.745 7.91 24.585C8.3 25.395 8.93 25.92 9.8 26.16C10.46 26.22 11.075 26.13 11.645 25.89C12.245 25.62 12.695 25.185 12.995 24.585C13.325 23.895 13.46 23.175 13.4 22.425C13.37 21.645 13.43 20.88 13.58 20.13C14 20.19 14.465 20.205 14.975 20.175C15.515 20.145 16.055 20.13 16.595 20.13C17.135 20.13 17.66 20.145 18.17 20.175C18.71 20.205 19.19 20.28 19.61 20.4C20.12 21.96 20.255 23.52 20.015 25.08C19.775 26.61 19.25 27.99 18.44 29.22C17.63 30.45 16.565 31.47 15.245 32.28C13.955 33.06 12.485 33.465 10.835 33.495C9.755 33.645 8.645 33.645 7.505 33.495C6.365 33.375 5.3 33.09 4.31 32.64C3.32 32.16 2.48 31.5 1.79 30.66C1.13 29.82 0.74 28.77 0.62 27.51C0.56 26.43 0.515 25.305 0.485 24.135C0.455 22.965 0.425 21.66 0.395 20.22C0.395 18.75 0.395 17.1 0.395 15.27C0.425 13.41 0.455 11.265 0.485 8.835C0.425 8.325 0.44 7.815 0.53 7.305C0.65 6.765 0.8 6.27 0.98 5.82C1.25 5.04 1.58 4.32 1.97 3.66C2.39 3 2.885 2.415 3.455 1.905C3.785 1.665 4.145 1.47 4.535 1.32C4.925 1.14 5.33 0.989998 5.75 0.869998C7.13 0.419998 8.495 0.239999 9.845 0.33C11.195 0.419998 12.455 0.734998 13.625 1.275C14.825 1.785 15.905 2.475 16.865 3.345C17.825 4.215 18.59 5.22 19.16 6.36C19.73 7.47 20.075 8.685 20.195 10.005C20.315 11.325 20.135 12.675 19.655 14.055C18.545 14.295 17.45 14.385 16.37 14.325C15.32 14.235 14.225 14.085 13.085 13.875C12.995 13.305 12.935 12.66 12.905 11.94C12.905 11.22 12.83 10.56 12.68 9.96C12.53 9.33 12.245 8.82 11.825 8.43C11.435 8.04 10.805 7.86 9.935 7.89C9.545 7.95 9.125 8.025 8.675 8.115ZM34.5177 26.835C36.4377 26.925 38.4177 26.94 40.4577 26.88V26.97C40.5177 27.93 40.5327 28.935 40.5027 29.985C40.4727 31.005 40.3377 31.965 40.0977 32.865C37.0377 32.835 33.9177 32.88 30.7377 33C27.5877 33.09 24.5577 33.015 21.6477 32.775C21.6477 30.165 21.6177 27.585 21.5577 25.035C21.4977 22.455 21.4527 19.89 21.4227 17.34C21.3927 14.79 21.3927 12.24 21.4227 9.69C21.4527 7.14 21.5427 4.575 21.6927 1.995C22.8627 1.935 24.1227 1.89 25.4727 1.86C26.8527 1.8 28.2327 1.755 29.6127 1.725C30.9927 1.695 32.3277 1.665 33.6177 1.635C34.9077 1.605 36.0477 1.59 37.0377 1.59C38.0277 1.59 38.8227 1.605 39.4227 1.635C40.0227 1.665 40.3227 1.695 40.3227 1.725C40.4727 2.775 40.5027 3.84 40.4127 4.92C40.3527 6 40.3227 7.065 40.3227 8.115V8.16C39.3627 8.37 38.3877 8.505 37.3977 8.565C36.4377 8.595 35.4627 8.61 34.4727 8.61C33.4827 8.58 32.4927 8.565 31.5027 8.565C30.5127 8.565 29.5227 8.61 28.5327 8.7H28.3977L28.3527 8.745C28.3827 9.615 28.3377 10.515 28.2177 11.445C28.1277 12.345 28.1877 13.2 28.3977 14.01L28.4427 14.055C29.3427 14.115 30.2577 14.145 31.1877 14.145C32.1177 14.145 33.0477 14.16 33.9777 14.19V14.235C34.1277 15.255 34.1727 16.275 34.1127 17.295C34.0527 18.315 34.0377 19.38 34.0677 20.49C33.6177 20.61 33.1077 20.685 32.5377 20.715C31.9677 20.715 31.4127 20.715 30.8727 20.715C30.3627 20.715 29.8977 20.73 29.4777 20.76C29.0577 20.79 28.7727 20.865 28.6227 20.985C28.4727 21.855 28.4127 22.83 28.4427 23.91C28.5027 24.99 28.5627 25.89 28.6227 26.61L28.6677 26.655C30.6477 26.655 32.5977 26.715 34.5177 26.835ZM60.0977 33.135C59.8877 33.195 59.5277 33.225 59.0177 33.225C58.4177 33.225 57.7277 33.18 56.9477 33.09C56.1677 33.03 55.4777 33 54.8777 33C53.8877 30.78 52.8977 28.635 51.9077 26.565C50.9477 24.465 50.1227 22.455 49.4327 20.535L48.9827 19.185C48.8627 18.855 48.7427 18.555 48.6227 18.285C48.5327 17.985 48.4577 17.835 48.3977 17.835C48.3677 17.835 48.3227 18.195 48.2627 18.915C48.2327 19.635 48.2027 20.55 48.1727 21.66C48.1427 22.77 48.1127 24 48.0827 25.35C48.0827 26.7 48.0827 28.005 48.0827 29.265C48.0827 29.955 48.0827 30.63 48.0827 31.29C48.0827 31.92 48.0977 32.49 48.1277 33C47.7977 33.09 47.4677 33.15 47.1377 33.18C46.8077 33.21 46.4777 33.225 46.1477 33.225C45.4277 33.225 44.6927 33.18 43.9427 33.09C43.2227 33 42.5177 32.955 41.8277 32.955V29.805C41.8277 26.955 41.7977 24.24 41.7377 21.66C41.7077 19.08 41.6927 16.38 41.6927 13.56C41.6927 11.49 41.7227 9.45 41.7827 7.44C41.8427 5.4 41.9477 3.42 42.0977 1.5C42.3977 1.44 42.7127 1.395 43.0427 1.365C43.4027 1.335 43.7627 1.32 44.1227 1.32C44.3027 1.32 44.6027 1.335 45.0227 1.365C45.4427 1.365 45.8627 1.395 46.2827 1.455C46.7027 1.485 47.0627 1.53 47.3627 1.59C47.6927 1.65 47.8577 1.71 47.8577 1.77C48.0677 2.31 48.2627 2.76 48.4427 3.12C48.6227 3.48 48.7877 3.825 48.9377 4.155C49.1177 4.485 49.2977 4.86 49.4777 5.28C49.6877 5.67 49.9277 6.18 50.1977 6.81C50.2577 6.96 50.3927 7.245 50.6027 7.665C50.8127 8.085 51.0527 8.58 51.3227 9.15C51.5927 9.69 51.8777 10.275 52.1777 10.905C52.4777 11.505 52.7477 12.06 52.9877 12.57C53.2577 13.05 53.4827 13.47 53.6627 13.83C53.8427 14.16 53.9477 14.325 53.9777 14.325C54.0677 14.265 54.1427 13.965 54.2027 13.425C54.2627 12.885 54.2927 12.36 54.2927 11.85C54.2927 10.65 54.2627 9.54 54.2027 8.52C54.1727 7.47 54.1577 6.405 54.1577 5.325C54.1577 4.695 54.1577 4.065 54.1577 3.435C54.1877 2.775 54.2177 2.07 54.2477 1.32C55.2677 1.14 56.3477 1.05 57.4877 1.05C58.5977 1.05 59.5877 1.14 60.4577 1.32V15.81C60.4877 17.07 60.5027 18.345 60.5027 19.635C60.5027 20.925 60.5027 22.215 60.5027 23.505C60.5027 24.375 60.4877 25.215 60.4577 26.025C60.4577 26.835 60.4577 27.66 60.4577 28.5C60.4577 29.1 60.4577 29.7 60.4577 30.3C60.4877 30.9 60.5027 31.5 60.5027 32.1V33C60.4427 33.03 60.3077 33.075 60.0977 33.135ZM70.8998 1.275C74.1698 1.245 77.3498 1.395 80.4398 1.725C80.4998 2.715 80.5148 3.855 80.4848 5.145C80.4848 6.435 80.4098 7.62 80.2598 8.7C79.6898 8.58 78.9848 8.535 78.1448 8.565C77.3048 8.595 76.1798 8.64 74.7698 8.7H74.6798H74.6348C74.6348 8.73 74.6198 8.76 74.5898 8.79C74.5898 8.79 74.5898 8.805 74.5898 8.835C74.5598 8.985 74.5298 9.225 74.4998 9.555C74.4998 9.855 74.4998 10.35 74.4998 11.04C74.4998 11.7 74.4998 12.585 74.4998 13.695C74.5298 14.775 74.5598 16.185 74.5898 17.925C74.6198 19.635 74.6498 21.705 74.6798 24.135C74.7098 26.535 74.7548 29.37 74.8148 32.64V32.685V32.73C74.2748 32.82 73.6748 32.88 73.0148 32.91C72.3848 32.91 71.7398 32.91 71.0798 32.91C70.4498 32.91 69.8198 32.91 69.1898 32.91C68.5598 32.91 67.9748 32.955 67.4348 33.045C67.4048 32.925 67.4048 32.385 67.4348 31.425C67.4648 30.465 67.4798 29.04 67.4798 27.15C67.5098 25.23 67.4948 22.785 67.4348 19.815C67.4048 16.845 67.2998 13.26 67.1198 9.06L67.0748 9.015C66.7148 8.835 66.2648 8.73 65.7248 8.7C65.1848 8.64 64.6448 8.61 64.1048 8.61C63.5648 8.58 63.0698 8.565 62.6198 8.565C62.1698 8.565 61.8548 8.535 61.6748 8.475C61.6148 8.355 61.5548 8.055 61.4948 7.575C61.4648 7.095 61.4348 6.525 61.4048 5.865C61.4048 5.175 61.4048 4.44 61.4048 3.66C61.4048 2.88 61.4348 2.13 61.4948 1.41C61.4948 1.38 61.4798 1.365 61.4498 1.365C61.4498 1.365 61.4498 1.35 61.4498 1.32C64.5098 1.29 67.6598 1.275 70.8998 1.275ZM101.156 29.31C101.816 30.45 102.371 31.635 102.821 32.865H102.866C101.816 32.865 100.646 32.91 99.356 33C98.066 33.06 96.746 33.045 95.396 32.955H95.351C95.051 32.265 94.676 31.44 94.226 30.48C93.776 29.52 93.281 28.515 92.741 27.465C92.201 26.415 91.616 25.38 90.986 24.36C90.356 23.34 89.726 22.44 89.096 21.66L89.006 21.525C88.916 22.215 88.871 23.07 88.871 24.09C88.871 25.08 88.886 26.115 88.916 27.195C88.976 28.245 89.036 29.25 89.096 30.21C89.156 31.17 89.201 31.935 89.231 32.505C88.721 32.715 88.046 32.85 87.206 32.91C86.396 32.97 85.586 33 84.776 33C83.966 33.03 83.231 33.03 82.571 33C81.941 32.97 81.551 32.97 81.401 33C81.461 33 81.506 32.595 81.536 31.785C81.566 30.945 81.581 29.85 81.581 28.5C81.581 27.15 81.581 25.605 81.581 23.865C81.581 22.095 81.566 20.28 81.536 18.42C81.536 16.53 81.506 14.67 81.446 12.84C81.416 10.98 81.386 9.285 81.356 7.755C81.326 6.195 81.281 4.875 81.221 3.795C81.191 2.685 81.146 1.935 81.086 1.545C82.766 1.305 84.611 1.08 86.621 0.869998C88.631 0.659999 90.731 0.674999 92.921 0.914997C94.691 1.005 96.281 1.515 97.691 2.445C99.101 3.375 100.196 4.53 100.976 5.91C101.756 7.29 102.161 8.82 102.191 10.5C102.251 12.15 101.816 13.755 100.886 15.315C100.316 16.395 99.551 17.295 98.591 18.015C97.661 18.735 96.476 19.14 95.036 19.23H94.856H94.811V19.275C95.441 20.385 96.131 21.495 96.881 22.605C97.631 23.685 98.366 24.78 99.086 25.89C99.806 27 100.496 28.14 101.156 29.31ZM90.761 7.17C89.741 7.2 88.706 7.425 87.656 7.845C87.686 8.235 87.701 8.685 87.701 9.195C87.731 9.675 87.746 10.17 87.746 10.68C87.746 11.19 87.746 11.685 87.746 12.165C87.776 12.645 87.821 13.05 87.881 13.38H87.926C88.616 13.44 89.366 13.485 90.176 13.515C90.986 13.545 91.751 13.5 92.471 13.38C93.041 13.26 93.476 12.975 93.776 12.525C94.106 12.045 94.301 11.535 94.361 10.995C94.421 10.425 94.361 9.87 94.181 9.33C94.001 8.76 93.701 8.31 93.281 7.98C92.621 7.38 91.781 7.11 90.761 7.17ZM117.337 15.135C117.547 16.005 117.712 16.695 117.832 17.205L121.207 32.955V33C120.307 33.18 119.317 33.24 118.237 33.18C117.157 33.15 116.137 33.03 115.177 32.82H115.132C114.952 32.34 114.772 31.77 114.592 31.11C114.442 30.45 114.277 29.775 114.097 29.085C113.947 28.395 113.782 27.735 113.602 27.105C113.422 26.475 113.227 25.935 113.017 25.485C112.627 25.425 112.327 25.395 112.117 25.395C111.907 25.395 111.712 25.395 111.532 25.395C111.382 25.395 111.202 25.41 110.992 25.44C110.812 25.44 110.557 25.44 110.227 25.44C110.017 25.92 109.837 26.49 109.687 27.15C109.567 27.78 109.432 28.455 109.282 29.175C109.162 29.865 109.027 30.54 108.877 31.2C108.727 31.86 108.517 32.445 108.247 32.955C108.217 32.955 108.187 32.97 108.157 33C108.157 33 108.142 33 108.112 33C107.872 33.06 107.272 33.06 106.312 33C105.352 32.94 103.852 32.925 101.812 32.955C101.782 32.955 101.752 32.94 101.722 32.91C101.782 32.7 101.887 32.115 102.037 31.155C102.187 30.195 102.397 28.95 102.667 27.42C102.937 25.89 103.252 24.135 103.612 22.155C104.002 20.145 104.452 18.015 104.962 15.765C105.472 13.515 106.027 11.175 106.627 8.745C107.227 6.315 107.887 3.9 108.607 1.5C108.817 1.47 109.042 1.455 109.282 1.455C109.522 1.455 109.837 1.455 110.227 1.455C110.617 1.455 111.112 1.455 111.712 1.455C112.342 1.425 113.152 1.365 114.142 1.275C114.232 1.665 114.367 2.265 114.547 3.075C114.757 3.855 114.967 4.755 115.177 5.775C115.417 6.765 115.657 7.83 115.897 8.97C116.167 10.11 116.422 11.205 116.662 12.255C116.902 13.305 117.127 14.265 117.337 15.135ZM111.532 20.175C112.102 20.145 112.672 20.13 113.242 20.13C112.942 17.55 112.672 15.54 112.432 14.1C112.222 12.66 112.027 11.685 111.847 11.175C111.697 10.665 111.532 10.56 111.352 10.86C111.202 11.13 111.052 11.7 110.902 12.57C110.782 13.44 110.632 14.535 110.452 15.855C110.302 17.175 110.122 18.6 109.912 20.13C110.422 20.16 110.962 20.175 111.532 20.175ZM140.224 28.095C140.224 28.395 140.239 28.665 140.269 28.905C140.329 29.985 140.359 30.81 140.359 31.38C140.359 31.92 140.314 32.325 140.224 32.595C140.164 32.835 140.044 32.97 139.864 33C139.684 33 139.429 33 139.099 33C138.769 32.97 138.334 32.97 137.794 33C137.284 33.03 136.399 33.06 135.139 33.09C133.909 33.12 132.199 33.135 130.009 33.135C127.849 33.135 124.954 33.105 121.324 33.045V32.235C121.414 29.985 121.489 27.96 121.549 26.16C121.609 24.33 121.639 22.635 121.639 21.075C121.669 19.485 121.684 17.955 121.684 16.485C121.684 15.015 121.669 13.515 121.639 11.985C121.609 10.455 121.579 8.835 121.549 7.125C121.519 5.385 121.489 3.465 121.459 1.365C121.759 1.245 122.224 1.155 122.854 1.095C123.484 1.005 124.159 0.959999 124.879 0.959999C125.599 0.959999 126.304 1.005 126.994 1.095C127.684 1.185 128.239 1.32 128.659 1.5C128.599 3.45 128.569 5.46 128.569 7.53C128.599 9.57 128.629 11.625 128.659 13.695C128.689 15.765 128.704 17.835 128.704 19.905C128.734 21.945 128.734 23.925 128.704 25.845V25.89C128.914 25.83 129.304 25.815 129.874 25.845C130.474 25.845 131.164 25.86 131.944 25.89C132.724 25.92 133.549 25.965 134.419 26.025C135.319 26.055 136.159 26.085 136.939 26.115C137.749 26.145 138.454 26.175 139.054 26.205C139.684 26.205 140.119 26.19 140.359 26.16C140.359 26.49 140.344 26.82 140.314 27.15C140.284 27.45 140.254 27.765 140.224 28.095ZM13.895 69.835C15.815 69.925 17.795 69.94 19.835 69.88V69.97C19.895 70.93 19.91 71.935 19.88 72.985C19.85 74.005 19.715 74.965 19.475 75.865C16.415 75.835 13.295 75.88 10.115 76C6.965 76.09 3.935 76.015 1.025 75.775C1.025 73.165 0.995 70.585 0.935 68.035C0.875 65.455 0.83 62.89 0.8 60.34C0.77 57.79 0.77 55.24 0.8 52.69C0.83 50.14 0.92 47.575 1.07 44.995C2.24 44.935 3.5 44.89 4.85 44.86C6.23 44.8 7.61 44.755 8.99 44.725C10.37 44.695 11.705 44.665 12.995 44.635C14.285 44.605 15.425 44.59 16.415 44.59C17.405 44.59 18.2 44.605 18.8 44.635C19.4 44.665 19.7 44.695 19.7 44.725C19.85 45.775 19.88 46.84 19.79 47.92C19.73 49 19.7 50.065 19.7 51.115V51.16C18.74 51.37 17.765 51.505 16.775 51.565C15.815 51.595 14.84 51.61 13.85 51.61C12.86 51.58 11.87 51.565 10.88 51.565C9.89 51.565 8.9 51.61 7.91 51.7H7.775L7.73 51.745C7.76 52.615 7.715 53.515 7.595 54.445C7.505 55.345 7.565 56.2 7.775 57.01L7.82 57.055C8.72 57.115 9.635 57.145 10.565 57.145C11.495 57.145 12.425 57.16 13.355 57.19V57.235C13.505 58.255 13.55 59.275 13.49 60.295C13.43 61.315 13.415 62.38 13.445 63.49C12.995 63.61 12.485 63.685 11.915 63.715C11.345 63.715 10.79 63.715 10.25 63.715C9.74 63.715 9.275 63.73 8.855 63.76C8.435 63.79 8.15 63.865 8 63.985C7.85 64.855 7.79 65.83 7.82 66.91C7.88 67.99 7.94 68.89 8 69.61L8.045 69.655C10.025 69.655 11.975 69.715 13.895 69.835ZM37.72 45.085C38.29 45.085 38.83 45.13 39.34 45.22C38.83 47.89 38.275 50.5 37.675 53.05C37.105 55.6 36.505 58.135 35.875 60.655C35.245 63.175 34.6 65.71 33.94 68.26C33.28 70.78 32.59 73.345 31.87 75.955C31.63 75.955 31.255 75.985 30.745 76.045C30.235 76.105 29.665 76.135 29.035 76.135C28.375 76.135 27.7 76.105 27.01 76.045C26.35 76.015 25.78 75.925 25.3 75.775C23.95 70.915 22.84 65.935 21.97 60.835C21.1 55.705 20.455 50.545 20.035 45.355V45.31C20.215 45.1 20.605 44.95 21.205 44.86C21.805 44.77 22.45 44.725 23.14 44.725C23.83 44.695 24.49 44.695 25.12 44.725C25.75 44.755 26.185 44.8 26.425 44.86C26.545 45.46 26.62 46.435 26.65 47.785C26.68 49.135 26.755 50.755 26.875 52.645C26.995 54.535 27.19 56.62 27.46 58.9C27.76 61.18 28.21 63.535 28.81 65.965C29.38 63.535 29.845 61.315 30.205 59.305C30.565 57.265 30.88 55.39 31.15 53.68C31.42 51.97 31.675 50.395 31.915 48.955C32.155 47.515 32.44 46.165 32.77 44.905C32.77 44.845 32.8 44.815 32.86 44.815C33.37 44.935 33.895 45.01 34.435 45.04C34.975 45.04 35.515 45.04 36.055 45.04C36.625 45.04 37.18 45.055 37.72 45.085ZM52.6794 69.835C54.5994 69.925 56.5794 69.94 58.6194 69.88V69.97C58.6794 70.93 58.6944 71.935 58.6644 72.985C58.6344 74.005 58.4994 74.965 58.2594 75.865C55.1994 75.835 52.0794 75.88 48.8994 76C45.7494 76.09 42.7194 76.015 39.8094 75.775C39.8094 73.165 39.7794 70.585 39.7194 68.035C39.6594 65.455 39.6144 62.89 39.5844 60.34C39.5544 57.79 39.5544 55.24 39.5844 52.69C39.6144 50.14 39.7044 47.575 39.8544 44.995C41.0244 44.935 42.2844 44.89 43.6344 44.86C45.0144 44.8 46.3944 44.755 47.7744 44.725C49.1544 44.695 50.4894 44.665 51.7794 44.635C53.0694 44.605 54.2094 44.59 55.1994 44.59C56.1894 44.59 56.9844 44.605 57.5844 44.635C58.1844 44.665 58.4844 44.695 58.4844 44.725C58.6344 45.775 58.6644 46.84 58.5744 47.92C58.5144 49 58.4844 50.065 58.4844 51.115V51.16C57.5244 51.37 56.5494 51.505 55.5594 51.565C54.5994 51.595 53.6244 51.61 52.6344 51.61C51.6444 51.58 50.6544 51.565 49.6644 51.565C48.6744 51.565 47.6844 51.61 46.6944 51.7H46.5594L46.5144 51.745C46.5444 52.615 46.4994 53.515 46.3794 54.445C46.2894 55.345 46.3494 56.2 46.5594 57.01L46.6044 57.055C47.5044 57.115 48.4194 57.145 49.3494 57.145C50.2794 57.145 51.2094 57.16 52.1394 57.19V57.235C52.2894 58.255 52.3344 59.275 52.2744 60.295C52.2144 61.315 52.1994 62.38 52.2294 63.49C51.7794 63.61 51.2694 63.685 50.6994 63.715C50.1294 63.715 49.5744 63.715 49.0344 63.715C48.5244 63.715 48.0594 63.73 47.6394 63.76C47.2194 63.79 46.9344 63.865 46.7844 63.985C46.6344 64.855 46.5744 65.83 46.6044 66.91C46.6644 67.99 46.7244 68.89 46.7844 69.61L46.8294 69.655C48.8094 69.655 50.7594 69.715 52.6794 69.835ZM78.2594 76.135C78.0494 76.195 77.6894 76.225 77.1794 76.225C76.5794 76.225 75.8894 76.18 75.1094 76.09C74.3294 76.03 73.6394 76 73.0394 76C72.0494 73.78 71.0594 71.635 70.0694 69.565C69.1094 67.465 68.2844 65.455 67.5944 63.535L67.1444 62.185C67.0244 61.855 66.9044 61.555 66.7844 61.285C66.6944 60.985 66.6194 60.835 66.5594 60.835C66.5294 60.835 66.4844 61.195 66.4244 61.915C66.3944 62.635 66.3644 63.55 66.3344 64.66C66.3044 65.77 66.2744 67 66.2444 68.35C66.2444 69.7 66.2444 71.005 66.2444 72.265C66.2444 72.955 66.2444 73.63 66.2444 74.29C66.2444 74.92 66.2594 75.49 66.2894 76C65.9594 76.09 65.6294 76.15 65.2994 76.18C64.9694 76.21 64.6394 76.225 64.3094 76.225C63.5894 76.225 62.8544 76.18 62.1044 76.09C61.3844 76 60.6794 75.955 59.9894 75.955V72.805C59.9894 69.955 59.9594 67.24 59.8994 64.66C59.8694 62.08 59.8544 59.38 59.8544 56.56C59.8544 54.49 59.8844 52.45 59.9444 50.44C60.0044 48.4 60.1094 46.42 60.2594 44.5C60.5594 44.44 60.8744 44.395 61.2044 44.365C61.5644 44.335 61.9244 44.32 62.2844 44.32C62.4644 44.32 62.7644 44.335 63.1844 44.365C63.6044 44.365 64.0244 44.395 64.4444 44.455C64.8644 44.485 65.2244 44.53 65.5244 44.59C65.8544 44.65 66.0194 44.71 66.0194 44.77C66.2294 45.31 66.4244 45.76 66.6044 46.12C66.7844 46.48 66.9494 46.825 67.0994 47.155C67.2794 47.485 67.4594 47.86 67.6394 48.28C67.8494 48.67 68.0894 49.18 68.3594 49.81C68.4194 49.96 68.5544 50.245 68.7644 50.665C68.9744 51.085 69.2144 51.58 69.4844 52.15C69.7544 52.69 70.0394 53.275 70.3394 53.905C70.6394 54.505 70.9094 55.06 71.1494 55.57C71.4194 56.05 71.6444 56.47 71.8244 56.83C72.0044 57.16 72.1094 57.325 72.1394 57.325C72.2294 57.265 72.3044 56.965 72.3644 56.425C72.4244 55.885 72.4544 55.36 72.4544 54.85C72.4544 53.65 72.4244 52.54 72.3644 51.52C72.3344 50.47 72.3194 49.405 72.3194 48.325C72.3194 47.695 72.3194 47.065 72.3194 46.435C72.3494 45.775 72.3794 45.07 72.4094 44.32C73.4294 44.14 74.5094 44.05 75.6494 44.05C76.7594 44.05 77.7494 44.14 78.6194 44.32L78.6194 58.81C78.6494 60.07 78.6644 61.345 78.6644 62.635C78.6644 63.925 78.6644 65.215 78.6644 66.505C78.6644 67.375 78.6494 68.215 78.6194 69.025C78.6194 69.835 78.6194 70.66 78.6194 71.5C78.6194 72.1 78.6194 72.7 78.6194 73.3C78.6494 73.9 78.6644 74.5 78.6644 75.1V76C78.6044 76.03 78.4694 76.075 78.2594 76.135ZM89.0615 44.275C92.3315 44.245 95.5115 44.395 98.6015 44.725C98.6615 45.715 98.6765 46.855 98.6465 48.145C98.6465 49.435 98.5715 50.62 98.4215 51.7C97.8515 51.58 97.1465 51.535 96.3065 51.565C95.4665 51.595 94.3415 51.64 92.9315 51.7H92.8415H92.7965C92.7965 51.73 92.7815 51.76 92.7515 51.79C92.7515 51.79 92.7515 51.805 92.7515 51.835C92.7215 51.985 92.6915 52.225 92.6615 52.555C92.6615 52.855 92.6615 53.35 92.6615 54.04C92.6615 54.7 92.6615 55.585 92.6615 56.695C92.6915 57.775 92.7215 59.185 92.7515 60.925C92.7815 62.635 92.8115 64.705 92.8415 67.135C92.8715 69.535 92.9165 72.37 92.9765 75.64V75.685V75.73C92.4365 75.82 91.8365 75.88 91.1765 75.91C90.5465 75.91 89.9015 75.91 89.2415 75.91C88.6115 75.91 87.9815 75.91 87.3515 75.91C86.7215 75.91 86.1365 75.955 85.5965 76.045C85.5665 75.925 85.5665 75.385 85.5965 74.425C85.6265 73.465 85.6415 72.04 85.6415 70.15C85.6715 68.23 85.6565 65.785 85.5965 62.815C85.5665 59.845 85.4615 56.26 85.2815 52.06L85.2365 52.015C84.8765 51.835 84.4265 51.73 83.8865 51.7C83.3465 51.64 82.8065 51.61 82.2665 51.61C81.7265 51.58 81.2315 51.565 80.7815 51.565C80.3315 51.565 80.0165 51.535 79.8365 51.475C79.7765 51.355 79.7165 51.055 79.6565 50.575C79.6265 50.095 79.5965 49.525 79.5665 48.865C79.5665 48.175 79.5665 47.44 79.5665 46.66C79.5665 45.88 79.5965 45.13 79.6565 44.41C79.6565 44.38 79.6415 44.365 79.6115 44.365C79.6115 44.365 79.6115 44.35 79.6115 44.32C82.6715 44.29 85.8215 44.275 89.0615 44.275ZM118.058 49.09C118.838 50.56 119.018 52.42 118.598 54.67H118.553C117.503 54.85 116.378 54.97 115.178 55.03C113.978 55.06 112.853 54.925 111.803 54.625C111.983 53.815 111.818 53.14 111.308 52.6C110.798 52.06 110.183 51.715 109.463 51.565C108.743 51.415 108.038 51.49 107.348 51.79C106.688 52.09 106.298 52.66 106.178 53.5C106.118 53.71 106.088 53.92 106.088 54.13C106.118 54.31 106.148 54.505 106.178 54.715C106.418 55.435 106.808 55.915 107.348 56.155C107.888 56.395 108.473 56.56 109.103 56.65C110.693 56.83 112.163 57.34 113.513 58.18C114.893 59.02 116.018 60.085 116.888 61.375C117.428 62.065 117.833 62.815 118.103 63.625C118.373 64.405 118.523 65.215 118.553 66.055C118.613 66.895 118.553 67.75 118.373 68.62C118.223 69.46 117.968 70.27 117.608 71.05C117.248 71.98 116.768 72.775 116.168 73.435C115.568 74.095 114.878 74.635 114.098 75.055C113.348 75.475 112.523 75.79 111.623 76C110.753 76.18 109.853 76.255 108.923 76.225C107.603 76.195 106.283 75.97 104.963 75.55C103.673 75.1 102.518 74.485 101.498 73.705C100.478 72.925 99.6677 71.98 99.0677 70.87C98.4677 69.73 98.2127 68.44 98.3027 67V66.865V66.73C99.3527 66.58 100.508 66.55 101.768 66.64C103.028 66.7 104.168 66.715 105.188 66.685C105.248 67.645 105.623 68.365 106.313 68.845C107.033 69.325 107.783 69.565 108.563 69.565C109.373 69.535 110.063 69.265 110.633 68.755C111.233 68.245 111.443 67.465 111.263 66.415C111.173 65.695 110.903 65.125 110.453 64.705C110.003 64.255 109.463 63.895 108.833 63.625C108.233 63.355 107.573 63.16 106.853 63.04C106.133 62.89 105.458 62.755 104.828 62.635C104.228 62.515 103.673 62.32 103.163 62.05C102.653 61.78 102.188 61.465 101.768 61.105C100.388 59.785 99.4877 58.33 99.0677 56.74C98.6777 55.15 98.6627 53.605 99.0227 52.105C99.3827 50.605 100.058 49.24 101.048 48.01C102.068 46.78 103.298 45.865 104.738 45.265C105.458 44.965 106.253 44.77 107.123 44.68C107.993 44.56 108.863 44.53 109.733 44.59C110.633 44.62 111.503 44.74 112.343 44.95C113.213 45.16 114.008 45.43 114.728 45.76C116.168 46.51 117.278 47.62 118.058 49.09Z" fill="#FEDE88"/>
</svg>
