<svg width="562" height="429" viewBox="0 0 562 429" fill="none" xmlns="http://www.w3.org/2000/svg">
<path d="M12.127 415.468C45.0441 400.229 114.023 351.408 126.602 278.035H569.038C581.679 351.408 650.998 400.229 684.078 415.468L347.275 416.879L12.127 415.468Z" fill="#DB2525"/>
<path d="M300.697 361.782L347 279.963L399.367 361.782L392.752 422.388H307.036L300.697 361.782Z" fill="#54180E"/>
<path fill-rule="evenodd" clip-rule="evenodd" d="M311.445 279.688L283.884 353.242L278.923 418.807H324.124C322.103 404.298 316.737 373.077 311.445 364.261C319.898 359.486 338.456 338.917 345.071 294.839L348.378 290.983L351.685 294.839C358.3 338.917 376.858 359.486 385.31 364.261C380.019 373.077 374.653 404.298 372.632 418.807H417.833L412.872 353.242L385.31 279.688H348.378H311.445Z" fill="#FBD13D"/>
<path d="M73.0381 418.807C126.838 377.154 143.228 308.338 144.698 279.137H179.977C175.567 342.608 139.737 398.697 122.373 418.807H73.0381Z" fill="#FDEAEA"/>
<path d="M617.379 418.807C563.579 377.154 547.189 308.338 545.719 279.137H510.44C514.85 342.608 550.68 398.697 568.044 418.807H617.379Z" fill="#FDEAEA"/>
<path d="M520.638 421.562C488.115 376.383 473.875 311.093 472.405 281.892H434.646C439.055 345.363 455.041 401.452 472.405 421.562H520.638Z" fill="#FDEAEA"/>
<path d="M171.984 418.807C204.507 373.628 218.747 308.338 220.217 279.137H257.976C253.566 342.608 237.58 398.697 220.217 418.807H171.984Z" fill="#FDEAEA"/>
<rect y="413.573" width="694" height="15.4271" rx="7.71355" fill="#592919"/>
<path d="M130.642 280.239H142.217V296.217L136.43 291.258L130.642 296.217V280.239Z" fill="#FBD13D"/>
<path d="M157.101 280.239H168.676V296.217L162.889 291.258L157.101 296.217V280.239Z" fill="#FBD13D"/>
<path d="M183.56 280.239H195.135V296.217L189.347 291.258L183.56 296.217V280.239Z" fill="#FBD13D"/>
<path d="M210.019 280.239H221.595V296.217L215.807 291.258L210.019 296.217V280.239Z" fill="#FBD13D"/>
<path d="M236.478 280.239H248.054V296.217L242.266 291.258L236.478 296.217V280.239Z" fill="#FBD13D"/>
<path d="M262.937 280.239H274.513V296.217L268.725 291.258L262.937 296.217V280.239Z" fill="#FBD13D"/>
<path d="M289.396 280.239H300.972V296.217L295.184 291.258L289.396 296.217V280.239Z" fill="#FBD13D"/>
<path d="M315.855 280.239H327.431V296.217L321.643 291.258L315.855 296.217V280.239Z" fill="#FBD13D"/>
<path d="M368.773 280.239H380.349V296.217L374.561 291.258L368.773 296.217V280.239Z" fill="#FBD13D"/>
<path d="M395.232 280.239H406.808V296.217L401.02 291.258L395.232 296.217V280.239Z" fill="#FBD13D"/>
<path d="M421.691 280.239H433.267V296.217L427.479 291.258L421.691 296.217V280.239Z" fill="#FBD13D"/>
<path d="M448.151 280.239H459.727V296.217L453.939 291.258L448.151 296.217V280.239Z" fill="#FBD13D"/>
<path d="M474.61 280.239H486.186V296.217L480.398 291.258L474.61 296.217V280.239Z" fill="#FBD13D"/>
<path d="M501.069 280.239H512.645V296.217L506.857 291.258L501.069 296.217V280.239Z" fill="#FBD13D"/>
<path d="M527.528 280.239H539.104V296.217L533.316 291.258L527.528 296.217V280.239Z" fill="#FBD13D"/>
<path d="M553.987 280.239H565.563V296.217L559.775 291.258L553.987 296.217V280.239Z" fill="#FBD13D"/>
<path d="M132.847 273.076C164.773 268.115 237.738 234.345 240.041 116.058C240.059 115.154 240.795 114.397 241.7 114.397H244.501C245.406 114.397 246.142 115.154 246.16 116.058C248.475 234.345 321.805 268.115 353.89 273.076H132.847Z" fill="#CC2626"/>
<path d="M173.362 274.729C225.619 259.522 241.991 167.107 243.093 128.723C243.093 216.602 221.871 252.69 209.468 274.729H173.362Z" fill="#FDEAEA"/>
<path d="M312.824 274.729C260.567 259.522 244.195 167.107 243.093 128.723C243.093 216.602 264.315 252.69 276.718 274.729H312.824Z" fill="#FDEAEA"/>
<path d="M243.093 92.9097V116.326" stroke="#992222" stroke-width="3" stroke-linecap="round"/>
<path d="M243.644 93.4606H269.552L262.662 101.174L269.552 108.337H243.644V93.4606Z" fill="#F6800E"/>
<path fill-rule="evenodd" clip-rule="evenodd" d="M244.468 114.397H241.667C240.762 114.397 240.026 115.154 240.008 116.058C239.822 125.594 239.178 134.581 238.132 143.048H248.013C246.962 134.581 246.314 125.594 246.127 116.058C246.109 115.154 245.373 114.397 244.468 114.397Z" fill="#FABF4D"/>
<path d="M351.686 274.729C383.612 269.768 456.576 235.998 458.88 117.711C458.898 116.807 459.634 116.05 460.539 116.05H463.34C464.245 116.05 464.981 116.807 464.999 117.711C467.314 235.998 540.644 269.768 572.729 274.729H351.686Z" fill="#CC2626"/>
<path d="M392.201 276.382C444.458 261.175 460.829 168.76 461.932 130.375C461.932 218.255 440.71 254.343 428.307 276.382H392.201Z" fill="#FDEAEA"/>
<path d="M531.663 276.382C479.406 261.175 463.034 168.76 461.932 130.375C461.932 218.255 483.154 254.343 495.557 276.382H531.663Z" fill="#FDEAEA"/>
<path d="M461.932 93.4606V116.877" stroke="#992222" stroke-width="3" stroke-linecap="round"/>
<path d="M462.483 94.0116H488.391L481.5 101.725L488.391 108.888H462.483V94.0116Z" fill="#F6800E"/>
<path fill-rule="evenodd" clip-rule="evenodd" d="M463.307 116.05H460.506C459.601 116.05 458.865 116.807 458.847 117.711C458.661 127.247 458.016 136.234 456.971 144.701H466.852C465.801 136.234 465.153 127.247 464.966 117.711C464.948 116.807 464.212 116.05 463.307 116.05Z" fill="#FABF4D"/>
<path fill-rule="evenodd" clip-rule="evenodd" d="M144.974 273.076C187.362 266.489 269.061 232.306 312.876 132.028H383.013C427.047 232.306 509.155 266.489 551.755 273.076H144.974Z" fill="#DB2525"/>
<path d="M215.531 276.106C280.301 250.762 311.17 174.453 317.785 132.579H329.36C317.785 212.194 294.909 259.026 280.577 276.106H215.531Z" fill="#FDEAEA"/>
<path d="M478.469 276.657C413.699 251.313 382.83 175.004 376.215 133.13H364.64C376.215 212.745 399.091 259.577 413.423 276.657H478.469Z" fill="#FDEAEA"/>
<path d="M354.441 135.61H341.763C339.558 202.828 325.042 256.363 318.06 274.729H371.254C364.639 264.15 357.289 177.575 354.441 135.61Z" fill="#FDEAEA"/>
<path d="M304.28 135.334H313.099V147.455L308.69 143.694L304.28 147.455V135.334Z" fill="#FBD13D"/>
<path d="M319.714 135.334H328.534V147.455L324.124 143.694L319.714 147.455V135.334Z" fill="#FBD13D"/>
<path d="M335.149 135.334H343.969V147.455L339.559 143.694L335.149 147.455V135.334Z" fill="#FBD13D"/>
<path d="M350.583 135.334H359.403V147.455L354.993 143.694L350.583 147.455V135.334Z" fill="#FBD13D"/>
<path d="M366.018 135.334H374.837V147.455L370.427 143.694L366.018 147.455V135.334Z" fill="#FBD13D"/>
<path d="M381.452 135.334H390.272V147.455L385.862 143.694L381.452 147.455V135.334Z" fill="#FBD13D"/>
<path d="M397.989 125.124V129.825C397.989 132.867 395.521 135.334 392.477 135.334H301.524C298.479 135.334 296.011 132.867 296.011 129.824V125.608C318.35 112.305 343.011 83.4413 345.231 24.6584C345.243 24.0214 345.76 23.4877 346.394 23.4877H348.357C348.991 23.4877 349.507 24.0213 349.52 24.6583C356.678 84.6335 377.951 112.315 397.989 125.124Z" fill="#DB2525"/>
<path d="M305.382 128.723C339.118 98.0888 347.551 46.5366 347.551 24.5897C349.756 74.1768 330.188 125.968 321.644 128.723H305.382Z" fill="#FDEAEA"/>
<path d="M391.271 128.998C357.535 98.3643 349.101 46.812 349.101 24.8652C346.896 74.4523 366.465 126.243 375.009 128.998H391.271Z" fill="#FDEAEA"/>
<path d="M339.007 128.998C346.725 110.541 347.643 54.8011 348.103 25.4161C348.103 59.3006 353.339 108.337 358.025 128.998H339.007Z" fill="#FDEAEA"/>
<path d="M347.276 2V25.4161" stroke="#992222" stroke-width="3" stroke-linecap="round"/>
<path d="M347.827 2.55096H373.735L366.845 10.2645L373.735 17.4271H347.827V2.55096Z" fill="#FFC044"/>
<path fill-rule="evenodd" clip-rule="evenodd" d="M353.258 47.7303H343.031C344.162 40.6051 344.919 32.9278 345.231 24.6584C345.243 24.0214 345.76 23.4877 346.394 23.4877H348.357C348.991 23.4877 349.508 24.0213 349.52 24.6583C350.51 32.951 351.769 40.6264 353.258 47.7303Z" fill="#FABF4D"/>
<rect x="119.617" y="270.872" width="459.727" height="11.0193" rx="5.50967" fill="#AC2525"/>
<rect x="293.255" y="124.315" width="107.49" height="11.0194" rx="5.50968" fill="#AC2525"/>
</svg>
