<svg width="65" height="26" viewBox="0 0 65 26" fill="none" xmlns="http://www.w3.org/2000/svg">
<path fill-rule="evenodd" clip-rule="evenodd" d="M25.882 25.3372C28.892 25.3372 31.6834 24.5034 33.9814 23.0808C35.9291 24.4046 38.3616 25.1907 41.0001 25.1907C43.9052 25.1907 46.5605 24.2378 48.594 22.6635C50.2282 24.2187 52.5529 25.1905 55.1322 25.1905C60.0785 25.1905 64.0882 21.6169 64.0882 17.2086C64.0882 12.8003 60.0785 9.22661 55.1322 9.22661C53.7348 9.22661 52.4121 9.51187 51.2335 10.0206C49.286 6.75994 45.4339 4.54012 41.0001 4.54012C39.6955 4.54012 38.4412 4.73233 37.2709 5.08672C34.6786 1.99865 30.5422 -5.68246e-05 25.882 -5.68246e-05C20.2947 -5.68246e-05 15.4603 2.87305 13.1373 7.05202C12.2755 6.84666 11.3696 6.73717 10.4351 6.73717C4.67207 6.73717 0.000201912 10.901 0.000201912 16.0373C0.000201912 21.1736 4.67207 25.3374 10.4351 25.3374C13.1538 25.3374 15.6296 24.4108 17.4867 22.8926C19.8391 24.4296 22.7416 25.3372 25.882 25.3372Z" fill="#E6FCFF"/>
</svg>
