<svg width="275" height="197" viewBox="0 0 275 197" fill="none" xmlns="http://www.w3.org/2000/svg">
<path fill-rule="evenodd" clip-rule="evenodd" d="M48.8653 64.0457C54.5482 64.0457 59.8184 62.333 64.1571 59.4109C67.8345 62.1301 72.4271 63.745 77.4087 63.745C82.8936 63.745 87.9069 61.7874 91.7462 58.5535C94.8316 61.7485 99.2209 63.745 104.091 63.745C113.43 63.745 121 56.4043 121 47.3491C121 38.2939 113.43 30.9532 104.091 30.9532C101.452 30.9532 98.955 31.5392 96.7297 32.5843C93.0529 25.8862 85.78 21.3262 77.4087 21.3262C74.9454 21.3262 72.5772 21.721 70.3678 22.449C65.4735 16.1057 57.6639 12 48.8653 12C38.3166 12 29.1893 17.9015 24.8034 26.4854C23.1761 26.0635 21.4657 25.8386 19.7012 25.8386C8.82054 25.8386 0 34.3915 0 44.942C0 55.4926 8.82054 64.0455 19.7012 64.0455C24.8339 64.0455 29.5082 62.1423 33.0144 59.0239C37.4559 62.1812 42.9361 64.0457 48.8653 64.0457Z" fill="#0C5AB9"/>
<path fill-rule="evenodd" clip-rule="evenodd" d="M250.099 103.046C247.255 103.046 244.617 102.189 242.446 100.726C240.606 102.087 238.307 102.895 235.814 102.895C233.07 102.895 230.561 101.916 228.639 100.297C227.095 101.896 224.899 102.895 222.461 102.895C217.788 102.895 214 99.2216 214 94.6901C214 90.1585 217.788 86.4849 222.461 86.4849C223.782 86.4849 225.032 86.7782 226.145 87.3012C227.985 83.9492 231.625 81.6672 235.814 81.6672C237.047 81.6672 238.232 81.8648 239.338 82.2291C241.787 79.0546 245.695 77 250.099 77C255.378 77 259.945 79.9534 262.14 84.2491C262.954 84.038 263.81 83.9254 264.693 83.9254C270.139 83.9254 274.553 88.2056 274.553 93.4855C274.553 98.7655 270.139 103.046 264.693 103.046C262.125 103.046 259.786 102.093 258.031 100.533C255.808 102.113 253.066 103.046 250.099 103.046Z" fill="#0C5AB9"/>
<path d="M73.3947 31.043L73.3949 31.0139C72.9536 31.001 72.4878 30.9968 71.9999 31.0024C71.512 30.9968 71.0462 31.001 70.6049 31.0139L70.6057 31.0429C59.8354 31.5386 40.7907 36.4939 35.0466 54.5601C29.8842 70.7966 44.9372 90.0612 55.7289 103.872C58.1464 106.966 60.35 109.786 62.0647 112.238H81.9351C83.6497 109.786 85.8534 106.966 88.2708 103.872C99.0626 90.0612 114.116 70.7966 108.953 54.5601C103.209 36.4942 84.165 31.5388 73.3947 31.043Z" fill="#F6800E"/>
<path d="M49.2521 59.7306C49.2521 40.3751 63.4874 32.656 70.6051 31.2158C64.1556 41.9304 62.3254 55.8422 62.3254 60.3786C62.3254 74.9897 67.6428 97.1524 71.2017 111.986L71.2588 112.224H67.5547C61.3812 102.719 49.2521 79.086 49.2521 59.7306Z" fill="#FEDE88"/>
<path d="M98.063 60.5948C97.4052 41.369 80.192 31.6481 71.2628 31C80.192 40.5049 84.1182 48.7137 84.1182 60.5948C84.1182 75.2843 78.0858 97.3904 74.5269 112.224H78.2352C84.4087 102.719 98.7249 79.9392 98.063 60.5948Z" fill="#FEDE88"/>
<g style="mix-blend-mode:overlay" opacity="0.9">
<mask id="mask0_514_11029" style="mask-type:alpha" maskUnits="userSpaceOnUse" x="34" y="31" width="76" height="82">
<path d="M73.3948 31.043L73.395 31.0139C72.9537 31.001 72.4879 30.9968 72 31.0024C71.5121 30.9968 71.0463 31.001 70.605 31.0139L70.6058 31.0429C59.8356 31.5386 40.7908 36.4939 35.0467 54.5601C29.8844 70.7966 44.9373 90.0612 55.7291 103.872C58.1465 106.966 60.3501 109.786 62.0648 112.238H81.9352C83.6499 109.786 85.8535 106.966 88.2709 103.872C99.0627 90.0612 114.116 70.7966 108.953 54.5601C103.209 36.4942 84.1651 31.5388 73.3948 31.043Z" fill="#9DD764"/>
<path d="M49.2521 59.7308C49.2521 40.3753 63.4875 32.6562 70.6051 31.216C64.1556 41.9307 62.3254 55.8424 62.3254 60.3788C62.3254 74.99 67.6428 97.1527 71.2017 111.986L71.2588 112.224H67.5547C61.3812 102.719 49.2521 79.0862 49.2521 59.7308Z" fill="#9DD764"/>
<path d="M98.0632 60.5949C97.4054 41.369 80.1922 31.6481 71.263 31C80.1922 40.5049 84.1184 48.7137 84.1184 60.5949C84.1184 75.2843 78.086 97.3904 74.5271 112.224H78.2354C84.4089 102.719 98.7251 79.9392 98.0632 60.5949Z" fill="#9DD764"/>
</mask>
<g mask="url(#mask0_514_11029)">
<path d="M57.3138 92.782C53.6532 96.7568 48.9614 94.2941 47.073 92.566L25.0663 74.2042L45.112 28.8398L97.8409 32.5122L119.412 69.0197L94.7905 95.5902C91.6529 97.8369 89.5612 95.3742 88.9075 93.8621C83.5039 98.0097 80.1194 94.8702 79.1026 92.782C72.3045 95.8927 67.9903 93.5021 66.683 91.9179C63.7197 96.4111 59.2021 94.3661 57.3138 92.782Z" fill="#4F5454"/>
</g>
</g>
<path d="M109.951 59.9463H34.0487C33.7552 64.5972 34.8081 69.4097 36.6878 74.2037H107.312C109.192 69.4097 110.245 64.5972 109.951 59.9463Z" fill="#914E0D"/>
<path d="M95.8801 93.4297C91.5224 102.215 82.1532 121.772 79.5385 129.721" stroke="#914E0D" stroke-width="0.597754"/>
<path d="M51.0826 96.9203C55.1455 105.843 63.8584 125.696 66.2069 133.727" stroke="#914E0D" stroke-width="0.597754"/>
<path d="M80.6283 127.346C73.8302 129.938 66.6109 128.426 63.851 127.346V145.059C71.8692 149.034 78.8126 145.995 81.282 143.979L80.6283 127.346Z" fill="#F4D1A1"/>
<path d="M68.1975 128.447C64.9414 133.17 64.2167 130.294 63.8541 127.562C63.9537 127.528 63.7513 127.38 63.8543 127.346C64.8233 127.695 66.525 128.186 68.1975 128.447Z" fill="#914E0D"/>
<path d="M80.6366 127.476L80.6314 127.346C79.5012 127.777 78.3593 128.094 77.2281 128.319C78.5287 130.031 80.2901 132.13 80.6314 127.562C80.6336 127.533 80.6353 127.504 80.6366 127.476Z" fill="#914E0D"/>
<path d="M77.1096 128.342C75.5758 128.639 74.0633 128.766 72.6281 128.776C73.5977 130.944 75.8227 133.04 77.1096 128.342Z" fill="#914E0D"/>
<path d="M72.5178 128.777C70.5831 133.758 68.7994 130.872 68.2175 128.45C69.5112 128.65 70.9683 128.781 72.5178 128.777Z" fill="#914E0D"/>
<ellipse cx="39.2292" cy="67.2916" rx="1.7431" ry="1.72817" fill="#FFF9DA"/>
<ellipse cx="46.6373" cy="67.2916" rx="1.7431" ry="1.72817" fill="#FFF9DA"/>
<ellipse cx="54.0457" cy="67.2916" rx="1.7431" ry="1.72817" fill="#FFF9DA"/>
<ellipse cx="61.4534" cy="67.2916" rx="1.7431" ry="1.72817" fill="#FFF9DA"/>
<ellipse cx="68.8617" cy="67.2916" rx="1.7431" ry="1.72817" fill="#FFF9DA"/>
<ellipse cx="76.27" cy="67.2916" rx="1.7431" ry="1.72817" fill="#FFF9DA"/>
<ellipse cx="83.6783" cy="67.2916" rx="1.7431" ry="1.72817" fill="#FFF9DA"/>
<ellipse cx="91.0865" cy="67.2916" rx="1.7431" ry="1.72817" fill="#FFF9DA"/>
<ellipse cx="98.4943" cy="67.2916" rx="1.7431" ry="1.72817" fill="#FFF9DA"/>
<ellipse cx="105.903" cy="67.2916" rx="1.7431" ry="1.72817" fill="#FFF9DA"/>
<path d="M55.1351 34.4563H88.4719L88.4322 34.1487C83.0142 32.1017 77.5798 31.2356 73.3947 31.043L73.3949 31.0139C72.9537 31.001 72.4878 30.9968 71.9999 31.0024C71.512 30.9968 71.0462 31.001 70.6049 31.0139L70.6057 31.0429C66.3645 31.2381 60.8402 32.1249 55.3503 34.2315L55.1351 34.4563Z" fill="#914E0D"/>
<path d="M81.2411 142.938C74.3816 146.671 67.603 145.27 63.851 143.514V145.059C71.8692 149.034 78.8126 145.995 81.282 143.979L81.2411 142.938Z" fill="#914E0D"/>
<path fill-rule="evenodd" clip-rule="evenodd" d="M99.0288 109.838C101.59 109.838 103.966 109.12 105.922 107.894C107.58 109.035 109.65 109.712 111.896 109.712C114.368 109.712 116.629 108.891 118.359 107.534C119.75 108.874 121.729 109.712 123.924 109.712C128.134 109.712 131.547 106.632 131.547 102.832C131.547 99.0329 128.134 95.9527 123.924 95.9527C122.735 95.9527 121.609 96.1987 120.606 96.6373C118.948 93.8268 115.67 91.9135 111.896 91.9135C110.785 91.9135 109.718 92.0791 108.722 92.3844C106.516 89.7227 102.995 88 99.0288 88C94.2733 88 90.1587 90.4762 88.1815 94.078C87.4479 93.901 86.6769 93.8066 85.8815 93.8066C80.9764 93.8066 77 97.3954 77 101.822C77 106.249 80.9764 109.838 85.8815 109.838C88.1953 109.838 90.3025 109.04 91.8831 107.731C93.8853 109.056 96.3558 109.838 99.0288 109.838Z" fill="#E6FCFF"/>
<path d="M176.349 0.0729721L176.349 0.0235583C175.606 0.00170626 174.822 -0.00535152 174 0.00409825C173.178 -0.00535152 172.394 0.00170626 171.65 0.0235583L171.652 0.0729282C153.512 0.914745 121.437 9.33015 111.763 40.0116C103.068 67.5855 128.421 100.302 146.596 123.757C150.668 129.012 154.379 133.801 157.267 137.964H190.733C193.621 133.801 197.332 129.012 201.404 123.757C219.579 100.302 244.931 67.5855 236.237 40.0116C226.563 9.33068 194.488 0.915038 176.349 0.0729721Z" fill="#05B163"/>
<path d="M135.688 48.7931C135.688 15.9222 159.663 2.81294 171.651 0.367188C160.788 18.5636 157.706 42.1895 157.706 49.8937C157.706 74.7074 166.662 112.346 172.655 137.537L172.752 137.941H166.513C156.116 121.799 135.688 81.664 135.688 48.7931Z" fill="#9DD764"/>
<path d="M217.896 50.2602C216.788 17.6094 187.797 1.10059 172.759 0C187.797 16.142 194.41 30.0827 194.41 50.2602C194.41 75.2069 184.25 112.749 178.256 137.94H184.502C194.899 121.798 219.011 83.1122 217.896 50.2602Z" fill="#9DD764"/>
<g style="mix-blend-mode:overlay" opacity="0.9">
<mask id="mask1_514_11029" style="mask-type:alpha" maskUnits="userSpaceOnUse" x="110" y="0" width="128" height="138">
<path d="M176.349 0.0729721L176.349 0.0235583C175.606 0.00170626 174.822 -0.00535152 174 0.00409825C173.178 -0.00535152 172.394 0.00170626 171.651 0.0235583L171.652 0.0729282C153.513 0.914745 121.437 9.33015 111.763 40.0116C103.068 67.5855 128.421 100.302 146.596 123.757C150.668 129.012 154.379 133.801 157.267 137.964H190.733C193.621 133.801 197.332 129.012 201.404 123.757C219.579 100.302 244.932 67.5855 236.237 40.0116C226.563 9.33068 194.489 0.915038 176.349 0.0729721Z" fill="#9DD764"/>
<path d="M135.688 48.7928C135.688 15.9219 159.663 2.81263 171.651 0.366878C160.788 18.5633 157.706 42.1892 157.706 49.8934C157.706 74.7071 166.662 112.345 172.656 137.537L172.752 137.94H166.513C156.116 121.798 135.688 81.6637 135.688 48.7928Z" fill="#9DD764"/>
<path d="M217.896 50.2602C216.788 17.6094 187.797 1.1006 172.759 1.5337e-05C187.797 16.142 194.41 30.0828 194.41 50.2602C194.41 75.2069 184.25 112.749 178.256 137.94H184.502C194.899 121.798 219.011 83.1122 217.896 50.2602Z" fill="#9DD764"/>
</mask>
<g mask="url(#mask1_514_11029)">
<path d="M149.265 104.922C143.1 111.673 135.198 107.49 132.018 104.556L94.954 73.3722L128.715 -3.66895L217.522 2.56772L253.852 64.5675L212.384 109.692C207.1 113.507 203.577 109.325 202.476 106.757C193.375 113.801 187.675 108.469 185.962 104.922C174.513 110.205 167.247 106.145 165.045 103.455C160.054 111.086 152.446 107.613 149.265 104.922Z" fill="#4F5454"/>
</g>
</g>
<path d="M237.918 49.1592H110.082C109.588 57.0577 111.361 65.2307 114.527 73.3721H233.473C236.639 65.2307 238.412 57.0577 237.918 49.1592Z" fill="#914E0D"/>
<path d="M214.219 106.023C206.88 120.943 191.1 154.156 186.696 167.656" stroke="#914E0D" stroke-width="0.597754"/>
<path d="M138.771 111.95C145.613 127.103 160.288 160.819 164.243 174.458" stroke="#914E0D" stroke-width="0.597754"/>
<path d="M188.532 163.621C177.082 168.023 164.923 165.455 160.275 163.621V193.704C173.779 200.454 185.474 195.294 189.633 191.87L188.532 163.621Z" fill="#F4D1A1"/>
<path d="M167.595 165.491C162.111 173.512 160.891 168.628 160.28 163.988C160.448 163.931 160.107 163.679 160.28 163.621C161.912 164.214 164.778 165.048 167.595 165.491Z" fill="#914E0D"/>
<path d="M188.545 163.843L188.537 163.621C186.633 164.353 184.71 164.892 182.805 165.274C184.995 168.181 187.962 171.746 188.537 163.988C188.54 163.939 188.543 163.891 188.545 163.843Z" fill="#914E0D"/>
<path d="M182.605 165.314C180.022 165.817 177.474 166.033 175.057 166.051C176.69 169.731 180.438 173.291 182.605 165.314Z" fill="#914E0D"/>
<path d="M174.872 166.052C171.613 174.511 168.609 169.609 167.629 165.496C169.808 165.837 172.262 166.059 174.872 166.052Z" fill="#914E0D"/>
<ellipse cx="118.807" cy="61.6331" rx="2.93575" ry="2.9349" fill="#FFF9DA"/>
<ellipse cx="131.284" cy="61.6331" rx="2.93575" ry="2.9349" fill="#FFF9DA"/>
<ellipse cx="143.761" cy="61.6331" rx="2.93575" ry="2.9349" fill="#FFF9DA"/>
<ellipse cx="156.238" cy="61.6331" rx="2.93575" ry="2.9349" fill="#FFF9DA"/>
<ellipse cx="168.715" cy="61.6331" rx="2.93575" ry="2.9349" fill="#FFF9DA"/>
<ellipse cx="181.192" cy="61.6331" rx="2.93575" ry="2.9349" fill="#FFF9DA"/>
<ellipse cx="193.669" cy="61.6331" rx="2.93576" ry="2.9349" fill="#FFF9DA"/>
<ellipse cx="206.146" cy="61.6331" rx="2.93576" ry="2.9349" fill="#FFF9DA"/>
<ellipse cx="218.623" cy="61.6331" rx="2.93576" ry="2.9349" fill="#FFF9DA"/>
<ellipse cx="231.1" cy="61.6331" rx="2.93576" ry="2.9349" fill="#FFF9DA"/>
<path d="M145.596 5.8698H201.742L201.675 5.34728C192.551 1.87095 183.398 0.400181 176.349 0.0729721L176.35 0.0235583C175.606 0.00170626 174.822 -0.00535152 174 0.00409825C173.178 -0.00535152 172.394 0.00170626 171.651 0.0235583L171.652 0.0729282C164.509 0.404426 155.205 1.91035 145.959 5.4879L145.596 5.8698Z" fill="#914E0D"/>
<path d="M189.564 190.102C178.011 196.44 166.594 194.062 160.275 191.079V193.703C173.779 200.454 185.474 195.293 189.633 191.869L189.564 190.102Z" fill="#914E0D"/>
<path fill-rule="evenodd" clip-rule="evenodd" d="M211.932 142.605C216.344 142.605 220.435 141.367 223.803 139.256C226.658 141.221 230.223 142.387 234.09 142.387C238.348 142.387 242.24 140.973 245.22 138.637C247.615 140.945 251.022 142.387 254.803 142.387C262.052 142.387 267.929 137.084 267.929 130.541C267.929 123.998 262.052 118.694 254.803 118.694C252.755 118.694 250.816 119.118 249.089 119.873C246.234 115.033 240.589 111.738 234.09 111.738C232.178 111.738 230.34 112.024 228.624 112.55C224.825 107.966 218.763 105 211.932 105C203.744 105 196.658 109.264 193.254 115.466C191.991 115.162 190.663 114.999 189.294 114.999C180.847 114.999 174 121.179 174 128.802C174 136.425 180.847 142.605 189.294 142.605C193.278 142.605 196.906 141.23 199.628 138.977C203.076 141.258 207.33 142.605 211.932 142.605Z" fill="#E6FCFF"/>
</svg>
