<svg width="115" height="20" viewBox="0 0 115 20" fill="none" xmlns="http://www.w3.org/2000/svg">
<path d="M5.375 5.175C5.14167 5.225 4.95833 5.31667 4.825 5.45C4.79167 5.48333 4.75833 5.54167 4.725 5.625C4.70833 5.69167 4.69167 5.74167 4.675 5.775C4.64167 5.825 4.60833 6.11667 4.575 6.65C4.55833 7.18333 4.54167 7.81667 4.525 8.55C4.50833 9.28333 4.5 10.05 4.5 10.85C4.5 11.6333 4.525 12.3167 4.575 12.9C4.625 13.3833 4.75 13.8583 4.95 14.325C5.16667 14.775 5.51667 15.0667 6 15.2C6.36667 15.2333 6.70833 15.1833 7.025 15.05C7.35833 14.9 7.60833 14.6583 7.775 14.325C7.95833 13.9417 8.03333 13.5417 8 13.125C7.98333 12.6917 8.01667 12.2667 8.1 11.85C8.33333 11.8833 8.59167 11.8917 8.875 11.875C9.175 11.8583 9.475 11.85 9.775 11.85C10.075 11.85 10.3667 11.8583 10.65 11.875C10.95 11.8917 11.2167 11.9333 11.45 12C11.7333 12.8667 11.8083 13.7333 11.675 14.6C11.5417 15.45 11.25 16.2167 10.8 16.9C10.35 17.5833 9.75833 18.15 9.025 18.6C8.30833 19.0333 7.49167 19.2583 6.575 19.275C5.975 19.3583 5.35833 19.3583 4.725 19.275C4.09167 19.2083 3.5 19.05 2.95 18.8C2.4 18.5333 1.93333 18.1667 1.55 17.7C1.18333 17.2333 0.966667 16.65 0.9 15.95C0.866667 15.35 0.841667 14.725 0.825 14.075C0.808333 13.425 0.791667 12.7 0.775 11.9C0.775 11.0833 0.775 10.1667 0.775 9.15C0.791667 8.11667 0.808333 6.925 0.825 5.575C0.791667 5.29167 0.8 5.00833 0.85 4.725C0.916667 4.425 1 4.15 1.1 3.9C1.25 3.46667 1.43333 3.06667 1.65 2.7C1.88333 2.33333 2.15833 2.00833 2.475 1.725C2.65833 1.59167 2.85833 1.48333 3.075 1.4C3.29167 1.3 3.51667 1.21667 3.75 1.15C4.51667 0.899999 5.275 0.799999 6.025 0.85C6.775 0.899999 7.475 1.075 8.125 1.375C8.79167 1.65833 9.39167 2.04167 9.925 2.525C10.4583 3.00833 10.8833 3.56667 11.2 4.2C11.5167 4.81667 11.7083 5.49167 11.775 6.225C11.8417 6.95833 11.7417 7.70833 11.475 8.475C10.8583 8.60833 10.25 8.65833 9.65 8.625C9.06667 8.575 8.45833 8.49167 7.825 8.375C7.775 8.05833 7.74167 7.7 7.725 7.3C7.725 6.9 7.68333 6.53333 7.6 6.2C7.51667 5.85 7.35833 5.56667 7.125 5.35C6.90833 5.13333 6.55833 5.03333 6.075 5.05C5.85833 5.08333 5.625 5.125 5.375 5.175ZM22.607 2.675C23.0904 3.10833 23.432 3.61667 23.632 4.2C23.7487 4.45 23.832 4.70833 23.882 4.975C23.9487 5.225 23.9987 5.48333 24.032 5.75C24.0654 6.16667 24.082 6.58333 24.082 7C24.0987 7.4 24.0987 7.80833 24.082 8.225C24.032 9.10833 24.0154 9.96667 24.032 10.8C24.0487 11.6333 24.0237 12.4833 23.957 13.35L23.882 14.175C23.8487 14.7583 23.757 15.35 23.607 15.95C23.457 16.5333 23.232 17.0667 22.932 17.55C22.6487 17.95 22.2737 18.275 21.807 18.525C21.357 18.7583 20.8737 18.9417 20.357 19.075C19.8904 19.2083 19.4154 19.2917 18.932 19.325C18.4654 19.3583 17.9904 19.3583 17.507 19.325C17.157 19.2917 16.8154 19.2417 16.482 19.175C16.1654 19.125 15.857 19.0333 15.557 18.9C15.2737 18.7667 15.0154 18.6 14.782 18.4C14.5487 18.1833 14.357 17.9083 14.207 17.575C13.9737 17.1583 13.8154 16.7167 13.732 16.25C13.6654 15.7667 13.6237 15.2833 13.607 14.8C13.557 13.5 13.4987 12.2 13.432 10.9C13.382 9.58333 13.3987 8.26667 13.482 6.95C13.4987 6.2 13.5904 5.45 13.757 4.7C13.9404 3.93333 14.2904 3.25833 14.807 2.675C14.9737 2.50833 15.1654 2.35833 15.382 2.225C15.932 1.95833 16.5237 1.76667 17.157 1.65C17.807 1.51667 18.4487 1.46667 19.082 1.5C19.732 1.53333 20.357 1.65 20.957 1.85C21.5737 2.03333 22.1237 2.30833 22.607 2.675ZM20.957 11.5L20.957 10.3L20.907 8.6C20.907 8.58333 20.8904 8.41667 20.857 8.1C20.8404 7.76667 20.8237 7.45833 20.807 7.175C20.7737 6.70833 20.6404 6.28333 20.407 5.9C20.1904 5.51667 19.8904 5.23333 19.507 5.05C19.1737 4.91667 18.832 4.89167 18.482 4.975C18.132 5.05833 17.8237 5.2 17.557 5.4C16.9737 5.85 16.582 6.425 16.382 7.125C16.2487 7.75833 16.1654 8.425 16.132 9.125C16.1154 9.825 16.1237 10.525 16.157 11.225C16.2404 11.8083 16.2987 12.4083 16.332 13.025C16.3654 13.625 16.4654 14.2 16.632 14.75C16.7987 15.0833 17.0404 15.3417 17.357 15.525C17.6737 15.7083 18.0154 15.8167 18.382 15.85C18.7487 15.8667 19.1154 15.8167 19.482 15.7C19.8487 15.5667 20.157 15.3583 20.407 15.075C20.557 14.875 20.6654 14.7167 20.732 14.6C20.7987 14.4667 20.8404 14.325 20.857 14.175C20.8737 14.025 20.8737 13.85 20.857 13.65C20.857 13.4333 20.8737 13.15 20.907 12.8C20.9237 12.4667 20.932 12.175 20.932 11.925C20.9487 11.675 20.957 11.5333 20.957 11.5ZM36.492 19.075C36.3753 19.1083 36.1753 19.125 35.892 19.125C35.5587 19.125 35.1753 19.1 34.742 19.05C34.3087 19.0167 33.9253 19 33.592 19C33.042 17.7667 32.492 16.575 31.942 15.425C31.4087 14.2583 30.9503 13.1417 30.567 12.075L30.317 11.325C30.2503 11.1417 30.1837 10.975 30.117 10.825C30.067 10.6583 30.0253 10.575 29.992 10.575C29.9753 10.575 29.9503 10.775 29.917 11.175C29.9003 11.575 29.8837 12.0833 29.867 12.7C29.8503 13.3167 29.8337 14 29.817 14.75C29.817 15.5 29.817 16.225 29.817 16.925C29.817 17.3083 29.817 17.6833 29.817 18.05C29.817 18.4 29.8253 18.7167 29.842 19C29.6587 19.05 29.4753 19.0833 29.292 19.1C29.1087 19.1167 28.9253 19.125 28.742 19.125C28.342 19.125 27.9337 19.1 27.517 19.05C27.117 19 26.7253 18.975 26.342 18.975V17.225C26.342 15.6417 26.3253 14.1333 26.292 12.7C26.2753 11.2667 26.267 9.76667 26.267 8.2C26.267 7.05 26.2837 5.91667 26.317 4.8C26.3503 3.66667 26.4087 2.56667 26.492 1.5C26.6587 1.46667 26.8337 1.44167 27.017 1.425C27.217 1.40833 27.417 1.4 27.617 1.4C27.717 1.4 27.8837 1.40833 28.117 1.425C28.3503 1.425 28.5837 1.44167 28.817 1.475C29.0503 1.49167 29.2503 1.51667 29.417 1.55C29.6003 1.58333 29.692 1.61667 29.692 1.65C29.8087 1.95 29.917 2.2 30.017 2.4C30.117 2.6 30.2087 2.79167 30.292 2.975C30.392 3.15833 30.492 3.36667 30.592 3.6C30.7087 3.81667 30.842 4.1 30.992 4.45C31.0253 4.53333 31.1003 4.69167 31.217 4.925C31.3337 5.15833 31.467 5.43333 31.617 5.75C31.767 6.05 31.9253 6.375 32.092 6.725C32.2587 7.05833 32.4087 7.36667 32.542 7.65C32.692 7.91667 32.817 8.15 32.917 8.35C33.017 8.53333 33.0753 8.625 33.092 8.625C33.142 8.59167 33.1837 8.425 33.217 8.125C33.2503 7.825 33.267 7.53333 33.267 7.25C33.267 6.58333 33.2503 5.96667 33.217 5.4C33.2003 4.81667 33.192 4.225 33.192 3.625C33.192 3.275 33.192 2.925 33.192 2.575C33.2087 2.20833 33.2253 1.81667 33.242 1.4C33.8087 1.3 34.4087 1.25 35.042 1.25C35.6587 1.25 36.2087 1.3 36.692 1.4V9.45C36.7087 10.15 36.717 10.8583 36.717 11.575C36.717 12.2917 36.717 13.0083 36.717 13.725C36.717 14.2083 36.7087 14.675 36.692 15.125C36.692 15.575 36.692 16.0333 36.692 16.5C36.692 16.8333 36.692 17.1667 36.692 17.5C36.7087 17.8333 36.717 18.1667 36.717 18.5V19C36.6837 19.0167 36.6087 19.0417 36.492 19.075ZM43.7432 1.375C45.5598 1.35833 47.3265 1.44167 49.0432 1.625C49.0765 2.175 49.0848 2.80833 49.0682 3.525C49.0682 4.24167 49.0265 4.9 48.9432 5.5C48.6265 5.43333 48.2348 5.40833 47.7682 5.425C47.3015 5.44167 46.6765 5.46667 45.8932 5.5H45.8432H45.8182C45.8182 5.51667 45.8098 5.53333 45.7932 5.55C45.7932 5.55 45.7932 5.55833 45.7932 5.575C45.7765 5.65833 45.7598 5.79167 45.7432 5.975C45.7432 6.14167 45.7432 6.41667 45.7432 6.8C45.7432 7.16667 45.7432 7.65833 45.7432 8.275C45.7598 8.875 45.7765 9.65833 45.7932 10.625C45.8098 11.575 45.8265 12.725 45.8432 14.075C45.8598 15.4083 45.8848 16.9833 45.9182 18.8V18.825V18.85C45.6182 18.9 45.2848 18.9333 44.9182 18.95C44.5682 18.95 44.2098 18.95 43.8432 18.95C43.4932 18.95 43.1432 18.95 42.7932 18.95C42.4432 18.95 42.1182 18.975 41.8182 19.025C41.8015 18.9583 41.8015 18.6583 41.8182 18.125C41.8348 17.5917 41.8432 16.8 41.8432 15.75C41.8598 14.6833 41.8515 13.325 41.8182 11.675C41.8015 10.025 41.7432 8.03333 41.6432 5.7L41.6182 5.675C41.4182 5.575 41.1682 5.51667 40.8682 5.5C40.5682 5.46667 40.2682 5.45 39.9682 5.45C39.6682 5.43333 39.3932 5.425 39.1432 5.425C38.8932 5.425 38.7182 5.40833 38.6182 5.375C38.5848 5.30833 38.5515 5.14167 38.5182 4.875C38.5015 4.60833 38.4848 4.29167 38.4682 3.925C38.4682 3.54167 38.4682 3.13333 38.4682 2.7C38.4682 2.26667 38.4848 1.85 38.5182 1.45C38.5182 1.43333 38.5098 1.425 38.4932 1.425C38.4932 1.425 38.4932 1.41667 38.4932 1.4C40.1932 1.38333 41.9432 1.375 43.7432 1.375ZM57.4791 9.075C57.5958 9.55833 57.6874 9.94167 57.7541 10.225L59.6291 18.975V19C59.1291 19.1 58.5791 19.1333 57.9791 19.1C57.3791 19.0833 56.8124 19.0167 56.2791 18.9H56.2541C56.1541 18.6333 56.0541 18.3167 55.9541 17.95C55.8708 17.5833 55.7791 17.2083 55.6791 16.825C55.5958 16.4417 55.5041 16.075 55.4041 15.725C55.3041 15.375 55.1958 15.075 55.0791 14.825C54.8624 14.7917 54.6958 14.775 54.5791 14.775C54.4624 14.775 54.3541 14.775 54.2541 14.775C54.1708 14.775 54.0708 14.7833 53.9541 14.8C53.8541 14.8 53.7124 14.8 53.5291 14.8C53.4124 15.0667 53.3124 15.3833 53.2291 15.75C53.1624 16.1 53.0874 16.475 53.0041 16.875C52.9374 17.2583 52.8624 17.6333 52.7791 18C52.6958 18.3667 52.5791 18.6917 52.4291 18.975C52.4124 18.975 52.3958 18.9833 52.3791 19C52.3791 19 52.3708 19 52.3541 19C52.2208 19.0333 51.8874 19.0333 51.3541 19C50.8208 18.9667 49.9874 18.9583 48.8541 18.975C48.8374 18.975 48.8208 18.9667 48.8041 18.95C48.8374 18.8333 48.8958 18.5083 48.9791 17.975C49.0624 17.4417 49.1791 16.75 49.3291 15.9C49.4791 15.05 49.6541 14.075 49.8541 12.975C50.0708 11.8583 50.3208 10.675 50.6041 9.425C50.8874 8.175 51.1958 6.875 51.5291 5.525C51.8624 4.175 52.2291 2.83333 52.6291 1.5C52.7458 1.48333 52.8708 1.475 53.0041 1.475C53.1374 1.475 53.3124 1.475 53.5291 1.475C53.7458 1.475 54.0208 1.475 54.3541 1.475C54.7041 1.45833 55.1541 1.425 55.7041 1.375C55.7541 1.59167 55.8291 1.925 55.9291 2.375C56.0458 2.80833 56.1624 3.30833 56.2791 3.875C56.4124 4.425 56.5458 5.01667 56.6791 5.65C56.8291 6.28333 56.9708 6.89167 57.1041 7.475C57.2374 8.05833 57.3624 8.59167 57.4791 9.075ZM54.2541 11.875C54.5708 11.8583 54.8874 11.85 55.2041 11.85C55.0374 10.4167 54.8874 9.3 54.7541 8.5C54.6374 7.7 54.5291 7.15833 54.4291 6.875C54.3458 6.59167 54.2541 6.53333 54.1541 6.7C54.0708 6.85 53.9874 7.16667 53.9041 7.65C53.8374 8.13333 53.7541 8.74167 53.6541 9.475C53.5708 10.2083 53.4708 11 53.3541 11.85C53.6374 11.8667 53.9374 11.875 54.2541 11.875ZM65.1992 5.175C64.9659 5.225 64.7826 5.31667 64.6492 5.45C64.6159 5.48333 64.5826 5.54167 64.5492 5.625C64.5326 5.69167 64.5159 5.74167 64.4992 5.775C64.4659 5.825 64.4326 6.11667 64.3992 6.65C64.3826 7.18333 64.3659 7.81667 64.3492 8.55C64.3326 9.28333 64.3242 10.05 64.3242 10.85C64.3242 11.6333 64.3492 12.3167 64.3992 12.9C64.4492 13.3833 64.5742 13.8583 64.7742 14.325C64.9909 14.775 65.3409 15.0667 65.8242 15.2C66.1909 15.2333 66.5326 15.1833 66.8492 15.05C67.1826 14.9 67.4326 14.6583 67.5992 14.325C67.7826 13.9417 67.8576 13.5417 67.8242 13.125C67.8076 12.6917 67.8409 12.2667 67.9242 11.85C68.1576 11.8833 68.4159 11.8917 68.6992 11.875C68.9992 11.8583 69.2992 11.85 69.5992 11.85C69.8992 11.85 70.1909 11.8583 70.4742 11.875C70.7742 11.8917 71.0409 11.9333 71.2742 12C71.5576 12.8667 71.6326 13.7333 71.4992 14.6C71.3659 15.45 71.0742 16.2167 70.6242 16.9C70.1742 17.5833 69.5826 18.15 68.8492 18.6C68.1326 19.0333 67.3159 19.2583 66.3992 19.275C65.7992 19.3583 65.1826 19.3583 64.5492 19.275C63.9159 19.2083 63.3242 19.05 62.7742 18.8C62.2242 18.5333 61.7576 18.1667 61.3742 17.7C61.0076 17.2333 60.7909 16.65 60.7242 15.95C60.6909 15.35 60.6659 14.725 60.6492 14.075C60.6326 13.425 60.6159 12.7 60.5992 11.9C60.5992 11.0833 60.5992 10.1667 60.5992 9.15C60.6159 8.11667 60.6326 6.925 60.6492 5.575C60.6159 5.29167 60.6242 5.00833 60.6742 4.725C60.7409 4.425 60.8242 4.15 60.9242 3.9C61.0742 3.46667 61.2576 3.06667 61.4742 2.7C61.7076 2.33333 61.9826 2.00833 62.2992 1.725C62.4826 1.59167 62.6826 1.48333 62.8992 1.4C63.1159 1.3 63.3409 1.21667 63.5742 1.15C64.3409 0.899999 65.0992 0.799999 65.8492 0.85C66.5992 0.899999 67.2992 1.075 67.9492 1.375C68.6159 1.65833 69.2159 2.04167 69.7492 2.525C70.2826 3.00833 70.7076 3.56667 71.0242 4.2C71.3409 4.81667 71.5326 5.49167 71.5992 6.225C71.6659 6.95833 71.5659 7.70833 71.2992 8.475C70.6826 8.60833 70.0742 8.65833 69.4742 8.625C68.8909 8.575 68.2826 8.49167 67.6492 8.375C67.5992 8.05833 67.5659 7.7 67.5492 7.3C67.5492 6.9 67.5076 6.53333 67.4242 6.2C67.3409 5.85 67.1826 5.56667 66.9492 5.35C66.7326 5.13333 66.3826 5.03333 65.8992 5.05C65.6826 5.08333 65.4492 5.125 65.1992 5.175ZM78.0313 1.375C79.8479 1.35833 81.6146 1.44167 83.3313 1.625C83.3646 2.175 83.3729 2.80833 83.3563 3.525C83.3563 4.24167 83.3146 4.9 83.2313 5.5C82.9146 5.43333 82.5229 5.40833 82.0563 5.425C81.5896 5.44167 80.9646 5.46667 80.1813 5.5H80.1313H80.1063C80.1063 5.51667 80.0979 5.53333 80.0813 5.55C80.0813 5.55 80.0813 5.55833 80.0813 5.575C80.0646 5.65833 80.0479 5.79167 80.0313 5.975C80.0313 6.14167 80.0313 6.41667 80.0313 6.8C80.0313 7.16667 80.0313 7.65833 80.0313 8.275C80.0479 8.875 80.0646 9.65833 80.0813 10.625C80.0979 11.575 80.1146 12.725 80.1313 14.075C80.1479 15.4083 80.1729 16.9833 80.2063 18.8V18.825V18.85C79.9063 18.9 79.5729 18.9333 79.2063 18.95C78.8563 18.95 78.4979 18.95 78.1313 18.95C77.7813 18.95 77.4313 18.95 77.0813 18.95C76.7313 18.95 76.4063 18.975 76.1063 19.025C76.0896 18.9583 76.0896 18.6583 76.1063 18.125C76.1229 17.5917 76.1313 16.8 76.1313 15.75C76.1479 14.6833 76.1396 13.325 76.1063 11.675C76.0896 10.025 76.0313 8.03333 75.9313 5.7L75.9063 5.675C75.7063 5.575 75.4563 5.51667 75.1563 5.5C74.8563 5.46667 74.5563 5.45 74.2563 5.45C73.9563 5.43333 73.6813 5.425 73.4313 5.425C73.1813 5.425 73.0063 5.40833 72.9063 5.375C72.8729 5.30833 72.8396 5.14167 72.8063 4.875C72.7896 4.60833 72.7729 4.29167 72.7563 3.925C72.7563 3.54167 72.7563 3.13333 72.7563 2.7C72.7563 2.26667 72.7729 1.85 72.8063 1.45C72.8063 1.43333 72.7979 1.425 72.7813 1.425C72.7813 1.425 72.7813 1.41667 72.7813 1.4C74.4813 1.38333 76.2313 1.375 78.0313 1.375ZM100.131 2.05C100.447 2.08333 100.706 2.15833 100.906 2.275C101.006 4.40833 101.039 6.56667 101.006 8.75C100.972 10.9167 100.839 13.075 100.606 15.225C100.472 16.325 100.056 17.2583 99.3557 18.025C98.6557 18.7917 97.7057 19.2333 96.5057 19.35C95.8057 19.4167 95.0807 19.3833 94.3307 19.25C93.5807 19.1333 92.8973 18.9167 92.2807 18.6C91.6807 18.2667 91.1723 17.8333 90.7557 17.3C90.3557 16.75 90.139 16.0917 90.1057 15.325C90.1057 13.125 90.1307 10.9083 90.1807 8.675C90.2307 6.44167 90.239 4.225 90.2057 2.025L90.1807 2H90.2057C90.4557 2 90.7307 1.99167 91.0307 1.975C91.3473 1.95833 91.664 1.95 91.9807 1.95C92.2973 1.95 92.6057 1.96667 92.9057 2C93.2057 2.01667 93.4807 2.05833 93.7307 2.125V2.15C93.5473 6.18333 93.6223 10.275 93.9557 14.425C94.0723 14.825 94.2807 15.1167 94.5807 15.3C94.8973 15.4833 95.2223 15.5667 95.5557 15.55C95.889 15.5333 96.1973 15.4167 96.4807 15.2C96.764 14.9833 96.9473 14.6833 97.0307 14.3C97.114 12.3 97.1557 10.2667 97.1557 8.2C97.1723 6.13333 97.2057 4.13333 97.2557 2.2C97.4723 2.18333 97.7473 2.15833 98.0807 2.125C98.4307 2.075 98.7807 2.04167 99.1307 2.025C99.4807 2.00833 99.814 2.01667 100.131 2.05ZM113.578 4.05C114.011 4.86667 114.111 5.9 113.878 7.15H113.853C113.269 7.25 112.644 7.31667 111.978 7.35C111.311 7.36667 110.686 7.29167 110.103 7.125C110.203 6.675 110.111 6.3 109.828 6C109.544 5.7 109.203 5.50833 108.803 5.425C108.403 5.34167 108.011 5.38333 107.628 5.55C107.261 5.71667 107.044 6.03333 106.978 6.5C106.944 6.61667 106.928 6.73333 106.928 6.85C106.944 6.95 106.961 7.05833 106.978 7.175C107.111 7.575 107.328 7.84167 107.628 7.975C107.928 8.10833 108.253 8.2 108.603 8.25C109.486 8.35 110.303 8.63333 111.053 9.1C111.819 9.56667 112.444 10.1583 112.928 10.875C113.228 11.2583 113.453 11.675 113.603 12.125C113.753 12.5583 113.836 13.0083 113.853 13.475C113.886 13.9417 113.853 14.4167 113.753 14.9C113.669 15.3667 113.528 15.8167 113.328 16.25C113.128 16.7667 112.861 17.2083 112.528 17.575C112.194 17.9417 111.811 18.2417 111.378 18.475C110.961 18.7083 110.503 18.8833 110.003 19C109.519 19.1 109.019 19.1417 108.503 19.125C107.769 19.1083 107.036 18.9833 106.303 18.75C105.586 18.5 104.944 18.1583 104.378 17.725C103.811 17.2917 103.361 16.7667 103.028 16.15C102.694 15.5167 102.553 14.8 102.603 14V13.925V13.85C103.186 13.7667 103.828 13.75 104.528 13.8C105.228 13.8333 105.861 13.8417 106.428 13.825C106.461 14.3583 106.669 14.7583 107.053 15.025C107.453 15.2917 107.869 15.425 108.303 15.425C108.753 15.4083 109.136 15.2583 109.453 14.975C109.786 14.6917 109.903 14.2583 109.803 13.675C109.753 13.275 109.603 12.9583 109.353 12.725C109.103 12.475 108.803 12.275 108.453 12.125C108.119 11.975 107.753 11.8667 107.353 11.8C106.953 11.7167 106.578 11.6417 106.228 11.575C105.894 11.5083 105.586 11.4 105.303 11.25C105.019 11.1 104.761 10.925 104.528 10.725C103.761 9.99167 103.261 9.18333 103.028 8.3C102.811 7.41667 102.803 6.55833 103.003 5.725C103.203 4.89167 103.578 4.13333 104.128 3.45C104.694 2.76667 105.378 2.25833 106.178 1.925C106.578 1.75833 107.019 1.65 107.503 1.6C107.986 1.53333 108.469 1.51667 108.953 1.55C109.453 1.56667 109.936 1.63333 110.403 1.75C110.886 1.86667 111.328 2.01667 111.728 2.2C112.528 2.61667 113.144 3.23333 113.578 4.05Z" fill="#0C5AB9"/>
</svg>
