<svg width="76" height="150" viewBox="0 0 76 150" fill="none" xmlns="http://www.w3.org/2000/svg">
<path d="M67.885 8.675C67.795 8.255 67.63 7.925 67.39 7.685C67.33 7.625 67.225 7.565 67.075 7.505C66.955 7.475 66.865 7.445 66.805 7.415C66.715 7.355 66.19 7.295 65.23 7.235C64.27 7.205 63.13 7.175 61.81 7.145C60.49 7.115 59.11 7.1 57.67 7.1C56.26 7.1 55.03 7.145 53.98 7.235C53.11 7.325 52.255 7.55 51.415 7.91C50.605 8.3 50.08 8.93 49.84 9.8C49.78 10.46 49.87 11.075 50.11 11.645C50.38 12.245 50.815 12.695 51.415 12.995C52.105 13.325 52.825 13.46 53.575 13.4C54.355 13.37 55.12 13.43 55.87 13.58C55.81 14 55.795 14.465 55.825 14.975C55.855 15.515 55.87 16.055 55.87 16.595C55.87 17.135 55.855 17.66 55.825 18.17C55.795 18.71 55.72 19.19 55.6 19.61C54.04 20.12 52.48 20.255 50.92 20.015C49.39 19.775 48.01 19.25 46.78 18.44C45.55 17.63 44.53 16.565 43.72 15.245C42.94 13.955 42.535 12.485 42.505 10.835C42.355 9.755 42.355 8.645 42.505 7.505C42.625 6.365 42.91 5.3 43.36 4.31C43.84 3.32 44.5 2.48 45.34 1.79C46.18 1.13 47.23 0.739999 48.49 0.619999C49.57 0.559999 50.695 0.514999 51.865 0.484999C53.035 0.454999 54.34 0.424999 55.78 0.394999C57.25 0.394999 58.9 0.394999 60.73 0.394999C62.59 0.424999 64.735 0.455 67.165 0.485C67.675 0.425 68.185 0.44 68.695 0.53C69.235 0.65 69.73 0.8 70.18 0.98C70.96 1.25 71.68 1.58 72.34 1.97C73 2.39 73.585 2.885 74.095 3.455C74.335 3.785 74.53 4.145 74.68 4.535C74.86 4.925 75.01 5.33 75.13 5.75C75.58 7.13 75.76 8.495 75.67 9.845C75.58 11.195 75.265 12.455 74.725 13.625C74.215 14.825 73.525 15.905 72.655 16.865C71.785 17.825 70.78 18.59 69.64 19.16C68.53 19.73 67.315 20.075 65.995 20.195C64.675 20.315 63.325 20.135 61.945 19.655C61.705 18.545 61.615 17.45 61.675 16.37C61.765 15.32 61.915 14.225 62.125 13.085C62.695 12.995 63.34 12.935 64.06 12.905C64.78 12.905 65.44 12.83 66.04 12.68C66.67 12.53 67.18 12.245 67.57 11.825C67.96 11.435 68.14 10.805 68.11 9.935C68.05 9.545 67.975 9.125 67.885 8.675ZM72.385 39.6927C71.605 40.5627 70.69 41.1777 69.64 41.5377C69.19 41.7477 68.725 41.8977 68.245 41.9877C67.795 42.1077 67.33 42.1977 66.85 42.2577C66.1 42.3177 65.35 42.3477 64.6 42.3477C63.88 42.3777 63.145 42.3777 62.395 42.3477C60.805 42.2577 59.26 42.2277 57.76 42.2577C56.26 42.2877 54.73 42.2427 53.17 42.1227L51.685 41.9877C50.635 41.9277 49.57 41.7627 48.49 41.4927C47.44 41.2227 46.48 40.8177 45.61 40.2777C44.89 39.7677 44.305 39.0927 43.855 38.2527C43.435 37.4427 43.105 36.5727 42.865 35.6427C42.625 34.8027 42.475 33.9477 42.415 33.0777C42.355 32.2377 42.355 31.3827 42.415 30.5127C42.475 29.8827 42.565 29.2677 42.685 28.6677C42.775 28.0977 42.94 27.5427 43.18 27.0027C43.42 26.4927 43.72 26.0277 44.08 25.6077C44.47 25.1877 44.965 24.8427 45.565 24.5727C46.315 24.1527 47.11 23.8677 47.95 23.7177C48.82 23.5977 49.69 23.5227 50.56 23.4927C52.9 23.4027 55.24 23.2977 57.58 23.1777C59.95 23.0877 62.32 23.1177 64.69 23.2677C66.04 23.2977 67.39 23.4627 68.74 23.7627C70.12 24.0927 71.335 24.7227 72.385 25.6527C72.685 25.9527 72.955 26.2977 73.195 26.6877C73.675 27.6777 74.02 28.7427 74.23 29.8827C74.47 31.0527 74.56 32.2077 74.5 33.3477C74.44 34.5177 74.23 35.6427 73.87 36.7227C73.54 37.8327 73.045 38.8227 72.385 39.6927ZM56.5 36.7227L58.66 36.7227L61.72 36.6327C61.75 36.6327 62.05 36.6027 62.62 36.5427C63.22 36.5127 63.775 36.4827 64.285 36.4527C65.125 36.3927 65.89 36.1527 66.58 35.7327C67.27 35.3427 67.78 34.8027 68.11 34.1127C68.35 33.5127 68.395 32.8977 68.245 32.2677C68.095 31.6377 67.84 31.0827 67.48 30.6027C66.67 29.5527 65.635 28.8477 64.375 28.4877C63.235 28.2477 62.035 28.0977 60.775 28.0377C59.515 28.0077 58.255 28.0227 56.995 28.0827C55.945 28.2327 54.865 28.3377 53.755 28.3977C52.675 28.4577 51.64 28.6377 50.65 28.9377C50.05 29.2377 49.585 29.6727 49.255 30.2427C48.925 30.8127 48.73 31.4277 48.67 32.0877C48.64 32.7477 48.73 33.4077 48.94 34.0677C49.18 34.7277 49.555 35.2827 50.065 35.7327C50.425 36.0027 50.71 36.1977 50.92 36.3177C51.16 36.4377 51.415 36.5127 51.685 36.5427C51.955 36.5727 52.27 36.5727 52.63 36.5427C53.02 36.5427 53.53 36.5727 54.16 36.6327C54.76 36.6627 55.285 36.6777 55.735 36.6777C56.185 36.7077 56.44 36.7227 56.5 36.7227ZM42.865 64.6856C42.805 64.4756 42.775 64.1156 42.775 63.6056C42.775 63.0056 42.82 62.3156 42.91 61.5356C42.97 60.7556 43 60.0656 43 59.4656C45.22 58.4756 47.365 57.4856 49.435 56.4956C51.535 55.5356 53.545 54.7106 55.465 54.0206L56.815 53.5706C57.145 53.4506 57.445 53.3306 57.715 53.2106C58.015 53.1206 58.165 53.0456 58.165 52.9856C58.165 52.9556 57.805 52.9106 57.085 52.8506C56.365 52.8206 55.45 52.7906 54.34 52.7606C53.23 52.7306 52 52.7006 50.65 52.6706C49.3 52.6706 47.995 52.6706 46.735 52.6706C46.045 52.6706 45.37 52.6706 44.71 52.6706C44.08 52.6706 43.51 52.6856 43 52.7156C42.91 52.3856 42.85 52.0556 42.82 51.7256C42.79 51.3956 42.775 51.0656 42.775 50.7356C42.775 50.0156 42.82 49.2806 42.91 48.5306C43 47.8106 43.045 47.1056 43.045 46.4156L46.195 46.4156C49.045 46.4156 51.76 46.3856 54.34 46.3256C56.92 46.2956 59.62 46.2806 62.44 46.2806C64.51 46.2806 66.55 46.3106 68.56 46.3706C70.6 46.4306 72.58 46.5356 74.5 46.6856C74.56 46.9856 74.605 47.3006 74.635 47.6306C74.665 47.9906 74.68 48.3506 74.68 48.7106C74.68 48.8906 74.665 49.1906 74.635 49.6106C74.635 50.0306 74.605 50.4506 74.545 50.8706C74.515 51.2906 74.47 51.6506 74.41 51.9506C74.35 52.2806 74.29 52.4456 74.23 52.4456C73.69 52.6556 73.24 52.8506 72.88 53.0306C72.52 53.2106 72.175 53.3756 71.845 53.5256C71.515 53.7056 71.14 53.8856 70.72 54.0656C70.33 54.2756 69.82 54.5156 69.19 54.7856C69.04 54.8456 68.755 54.9806 68.335 55.1906C67.915 55.4006 67.42 55.6406 66.85 55.9106C66.31 56.1806 65.725 56.4656 65.095 56.7656C64.495 57.0656 63.94 57.3356 63.43 57.5756C62.95 57.8456 62.53 58.0706 62.17 58.2506C61.84 58.4306 61.675 58.5356 61.675 58.5656C61.735 58.6556 62.035 58.7306 62.575 58.7906C63.115 58.8506 63.64 58.8806 64.15 58.8806C65.35 58.8806 66.46 58.8506 67.48 58.7906C68.53 58.7606 69.595 58.7456 70.675 58.7456C71.305 58.7456 71.935 58.7456 72.565 58.7456C73.225 58.7756 73.93 58.8056 74.68 58.8356C74.86 59.8556 74.95 60.9356 74.95 62.0756C74.95 63.1856 74.86 64.1756 74.68 65.0456L60.19 65.0456C58.93 65.0756 57.655 65.0906 56.365 65.0906C55.075 65.0906 53.785 65.0906 52.495 65.0906C51.625 65.0906 50.785 65.0756 49.975 65.0456C49.165 65.0456 48.34 65.0456 47.5 65.0456C46.9 65.0456 46.3 65.0456 45.7 65.0456C45.1 65.0756 44.5 65.0906 43.9 65.0906L43 65.0906C42.97 65.0306 42.925 64.8956 42.865 64.6856ZM74.725 77.7377C74.755 81.0077 74.605 84.1877 74.275 87.2777C73.285 87.3377 72.145 87.3527 70.855 87.3227C69.565 87.3227 68.38 87.2477 67.3 87.0977C67.42 86.5277 67.465 85.8227 67.435 84.9827C67.405 84.1427 67.36 83.0177 67.3 81.6077L67.3 81.5177L67.3 81.4727C67.27 81.4727 67.24 81.4577 67.21 81.4277C67.21 81.4277 67.195 81.4277 67.165 81.4277C67.015 81.3977 66.775 81.3677 66.445 81.3377C66.145 81.3377 65.65 81.3377 64.96 81.3377C64.3 81.3377 63.415 81.3377 62.305 81.3377C61.225 81.3677 59.815 81.3977 58.075 81.4277C56.365 81.4577 54.295 81.4877 51.865 81.5177C49.465 81.5477 46.63 81.5927 43.36 81.6527L43.315 81.6527L43.27 81.6527C43.18 81.1127 43.12 80.5127 43.09 79.8527C43.09 79.2227 43.09 78.5777 43.09 77.9177C43.09 77.2877 43.09 76.6577 43.09 76.0277C43.09 75.3977 43.045 74.8127 42.955 74.2727C43.075 74.2427 43.615 74.2427 44.575 74.2727C45.535 74.3027 46.96 74.3177 48.85 74.3177C50.77 74.3477 53.215 74.3327 56.185 74.2727C59.155 74.2427 62.74 74.1377 66.94 73.9577L66.985 73.9127C67.165 73.5527 67.27 73.1027 67.3 72.5627C67.36 72.0227 67.39 71.4827 67.39 70.9427C67.42 70.4027 67.435 69.9077 67.435 69.4577C67.435 69.0077 67.465 68.6927 67.525 68.5127C67.645 68.4527 67.945 68.3927 68.425 68.3327C68.905 68.3027 69.475 68.2727 70.135 68.2427C70.825 68.2427 71.56 68.2427 72.34 68.2427C73.12 68.2427 73.87 68.2727 74.59 68.3327C74.62 68.3327 74.635 68.3177 74.635 68.2877C74.635 68.2877 74.65 68.2877 74.68 68.2877C74.71 71.3477 74.725 74.4977 74.725 77.7377ZM60.865 102.462C59.995 102.672 59.305 102.837 58.795 102.957L43.045 106.332L43 106.332C42.82 105.432 42.76 104.442 42.82 103.362C42.85 102.282 42.97 101.262 43.18 100.302L43.18 100.257C43.66 100.077 44.23 99.8974 44.89 99.7174C45.55 99.5674 46.225 99.4024 46.915 99.2224C47.605 99.0724 48.265 98.9074 48.895 98.7274C49.525 98.5474 50.065 98.3524 50.515 98.1424C50.575 97.7524 50.605 97.4524 50.605 97.2424C50.605 97.0324 50.605 96.8374 50.605 96.6574C50.605 96.5074 50.59 96.3274 50.56 96.1174C50.56 95.9374 50.56 95.6824 50.56 95.3524C50.08 95.1424 49.51 94.9624 48.85 94.8124C48.22 94.6924 47.545 94.5574 46.825 94.4074C46.135 94.2874 45.46 94.1524 44.8 94.0024C44.14 93.8524 43.555 93.6424 43.045 93.3724C43.045 93.3424 43.03 93.3124 43 93.2824C43 93.2824 43 93.2674 43 93.2374C42.94 92.9974 42.94 92.3974 43 91.4374C43.06 90.4774 43.075 88.9774 43.045 86.9374C43.045 86.9074 43.06 86.8774 43.09 86.8474C43.3 86.9074 43.885 87.0124 44.845 87.1624C45.805 87.3124 47.05 87.5224 48.58 87.7924C50.11 88.0624 51.865 88.3774 53.845 88.7374C55.855 89.1274 57.985 89.5774 60.235 90.0874C62.485 90.5974 64.825 91.1524 67.255 91.7524C69.685 92.3524 72.1 93.0124 74.5 93.7324C74.53 93.9424 74.545 94.1674 74.545 94.4074C74.545 94.6474 74.545 94.9624 74.545 95.3524C74.545 95.7424 74.545 96.2374 74.545 96.8374C74.575 97.4674 74.635 98.2774 74.725 99.2674C74.335 99.3574 73.735 99.4924 72.925 99.6724C72.145 99.8824 71.245 100.092 70.225 100.302C69.235 100.542 68.17 100.782 67.03 101.022C65.89 101.292 64.795 101.547 63.745 101.787C62.695 102.027 61.735 102.252 60.865 102.462ZM55.825 96.6574C55.855 97.2274 55.87 97.7974 55.87 98.3674C58.45 98.0674 60.46 97.7974 61.9 97.5574C63.34 97.3474 64.315 97.1524 64.825 96.9724C65.335 96.8224 65.44 96.6574 65.14 96.4774C64.87 96.3274 64.3 96.1774 63.43 96.0274C62.56 95.9074 61.465 95.7574 60.145 95.5774C58.825 95.4274 57.4 95.2474 55.87 95.0374C55.84 95.5474 55.825 96.0874 55.825 96.6574ZM67.885 116.359C67.795 115.939 67.63 115.609 67.39 115.369C67.33 115.309 67.225 115.249 67.075 115.189C66.955 115.159 66.865 115.129 66.805 115.099C66.715 115.039 66.19 114.979 65.23 114.919C64.27 114.889 63.13 114.859 61.81 114.829C60.49 114.799 59.11 114.784 57.67 114.784C56.26 114.784 55.03 114.829 53.98 114.919C53.11 115.009 52.255 115.234 51.415 115.594C50.605 115.984 50.08 116.614 49.84 117.484C49.78 118.144 49.87 118.759 50.11 119.329C50.38 119.929 50.815 120.379 51.415 120.679C52.105 121.009 52.825 121.144 53.575 121.084C54.355 121.054 55.12 121.114 55.87 121.264C55.81 121.684 55.795 122.149 55.825 122.659C55.855 123.199 55.87 123.739 55.87 124.279C55.87 124.819 55.855 125.344 55.825 125.854C55.795 126.394 55.72 126.874 55.6 127.294C54.04 127.804 52.48 127.939 50.92 127.699C49.39 127.459 48.01 126.934 46.78 126.124C45.55 125.314 44.53 124.249 43.72 122.929C42.94 121.639 42.535 120.169 42.505 118.519C42.355 117.439 42.355 116.329 42.505 115.189C42.625 114.049 42.91 112.984 43.36 111.994C43.84 111.004 44.5 110.164 45.34 109.474C46.18 108.814 47.23 108.424 48.49 108.304C49.57 108.244 50.695 108.199 51.865 108.169C53.035 108.139 54.34 108.109 55.78 108.079C57.25 108.079 58.9 108.079 60.73 108.079C62.59 108.109 64.735 108.139 67.165 108.169C67.675 108.109 68.185 108.124 68.695 108.214C69.235 108.334 69.73 108.484 70.18 108.664C70.96 108.934 71.68 109.264 72.34 109.654C73 110.074 73.585 110.569 74.095 111.139C74.335 111.469 74.53 111.829 74.68 112.219C74.86 112.609 75.01 113.014 75.13 113.434C75.58 114.814 75.76 116.179 75.67 117.529C75.58 118.879 75.265 120.139 74.725 121.309C74.215 122.509 73.525 123.589 72.655 124.549C71.785 125.509 70.78 126.274 69.64 126.844C68.53 127.414 67.315 127.759 65.995 127.879C64.675 127.999 63.325 127.819 61.945 127.339C61.705 126.229 61.615 125.134 61.675 124.054C61.765 123.004 61.915 121.909 62.125 120.769C62.695 120.679 63.34 120.619 64.06 120.589C64.78 120.589 65.44 120.514 66.04 120.364C66.67 120.214 67.18 119.929 67.57 119.509C67.96 119.119 68.14 118.489 68.11 117.619C68.05 117.229 67.975 116.809 67.885 116.359ZM74.725 139.456C74.755 142.726 74.605 145.906 74.275 148.996C73.285 149.056 72.145 149.071 70.855 149.041C69.565 149.041 68.38 148.966 67.3 148.816C67.42 148.246 67.465 147.541 67.435 146.701C67.405 145.861 67.36 144.736 67.3 143.326L67.3 143.236L67.3 143.191C67.27 143.191 67.24 143.176 67.21 143.146C67.21 143.146 67.195 143.146 67.165 143.146C67.015 143.116 66.775 143.086 66.445 143.056C66.145 143.056 65.65 143.056 64.96 143.056C64.3 143.056 63.415 143.056 62.305 143.056C61.225 143.086 59.815 143.116 58.075 143.146C56.365 143.176 54.295 143.206 51.865 143.236C49.465 143.266 46.63 143.311 43.36 143.371L43.315 143.371L43.27 143.371C43.18 142.831 43.12 142.231 43.09 141.571C43.09 140.941 43.09 140.296 43.09 139.636C43.09 139.006 43.09 138.376 43.09 137.746C43.09 137.116 43.045 136.531 42.955 135.991C43.075 135.961 43.615 135.961 44.575 135.991C45.535 136.021 46.96 136.036 48.85 136.036C50.77 136.066 53.215 136.051 56.185 135.991C59.155 135.961 62.74 135.856 66.94 135.676L66.985 135.631C67.165 135.271 67.27 134.821 67.3 134.281C67.36 133.741 67.39 133.201 67.39 132.661C67.42 132.121 67.435 131.626 67.435 131.176C67.435 130.726 67.465 130.411 67.525 130.231C67.645 130.171 67.945 130.111 68.425 130.051C68.905 130.021 69.475 129.991 70.135 129.961C70.825 129.961 71.56 129.961 72.34 129.961C73.12 129.961 73.87 129.991 74.59 130.051C74.62 130.051 74.635 130.036 74.635 130.006C74.635 130.006 74.65 130.006 74.68 130.006C74.71 133.066 74.725 136.216 74.725 139.456ZM31.51 18.71C31.45 19.28 31.315 19.745 31.105 20.105C27.265 20.285 23.38 20.345 19.45 20.285C15.55 20.225 11.665 19.985 7.795 19.565C5.815 19.325 4.135 18.575 2.755 17.315C1.375 16.055 0.579999 14.345 0.369999 12.185C0.249999 10.925 0.309999 9.62 0.55 8.27C0.76 6.92 1.15 5.69 1.72 4.58C2.32 3.5 3.1 2.585 4.06 1.835C5.05 1.115 6.235 0.724997 7.615 0.664997C11.575 0.664997 15.565 0.709997 19.585 0.799998C23.605 0.889998 27.595 0.904998 31.555 0.844998L31.6 0.799998L31.6 0.844998C31.6 1.295 31.615 1.79 31.645 2.33C31.675 2.9 31.69 3.47 31.69 4.04C31.69 4.61 31.66 5.165 31.6 5.705C31.57 6.245 31.495 6.74 31.375 7.19L31.33 7.19C24.07 6.86 16.705 6.995 9.235 7.595C8.515 7.805 7.99 8.18 7.66 8.72C7.33 9.29 7.18 9.875 7.21 10.475C7.24 11.075 7.45 11.63 7.84 12.14C8.23 12.65 8.77 12.98 9.46 13.13C13.06 13.28 16.72 13.355 20.44 13.355C24.16 13.385 27.76 13.445 31.24 13.535C31.27 13.925 31.315 14.42 31.375 15.02C31.465 15.65 31.525 16.28 31.555 16.91C31.585 17.54 31.57 18.14 31.51 18.71ZM27.91 42.9147C26.44 43.6947 24.58 43.8747 22.33 43.4547L22.33 43.4097C22.15 42.3597 22.03 41.2347 21.97 40.0347C21.94 38.8347 22.075 37.7097 22.375 36.6597C23.185 36.8397 23.86 36.6747 24.4 36.1647C24.94 35.6547 25.285 35.0397 25.435 34.3197C25.585 33.5997 25.51 32.8947 25.21 32.2047C24.91 31.5447 24.34 31.1547 23.5 31.0347C23.29 30.9747 23.08 30.9447 22.87 30.9447C22.69 30.9747 22.495 31.0047 22.285 31.0347C21.565 31.2747 21.085 31.6647 20.845 32.2047C20.605 32.7447 20.44 33.3297 20.35 33.9597C20.17 35.5497 19.66 37.0197 18.82 38.3697C17.98 39.7497 16.915 40.8747 15.625 41.7447C14.935 42.2847 14.185 42.6897 13.375 42.9597C12.595 43.2297 11.785 43.3797 10.945 43.4097C10.105 43.4697 9.25 43.4097 8.38 43.2297C7.54 43.0797 6.73 42.8247 5.95 42.4647C5.02 42.1047 4.225 41.6247 3.565 41.0247C2.905 40.4247 2.365 39.7347 1.945 38.9547C1.525 38.2047 1.21 37.3797 0.999998 36.4797C0.819998 35.6097 0.744998 34.7097 0.774998 33.7797C0.804999 32.4597 1.03 31.1397 1.45 29.8197C1.9 28.5297 2.515 27.3747 3.295 26.3547C4.075 25.3347 5.02 24.5247 6.13 23.9247C7.27 23.3247 8.56 23.0697 10 23.1597L10.135 23.1597L10.27 23.1597C10.42 24.2097 10.45 25.3647 10.36 26.6247C10.3 27.8847 10.285 29.0247 10.315 30.0447C9.355 30.1047 8.635 30.4797 8.155 31.1697C7.675 31.8897 7.435 32.6397 7.435 33.4197C7.465 34.2297 7.735 34.9197 8.245 35.4897C8.755 36.0897 9.535 36.2997 10.585 36.1197C11.305 36.0297 11.875 35.7597 12.295 35.3097C12.745 34.8597 13.105 34.3197 13.375 33.6897C13.645 33.0897 13.84 32.4297 13.96 31.7097C14.11 30.9897 14.245 30.3147 14.365 29.6847C14.485 29.0847 14.68 28.5297 14.95 28.0197C15.22 27.5097 15.535 27.0447 15.895 26.6247C17.215 25.2447 18.67 24.3447 20.26 23.9247C21.85 23.5347 23.395 23.5197 24.895 23.8797C26.395 24.2397 27.76 24.9147 28.99 25.9047C30.22 26.9247 31.135 28.1547 31.735 29.5947C32.035 30.3147 32.23 31.1097 32.32 31.9797C32.44 32.8497 32.47 33.7197 32.41 34.5897C32.38 35.4897 32.26 36.3597 32.05 37.1997C31.84 38.0697 31.57 38.8647 31.24 39.5847C30.49 41.0247 29.38 42.1347 27.91 42.9147Z" fill="#0C5AB9"/>
</svg>
