<svg width="886" height="694" viewBox="0 0 886 694" fill="none" xmlns="http://www.w3.org/2000/svg">
<rect x="541.791" y="375.444" width="17.9445" height="253.545" fill="#484646"/>
<rect width="17.9344" height="268.129" transform="matrix(-0.921024 0.389506 -0.391959 -0.919983 674.418 623.633)" fill="#484646"/>
<rect width="17.9352" height="268.116" transform="matrix(0.927665 0.373415 0.375801 -0.9267 431.337 624.783)" fill="#484646"/>
<rect x="403.128" y="620.863" width="300.163" height="14.6276" fill="#484646"/>
<rect x="416.179" y="632.24" width="270.799" height="61.761" fill="#484646"/>
<rect x="416.179" y="635.49" width="270.799" height="16.2529" fill="#484646"/>
<rect x="427.598" y="659.869" width="8.1566" height="16.2529" fill="#484646"/>
<rect x="476.538" y="659.869" width="8.15662" height="16.2529" fill="#484646"/>
<rect x="525.477" y="659.869" width="8.1566" height="16.2529" fill="#484646"/>
<rect x="574.417" y="659.869" width="8.1566" height="16.2529" fill="#484646"/>
<rect x="623.357" y="659.869" width="8.15664" height="16.2529" fill="#484646"/>
<rect x="672.296" y="659.869" width="8.15664" height="16.2529" fill="#484646"/>
<rect x="443.912" y="659.869" width="8.15662" height="16.2529" fill="#484646"/>
<rect x="492.85" y="659.869" width="8.15662" height="16.2529" fill="#484646"/>
<rect x="541.791" y="659.869" width="8.15662" height="16.2529" fill="#484646"/>
<rect x="590.73" y="659.869" width="8.1566" height="16.2529" fill="#484646"/>
<rect x="639.67" y="659.869" width="8.15664" height="16.2529" fill="#484646"/>
<rect x="460.224" y="659.869" width="8.15662" height="16.2529" fill="#484646"/>
<rect x="509.165" y="659.869" width="8.1566" height="16.2529" fill="#484646"/>
<rect x="558.104" y="659.869" width="8.15662" height="16.2529" fill="#484646"/>
<rect x="607.043" y="659.869" width="8.1566" height="16.2529" fill="#484646"/>
<rect x="655.983" y="659.869" width="8.1566" height="16.2529" fill="#484646"/>
<rect x="546.685" y="43.8833" width="8.15664" height="604.609" fill="#484646"/>
<rect x="546.687" y="121.675" width="8.1566" height="14.3353" fill="#484646"/>
<rect width="8.13132" height="605.295" transform="matrix(0.927674 0.373392 -0.375824 0.926691 661.828 67.676)" fill="#484646"/>
<rect width="8.14284" height="12.4463" transform="matrix(0.927806 0.373065 -0.376154 0.926558 636.168 130.926)" fill="#484646"/>
<rect width="8.14158" height="632.878" transform="matrix(0.708086 0.706126 -0.708746 0.705464 770.144 130.109)" fill="#484646"/>
<rect width="8.14154" height="9.54535" transform="matrix(0.708085 0.706127 -0.708745 0.705465 717.975 182.037)" fill="#484646"/>
<rect width="8.15157" height="613.511" transform="matrix(0.387612 0.921823 -0.922861 0.385132 827.405 235.22)" fill="#484646"/>
<rect width="8.13841" height="8.02483" transform="matrix(0.387941 0.921686 -0.922999 0.384806 771.8 258.428)" fill="#484646"/>
<rect x="845.217" y="351.069" width="8.12647" height="597.066" transform="rotate(90 845.217 351.069)" fill="#484646"/>
<rect width="8.15173" height="620.906" transform="matrix(-0.37967 0.925122 -0.926123 -0.377222 842.526 469.544)" fill="#484646"/>
<rect width="8.13816" height="7.89947" transform="matrix(-0.380008 0.924984 -0.926261 -0.376886 335.193 263.31)" fill="#484646"/>
<rect width="8.1416" height="619.324" transform="matrix(-0.707498 0.706716 -0.709332 -0.704874 775.407 572.429)" fill="#484646"/>
<rect width="8.14154" height="11.6116" transform="matrix(-0.707498 0.706715 -0.709333 -0.704874 391.574 190.893)" fill="#484646"/>
<rect width="8.13163" height="616.988" transform="matrix(-0.921033 0.389485 -0.39198 -0.919974 671.882 629.573)" fill="#484646"/>
<rect width="8.14121" height="16.2227" transform="matrix(-0.921156 0.389195 -0.392272 -0.91985 466.668 148.529)" fill="#484646"/>
<path fill-rule="evenodd" clip-rule="evenodd" d="M551.579 541.223C655.189 541.223 739.182 457.541 739.182 354.314C739.182 251.087 655.189 167.405 551.579 167.405C447.969 167.405 363.976 251.087 363.976 354.314C363.976 457.541 447.969 541.223 551.579 541.223ZM551.579 534.722C651.585 534.722 732.656 453.951 732.656 354.314C732.656 254.678 651.585 173.907 551.579 173.907C451.573 173.907 370.502 254.678 370.502 354.314C370.502 453.951 451.573 534.722 551.579 534.722Z" fill="#484646"/>
<path fill-rule="evenodd" clip-rule="evenodd" d="M551.579 541.223C655.189 541.223 739.182 457.541 739.182 354.314C739.182 251.087 655.189 167.405 551.579 167.405C447.969 167.405 363.976 251.087 363.976 354.314C363.976 457.541 447.969 541.223 551.579 541.223ZM551.579 534.722C651.585 534.722 732.656 453.951 732.656 354.314C732.656 254.678 651.585 173.907 551.579 173.907C451.573 173.907 370.502 254.678 370.502 354.314C370.502 453.951 451.573 534.722 551.579 534.722Z" fill="#484646"/>
<path fill-rule="evenodd" clip-rule="evenodd" d="M551.577 568.853C670.503 568.853 766.912 472.801 766.912 354.315C766.912 235.828 670.503 139.776 551.577 139.776C432.651 139.776 336.242 235.828 336.242 354.315C336.242 472.801 432.651 568.853 551.577 568.853ZM552.392 559.101C665.462 559.101 757.123 467.779 757.123 355.127C757.123 242.475 665.462 151.153 552.392 151.153C439.322 151.153 347.66 242.475 347.66 355.127C347.66 467.779 439.322 559.101 552.392 559.101Z" fill="#484646"/>
<path fill-rule="evenodd" clip-rule="evenodd" d="M550.762 620.863C698.068 620.863 817.484 501.889 817.484 355.128C817.484 208.366 698.068 89.392 550.762 89.392C403.455 89.392 284.04 208.366 284.04 355.128C284.04 501.889 403.455 620.863 550.762 620.863ZM550.762 594.858C683.653 594.858 791.382 487.527 791.382 355.127C791.382 222.728 683.653 115.396 550.762 115.396C417.87 115.396 310.141 222.728 310.141 355.127C310.141 487.527 417.87 594.858 550.762 594.858Z" fill="#484646"/>
<path fill-rule="evenodd" clip-rule="evenodd" d="M551.579 427.451C592.122 427.451 624.988 394.706 624.988 354.313C624.988 313.92 592.122 281.175 551.579 281.175C511.036 281.175 478.169 313.92 478.169 354.313C478.169 394.706 511.036 427.451 551.579 427.451ZM551.579 416.074C585.815 416.074 613.569 388.423 613.569 354.313C613.569 320.203 585.815 292.552 551.579 292.552C517.343 292.552 489.589 320.203 489.589 354.313C489.589 388.423 517.343 416.074 551.579 416.074Z" fill="#484646"/>
<path d="M308.51 560.727C308.51 568.055 311.432 575.083 316.633 580.264C321.834 585.446 328.888 588.357 336.243 588.357C343.598 588.357 350.652 585.446 355.853 580.264C361.054 575.083 363.975 568.055 363.975 560.727L336.243 560.727L308.51 560.727Z" fill="#484646"/>
<path d="M308.51 560.727C308.51 564.356 309.228 567.948 310.622 571.301C312.015 574.653 314.058 577.699 316.633 580.264C319.208 582.83 322.266 584.865 325.63 586.254C328.995 587.642 332.601 588.357 336.243 588.357L336.243 560.727L308.51 560.727Z" fill="#484646"/>
<path d="M236.732 468.084C236.732 475.412 239.654 482.44 244.855 487.622C250.056 492.803 257.109 495.714 264.465 495.714C271.82 495.714 278.873 492.803 284.074 487.622C289.275 482.44 292.197 475.412 292.197 468.084L264.465 468.084L236.732 468.084Z" fill="#484646"/>
<path d="M236.732 468.084C236.732 471.713 237.449 475.306 238.843 478.658C240.237 482.01 242.279 485.056 244.855 487.622C247.43 490.187 250.487 492.223 253.852 493.611C257.216 495 260.823 495.714 264.465 495.714L264.465 468.084L236.732 468.084Z" fill="#484646"/>
<path d="M233.471 224.291C233.471 231.619 236.392 238.647 241.593 243.828C246.794 249.01 253.848 251.921 261.203 251.921C268.558 251.921 275.612 249.01 280.813 243.828C286.014 238.647 288.936 231.619 288.936 224.291L261.203 224.291L233.471 224.291Z" fill="#484646"/>
<path d="M233.471 224.291C233.471 227.919 234.188 231.512 235.582 234.865C236.975 238.217 239.018 241.263 241.593 243.828C244.168 246.394 247.226 248.429 250.59 249.818C253.955 251.206 257.561 251.921 261.203 251.921L261.203 224.291L233.471 224.291Z" fill="#484646"/>
<path d="M297.091 121.897C297.091 129.225 300.013 136.252 305.214 141.434C310.415 146.616 317.469 149.527 324.824 149.527C332.179 149.527 339.233 146.616 344.434 141.434C349.634 136.252 352.556 129.225 352.556 121.897L324.824 121.897L297.091 121.897Z" fill="#484646"/>
<path d="M297.091 121.897C297.091 125.525 297.809 129.118 299.202 132.47C300.596 135.822 302.639 138.868 305.214 141.434C307.789 144 310.846 146.035 314.211 147.423C317.576 148.812 321.182 149.527 324.824 149.527L324.824 121.897L297.091 121.897Z" fill="#484646"/>
<path d="M398.234 55.2603C398.234 62.5882 401.155 69.6159 406.356 74.7976C411.557 79.9792 418.611 82.8902 425.966 82.8902C433.321 82.8902 440.375 79.9792 445.576 74.7976C450.777 69.616 453.699 62.5882 453.699 55.2603L425.966 55.2603L398.234 55.2603Z" fill="#484646"/>
<path d="M398.234 55.2603C398.234 58.8887 398.951 62.4816 400.345 65.8338C401.738 69.186 403.781 72.2319 406.356 74.7976C408.931 77.3632 411.989 79.3984 415.353 80.787C418.718 82.1755 422.324 82.8902 425.966 82.8902L425.966 55.2603L398.234 55.2603Z" fill="#484646"/>
<path d="M523.848 27.6299C523.848 34.9578 526.77 41.9856 531.97 47.1672C537.171 52.3488 544.225 55.2598 551.58 55.2598C558.935 55.2598 565.989 52.3488 571.19 47.1672C576.391 41.9856 579.313 34.9578 579.313 27.6299L551.58 27.6299L523.848 27.6299Z" fill="#484646"/>
<path d="M523.848 27.6299C523.848 31.2583 524.565 34.8512 525.959 38.2034C527.352 41.5556 529.395 44.6015 531.97 47.1672C534.546 49.7329 537.603 51.7681 540.967 53.1566C544.332 54.5451 547.938 55.2598 551.58 55.2598L551.58 27.6299L523.848 27.6299Z" fill="#484646"/>
<path d="M639.67 55.2603C639.67 62.5882 642.592 69.6159 647.793 74.7976C652.994 79.9792 660.048 82.8902 667.403 82.8902C674.758 82.8902 681.812 79.9792 687.013 74.7976C692.213 69.616 695.135 62.5882 695.135 55.2603L667.403 55.2603L639.67 55.2603Z" fill="#484646"/>
<path d="M639.67 55.2603C639.67 58.8887 640.388 62.4816 641.781 65.8338C643.175 69.186 645.218 72.2319 647.793 74.7976C650.368 77.3632 653.425 79.3984 656.79 80.787C660.155 82.1755 663.761 82.8902 667.403 82.8902L667.403 55.2603L639.67 55.2603Z" fill="#484646"/>
<path d="M804.434 222.665C804.434 229.993 807.356 237.021 812.557 242.203C817.758 247.384 824.811 250.295 832.167 250.295C839.522 250.295 846.576 247.384 851.776 242.203C856.977 237.021 859.899 229.993 859.899 222.665L832.167 222.665L804.434 222.665Z" fill="#484646"/>
<path d="M804.434 222.665C804.434 226.294 805.151 229.887 806.545 233.239C807.939 236.591 809.982 239.637 812.557 242.203C815.132 244.768 818.189 246.803 821.554 248.192C824.918 249.581 828.525 250.295 832.167 250.295L832.167 222.665L804.434 222.665Z" fill="#484646"/>
<path d="M209 344.563C209 351.891 211.922 358.918 217.123 364.1C222.324 369.282 229.378 372.193 236.733 372.193C244.088 372.193 251.142 369.282 256.343 364.1C261.543 358.918 264.465 351.891 264.465 344.563L236.733 344.563L209 344.563Z" fill="#484646"/>
<path d="M209 344.563C209 348.191 209.718 351.784 211.111 355.136C212.505 358.488 214.548 361.534 217.123 364.1C219.698 366.666 222.755 368.701 226.12 370.089C229.485 371.478 233.091 372.193 236.733 372.193L236.733 344.563L209 344.563Z" fill="#484646"/>
<path d="M830.537 342.938C830.537 350.265 833.459 357.293 838.659 362.475C843.86 367.656 850.914 370.567 858.269 370.567C865.624 370.567 872.678 367.656 877.879 362.475C883.08 357.293 886.002 350.265 886.002 342.938L858.269 342.938L830.537 342.938Z" fill="#484646"/>
<path d="M830.537 342.938C830.537 346.566 831.254 350.159 832.648 353.511C834.041 356.863 836.084 359.909 838.659 362.475C841.235 365.04 844.292 367.076 847.656 368.464C851.021 369.853 854.627 370.567 858.269 370.567L858.269 342.938L830.537 342.938Z" fill="#484646"/>
<path d="M810.958 463.209C810.958 470.537 813.88 477.565 819.081 482.747C824.281 487.928 831.335 490.839 838.69 490.839C846.045 490.839 853.099 487.928 858.3 482.747C863.501 477.565 866.423 470.537 866.423 463.21L838.69 463.21L810.958 463.209Z" fill="#484646"/>
<path d="M810.958 463.209C810.958 466.838 811.675 470.431 813.069 473.783C814.463 477.135 816.505 480.181 819.081 482.747C821.656 485.312 824.713 487.348 828.078 488.736C831.442 490.125 835.048 490.839 838.69 490.839L838.69 463.21L810.958 463.209Z" fill="#484646"/>
<path d="M742.445 560.728C742.445 568.055 745.367 575.083 750.568 580.265C755.769 585.446 762.822 588.357 770.178 588.357C777.533 588.357 784.587 585.446 789.787 580.265C794.988 575.083 797.91 568.055 797.91 560.728L770.178 560.728L742.445 560.728Z" fill="#484646"/>
<path d="M742.445 560.728C742.445 564.356 743.162 567.949 744.556 571.301C745.95 574.653 747.993 577.699 750.568 580.265C753.143 582.831 756.2 584.866 759.565 586.254C762.929 587.643 766.536 588.357 770.178 588.357L770.178 560.728L742.445 560.728Z" fill="#484646"/>
<path d="M641.301 614.361C641.301 621.689 644.222 628.717 649.423 633.899C654.624 639.08 661.678 641.991 669.033 641.991C676.388 641.991 683.442 639.08 688.643 633.899C693.844 628.717 696.766 621.689 696.766 614.361L669.033 614.361L641.301 614.361Z" fill="#484646"/>
<path d="M641.301 614.361C641.301 617.99 642.018 621.583 643.412 624.935C644.805 628.287 646.848 631.333 649.423 633.899C651.999 636.464 655.056 638.499 658.42 639.888C661.785 641.276 665.391 641.991 669.033 641.991L669.033 614.361L641.301 614.361Z" fill="#484646"/>
<path d="M523.848 641.992C523.848 649.319 526.77 656.347 531.97 661.529C537.171 666.71 544.225 669.621 551.58 669.621C558.935 669.621 565.989 666.71 571.19 661.529C576.391 656.347 579.313 649.319 579.313 641.992L551.58 641.992L523.848 641.992Z" fill="#484646"/>
<path d="M523.848 641.992C523.848 645.62 524.565 649.213 525.959 652.565C527.352 655.917 529.395 658.963 531.97 661.529C534.546 664.094 537.603 666.13 540.967 667.518C544.332 668.907 547.938 669.621 551.58 669.621L551.58 641.992L523.848 641.992Z" fill="#484646"/>
<path d="M411.285 614.361C411.285 621.689 414.206 628.717 419.407 633.899C424.608 639.08 431.662 641.991 439.017 641.991C446.372 641.991 453.426 639.08 458.627 633.899C463.828 628.717 466.749 621.689 466.749 614.361L439.017 614.361L411.285 614.361Z" fill="#484646"/>
<path d="M411.285 614.361C411.285 617.99 412.002 621.583 413.396 624.935C414.789 628.287 416.832 631.333 419.407 633.899C421.982 636.464 425.04 638.5 428.404 639.888C431.769 641.277 435.375 641.991 439.017 641.991L439.017 614.361L411.285 614.361Z" fill="#484646"/>
<path d="M744.075 121.897C744.075 129.225 746.997 136.252 752.198 141.434C757.399 146.616 764.453 149.527 771.808 149.527C779.163 149.527 786.217 146.616 791.418 141.434C796.618 136.252 799.54 129.225 799.54 121.897L771.808 121.897L744.075 121.897Z" fill="#484646"/>
<path d="M744.075 121.897C744.075 125.525 744.793 129.118 746.186 132.47C747.58 135.822 749.623 138.868 752.198 141.434C754.773 144 757.83 146.035 761.195 147.423C764.56 148.812 768.166 149.527 771.808 149.527L771.808 121.897L744.075 121.897Z" fill="#484646"/>
<ellipse cx="550.763" cy="355.127" rx="30.1795" ry="30.0678" fill="#484646"/>
<path d="M550.763 385.195C554.726 385.195 558.65 384.417 562.312 382.906C565.973 381.395 569.3 379.18 572.103 376.388C574.905 373.596 577.128 370.282 578.645 366.634C580.161 362.986 580.942 359.076 580.942 355.127C580.942 351.178 580.161 347.269 578.645 343.621C577.128 339.973 574.905 336.658 572.103 333.866C569.3 331.074 565.973 328.859 562.312 327.348C558.65 325.837 554.726 325.059 550.763 325.059L550.763 355.127L550.763 385.195Z" fill="#484646"/>
<path d="M520.583 355.127C520.583 359.076 521.364 362.986 522.88 366.634C524.397 370.282 526.62 373.596 529.423 376.388C532.225 379.18 535.552 381.395 539.213 382.906C542.875 384.417 546.799 385.195 550.763 385.195L550.763 355.127L520.583 355.127Z" fill="#484646"/>
<ellipse cx="512.428" cy="164.156" rx="4.89396" ry="4.87586" fill="#484646"/>
<ellipse cx="587.468" cy="546.099" rx="4.89397" ry="4.87587" fill="#484646"/>
<ellipse cx="4.89136" cy="4.87847" rx="4.89136" ry="4.87847" transform="matrix(0.925758 0.378117 -0.380523 0.924771 585.267 157.888)" fill="#484646"/>
<ellipse cx="4.89137" cy="4.87848" rx="4.89137" ry="4.87848" transform="matrix(0.925758 0.378117 -0.380523 0.924772 509.285 539.645)" fill="#484646"/>
<ellipse cx="4.88491" cy="4.88495" rx="4.88491" ry="4.88495" transform="matrix(0.707641 0.706572 -0.70919 0.705018 659.141 186.881)" fill="#484646"/>
<ellipse cx="4.8849" cy="4.88494" rx="4.8849" ry="4.88494" transform="matrix(0.707641 0.706572 -0.70919 0.705017 440.77 509.583)" fill="#484646"/>
<ellipse cx="4.87857" cy="4.89127" rx="4.87857" ry="4.89127" transform="matrix(0.387221 0.921987 -0.923005 0.384788 714.916 240.547)" fill="#484646"/>
<ellipse cx="4.87856" cy="4.89127" rx="4.87856" ry="4.89127" transform="matrix(0.387222 0.921986 -0.923005 0.384787 390.231 456.948)" fill="#484646"/>
<ellipse cx="4.87587" cy="4.89397" rx="4.87587" ry="4.89397" transform="matrix(-0.000203453 1 -1 -0.000201951 746.531 312.909)" fill="#484646"/>
<ellipse cx="4.87585" cy="4.89397" rx="4.87585" ry="4.89397" transform="matrix(-0.000203454 1 -1 -0.000201951 363.154 387.595)" fill="#484646"/>
<ellipse cx="4.87846" cy="4.89137" rx="4.87846" ry="4.89137" transform="matrix(-0.379722 0.925101 -0.926083 -0.37732 747.951 390.145)" fill="#484646"/>
<ellipse cx="4.87846" cy="4.89138" rx="4.87846" ry="4.89138" transform="matrix(-0.379723 0.9251 -0.926083 -0.377319 364.709 314.773)" fill="#484646"/>
<ellipse cx="4.88499" cy="4.88486" rx="4.88499" ry="4.88486" transform="matrix(-0.71089 0.703303 -0.705931 -0.70828 718.556 464.322)" fill="#484646"/>
<ellipse cx="4.88499" cy="4.88486" rx="4.88499" ry="4.88486" transform="matrix(-0.71089 0.703303 -0.705931 -0.70828 395.183 245.978)" fill="#484646"/>
<ellipse cx="4.89128" cy="4.87856" rx="4.89128" ry="4.87856" transform="matrix(-0.923175 0.384379 -0.386812 -0.922159 664.882 519.534)" fill="#484646"/>
<ellipse cx="4.89128" cy="4.87856" rx="4.89128" ry="4.87856" transform="matrix(-0.923175 0.384379 -0.386812 -0.922159 447.82 195.955)" fill="#484646"/>
<path d="M11.498 681.133C42.7077 666.644 108.109 620.224 120.034 550.459H539.521C551.505 620.224 617.229 666.644 648.593 681.133L329.261 682.475L11.498 681.133Z" fill="#8F8D8D"/>
<path d="M285.099 630.088L329 552.293L378.651 630.088L372.379 687.714H291.109L285.099 630.088Z" fill="#8F8D8D"/>
<path fill-rule="evenodd" clip-rule="evenodd" d="M365.323 552.031L391.455 621.968L396.159 684.308H353.303C355.219 670.513 360.306 640.827 365.323 632.445C357.309 627.905 339.714 608.347 333.442 566.437L330.307 562.77L327.171 566.437C320.899 608.347 303.304 627.905 295.29 632.445C300.307 640.827 305.394 670.513 307.311 684.308H264.454L269.158 621.968L295.29 552.031L330.307 552.031H365.323Z" fill="#8F8D8D"/>
<path d="M69.2494 684.308C120.259 644.704 135.799 579.272 137.192 551.507H170.641C166.46 611.857 132.488 665.187 116.025 684.308H69.2494Z" fill="#8F8D8D"/>
<path d="M585.353 684.308C534.344 644.704 518.804 579.272 517.411 551.507H483.962C488.143 611.857 522.114 665.187 538.577 684.308H585.353Z" fill="#8F8D8D"/>
<path d="M493.631 686.928C462.795 643.97 449.294 581.892 447.9 554.126H412.099C416.28 614.476 431.437 667.806 447.9 686.928H493.631Z" fill="#8F8D8D"/>
<path d="M163.063 684.308C193.898 641.351 207.4 579.272 208.793 551.507H244.594C240.413 611.857 225.257 665.187 208.793 684.308H163.063Z" fill="#8F8D8D"/>
<rect y="679.332" width="658" height="14.6684" rx="2.79813" fill="#8F8D8D"/>
<path d="M123.865 552.555H134.84V567.747L129.353 563.032L123.865 567.747V552.555Z" fill="#8F8D8D"/>
<path d="M148.952 552.555H159.927V567.747L154.439 563.032L148.952 567.747V552.555Z" fill="#8F8D8D"/>
<path d="M174.038 552.555H185.014V567.747L179.526 563.032L174.038 567.747V552.555Z" fill="#8F8D8D"/>
<path d="M199.125 552.555H210.1V567.747L204.612 563.032L199.125 567.747V552.555Z" fill="#8F8D8D"/>
<path d="M224.211 552.555H235.187V567.747L229.699 563.032L224.211 567.747V552.555Z" fill="#8F8D8D"/>
<path d="M249.298 552.555H260.273V567.747L254.786 563.032L249.298 567.747V552.555Z" fill="#8F8D8D"/>
<path d="M274.384 552.555H285.36V567.747L279.872 563.032L274.384 567.747V552.555Z" fill="#8F8D8D"/>
<path d="M299.471 552.555H310.446V567.747L304.959 563.032L299.471 567.747V552.555Z" fill="#8F8D8D"/>
<path d="M349.644 552.555H360.62V567.747L355.132 563.032L349.644 567.747V552.555Z" fill="#8F8D8D"/>
<path d="M374.731 552.555H385.706V567.747L380.218 563.032L374.731 567.747V552.555Z" fill="#8F8D8D"/>
<path d="M399.817 552.555H410.793V567.747L405.305 563.032L399.817 567.747V552.555Z" fill="#8F8D8D"/>
<path d="M424.904 552.555H435.879V567.747L430.392 563.032L424.904 567.747V552.555Z" fill="#8F8D8D"/>
<path d="M449.99 552.555H460.966V567.747L455.478 563.032L449.99 567.747V552.555Z" fill="#8F8D8D"/>
<path d="M475.077 552.555H486.052V567.747L480.565 563.032L475.077 567.747V552.555Z" fill="#8F8D8D"/>
<path d="M500.164 552.555H511.139V567.747L505.651 563.032L500.164 567.747V552.555Z" fill="#8F8D8D"/>
<path d="M525.25 552.555H536.226V567.747L530.738 563.032L525.25 567.747V552.555Z" fill="#8F8D8D"/>
<path d="M125.956 545.744C156.225 541.027 225.405 508.918 227.589 396.449C227.606 395.589 228.305 394.87 229.162 394.87H231.818C232.676 394.87 233.374 395.589 233.391 396.449C235.586 508.918 305.112 541.027 335.533 545.744H125.956Z" fill="#8F8D8D"/>
<path d="M164.369 547.316C213.915 532.857 229.438 444.986 230.483 408.49C230.483 492.048 210.361 526.361 198.602 547.316H164.369Z" fill="#8F8D8D"/>
<path d="M296.596 547.316C247.05 532.857 231.528 444.986 230.483 408.49C230.483 492.048 250.604 526.361 262.364 547.316H296.596Z" fill="#8F8D8D"/>
<path d="M230.483 374.438V396.703" stroke="#8F8D8D" stroke-width="0.839438" stroke-linecap="round"/>
<path d="M231.006 374.962H255.569L249.037 382.296L255.569 389.107H231.006V374.962Z" fill="#8F8D8D"/>
<path fill-rule="evenodd" clip-rule="evenodd" d="M231.787 394.87H229.131C228.273 394.87 227.575 395.589 227.558 396.449C227.382 405.516 226.771 414.061 225.779 422.111H235.148C234.151 414.061 233.537 405.516 233.36 396.449C233.343 395.589 232.645 394.87 231.787 394.87Z" fill="#8F8D8D"/>
<path d="M333.442 547.316C363.712 542.599 432.892 510.49 435.076 398.021C435.093 397.161 435.791 396.441 436.649 396.441H439.305C440.163 396.441 440.861 397.161 440.878 398.021C443.073 510.49 512.599 542.599 543.02 547.316H333.442Z" fill="#8F8D8D"/>
<path d="M371.856 548.888C421.402 534.429 436.925 446.558 437.97 410.062C437.97 493.62 417.848 527.933 406.089 548.888H371.856Z" fill="#8F8D8D"/>
<path d="M504.083 548.888C454.537 534.429 439.015 446.558 437.97 410.062C437.97 493.62 458.091 527.933 469.851 548.888H504.083Z" fill="#8F8D8D"/>
<path d="M437.97 374.963V397.227" stroke="#8F8D8D" stroke-width="0.839438" stroke-linecap="round"/>
<path d="M438.492 375.487H463.056L456.523 382.821L463.056 389.631H438.492V375.487Z" fill="#8F8D8D"/>
<path fill-rule="evenodd" clip-rule="evenodd" d="M439.274 396.441H436.618C435.76 396.441 435.062 397.161 435.045 398.021C434.869 407.088 434.257 415.633 433.266 423.683H442.634C441.638 415.632 441.024 407.088 440.847 398.021C440.83 397.161 440.131 396.441 439.274 396.441Z" fill="#8F8D8D"/>
<path fill-rule="evenodd" clip-rule="evenodd" d="M137.454 545.744C177.643 539.481 255.104 506.979 296.646 411.633H363.145C404.895 506.979 482.744 539.481 523.134 545.744H137.454Z" fill="#8F8D8D"/>
<path d="M204.351 548.626C265.761 524.528 295.029 451.972 301.3 412.157H312.276C301.3 487.857 279.611 532.386 266.022 548.626H204.351Z" fill="#8F8D8D"/>
<path d="M453.649 549.15C392.239 525.052 362.971 452.496 356.7 412.682H345.724C356.7 488.381 378.389 532.91 391.978 549.15H453.649Z" fill="#8F8D8D"/>
<path d="M336.056 415.039H324.035C321.944 478.951 308.182 529.854 301.562 547.316H351.996C345.724 537.258 338.756 454.94 336.056 415.039Z" fill="#8F8D8D"/>
<path d="M288.496 414.777H296.858V426.302L292.677 422.725L288.496 426.302V414.777Z" fill="#8F8D8D"/>
<path d="M303.129 414.777H311.492V426.302L307.311 422.725L303.129 426.302V414.777Z" fill="#8F8D8D"/>
<path d="M317.763 414.777H326.126V426.302L321.944 422.725L317.763 426.302V414.777Z" fill="#8F8D8D"/>
<path d="M332.397 414.777H340.759V426.302L336.578 422.725L332.397 426.302V414.777Z" fill="#8F8D8D"/>
<path d="M347.031 414.777H355.393V426.302L351.212 422.725L347.031 426.302V414.777Z" fill="#8F8D8D"/>
<path d="M361.665 414.777H370.027V426.302L365.846 422.725L361.665 426.302V414.777Z" fill="#8F8D8D"/>
<path d="M377.344 405.069V409.538C377.344 412.431 375.004 414.777 372.118 414.777H285.882C282.996 414.777 280.656 412.431 280.656 409.538V405.529C301.836 392.88 325.218 365.436 327.323 309.544C327.334 308.938 327.824 308.431 328.425 308.431H330.287C330.888 308.431 331.377 308.938 331.389 309.544C338.176 366.569 358.345 392.89 377.344 405.069Z" fill="#8F8D8D"/>
<path d="M289.541 408.49C321.526 379.363 329.523 330.346 329.523 309.479C331.613 356.627 313.06 405.871 304.959 408.49H289.541Z" fill="#8F8D8D"/>
<path d="M370.974 408.752C338.988 379.625 330.992 330.608 330.992 309.74C328.901 356.889 347.455 406.133 355.556 408.752H370.974Z" fill="#8F8D8D"/>
<path d="M321.422 408.752C328.739 391.202 329.61 338.204 330.045 310.264C330.045 342.482 335.01 389.107 339.453 408.752H321.422Z" fill="#8F8D8D"/>
<path d="M329.261 288V310.265" stroke="#8F8D8D" stroke-width="0.839438" stroke-linecap="round"/>
<path d="M329.784 288.524H354.348L347.815 295.858L354.348 302.668H329.784V288.524Z" fill="#8F8D8D"/>
<path fill-rule="evenodd" clip-rule="evenodd" d="M334.933 331.481H325.236C326.309 324.706 327.026 317.407 327.323 309.544C327.334 308.938 327.824 308.431 328.425 308.431H330.287C330.888 308.431 331.377 308.938 331.389 309.544C332.327 317.429 333.522 324.727 334.933 331.481Z" fill="#8F8D8D"/>
<rect x="113.412" y="543.649" width="435.879" height="10.4774" rx="2.79813" fill="#8F8D8D"/>
<rect x="278.043" y="404.299" width="101.914" height="10.4774" rx="2.79813" fill="#8F8D8D"/>
</svg>
