<svg width="1280" height="604" viewBox="0 0 1280 604" fill="none" xmlns="http://www.w3.org/2000/svg">
<rect x="-100.999" y="567.512" width="1511.15" height="37.1291" transform="rotate(-15 -100.999 567.512)" fill="black"/>
<path fill-rule="evenodd" clip-rule="evenodd" d="M-0.833995 579.111L1.97883 539.919L22.8538 534.325L20.041 573.518L-0.833995 579.111Z" fill="#F6C826"/>
<path fill-rule="evenodd" clip-rule="evenodd" d="M41.3072 567.82L44.12 528.627L64.995 523.034L62.1821 562.226L41.3072 567.82Z" fill="#F6C826"/>
<path fill-rule="evenodd" clip-rule="evenodd" d="M83.4465 556.528L86.2593 517.336L107.134 511.742L104.321 550.935L83.4465 556.528Z" fill="#F6C826"/>
<path fill-rule="evenodd" clip-rule="evenodd" d="M125.588 545.237L128.4 506.044L149.275 500.451L146.463 539.644L125.588 545.237Z" fill="#F6C826"/>
<path fill-rule="evenodd" clip-rule="evenodd" d="M167.727 533.946L170.54 494.753L191.415 489.16L188.602 528.352L167.727 533.946Z" fill="#F6C826"/>
<path fill-rule="evenodd" clip-rule="evenodd" d="M209.866 522.654L212.679 483.462L233.554 477.868L230.741 517.061L209.866 522.654Z" fill="#F6C826"/>
<path fill-rule="evenodd" clip-rule="evenodd" d="M252.007 511.363L254.82 472.17L275.695 466.577L272.882 505.769L252.007 511.363Z" fill="#F6C826"/>
<path fill-rule="evenodd" clip-rule="evenodd" d="M294.148 500.071L296.961 460.879L317.835 455.285L315.023 494.478L294.148 500.071Z" fill="#F6C826"/>
<path fill-rule="evenodd" clip-rule="evenodd" d="M336.289 488.78L339.102 449.587L359.977 443.994L357.164 483.187L336.289 488.78Z" fill="#F6C826"/>
<path fill-rule="evenodd" clip-rule="evenodd" d="M378.428 477.488L381.241 438.296L402.116 432.702L399.303 471.895L378.428 477.488Z" fill="#F6C826"/>
<path fill-rule="evenodd" clip-rule="evenodd" d="M420.567 466.197L423.38 427.005L444.255 421.411L441.442 460.604L420.567 466.197Z" fill="#F6C826"/>
<path fill-rule="evenodd" clip-rule="evenodd" d="M462.709 454.906L465.521 415.713L486.396 410.12L483.584 449.312L462.709 454.906Z" fill="#F6C826"/>
<path fill-rule="evenodd" clip-rule="evenodd" d="M504.848 443.615L507.661 404.422L528.536 398.829L525.723 438.021L504.848 443.615Z" fill="#F6C826"/>
<path fill-rule="evenodd" clip-rule="evenodd" d="M546.988 432.323L549.801 393.13L570.676 387.537L567.863 426.729L546.988 432.323Z" fill="#F6C826"/>
<path fill-rule="evenodd" clip-rule="evenodd" d="M589.128 421.032L591.941 381.839L612.816 376.246L610.003 415.438L589.128 421.032Z" fill="#F6C826"/>
<path fill-rule="evenodd" clip-rule="evenodd" d="M631.268 409.74L634.081 370.548L654.955 364.954L652.143 404.147L631.268 409.74Z" fill="#F6C826"/>
<path fill-rule="evenodd" clip-rule="evenodd" d="M673.41 398.448L676.223 359.256L697.098 353.662L694.285 392.855L673.41 398.448Z" fill="#F6C826"/>
<path fill-rule="evenodd" clip-rule="evenodd" d="M715.549 387.157L718.362 347.964L739.237 342.371L736.424 381.563L715.549 387.157Z" fill="#F6C826"/>
<path fill-rule="evenodd" clip-rule="evenodd" d="M757.688 375.866L760.501 336.673L781.376 331.08L778.563 370.273L757.688 375.866Z" fill="#F6C826"/>
<path fill-rule="evenodd" clip-rule="evenodd" d="M799.829 364.575L802.642 325.382L823.516 319.789L820.704 358.981L799.829 364.575Z" fill="#F6C826"/>
<path fill-rule="evenodd" clip-rule="evenodd" d="M841.969 353.283L844.782 314.09L865.657 308.497L862.844 347.689L841.969 353.283Z" fill="#F6C826"/>
<path fill-rule="evenodd" clip-rule="evenodd" d="M884.111 341.992L886.924 302.799L907.799 297.206L904.986 336.398L884.111 341.992Z" fill="#F6C826"/>
<path fill-rule="evenodd" clip-rule="evenodd" d="M926.25 330.7L929.063 291.508L949.938 285.914L947.125 325.107L926.25 330.7Z" fill="#F6C826"/>
<path fill-rule="evenodd" clip-rule="evenodd" d="M968.389 319.409L971.202 280.216L992.077 274.623L989.264 313.815L968.389 319.409Z" fill="#F6C826"/>
<path fill-rule="evenodd" clip-rule="evenodd" d="M1010.53 308.117L1013.34 268.924L1034.22 263.331L1031.4 302.524L1010.53 308.117Z" fill="#F6C826"/>
<path fill-rule="evenodd" clip-rule="evenodd" d="M1052.67 296.826L1055.48 257.633L1076.36 252.04L1073.54 291.232L1052.67 296.826Z" fill="#F6C826"/>
<path fill-rule="evenodd" clip-rule="evenodd" d="M1094.81 285.535L1097.62 246.342L1118.5 240.749L1115.69 279.941L1094.81 285.535Z" fill="#F6C826"/>
<path fill-rule="evenodd" clip-rule="evenodd" d="M1136.95 274.243L1139.76 235.051L1160.64 229.457L1157.83 268.65L1136.95 274.243Z" fill="#F6C826"/>
<path fill-rule="evenodd" clip-rule="evenodd" d="M1179.09 262.952L1181.9 223.759L1202.78 218.166L1199.97 257.358L1179.09 262.952Z" fill="#F6C826"/>
<path fill-rule="evenodd" clip-rule="evenodd" d="M1221.23 251.66L1224.04 212.468L1244.92 206.874L1242.11 246.067L1221.23 251.66Z" fill="#F6C826"/>
<path fill-rule="evenodd" clip-rule="evenodd" d="M1263.37 240.369L1266.18 201.177L1287.06 195.583L1284.24 234.776L1263.37 240.369Z" fill="#F6C826"/>
<rect x="-91" y="0.278198" width="1511.15" height="37.1291" transform="rotate(15 -91 0.278198)" fill="black"/>
<path fill-rule="evenodd" clip-rule="evenodd" d="M-10.0534 60.4064L11.9789 27.8711L32.8538 33.4645L10.8216 65.9999L-10.0534 60.4064Z" fill="#F6C826"/>
<path fill-rule="evenodd" clip-rule="evenodd" d="M32.0869 71.6983L54.1192 39.163L74.9941 44.7564L52.9619 77.2917L32.0869 71.6983Z" fill="#F6C826"/>
<path fill-rule="evenodd" clip-rule="evenodd" d="M74.2278 82.9898L96.26 50.4545L117.135 56.0479L95.1027 88.5832L74.2278 82.9898Z" fill="#F6C826"/>
<path fill-rule="evenodd" clip-rule="evenodd" d="M116.366 94.2811L138.399 61.7457L159.274 67.3392L137.241 99.8745L116.366 94.2811Z" fill="#F6C826"/>
<path fill-rule="evenodd" clip-rule="evenodd" d="M158.506 105.572L180.538 73.0366L201.413 78.63L179.381 111.165L158.506 105.572Z" fill="#F6C826"/>
<path fill-rule="evenodd" clip-rule="evenodd" d="M200.647 116.863L222.679 84.3281L243.554 89.9216L221.522 122.457L200.647 116.863Z" fill="#F6C826"/>
<path fill-rule="evenodd" clip-rule="evenodd" d="M242.787 128.155L264.819 95.6198L285.694 101.213L263.662 133.749L242.787 128.155Z" fill="#F6C826"/>
<path fill-rule="evenodd" clip-rule="evenodd" d="M284.927 139.446L306.96 106.911L327.835 112.505L305.802 145.04L284.927 139.446Z" fill="#F6C826"/>
<path fill-rule="evenodd" clip-rule="evenodd" d="M327.067 150.738L349.1 118.203L369.975 123.796L347.942 156.332L327.067 150.738Z" fill="#F6C826"/>
<path fill-rule="evenodd" clip-rule="evenodd" d="M369.207 162.029L391.239 129.494L412.114 135.088L390.082 167.623L369.207 162.029Z" fill="#F6C826"/>
<path fill-rule="evenodd" clip-rule="evenodd" d="M411.349 173.321L433.381 140.786L454.256 146.379L432.224 178.915L411.349 173.321Z" fill="#F6C826"/>
<path fill-rule="evenodd" clip-rule="evenodd" d="M453.488 184.612L475.521 152.077L496.396 157.67L474.363 190.205L453.488 184.612Z" fill="#F6C826"/>
<path fill-rule="evenodd" clip-rule="evenodd" d="M495.629 195.904L517.661 163.368L538.536 168.962L516.504 201.497L495.629 195.904Z" fill="#F6C826"/>
<path fill-rule="evenodd" clip-rule="evenodd" d="M537.768 207.195L559.8 174.659L580.675 180.253L558.643 212.788L537.768 207.195Z" fill="#F6C826"/>
<path fill-rule="evenodd" clip-rule="evenodd" d="M579.908 218.486L601.94 185.951L622.815 191.544L600.783 224.08L579.908 218.486Z" fill="#F6C826"/>
<path fill-rule="evenodd" clip-rule="evenodd" d="M622.049 229.778L644.081 197.243L664.956 202.836L642.924 235.372L622.049 229.778Z" fill="#F6C826"/>
<path fill-rule="evenodd" clip-rule="evenodd" d="M664.189 241.07L686.221 208.534L707.096 214.128L685.063 246.663L664.189 241.07Z" fill="#F6C826"/>
<path fill-rule="evenodd" clip-rule="evenodd" d="M706.329 252.361L728.361 219.826L749.236 225.419L727.204 257.954L706.329 252.361Z" fill="#F6C826"/>
<path fill-rule="evenodd" clip-rule="evenodd" d="M748.469 263.652L770.501 231.116L791.376 236.71L769.344 269.245L748.469 263.652Z" fill="#F6C826"/>
<path fill-rule="evenodd" clip-rule="evenodd" d="M790.608 274.943L812.641 242.408L833.516 248.002L811.483 280.537L790.608 274.943Z" fill="#F6C826"/>
<path fill-rule="evenodd" clip-rule="evenodd" d="M832.749 286.235L854.782 253.7L875.657 259.293L853.624 291.829L832.749 286.235Z" fill="#F6C826"/>
<path fill-rule="evenodd" clip-rule="evenodd" d="M874.89 297.526L896.922 264.991L917.797 270.584L895.765 303.12L874.89 297.526Z" fill="#F6C826"/>
<path fill-rule="evenodd" clip-rule="evenodd" d="M917.029 308.818L939.061 276.282L959.936 281.876L937.904 314.411L917.029 308.818Z" fill="#F6C826"/>
<path fill-rule="evenodd" clip-rule="evenodd" d="M959.17 320.109L981.202 287.574L1002.08 293.167L980.045 325.703L959.17 320.109Z" fill="#F6C826"/>
<path fill-rule="evenodd" clip-rule="evenodd" d="M1001.31 331.401L1023.34 298.865L1044.22 304.459L1022.18 336.994L1001.31 331.401Z" fill="#F6C826"/>
<path fill-rule="evenodd" clip-rule="evenodd" d="M1043.45 342.692L1065.48 310.157L1086.36 315.75L1064.32 348.285L1043.45 342.692Z" fill="#F6C826"/>
<path fill-rule="evenodd" clip-rule="evenodd" d="M1085.59 353.983L1107.62 321.448L1128.5 327.041L1106.46 359.576L1085.59 353.983Z" fill="#F6C826"/>
<path fill-rule="evenodd" clip-rule="evenodd" d="M1127.73 365.275L1149.76 332.739L1170.64 338.333L1148.6 370.868L1127.73 365.275Z" fill="#F6C826"/>
<path fill-rule="evenodd" clip-rule="evenodd" d="M1169.87 376.566L1191.9 344.031L1212.78 349.624L1190.75 382.16L1169.87 376.566Z" fill="#F6C826"/>
<path fill-rule="evenodd" clip-rule="evenodd" d="M1212.01 387.857L1234.04 355.322L1254.92 360.916L1232.88 393.451L1212.01 387.857Z" fill="#F6C826"/>
<path fill-rule="evenodd" clip-rule="evenodd" d="M1254.15 399.149L1276.18 366.614L1297.06 372.207L1275.03 404.743L1254.15 399.149Z" fill="#F6C826"/>
</svg>
