<svg width="390" height="932" viewBox="0 0 390 932" fill="none" xmlns="http://www.w3.org/2000/svg">
<rect x="-421.372" y="-124" width="1511.15" height="37.1291" transform="rotate(45.8196 -421.372 -124)" fill="black"/>
<path fill-rule="evenodd" clip-rule="evenodd" d="M-48.215 313.265L-12.625 296.612L2.43641 312.11L-33.1536 328.763L-48.215 313.265Z" fill="#F6C826"/>
<path fill-rule="evenodd" clip-rule="evenodd" d="M-17.8107 344.552L17.7793 327.899L32.8407 343.397L-2.74932 360.05L-17.8107 344.552Z" fill="#F6C826"/>
<path fill-rule="evenodd" clip-rule="evenodd" d="M12.593 375.838L48.183 359.185L63.2444 374.683L27.6544 391.336L12.593 375.838Z" fill="#F6C826"/>
<path fill-rule="evenodd" clip-rule="evenodd" d="M42.9972 407.125L78.5872 390.472L93.6486 405.97L58.0586 422.623L42.9972 407.125Z" fill="#F6C826"/>
<path fill-rule="evenodd" clip-rule="evenodd" d="M73.402 438.412L108.992 421.76L124.053 437.258L88.4634 453.911L73.402 438.412Z" fill="#F6C826"/>
<path fill-rule="evenodd" clip-rule="evenodd" d="M103.806 469.699L139.396 453.046L154.457 468.545L118.867 485.197L103.806 469.699Z" fill="#F6C826"/>
<path fill-rule="evenodd" clip-rule="evenodd" d="M134.21 500.986L169.8 484.333L184.862 499.831L149.272 516.484L134.21 500.986Z" fill="#F6C826"/>
<path fill-rule="evenodd" clip-rule="evenodd" d="M164.615 532.272L200.205 515.619L215.266 531.118L179.676 547.771L164.615 532.272Z" fill="#F6C826"/>
<path fill-rule="evenodd" clip-rule="evenodd" d="M195.018 563.559L230.608 546.906L245.67 562.404L210.08 579.057L195.018 563.559Z" fill="#F6C826"/>
<path fill-rule="evenodd" clip-rule="evenodd" d="M225.423 594.846L261.013 578.194L276.075 593.692L240.485 610.345L225.423 594.846Z" fill="#F6C826"/>
<path fill-rule="evenodd" clip-rule="evenodd" d="M255.828 626.133L291.418 609.48L306.479 624.979L270.889 641.632L255.828 626.133Z" fill="#F6C826"/>
<path fill-rule="evenodd" clip-rule="evenodd" d="M286.232 657.419L321.822 640.766L336.883 656.265L301.293 672.918L286.232 657.419Z" fill="#F6C826"/>
<path fill-rule="evenodd" clip-rule="evenodd" d="M316.636 688.707L352.226 672.054L367.288 687.553L331.698 704.206L316.636 688.707Z" fill="#F6C826"/>
<path fill-rule="evenodd" clip-rule="evenodd" d="M347.04 719.993L382.63 703.341L397.692 718.839L362.102 735.492L347.04 719.993Z" fill="#F6C826"/>
<path fill-rule="evenodd" clip-rule="evenodd" d="M377.445 751.28L413.035 734.627L428.096 750.126L392.506 766.779L377.445 751.28Z" fill="#F6C826"/>
</svg>
