<svg width="390" height="655" viewBox="0 0 390 655" fill="none" xmlns="http://www.w3.org/2000/svg">
<rect x="-463.999" y="1044.75" width="1511.15" height="37.1291" transform="rotate(-43.2675 -463.999 1044.75)" fill="black"/>
<path fill-rule="evenodd" clip-rule="evenodd" d="M-20.8446 678.605L-36.9283 642.754L-21.1918 627.941L-5.108 663.792L-20.8446 678.605Z" fill="#F6C826"/>
<path fill-rule="evenodd" clip-rule="evenodd" d="M10.9221 648.703L-5.16165 612.853L10.5749 598.04L26.6587 633.891L10.9221 648.703Z" fill="#F6C826"/>
<path fill-rule="evenodd" clip-rule="evenodd" d="M42.6893 618.801L26.6056 582.95L42.3421 568.138L58.4259 603.988L42.6893 618.801Z" fill="#F6C826"/>
<path fill-rule="evenodd" clip-rule="evenodd" d="M74.4569 588.899L58.3731 553.048L74.1097 538.236L90.1934 574.087L74.4569 588.899Z" fill="#F6C826"/>
<path fill-rule="evenodd" clip-rule="evenodd" d="M106.223 558.998L90.1395 523.147L105.876 508.334L121.96 544.185L106.223 558.998Z" fill="#F6C826"/>
<path fill-rule="evenodd" clip-rule="evenodd" d="M137.992 529.094L121.908 493.243L137.645 478.431L153.729 514.282L137.992 529.094Z" fill="#F6C826"/>
<path fill-rule="evenodd" clip-rule="evenodd" d="M169.759 499.193L153.675 463.342L169.411 448.529L185.495 484.38L169.759 499.193Z" fill="#F6C826"/>
<path fill-rule="evenodd" clip-rule="evenodd" d="M201.525 469.292L185.442 433.441L201.178 418.628L217.262 454.479L201.525 469.292Z" fill="#F6C826"/>
<path fill-rule="evenodd" clip-rule="evenodd" d="M233.293 439.39L217.209 403.539L232.946 388.726L249.029 424.577L233.293 439.39Z" fill="#F6C826"/>
<path fill-rule="evenodd" clip-rule="evenodd" d="M265.06 409.487L248.976 373.636L264.713 358.824L280.797 394.675L265.06 409.487Z" fill="#F6C826"/>
<path fill-rule="evenodd" clip-rule="evenodd" d="M296.829 379.585L280.745 343.734L296.482 328.921L312.566 364.772L296.829 379.585Z" fill="#F6C826"/>
<path fill-rule="evenodd" clip-rule="evenodd" d="M328.596 349.683L312.512 313.832L328.249 299.02L344.332 334.871L328.596 349.683Z" fill="#F6C826"/>
<path fill-rule="evenodd" clip-rule="evenodd" d="M360.362 319.782L344.278 283.931L360.015 269.118L376.098 304.969L360.362 319.782Z" fill="#F6C826"/>
<path fill-rule="evenodd" clip-rule="evenodd" d="M392.13 289.879L376.046 254.028L391.782 239.216L407.866 275.067L392.13 289.879Z" fill="#F6C826"/>
</svg>
