<svg width="1280" height="431" viewBox="0 0 1280 431" fill="none" xmlns="http://www.w3.org/2000/svg">
<rect x="-91" y="0.278198" width="1511.15" height="37.1291" transform="rotate(15 -91 0.278198)" fill="black"/>
<path fill-rule="evenodd" clip-rule="evenodd" d="M-10.0534 60.4064L11.9789 27.8711L32.8538 33.4645L10.8216 65.9999L-10.0534 60.4064Z" fill="#F6C826"/>
<path fill-rule="evenodd" clip-rule="evenodd" d="M32.0869 71.6983L54.1192 39.163L74.9941 44.7564L52.9619 77.2917L32.0869 71.6983Z" fill="#F6C826"/>
<path fill-rule="evenodd" clip-rule="evenodd" d="M74.2278 82.9898L96.26 50.4545L117.135 56.0479L95.1027 88.5832L74.2278 82.9898Z" fill="#F6C826"/>
<path fill-rule="evenodd" clip-rule="evenodd" d="M116.366 94.2811L138.399 61.7457L159.274 67.3392L137.241 99.8745L116.366 94.2811Z" fill="#F6C826"/>
<path fill-rule="evenodd" clip-rule="evenodd" d="M158.506 105.572L180.538 73.0366L201.413 78.63L179.381 111.165L158.506 105.572Z" fill="#F6C826"/>
<path fill-rule="evenodd" clip-rule="evenodd" d="M200.647 116.863L222.679 84.3281L243.554 89.9216L221.522 122.457L200.647 116.863Z" fill="#F6C826"/>
<path fill-rule="evenodd" clip-rule="evenodd" d="M242.787 128.155L264.819 95.6198L285.694 101.213L263.662 133.749L242.787 128.155Z" fill="#F6C826"/>
<path fill-rule="evenodd" clip-rule="evenodd" d="M284.927 139.446L306.96 106.911L327.835 112.505L305.802 145.04L284.927 139.446Z" fill="#F6C826"/>
<path fill-rule="evenodd" clip-rule="evenodd" d="M327.067 150.738L349.1 118.203L369.975 123.796L347.942 156.332L327.067 150.738Z" fill="#F6C826"/>
<path fill-rule="evenodd" clip-rule="evenodd" d="M369.207 162.029L391.239 129.494L412.114 135.088L390.082 167.623L369.207 162.029Z" fill="#F6C826"/>
<path fill-rule="evenodd" clip-rule="evenodd" d="M411.349 173.321L433.381 140.786L454.256 146.379L432.224 178.915L411.349 173.321Z" fill="#F6C826"/>
<path fill-rule="evenodd" clip-rule="evenodd" d="M453.488 184.612L475.521 152.077L496.396 157.67L474.363 190.205L453.488 184.612Z" fill="#F6C826"/>
<path fill-rule="evenodd" clip-rule="evenodd" d="M495.629 195.904L517.661 163.368L538.536 168.962L516.504 201.497L495.629 195.904Z" fill="#F6C826"/>
<path fill-rule="evenodd" clip-rule="evenodd" d="M537.768 207.195L559.8 174.659L580.675 180.253L558.643 212.788L537.768 207.195Z" fill="#F6C826"/>
<path fill-rule="evenodd" clip-rule="evenodd" d="M579.908 218.486L601.94 185.951L622.815 191.544L600.783 224.08L579.908 218.486Z" fill="#F6C826"/>
<path fill-rule="evenodd" clip-rule="evenodd" d="M622.049 229.778L644.081 197.243L664.956 202.836L642.924 235.372L622.049 229.778Z" fill="#F6C826"/>
<path fill-rule="evenodd" clip-rule="evenodd" d="M664.189 241.07L686.221 208.534L707.096 214.128L685.063 246.663L664.189 241.07Z" fill="#F6C826"/>
<path fill-rule="evenodd" clip-rule="evenodd" d="M706.329 252.361L728.361 219.826L749.236 225.419L727.204 257.954L706.329 252.361Z" fill="#F6C826"/>
<path fill-rule="evenodd" clip-rule="evenodd" d="M748.469 263.652L770.501 231.116L791.376 236.71L769.344 269.245L748.469 263.652Z" fill="#F6C826"/>
<path fill-rule="evenodd" clip-rule="evenodd" d="M790.608 274.943L812.641 242.408L833.516 248.002L811.483 280.537L790.608 274.943Z" fill="#F6C826"/>
<path fill-rule="evenodd" clip-rule="evenodd" d="M832.749 286.235L854.782 253.7L875.657 259.293L853.624 291.829L832.749 286.235Z" fill="#F6C826"/>
<path fill-rule="evenodd" clip-rule="evenodd" d="M874.89 297.526L896.922 264.991L917.797 270.584L895.765 303.12L874.89 297.526Z" fill="#F6C826"/>
<path fill-rule="evenodd" clip-rule="evenodd" d="M917.029 308.818L939.061 276.282L959.936 281.876L937.904 314.411L917.029 308.818Z" fill="#F6C826"/>
<path fill-rule="evenodd" clip-rule="evenodd" d="M959.17 320.109L981.202 287.574L1002.08 293.167L980.045 325.703L959.17 320.109Z" fill="#F6C826"/>
<path fill-rule="evenodd" clip-rule="evenodd" d="M1001.31 331.401L1023.34 298.865L1044.22 304.459L1022.18 336.994L1001.31 331.401Z" fill="#F6C826"/>
<path fill-rule="evenodd" clip-rule="evenodd" d="M1043.45 342.692L1065.48 310.157L1086.36 315.75L1064.32 348.285L1043.45 342.692Z" fill="#F6C826"/>
<path fill-rule="evenodd" clip-rule="evenodd" d="M1085.59 353.983L1107.62 321.448L1128.5 327.041L1106.46 359.576L1085.59 353.983Z" fill="#F6C826"/>
<path fill-rule="evenodd" clip-rule="evenodd" d="M1127.73 365.275L1149.76 332.739L1170.64 338.333L1148.6 370.868L1127.73 365.275Z" fill="#F6C826"/>
<path fill-rule="evenodd" clip-rule="evenodd" d="M1169.87 376.566L1191.9 344.031L1212.78 349.624L1190.75 382.16L1169.87 376.566Z" fill="#F6C826"/>
<path fill-rule="evenodd" clip-rule="evenodd" d="M1212.01 387.857L1234.04 355.322L1254.92 360.916L1232.88 393.451L1212.01 387.857Z" fill="#F6C826"/>
<path fill-rule="evenodd" clip-rule="evenodd" d="M1254.15 399.149L1276.18 366.614L1297.06 372.207L1275.03 404.743L1254.15 399.149Z" fill="#F6C826"/>
</svg>
