<svg width="1280" height="431" viewBox="0 0 1280 431" fill="none" xmlns="http://www.w3.org/2000/svg">
<rect x="-100.999" y="394.512" width="1511.15" height="37.1291" transform="rotate(-15 -100.999 394.512)" fill="black"/>
<path fill-rule="evenodd" clip-rule="evenodd" d="M-0.833995 406.111L1.97883 366.919L22.8538 361.325L20.041 400.518L-0.833995 406.111Z" fill="#F6C826"/>
<path fill-rule="evenodd" clip-rule="evenodd" d="M41.3072 394.82L44.12 355.627L64.995 350.034L62.1821 389.226L41.3072 394.82Z" fill="#F6C826"/>
<path fill-rule="evenodd" clip-rule="evenodd" d="M83.4465 383.528L86.2593 344.336L107.134 338.742L104.321 377.935L83.4465 383.528Z" fill="#F6C826"/>
<path fill-rule="evenodd" clip-rule="evenodd" d="M125.588 372.237L128.4 333.044L149.275 327.451L146.463 366.644L125.588 372.237Z" fill="#F6C826"/>
<path fill-rule="evenodd" clip-rule="evenodd" d="M167.727 360.946L170.54 321.753L191.415 316.16L188.602 355.352L167.727 360.946Z" fill="#F6C826"/>
<path fill-rule="evenodd" clip-rule="evenodd" d="M209.866 349.654L212.679 310.462L233.554 304.868L230.741 344.061L209.866 349.654Z" fill="#F6C826"/>
<path fill-rule="evenodd" clip-rule="evenodd" d="M252.007 338.363L254.82 299.17L275.695 293.577L272.882 332.769L252.007 338.363Z" fill="#F6C826"/>
<path fill-rule="evenodd" clip-rule="evenodd" d="M294.148 327.071L296.961 287.879L317.835 282.285L315.023 321.478L294.148 327.071Z" fill="#F6C826"/>
<path fill-rule="evenodd" clip-rule="evenodd" d="M336.289 315.78L339.102 276.587L359.977 270.994L357.164 310.187L336.289 315.78Z" fill="#F6C826"/>
<path fill-rule="evenodd" clip-rule="evenodd" d="M378.428 304.488L381.241 265.296L402.116 259.702L399.303 298.895L378.428 304.488Z" fill="#F6C826"/>
<path fill-rule="evenodd" clip-rule="evenodd" d="M420.567 293.197L423.38 254.005L444.255 248.411L441.442 287.604L420.567 293.197Z" fill="#F6C826"/>
<path fill-rule="evenodd" clip-rule="evenodd" d="M462.709 281.906L465.521 242.713L486.396 237.12L483.584 276.312L462.709 281.906Z" fill="#F6C826"/>
<path fill-rule="evenodd" clip-rule="evenodd" d="M504.848 270.615L507.661 231.422L528.536 225.829L525.723 265.021L504.848 270.615Z" fill="#F6C826"/>
<path fill-rule="evenodd" clip-rule="evenodd" d="M546.988 259.323L549.801 220.13L570.676 214.537L567.863 253.729L546.988 259.323Z" fill="#F6C826"/>
<path fill-rule="evenodd" clip-rule="evenodd" d="M589.128 248.032L591.941 208.839L612.816 203.246L610.003 242.438L589.128 248.032Z" fill="#F6C826"/>
<path fill-rule="evenodd" clip-rule="evenodd" d="M631.268 236.74L634.081 197.548L654.955 191.954L652.143 231.147L631.268 236.74Z" fill="#F6C826"/>
<path fill-rule="evenodd" clip-rule="evenodd" d="M673.41 225.448L676.223 186.256L697.098 180.662L694.285 219.855L673.41 225.448Z" fill="#F6C826"/>
<path fill-rule="evenodd" clip-rule="evenodd" d="M715.549 214.157L718.362 174.964L739.237 169.371L736.424 208.563L715.549 214.157Z" fill="#F6C826"/>
<path fill-rule="evenodd" clip-rule="evenodd" d="M757.688 202.866L760.501 163.673L781.376 158.08L778.563 197.273L757.688 202.866Z" fill="#F6C826"/>
<path fill-rule="evenodd" clip-rule="evenodd" d="M799.829 191.575L802.642 152.382L823.516 146.789L820.704 185.981L799.829 191.575Z" fill="#F6C826"/>
<path fill-rule="evenodd" clip-rule="evenodd" d="M841.969 180.283L844.782 141.09L865.657 135.497L862.844 174.689L841.969 180.283Z" fill="#F6C826"/>
<path fill-rule="evenodd" clip-rule="evenodd" d="M884.111 168.992L886.924 129.799L907.799 124.206L904.986 163.398L884.111 168.992Z" fill="#F6C826"/>
<path fill-rule="evenodd" clip-rule="evenodd" d="M926.25 157.7L929.063 118.508L949.938 112.914L947.125 152.107L926.25 157.7Z" fill="#F6C826"/>
<path fill-rule="evenodd" clip-rule="evenodd" d="M968.389 146.409L971.202 107.216L992.077 101.623L989.264 140.815L968.389 146.409Z" fill="#F6C826"/>
<path fill-rule="evenodd" clip-rule="evenodd" d="M1010.53 135.117L1013.34 95.9244L1034.22 90.331L1031.4 129.524L1010.53 135.117Z" fill="#F6C826"/>
<path fill-rule="evenodd" clip-rule="evenodd" d="M1052.67 123.826L1055.48 84.6331L1076.36 79.0397L1073.54 118.232L1052.67 123.826Z" fill="#F6C826"/>
<path fill-rule="evenodd" clip-rule="evenodd" d="M1094.81 112.535L1097.62 73.3421L1118.5 67.7487L1115.69 106.941L1094.81 112.535Z" fill="#F6C826"/>
<path fill-rule="evenodd" clip-rule="evenodd" d="M1136.95 101.243L1139.76 62.0505L1160.64 56.4571L1157.83 95.6497L1136.95 101.243Z" fill="#F6C826"/>
<path fill-rule="evenodd" clip-rule="evenodd" d="M1179.09 89.9517L1181.9 50.7592L1202.78 45.1657L1199.97 84.3583L1179.09 89.9517Z" fill="#F6C826"/>
<path fill-rule="evenodd" clip-rule="evenodd" d="M1221.23 78.6604L1224.04 39.4678L1244.92 33.8744L1242.11 73.0669L1221.23 78.6604Z" fill="#F6C826"/>
<path fill-rule="evenodd" clip-rule="evenodd" d="M1263.37 67.3691L1266.18 28.1765L1287.06 22.5831L1284.24 61.7756L1263.37 67.3691Z" fill="#F6C826"/>
</svg>
