<svg width="312" height="312" viewBox="0 0 312 312" fill="none" xmlns="http://www.w3.org/2000/svg">
<rect y="155.563" width="220" height="220" rx="10" transform="rotate(-45 0 155.563)" fill="#F6C826"/>
<rect x="25.5355" y="154.563" width="183.797" height="183.797" transform="rotate(-45 25.5355 154.563)" fill="#F6C826" stroke="#202020" stroke-width="5"/>
<path d="M115.791 116.663C116.424 116.73 116.941 116.88 117.341 117.113C117.541 121.38 117.607 125.697 117.541 130.063C117.474 134.397 117.207 138.713 116.741 143.013C116.474 145.213 115.641 147.08 114.241 148.613C112.841 150.147 110.941 151.03 108.541 151.263C107.141 151.397 105.691 151.33 104.191 151.063C102.691 150.83 101.324 150.397 100.091 149.763C98.8906 149.097 97.874 148.23 97.0406 147.163C96.2406 146.063 95.8073 144.747 95.7406 143.213C95.7406 138.813 95.7906 134.38 95.8906 129.913C95.9906 125.447 96.0073 121.013 95.9406 116.613L95.8906 116.563H95.9406C96.4406 116.563 96.9906 116.547 97.5906 116.513C98.224 116.48 98.8573 116.463 99.4906 116.463C100.124 116.463 100.741 116.497 101.341 116.563C101.941 116.597 102.491 116.68 102.991 116.813V116.863C102.624 124.93 102.774 133.113 103.441 141.413C103.674 142.213 104.091 142.797 104.691 143.163C105.324 143.53 105.974 143.697 106.641 143.663C107.307 143.63 107.924 143.397 108.491 142.963C109.057 142.53 109.424 141.93 109.591 141.163C109.757 137.163 109.841 133.097 109.841 128.963C109.874 124.83 109.941 120.83 110.041 116.963C110.474 116.93 111.024 116.88 111.691 116.813C112.391 116.713 113.091 116.647 113.791 116.613C114.491 116.58 115.157 116.597 115.791 116.663ZM141.535 150.713C141.301 150.78 140.901 150.813 140.335 150.813C139.668 150.813 138.901 150.763 138.035 150.663C137.168 150.597 136.401 150.563 135.735 150.563C134.635 148.097 133.535 145.713 132.435 143.413C131.368 141.08 130.451 138.847 129.685 136.713L129.185 135.213C129.051 134.847 128.918 134.513 128.785 134.213C128.685 133.88 128.601 133.713 128.535 133.713C128.501 133.713 128.451 134.113 128.385 134.913C128.351 135.713 128.318 136.73 128.285 137.963C128.251 139.197 128.218 140.563 128.185 142.063C128.185 143.563 128.185 145.013 128.185 146.413C128.185 147.18 128.185 147.93 128.185 148.663C128.185 149.363 128.201 149.997 128.235 150.563C127.868 150.663 127.501 150.73 127.135 150.763C126.768 150.797 126.401 150.813 126.035 150.813C125.235 150.813 124.418 150.763 123.585 150.663C122.785 150.563 122.001 150.513 121.235 150.513V147.013C121.235 143.847 121.201 140.83 121.135 137.963C121.101 135.097 121.085 132.097 121.085 128.963C121.085 126.663 121.118 124.397 121.185 122.163C121.251 119.897 121.368 117.697 121.535 115.563C121.868 115.497 122.218 115.447 122.585 115.413C122.985 115.38 123.385 115.363 123.785 115.363C123.985 115.363 124.318 115.38 124.785 115.413C125.251 115.413 125.718 115.447 126.185 115.513C126.651 115.547 127.051 115.597 127.385 115.663C127.751 115.73 127.935 115.797 127.935 115.863C128.168 116.463 128.385 116.963 128.585 117.363C128.785 117.763 128.968 118.147 129.135 118.513C129.335 118.88 129.535 119.297 129.735 119.763C129.968 120.197 130.235 120.763 130.535 121.463C130.601 121.63 130.751 121.947 130.985 122.413C131.218 122.88 131.485 123.43 131.785 124.063C132.085 124.663 132.401 125.313 132.735 126.013C133.068 126.68 133.368 127.297 133.635 127.863C133.935 128.397 134.185 128.863 134.385 129.263C134.585 129.63 134.701 129.813 134.735 129.813C134.835 129.747 134.918 129.413 134.985 128.813C135.051 128.213 135.085 127.63 135.085 127.063C135.085 125.73 135.051 124.497 134.985 123.363C134.951 122.197 134.935 121.013 134.935 119.813C134.935 119.113 134.935 118.413 134.935 117.713C134.968 116.98 135.001 116.197 135.035 115.363C136.168 115.163 137.368 115.063 138.635 115.063C139.868 115.063 140.968 115.163 141.935 115.363V131.463C141.968 132.863 141.985 134.28 141.985 135.713C141.985 137.147 141.985 138.58 141.985 140.013C141.985 140.98 141.968 141.913 141.935 142.813C141.935 143.713 141.935 144.63 141.935 145.563C141.935 146.23 141.935 146.897 141.935 147.563C141.968 148.23 141.985 148.897 141.985 149.563V150.563C141.918 150.597 141.768 150.647 141.535 150.713ZM161.287 117.113C162.287 117.88 163.087 118.747 163.687 119.713C164.42 120.847 165.02 122.03 165.487 123.263C165.987 124.463 166.387 125.73 166.687 127.063C166.854 127.597 166.954 128.13 166.987 128.663C167.054 129.163 167.104 129.68 167.137 130.213C167.07 131.78 167.004 133.363 166.937 134.963C166.904 136.53 166.737 138.08 166.437 139.613C166.437 139.647 166.42 139.663 166.387 139.663C166.387 139.663 166.387 139.68 166.387 139.713C165.72 141.68 164.804 143.547 163.637 145.313C162.504 147.08 161.304 148.747 160.037 150.313C157.837 150.38 155.62 150.43 153.387 150.463C151.154 150.463 148.987 150.463 146.887 150.463C146.887 150.463 146.87 150.48 146.837 150.513C146.47 147.88 146.237 145.163 146.137 142.363C146.037 139.53 145.987 136.663 145.987 133.763C145.987 130.863 146.004 127.947 146.037 125.013C146.104 122.047 146.104 119.113 146.037 116.213C146.07 116.18 146.087 116.147 146.087 116.113C146.12 116.08 146.154 116.047 146.187 116.013C147.12 115.78 148.087 115.63 149.087 115.563C150.12 115.463 151.154 115.43 152.187 115.463C153.22 115.463 154.237 115.48 155.237 115.513C156.27 115.547 157.27 115.547 158.237 115.513C159.304 115.78 160.32 116.313 161.287 117.113ZM158.387 138.763C158.654 138.463 158.887 138.163 159.087 137.863C159.654 136.997 160.054 136.047 160.287 135.013C160.554 133.98 160.554 132.847 160.287 131.613C160.187 131.113 160.07 130.597 159.937 130.063C159.804 129.497 159.604 128.963 159.337 128.463C159.104 127.963 158.804 127.53 158.437 127.163C158.07 126.763 157.604 126.463 157.037 126.263C156.47 126.197 155.854 126.163 155.187 126.163C154.52 126.13 153.887 126.18 153.287 126.313H153.187H153.137V126.513C153.204 127.413 153.237 128.38 153.237 129.413C153.237 130.447 153.22 131.53 153.187 132.663C153.154 133.763 153.137 134.897 153.137 136.063C153.137 137.197 153.17 138.33 153.237 139.463C153.604 139.797 154.104 139.947 154.737 139.913C155.404 139.88 156.037 139.83 156.637 139.763C156.804 139.797 156.954 139.78 157.087 139.713C157.22 139.613 157.37 139.53 157.537 139.463C157.87 139.263 158.154 139.03 158.387 138.763ZM184.708 143.713C186.842 143.813 189.042 143.83 191.308 143.763V143.863C191.375 144.93 191.392 146.047 191.358 147.213C191.325 148.347 191.175 149.413 190.908 150.413C187.508 150.38 184.042 150.43 180.508 150.563C177.008 150.663 173.642 150.58 170.408 150.313C170.408 147.413 170.375 144.547 170.308 141.713C170.242 138.847 170.192 135.997 170.158 133.163C170.125 130.33 170.125 127.497 170.158 124.663C170.192 121.83 170.292 118.98 170.458 116.113C171.758 116.047 173.158 115.997 174.658 115.963C176.192 115.897 177.725 115.847 179.258 115.813C180.792 115.78 182.275 115.747 183.708 115.713C185.142 115.68 186.408 115.663 187.508 115.663C188.608 115.663 189.492 115.68 190.158 115.713C190.825 115.747 191.158 115.78 191.158 115.813C191.325 116.98 191.358 118.163 191.258 119.363C191.192 120.563 191.158 121.747 191.158 122.913V122.963C190.092 123.197 189.008 123.347 187.908 123.413C186.842 123.447 185.758 123.463 184.658 123.463C183.558 123.43 182.458 123.413 181.358 123.413C180.258 123.413 179.158 123.463 178.058 123.563H177.908L177.858 123.613C177.892 124.58 177.842 125.58 177.708 126.613C177.608 127.613 177.675 128.563 177.908 129.463L177.958 129.513C178.958 129.58 179.975 129.613 181.008 129.613C182.042 129.613 183.075 129.63 184.108 129.663V129.713C184.275 130.847 184.325 131.98 184.258 133.113C184.192 134.247 184.175 135.43 184.208 136.663C183.708 136.797 183.142 136.88 182.508 136.913C181.875 136.913 181.258 136.913 180.658 136.913C180.092 136.913 179.575 136.93 179.108 136.963C178.642 136.997 178.325 137.08 178.158 137.213C177.992 138.18 177.925 139.263 177.958 140.463C178.025 141.663 178.092 142.663 178.158 143.463L178.208 143.513C180.408 143.513 182.575 143.58 184.708 143.713ZM216.18 146.463C216.914 147.73 217.53 149.047 218.03 150.413H218.08C216.914 150.413 215.614 150.463 214.18 150.563C212.747 150.63 211.28 150.613 209.78 150.513H209.73C209.397 149.747 208.98 148.83 208.48 147.763C207.98 146.697 207.43 145.58 206.83 144.413C206.23 143.247 205.58 142.097 204.88 140.963C204.18 139.83 203.48 138.83 202.78 137.963L202.68 137.813C202.58 138.58 202.53 139.53 202.53 140.663C202.53 141.763 202.547 142.913 202.58 144.113C202.647 145.28 202.714 146.397 202.78 147.463C202.847 148.53 202.897 149.38 202.93 150.013C202.364 150.247 201.614 150.397 200.68 150.463C199.78 150.53 198.88 150.563 197.98 150.563C197.08 150.597 196.264 150.597 195.53 150.563C194.83 150.53 194.397 150.53 194.23 150.563C194.297 150.563 194.347 150.113 194.38 149.213C194.414 148.28 194.43 147.063 194.43 145.563C194.43 144.063 194.43 142.347 194.43 140.413C194.43 138.447 194.414 136.43 194.38 134.363C194.38 132.263 194.347 130.197 194.28 128.163C194.247 126.097 194.214 124.213 194.18 122.513C194.147 120.78 194.097 119.313 194.03 118.113C193.997 116.88 193.947 116.047 193.88 115.613C195.747 115.347 197.797 115.097 200.03 114.863C202.264 114.63 204.597 114.647 207.03 114.913C208.997 115.013 210.764 115.58 212.33 116.613C213.897 117.647 215.114 118.93 215.98 120.463C216.847 121.997 217.297 123.697 217.33 125.563C217.397 127.397 216.914 129.18 215.88 130.913C215.247 132.113 214.397 133.113 213.33 133.913C212.297 134.713 210.98 135.163 209.38 135.263H209.18H209.13V135.313C209.83 136.547 210.597 137.78 211.43 139.013C212.264 140.213 213.08 141.43 213.88 142.663C214.68 143.897 215.447 145.163 216.18 146.463ZM204.63 121.863C203.497 121.897 202.347 122.147 201.18 122.613C201.214 123.047 201.23 123.547 201.23 124.113C201.264 124.647 201.28 125.197 201.28 125.763C201.28 126.33 201.28 126.88 201.28 127.413C201.314 127.947 201.364 128.397 201.43 128.763H201.48C202.247 128.83 203.08 128.88 203.98 128.913C204.88 128.947 205.73 128.897 206.53 128.763C207.164 128.63 207.647 128.313 207.98 127.813C208.347 127.28 208.564 126.713 208.63 126.113C208.697 125.48 208.63 124.863 208.43 124.263C208.23 123.63 207.897 123.13 207.43 122.763C206.697 122.097 205.764 121.797 204.63 121.863ZM73.38 168.867C73.0813 168.931 72.8467 169.049 72.676 169.219C72.6333 169.262 72.5907 169.337 72.548 169.443C72.5267 169.529 72.5053 169.593 72.484 169.635C72.4413 169.699 72.3987 170.073 72.356 170.755C72.3347 171.438 72.3133 172.249 72.292 173.187C72.2707 174.126 72.26 175.107 72.26 176.131C72.26 177.134 72.292 178.009 72.356 178.755C72.42 179.374 72.58 179.982 72.836 180.579C73.1133 181.155 73.5613 181.529 74.18 181.699C74.6493 181.742 75.0867 181.678 75.492 181.507C75.9187 181.315 76.2387 181.006 76.452 180.579C76.6867 180.089 76.7827 179.577 76.74 179.043C76.7187 178.489 76.7613 177.945 76.868 177.411C77.1667 177.454 77.4973 177.465 77.86 177.443C78.244 177.422 78.628 177.411 79.012 177.411C79.396 177.411 79.7693 177.422 80.132 177.443C80.516 177.465 80.8573 177.518 81.156 177.603C81.5187 178.713 81.6147 179.822 81.444 180.931C81.2733 182.019 80.9 183.001 80.324 183.875C79.748 184.75 78.9907 185.475 78.052 186.051C77.1347 186.606 76.0893 186.894 74.916 186.915C74.148 187.022 73.3587 187.022 72.548 186.915C71.7373 186.83 70.98 186.627 70.276 186.307C69.572 185.966 68.9747 185.497 68.484 184.899C68.0147 184.302 67.7373 183.555 67.652 182.659C67.6093 181.891 67.5773 181.091 67.556 180.259C67.5347 179.427 67.5133 178.499 67.492 177.475C67.492 176.43 67.492 175.257 67.492 173.955C67.5133 172.633 67.5347 171.107 67.556 169.379C67.5133 169.017 67.524 168.654 67.588 168.291C67.6733 167.907 67.78 167.555 67.908 167.235C68.1 166.681 68.3347 166.169 68.612 165.699C68.9107 165.23 69.2627 164.814 69.668 164.451C69.9027 164.281 70.1587 164.142 70.436 164.035C70.7133 163.907 71.0013 163.801 71.3 163.715C72.2813 163.395 73.252 163.267 74.212 163.331C75.172 163.395 76.068 163.619 76.9 164.003C77.7533 164.366 78.5213 164.857 79.204 165.475C79.8867 166.094 80.4307 166.809 80.836 167.619C81.2413 168.409 81.4867 169.273 81.572 170.211C81.6573 171.15 81.5293 172.11 81.188 173.091C80.3987 173.262 79.62 173.326 78.852 173.283C78.1053 173.219 77.3267 173.113 76.516 172.963C76.452 172.558 76.4093 172.099 76.388 171.587C76.388 171.075 76.3347 170.606 76.228 170.179C76.1213 169.731 75.9187 169.369 75.62 169.091C75.3427 168.814 74.8947 168.686 74.276 168.707C73.9987 168.75 73.7 168.803 73.38 168.867ZM94.797 165.667C95.4157 166.222 95.853 166.873 96.109 167.619C96.2583 167.939 96.365 168.27 96.429 168.611C96.5143 168.931 96.5783 169.262 96.621 169.603C96.6637 170.137 96.685 170.67 96.685 171.203C96.7063 171.715 96.7063 172.238 96.685 172.771C96.621 173.902 96.5997 175.001 96.621 176.067C96.6423 177.134 96.6103 178.222 96.525 179.331L96.429 180.387C96.3863 181.134 96.269 181.891 96.077 182.659C95.885 183.406 95.597 184.089 95.213 184.707C94.8503 185.219 94.3703 185.635 93.773 185.955C93.197 186.254 92.5783 186.489 91.917 186.659C91.3197 186.83 90.7117 186.937 90.093 186.979C89.4957 187.022 88.8877 187.022 88.269 186.979C87.821 186.937 87.3837 186.873 86.957 186.787C86.5517 186.723 86.157 186.606 85.773 186.435C85.4103 186.265 85.0797 186.051 84.781 185.795C84.4823 185.518 84.237 185.166 84.045 184.739C83.7463 184.206 83.5437 183.641 83.437 183.043C83.3517 182.425 83.2983 181.806 83.277 181.187C83.213 179.523 83.1383 177.859 83.053 176.195C82.989 174.51 83.0103 172.825 83.117 171.139C83.1383 170.179 83.2557 169.219 83.469 168.259C83.7037 167.278 84.1517 166.414 84.813 165.667C85.0263 165.454 85.2717 165.262 85.549 165.091C86.253 164.75 87.0103 164.505 87.821 164.355C88.653 164.185 89.4743 164.121 90.285 164.163C91.117 164.206 91.917 164.355 92.685 164.611C93.4743 164.846 94.1783 165.198 94.797 165.667ZM92.685 176.963V175.427L92.621 173.251C92.621 173.23 92.5997 173.017 92.557 172.611C92.5357 172.185 92.5143 171.79 92.493 171.427C92.4503 170.83 92.2797 170.286 91.981 169.795C91.7037 169.305 91.3197 168.942 90.829 168.707C90.4023 168.537 89.965 168.505 89.517 168.611C89.069 168.718 88.6743 168.899 88.333 169.155C87.5863 169.731 87.085 170.467 86.829 171.363C86.6583 172.174 86.5517 173.027 86.509 173.923C86.4877 174.819 86.4983 175.715 86.541 176.611C86.6477 177.358 86.7223 178.126 86.765 178.915C86.8077 179.683 86.9357 180.419 87.149 181.123C87.3623 181.55 87.6717 181.881 88.077 182.115C88.4823 182.35 88.9197 182.489 89.389 182.531C89.8583 182.553 90.3277 182.489 90.797 182.339C91.2663 182.169 91.661 181.902 91.981 181.539C92.173 181.283 92.3117 181.081 92.397 180.931C92.4823 180.761 92.5357 180.579 92.557 180.387C92.5783 180.195 92.5783 179.971 92.557 179.715C92.557 179.438 92.5783 179.075 92.621 178.627C92.6423 178.201 92.653 177.827 92.653 177.507C92.6743 177.187 92.685 177.006 92.685 176.963ZM111.93 186.659C111.78 186.702 111.524 186.723 111.162 186.723C110.735 186.723 110.244 186.691 109.69 186.627C109.135 186.585 108.644 186.563 108.218 186.563C107.514 184.985 106.81 183.459 106.106 181.987C105.423 180.494 104.836 179.065 104.346 177.699L104.026 176.739C103.94 176.505 103.855 176.291 103.77 176.099C103.706 175.886 103.652 175.779 103.61 175.779C103.588 175.779 103.556 176.035 103.514 176.547C103.492 177.059 103.471 177.71 103.45 178.499C103.428 179.289 103.407 180.163 103.386 181.123C103.386 182.083 103.386 183.011 103.386 183.907C103.386 184.398 103.386 184.878 103.386 185.347C103.386 185.795 103.396 186.201 103.418 186.563C103.183 186.627 102.948 186.67 102.714 186.691C102.479 186.713 102.244 186.723 102.01 186.723C101.498 186.723 100.975 186.691 100.442 186.627C99.9298 186.563 99.4284 186.531 98.9378 186.531V184.291C98.9378 182.265 98.9164 180.334 98.8738 178.499C98.8524 176.665 98.8418 174.745 98.8418 172.739C98.8418 171.267 98.8631 169.817 98.9058 168.387C98.9484 166.937 99.0231 165.529 99.1298 164.163C99.3431 164.121 99.5671 164.089 99.8018 164.067C100.058 164.046 100.314 164.035 100.57 164.035C100.698 164.035 100.911 164.046 101.21 164.067C101.508 164.067 101.807 164.089 102.106 164.131C102.404 164.153 102.66 164.185 102.874 164.227C103.108 164.27 103.226 164.313 103.226 164.355C103.375 164.739 103.514 165.059 103.642 165.315C103.77 165.571 103.887 165.817 103.994 166.051C104.122 166.286 104.25 166.553 104.378 166.851C104.527 167.129 104.698 167.491 104.89 167.939C104.932 168.046 105.028 168.249 105.178 168.547C105.327 168.846 105.498 169.198 105.69 169.603C105.882 169.987 106.084 170.403 106.298 170.851C106.511 171.278 106.703 171.673 106.874 172.035C107.066 172.377 107.226 172.675 107.354 172.931C107.482 173.166 107.556 173.283 107.578 173.283C107.642 173.241 107.695 173.027 107.738 172.643C107.78 172.259 107.802 171.886 107.802 171.523C107.802 170.67 107.78 169.881 107.738 169.155C107.716 168.409 107.706 167.651 107.706 166.883C107.706 166.435 107.706 165.987 107.706 165.539C107.727 165.07 107.748 164.569 107.77 164.035C108.495 163.907 109.263 163.843 110.074 163.843C110.863 163.843 111.567 163.907 112.186 164.035V174.339C112.207 175.235 112.218 176.142 112.218 177.059C112.218 177.977 112.218 178.894 112.218 179.811C112.218 180.43 112.207 181.027 112.186 181.603C112.186 182.179 112.186 182.766 112.186 183.363C112.186 183.79 112.186 184.217 112.186 184.643C112.207 185.07 112.218 185.497 112.218 185.923V186.563C112.175 186.585 112.079 186.617 111.93 186.659ZM127.963 167.427C128.518 168.473 128.646 169.795 128.347 171.395H128.315C127.569 171.523 126.769 171.609 125.915 171.651C125.062 171.673 124.262 171.577 123.515 171.363C123.643 170.787 123.526 170.307 123.163 169.923C122.801 169.539 122.363 169.294 121.851 169.187C121.339 169.081 120.838 169.134 120.347 169.347C119.878 169.561 119.601 169.966 119.515 170.563C119.473 170.713 119.451 170.862 119.451 171.011C119.473 171.139 119.494 171.278 119.515 171.427C119.686 171.939 119.963 172.281 120.347 172.451C120.731 172.622 121.147 172.739 121.595 172.803C122.726 172.931 123.771 173.294 124.731 173.891C125.713 174.489 126.513 175.246 127.131 176.163C127.515 176.654 127.803 177.187 127.995 177.763C128.187 178.318 128.294 178.894 128.315 179.491C128.358 180.089 128.315 180.697 128.187 181.315C128.081 181.913 127.899 182.489 127.643 183.043C127.387 183.705 127.046 184.27 126.619 184.739C126.193 185.209 125.702 185.593 125.147 185.891C124.614 186.19 124.027 186.414 123.387 186.563C122.769 186.691 122.129 186.745 121.467 186.723C120.529 186.702 119.59 186.542 118.651 186.243C117.734 185.923 116.913 185.486 116.187 184.931C115.462 184.377 114.886 183.705 114.459 182.915C114.033 182.105 113.851 181.187 113.915 180.163V180.067V179.971C114.662 179.865 115.483 179.843 116.379 179.907C117.275 179.95 118.086 179.961 118.811 179.939C118.854 180.622 119.121 181.134 119.611 181.475C120.123 181.817 120.657 181.987 121.211 181.987C121.787 181.966 122.278 181.774 122.683 181.411C123.11 181.049 123.259 180.494 123.131 179.747C123.067 179.235 122.875 178.83 122.555 178.531C122.235 178.211 121.851 177.955 121.403 177.763C120.977 177.571 120.507 177.433 119.995 177.347C119.483 177.241 119.003 177.145 118.555 177.059C118.129 176.974 117.734 176.835 117.371 176.643C117.009 176.451 116.678 176.227 116.379 175.971C115.398 175.033 114.758 173.998 114.459 172.867C114.182 171.737 114.171 170.638 114.427 169.571C114.683 168.505 115.163 167.534 115.867 166.659C116.593 165.785 117.467 165.134 118.491 164.707C119.003 164.494 119.569 164.355 120.187 164.291C120.806 164.206 121.425 164.185 122.043 164.227C122.683 164.249 123.302 164.334 123.899 164.483C124.518 164.633 125.083 164.825 125.595 165.059C126.619 165.593 127.409 166.382 127.963 167.427ZM136.103 164.003C138.428 163.982 140.689 164.089 142.887 164.323C142.929 165.027 142.94 165.838 142.919 166.755C142.919 167.673 142.865 168.515 142.759 169.283C142.353 169.198 141.852 169.166 141.255 169.187C140.657 169.209 139.857 169.241 138.855 169.283H138.791H138.759C138.759 169.305 138.748 169.326 138.727 169.347C138.727 169.347 138.727 169.358 138.727 169.379C138.705 169.486 138.684 169.657 138.663 169.891C138.663 170.105 138.663 170.457 138.663 170.947C138.663 171.417 138.663 172.046 138.663 172.835C138.684 173.603 138.705 174.606 138.727 175.843C138.748 177.059 138.769 178.531 138.791 180.259C138.812 181.966 138.844 183.982 138.887 186.307V186.339V186.371C138.503 186.435 138.076 186.478 137.607 186.499C137.159 186.499 136.7 186.499 136.231 186.499C135.783 186.499 135.335 186.499 134.887 186.499C134.439 186.499 134.023 186.531 133.639 186.595C133.617 186.51 133.617 186.126 133.639 185.443C133.66 184.761 133.671 183.747 133.671 182.403C133.692 181.038 133.681 179.299 133.639 177.187C133.617 175.075 133.543 172.526 133.415 169.539L133.383 169.507C133.127 169.379 132.807 169.305 132.423 169.283C132.039 169.241 131.655 169.219 131.271 169.219C130.887 169.198 130.535 169.187 130.215 169.187C129.895 169.187 129.671 169.166 129.543 169.123C129.5 169.038 129.457 168.825 129.415 168.483C129.393 168.142 129.372 167.737 129.351 167.267C129.351 166.777 129.351 166.254 129.351 165.699C129.351 165.145 129.372 164.611 129.415 164.099C129.415 164.078 129.404 164.067 129.383 164.067C129.383 164.067 129.383 164.057 129.383 164.035C131.559 164.014 133.799 164.003 136.103 164.003ZM158.578 183.939C159.047 184.75 159.442 185.593 159.762 186.467H159.794C159.047 186.467 158.215 186.499 157.298 186.563C156.381 186.606 155.442 186.595 154.482 186.531H154.45C154.237 186.041 153.97 185.454 153.65 184.771C153.33 184.089 152.978 183.374 152.594 182.627C152.21 181.881 151.794 181.145 151.346 180.419C150.898 179.694 150.45 179.054 150.002 178.499L149.938 178.403C149.874 178.894 149.842 179.502 149.842 180.227C149.842 180.931 149.853 181.667 149.874 182.435C149.917 183.182 149.959 183.897 150.002 184.579C150.045 185.262 150.077 185.806 150.098 186.211C149.735 186.361 149.255 186.457 148.658 186.499C148.082 186.542 147.506 186.563 146.93 186.563C146.354 186.585 145.831 186.585 145.362 186.563C144.914 186.542 144.637 186.542 144.53 186.563C144.573 186.563 144.605 186.275 144.626 185.699C144.647 185.102 144.658 184.323 144.658 183.363C144.658 182.403 144.658 181.305 144.658 180.067C144.658 178.809 144.647 177.518 144.626 176.195C144.626 174.851 144.605 173.529 144.562 172.227C144.541 170.905 144.519 169.699 144.498 168.611C144.477 167.502 144.445 166.563 144.402 165.795C144.381 165.006 144.349 164.473 144.306 164.195C145.501 164.025 146.813 163.865 148.242 163.715C149.671 163.566 151.165 163.577 152.722 163.747C153.981 163.811 155.111 164.174 156.114 164.835C157.117 165.497 157.895 166.318 158.45 167.299C159.005 168.281 159.293 169.369 159.314 170.563C159.357 171.737 159.047 172.878 158.386 173.987C157.981 174.755 157.437 175.395 156.754 175.907C156.093 176.419 155.25 176.707 154.226 176.771H154.098H154.066V176.803C154.514 177.593 155.005 178.382 155.538 179.171C156.071 179.939 156.594 180.718 157.106 181.507C157.618 182.297 158.109 183.107 158.578 183.939ZM151.186 168.195C150.461 168.217 149.725 168.377 148.978 168.675C148.999 168.953 149.01 169.273 149.01 169.635C149.031 169.977 149.042 170.329 149.042 170.691C149.042 171.054 149.042 171.406 149.042 171.747C149.063 172.089 149.095 172.377 149.138 172.611H149.17C149.661 172.654 150.194 172.686 150.77 172.707C151.346 172.729 151.89 172.697 152.402 172.611C152.807 172.526 153.117 172.323 153.33 172.003C153.565 171.662 153.703 171.299 153.746 170.915C153.789 170.51 153.746 170.115 153.618 169.731C153.49 169.326 153.277 169.006 152.978 168.771C152.509 168.345 151.911 168.153 151.186 168.195ZM173.829 164.867C174.234 164.91 174.565 165.006 174.821 165.155C174.949 167.886 174.991 170.649 174.949 173.443C174.906 176.217 174.735 178.979 174.437 181.731C174.266 183.139 173.733 184.334 172.837 185.315C171.941 186.297 170.725 186.862 169.189 187.011C168.293 187.097 167.365 187.054 166.405 186.883C165.445 186.734 164.57 186.457 163.781 186.051C163.013 185.625 162.362 185.07 161.829 184.387C161.317 183.683 161.039 182.841 160.997 181.859C160.997 179.043 161.029 176.206 161.093 173.347C161.157 170.489 161.167 167.651 161.125 164.835L161.093 164.803H161.125C161.445 164.803 161.797 164.793 162.181 164.771C162.586 164.75 162.991 164.739 163.397 164.739C163.802 164.739 164.197 164.761 164.581 164.803C164.965 164.825 165.317 164.878 165.637 164.963V164.995C165.402 170.158 165.498 175.395 165.925 180.707C166.074 181.219 166.341 181.593 166.725 181.827C167.13 182.062 167.546 182.169 167.973 182.147C168.399 182.126 168.794 181.977 169.157 181.699C169.519 181.422 169.754 181.038 169.861 180.547C169.967 177.987 170.021 175.385 170.021 172.739C170.042 170.094 170.085 167.534 170.149 165.059C170.426 165.038 170.778 165.006 171.205 164.963C171.653 164.899 172.101 164.857 172.549 164.835C172.997 164.814 173.423 164.825 173.829 164.867ZM182.849 168.867C182.55 168.931 182.315 169.049 182.145 169.219C182.102 169.262 182.059 169.337 182.017 169.443C181.995 169.529 181.974 169.593 181.953 169.635C181.91 169.699 181.867 170.073 181.825 170.755C181.803 171.438 181.782 172.249 181.761 173.187C181.739 174.126 181.729 175.107 181.729 176.131C181.729 177.134 181.761 178.009 181.825 178.755C181.889 179.374 182.049 179.982 182.305 180.579C182.582 181.155 183.03 181.529 183.649 181.699C184.118 181.742 184.555 181.678 184.961 181.507C185.387 181.315 185.707 181.006 185.921 180.579C186.155 180.089 186.251 179.577 186.209 179.043C186.187 178.489 186.23 177.945 186.337 177.411C186.635 177.454 186.966 177.465 187.329 177.443C187.713 177.422 188.097 177.411 188.481 177.411C188.865 177.411 189.238 177.422 189.601 177.443C189.985 177.465 190.326 177.518 190.625 177.603C190.987 178.713 191.083 179.822 190.913 180.931C190.742 182.019 190.369 183.001 189.793 183.875C189.217 184.75 188.459 185.475 187.521 186.051C186.603 186.606 185.558 186.894 184.385 186.915C183.617 187.022 182.827 187.022 182.017 186.915C181.206 186.83 180.449 186.627 179.745 186.307C179.041 185.966 178.443 185.497 177.953 184.899C177.483 184.302 177.206 183.555 177.121 182.659C177.078 181.891 177.046 181.091 177.025 180.259C177.003 179.427 176.982 178.499 176.961 177.475C176.961 176.43 176.961 175.257 176.961 173.955C176.982 172.633 177.003 171.107 177.025 169.379C176.982 169.017 176.993 168.654 177.057 168.291C177.142 167.907 177.249 167.555 177.377 167.235C177.569 166.681 177.803 166.169 178.081 165.699C178.379 165.23 178.731 164.814 179.137 164.451C179.371 164.281 179.627 164.142 179.905 164.035C180.182 163.907 180.47 163.801 180.769 163.715C181.75 163.395 182.721 163.267 183.681 163.331C184.641 163.395 185.537 163.619 186.369 164.003C187.222 164.366 187.99 164.857 188.673 165.475C189.355 166.094 189.899 166.809 190.305 167.619C190.71 168.409 190.955 169.273 191.041 170.211C191.126 171.15 190.998 172.11 190.657 173.091C189.867 173.262 189.089 173.326 188.321 173.283C187.574 173.219 186.795 173.113 185.985 172.963C185.921 172.558 185.878 172.099 185.857 171.587C185.857 171.075 185.803 170.606 185.697 170.179C185.59 169.731 185.387 169.369 185.089 169.091C184.811 168.814 184.363 168.686 183.745 168.707C183.467 168.75 183.169 168.803 182.849 168.867ZM198.634 164.003C200.959 163.982 203.22 164.089 205.418 164.323C205.46 165.027 205.471 165.838 205.45 166.755C205.45 167.673 205.396 168.515 205.29 169.283C204.884 169.198 204.383 169.166 203.786 169.187C203.188 169.209 202.388 169.241 201.386 169.283H201.322H201.29C201.29 169.305 201.279 169.326 201.258 169.347C201.258 169.347 201.258 169.358 201.258 169.379C201.236 169.486 201.215 169.657 201.194 169.891C201.194 170.105 201.194 170.457 201.194 170.947C201.194 171.417 201.194 172.046 201.194 172.835C201.215 173.603 201.236 174.606 201.258 175.843C201.279 177.059 201.3 178.531 201.322 180.259C201.343 181.966 201.375 183.982 201.418 186.307V186.339V186.371C201.034 186.435 200.607 186.478 200.138 186.499C199.69 186.499 199.231 186.499 198.762 186.499C198.314 186.499 197.866 186.499 197.418 186.499C196.97 186.499 196.554 186.531 196.17 186.595C196.148 186.51 196.148 186.126 196.17 185.443C196.191 184.761 196.202 183.747 196.202 182.403C196.223 181.038 196.212 179.299 196.17 177.187C196.148 175.075 196.074 172.526 195.946 169.539L195.914 169.507C195.658 169.379 195.338 169.305 194.954 169.283C194.57 169.241 194.186 169.219 193.802 169.219C193.418 169.198 193.066 169.187 192.746 169.187C192.426 169.187 192.202 169.166 192.074 169.123C192.031 169.038 191.988 168.825 191.946 168.483C191.924 168.142 191.903 167.737 191.882 167.267C191.882 166.777 191.882 166.254 191.882 165.699C191.882 165.145 191.903 164.611 191.946 164.099C191.946 164.078 191.935 164.067 191.914 164.067C191.914 164.067 191.914 164.057 191.914 164.035C194.09 164.014 196.33 164.003 198.634 164.003ZM209.909 164.067C210.421 164.089 211.157 164.089 212.117 164.067H212.885V164.195C212.885 166.03 212.853 167.875 212.789 169.731C212.747 171.587 212.704 173.454 212.661 175.331C212.64 177.187 212.64 179.043 212.661 180.899C212.683 182.755 212.747 184.59 212.853 186.403C212.683 186.574 212.32 186.67 211.765 186.691C211.232 186.734 210.645 186.745 210.005 186.723C209.387 186.702 208.789 186.67 208.213 186.627C207.637 186.606 207.243 186.627 207.029 186.691C207.179 184.771 207.243 182.841 207.221 180.899C207.2 178.958 207.157 177.038 207.093 175.139C207.051 173.219 207.019 171.331 206.997 169.475C206.997 167.598 207.093 165.763 207.285 163.971V163.907C207.392 163.886 207.595 163.897 207.893 163.939C208.213 163.961 208.448 163.971 208.597 163.971C208.981 163.993 209.419 164.025 209.909 164.067ZM226.766 165.667C227.384 166.222 227.822 166.873 228.078 167.619C228.227 167.939 228.334 168.27 228.398 168.611C228.483 168.931 228.547 169.262 228.59 169.603C228.632 170.137 228.654 170.67 228.654 171.203C228.675 171.715 228.675 172.238 228.654 172.771C228.59 173.902 228.568 175.001 228.59 176.067C228.611 177.134 228.579 178.222 228.494 179.331L228.398 180.387C228.355 181.134 228.238 181.891 228.046 182.659C227.854 183.406 227.566 184.089 227.182 184.707C226.819 185.219 226.339 185.635 225.742 185.955C225.166 186.254 224.547 186.489 223.886 186.659C223.288 186.83 222.68 186.937 222.062 186.979C221.464 187.022 220.856 187.022 220.238 186.979C219.79 186.937 219.352 186.873 218.926 186.787C218.52 186.723 218.126 186.606 217.742 186.435C217.379 186.265 217.048 186.051 216.75 185.795C216.451 185.518 216.206 185.166 216.014 184.739C215.715 184.206 215.512 183.641 215.406 183.043C215.32 182.425 215.267 181.806 215.246 181.187C215.182 179.523 215.107 177.859 215.022 176.195C214.958 174.51 214.979 172.825 215.086 171.139C215.107 170.179 215.224 169.219 215.438 168.259C215.672 167.278 216.12 166.414 216.782 165.667C216.995 165.454 217.24 165.262 217.518 165.091C218.222 164.75 218.979 164.505 219.79 164.355C220.622 164.185 221.443 164.121 222.254 164.163C223.086 164.206 223.886 164.355 224.654 164.611C225.443 164.846 226.147 165.198 226.766 165.667ZM224.654 176.963V175.427L224.59 173.251C224.59 173.23 224.568 173.017 224.526 172.611C224.504 172.185 224.483 171.79 224.462 171.427C224.419 170.83 224.248 170.286 223.95 169.795C223.672 169.305 223.288 168.942 222.798 168.707C222.371 168.537 221.934 168.505 221.486 168.611C221.038 168.718 220.643 168.899 220.302 169.155C219.555 169.731 219.054 170.467 218.798 171.363C218.627 172.174 218.52 173.027 218.478 173.923C218.456 174.819 218.467 175.715 218.51 176.611C218.616 177.358 218.691 178.126 218.734 178.915C218.776 179.683 218.904 180.419 219.118 181.123C219.331 181.55 219.64 181.881 220.046 182.115C220.451 182.35 220.888 182.489 221.358 182.531C221.827 182.553 222.296 182.489 222.766 182.339C223.235 182.169 223.63 181.902 223.95 181.539C224.142 181.283 224.28 181.081 224.366 180.931C224.451 180.761 224.504 180.579 224.526 180.387C224.547 180.195 224.547 179.971 224.526 179.715C224.526 179.438 224.547 179.075 224.59 178.627C224.611 178.201 224.622 177.827 224.622 177.507C224.643 177.187 224.654 177.006 224.654 176.963ZM243.899 186.659C243.749 186.702 243.493 186.723 243.131 186.723C242.704 186.723 242.213 186.691 241.659 186.627C241.104 186.585 240.613 186.563 240.187 186.563C239.483 184.985 238.779 183.459 238.075 181.987C237.392 180.494 236.805 179.065 236.315 177.699L235.995 176.739C235.909 176.505 235.824 176.291 235.739 176.099C235.675 175.886 235.621 175.779 235.579 175.779C235.557 175.779 235.525 176.035 235.483 176.547C235.461 177.059 235.44 177.71 235.419 178.499C235.397 179.289 235.376 180.163 235.355 181.123C235.355 182.083 235.355 183.011 235.355 183.907C235.355 184.398 235.355 184.878 235.355 185.347C235.355 185.795 235.365 186.201 235.387 186.563C235.152 186.627 234.917 186.67 234.683 186.691C234.448 186.713 234.213 186.723 233.979 186.723C233.467 186.723 232.944 186.691 232.411 186.627C231.899 186.563 231.397 186.531 230.907 186.531V184.291C230.907 182.265 230.885 180.334 230.843 178.499C230.821 176.665 230.811 174.745 230.811 172.739C230.811 171.267 230.832 169.817 230.875 168.387C230.917 166.937 230.992 165.529 231.099 164.163C231.312 164.121 231.536 164.089 231.771 164.067C232.027 164.046 232.283 164.035 232.539 164.035C232.667 164.035 232.88 164.046 233.179 164.067C233.477 164.067 233.776 164.089 234.075 164.131C234.373 164.153 234.629 164.185 234.843 164.227C235.077 164.27 235.195 164.313 235.195 164.355C235.344 164.739 235.483 165.059 235.611 165.315C235.739 165.571 235.856 165.817 235.963 166.051C236.091 166.286 236.219 166.553 236.347 166.851C236.496 167.129 236.667 167.491 236.859 167.939C236.901 168.046 236.997 168.249 237.147 168.547C237.296 168.846 237.467 169.198 237.659 169.603C237.851 169.987 238.053 170.403 238.267 170.851C238.48 171.278 238.672 171.673 238.843 172.035C239.035 172.377 239.195 172.675 239.323 172.931C239.451 173.166 239.525 173.283 239.547 173.283C239.611 173.241 239.664 173.027 239.707 172.643C239.749 172.259 239.771 171.886 239.771 171.523C239.771 170.67 239.749 169.881 239.707 169.155C239.685 168.409 239.675 167.651 239.675 166.883C239.675 166.435 239.675 165.987 239.675 165.539C239.696 165.07 239.717 164.569 239.739 164.035C240.464 163.907 241.232 163.843 242.043 163.843C242.832 163.843 243.536 163.907 244.155 164.035V174.339C244.176 175.235 244.187 176.142 244.187 177.059C244.187 177.977 244.187 178.894 244.187 179.811C244.187 180.43 244.176 181.027 244.155 181.603C244.155 182.179 244.155 182.766 244.155 183.363C244.155 183.79 244.155 184.217 244.155 184.643C244.176 185.07 244.187 185.497 244.187 185.923V186.563C244.144 186.585 244.048 186.617 243.899 186.659Z" fill="black"/>
</svg>
