<svg width="278" height="106" viewBox="0 0 278 106" fill="none" xmlns="http://www.w3.org/2000/svg">
<g clip-path="url(#clip0_1458_10728)">
<path d="M123.701 85.1818C123.299 85.2056 122.989 85.2315 122.678 85.2401C121.201 85.2746 120.113 84.1746 120.305 82.8222C120.352 82.47 120.481 82.1337 120.682 81.8407C120.883 81.5476 121.15 81.306 121.462 81.1355C122.079 80.7849 122.765 80.5708 123.472 80.5079C124.633 80.3677 125.793 80.2296 126.954 80.0765C127.243 80.0251 127.541 80.0473 127.819 80.1412C128.098 80.235 128.348 80.3975 128.548 80.6136C129.083 81.1787 129.139 81.9379 128.548 82.4297C127.497 83.2924 127.12 84.4765 126.764 85.7038C126.02 88.2705 125.713 90.9084 125.448 93.5527C125.359 94.45 125.267 95.3472 125.202 96.2467C125.17 96.6974 125.202 97.1504 125.202 97.6033L125.364 97.6616C125.484 97.5387 125.592 97.4051 125.687 97.2625C127.066 94.7951 128.386 92.2909 129.827 89.8623C130.59 88.5682 131.41 87.3258 132.236 86.0791C132.976 84.9575 133.986 83.7863 134.027 82.3757C134.029 82.2548 134.024 82.1338 134.014 82.0134C133.975 81.6553 133.865 81.3081 133.86 80.95C133.849 80.6938 133.907 80.4393 134.03 80.2142C134.153 79.989 134.335 79.8019 134.557 79.6732C134.781 79.575 135.021 79.5159 135.265 79.4985C135.824 79.4251 136.384 79.3575 136.945 79.2957C137.809 79.1809 138.68 79.1347 139.551 79.1577C140.379 79.1987 141.227 79.3734 141.924 79.8241C142.62 80.2749 143.125 81.0773 143.075 81.9055C143.004 82.5548 142.687 83.1522 142.189 83.575C141.694 83.9917 141.144 84.3379 140.554 84.6038C139.984 84.8885 139.331 85.156 138.891 85.6262C138.451 86.0964 137.877 86.3962 137.396 86.7715C136.401 87.5511 135.45 88.3849 134.546 89.2691C132.749 91.0316 131.157 92.9918 129.801 95.1121C129.348 95.8225 128.921 96.5479 128.52 97.2884C127.57 99.0463 126.751 100.873 125.864 102.663C125.708 103.02 125.511 103.357 125.277 103.668C124.63 104.43 123.666 104.279 123.293 103.356C123.149 102.993 123.076 102.607 123.077 102.217C123.099 98.0498 122.918 93.8784 123.315 89.7199C123.431 88.5078 123.573 87.2956 123.692 86.0834C123.724 85.8009 123.701 85.5183 123.701 85.1818Z" fill="#202020"/>
<path d="M137.605 94.7346C137.528 94.8037 137.379 94.9762 137.226 95.1531C135.974 96.7513 135.541 98.74 135.584 100.733C135.584 100.899 135.584 101.065 135.606 101.231C135.558 102.277 135.992 104.231 134.527 104.702C134.436 104.749 134.341 104.79 134.244 104.825C134.135 104.857 134.024 104.883 133.912 104.902C133.684 104.94 133.452 104.945 133.222 104.917C132.223 104.799 131.507 104.169 131.322 103.244C131.307 103.169 131.296 103.093 131.289 103.017C131.23 102.42 131.332 101.818 131.585 101.274C131.941 100.446 132.901 99.2555 133.468 97.9117C134.618 95.3235 134.279 93.8589 134.4 93.1882C134.478 92.6741 134.731 92.2026 135.116 91.853C135.387 91.597 135.721 91.4169 136.083 91.3309C136.446 91.245 136.825 91.2562 137.182 91.3634C138.949 91.9027 139.348 93.2011 137.605 94.7346Z" fill="#202020"/>
<path d="M157.715 86.1502C157.461 86.8215 157.016 87.4035 156.434 87.824C156.104 88.0904 155.751 88.3278 155.379 88.5336C154.341 89.1082 153.428 89.8849 152.694 90.8177C151.507 92.3275 150.321 93.8244 149.221 95.3731C147.461 97.8341 145.77 100.334 144.389 103.004C144.258 103.272 144.089 103.519 143.887 103.737C143.75 103.891 143.58 104.009 143.389 104.084C143.198 104.159 142.993 104.189 142.789 104.169C142.584 104.15 142.388 104.084 142.214 103.974C142.041 103.865 141.895 103.717 141.79 103.541C141.616 103.26 141.493 102.95 141.427 102.627C141.197 101.522 140.996 100.412 140.795 99.3008C140.595 98.19 140.427 97.077 140.254 95.9619C140.17 95.4248 140.081 94.8835 140.038 94.3421C139.999 93.7551 140.12 93.1684 140.388 92.6446C140.601 92.1969 140.942 91.8219 141.367 91.5662C142.661 90.8091 144.219 91.4066 144.465 92.7934C144.526 93.2605 144.497 93.7351 144.378 94.1911C144.235 94.7209 144.06 95.2416 143.854 95.7505C143.552 96.574 143.392 97.4425 143.38 98.3194C143.38 98.5351 143.367 98.7507 143.679 98.9211C143.793 98.8552 143.897 98.7731 143.988 98.6774C144.157 98.4326 144.312 98.1784 144.452 97.916C146.15 94.8605 148.027 91.9077 150.073 89.0728C150.838 88.0205 151.531 86.918 152.148 85.7728C152.459 85.2191 152.837 84.7061 153.274 84.2457C153.762 83.7303 154.422 83.4125 155.129 83.3528C156.868 83.1522 158.22 84.621 157.715 86.1502Z" fill="#202020"/>
<path d="M160.953 100.356C160.403 100.649 160.09 100.802 159.791 100.981C158.98 101.466 158.186 101.982 157.366 102.45C156.429 102.994 155.397 103.354 154.325 103.511C153.206 103.697 152.057 103.511 151.054 102.98C149.37 102.072 148.805 99.9759 149.674 98.2698C149.994 97.64 150.408 97.0632 150.903 96.5594C151.001 96.4602 151.104 96.361 151.208 96.2661C151.316 96.131 151.432 96.0022 151.555 95.88C151.674 95.7628 151.8 95.6527 151.932 95.55C152.691 94.8522 153.536 94.2555 154.448 93.7749C154.603 93.6951 154.762 93.6217 154.924 93.5592C156.413 92.9531 157.715 92.086 159.555 92.2888C159.735 92.2758 159.911 92.2607 160.086 92.2521C160.979 92.1735 161.875 92.3461 162.675 92.7504C162.829 92.852 162.974 92.9683 163.106 93.0976C163.333 93.3212 163.525 93.577 163.678 93.8568C163.839 94.1487 163.966 94.4585 164.055 94.78C164.15 95.1142 164.214 95.4564 164.247 95.8023C164.281 96.1529 164.286 96.5057 164.262 96.8571C164.224 97.5259 164.07 98.1829 163.805 98.7983C163.742 98.9255 163.686 99.0549 163.634 99.1843C162.502 102.034 164.377 104.467 162.933 105.687C162.125 106.378 160.867 105.808 160.612 104.881C160.313 103.781 160.962 102.724 160.977 101.645C160.973 101.3 160.964 100.953 160.953 100.356ZM161.277 94.7778C160.772 94.672 160.251 94.6661 159.743 94.7606C159.577 94.7865 159.411 94.821 159.249 94.8598C158.356 94.8965 157.705 95.3321 156.948 95.5543L156.467 95.7506C155.341 96.1992 154.217 96.6586 153.36 97.558C153.257 97.6292 153.145 97.7047 153.052 97.7737C152.747 98.0013 152.464 98.2577 152.208 98.5394C150.951 99.9436 153.322 100.036 155.047 99.7904C155.421 99.7408 155.792 99.6688 156.158 99.5747C157.088 99.1865 158.218 98.8586 159.191 98.3539C159.329 98.2806 159.465 98.2051 159.596 98.1253C160.526 97.502 161.395 96.6349 161.538 95.2825C161.481 95.1001 161.393 94.9292 161.277 94.7778Z" fill="#202020"/>
<path d="M174.006 103.513L173.807 103.526C173.147 103.567 172.666 103.213 172.692 102.515C172.717 101.998 172.824 101.488 173.009 101.005C173.082 100.804 173.173 100.573 173.279 100.323C173.384 100.073 173.494 99.7926 173.633 99.4906C175.073 96.1906 176.594 93.1515 178.126 89.8191C178.262 89.5301 178.389 89.2389 178.514 88.9456C178.639 88.6523 178.762 88.3546 178.887 88.0548L178.993 87.8003C180.503 85.3371 180.071 80.7775 184.12 81.4763C184.229 81.5068 184.335 81.5457 184.437 81.5928C184.73 81.7105 184.988 81.8998 185.188 82.1432C185.388 82.3867 185.524 82.6765 185.583 82.9861C185.932 84.8044 183.447 86.146 182.705 87.4056L182.427 87.7183C182.062 88.1368 181.713 88.5552 181.363 88.9629C181.292 89.0513 181.223 89.1376 181.148 89.226C180.646 89.8577 180.205 90.5359 179.832 91.2513C178.592 93.6519 177.522 96.1539 177.015 97.1461C176.799 97.5559 175.401 99.8724 176.467 99.7947L176.683 99.7796C178.984 99.881 180.721 98.3626 182.668 97.4437C182.772 97.4222 182.878 97.4113 182.983 97.4114C183.148 97.4087 183.311 97.4312 183.469 97.4782C183.711 97.5525 183.932 97.6839 184.112 97.8615C184.293 98.0391 184.428 98.2576 184.506 98.4984C184.545 98.6123 184.574 98.7292 184.593 98.8479C184.701 99.2389 184.724 99.6484 184.662 100.049C184.643 100.159 184.614 100.268 184.575 100.373C182.675 103.789 177.457 101.835 174.321 103.477C174.211 103.498 174.105 103.507 174.006 103.513Z" fill="#202020"/>
<path d="M195.391 85.4644C195.512 85.555 195.635 85.652 195.755 85.7491C196.605 86.435 197.431 87.2287 197.406 88.264C197.406 88.4193 197.406 88.5725 197.406 88.7234C197.406 88.8744 197.367 89.0276 197.337 89.1785C197.306 89.3295 197.272 89.4762 197.229 89.6229C197.186 89.7695 197.093 89.9442 197.013 90.1017C196.933 90.2591 196.849 90.4123 196.761 90.5654C196.672 90.7186 196.592 90.8329 196.51 90.9623C196.428 91.0917 196.351 91.2146 196.28 91.3354C196.192 91.4828 196.113 91.6347 196.042 91.7905C195.97 91.9513 195.91 92.1171 195.861 92.2866C195.816 92.4031 195.775 92.5217 195.738 92.6382C194.875 95.4572 196.644 98.2245 195.013 99.0786C191.778 100.071 192.824 96.8937 193.025 94.7196C193.042 94.5384 193.053 94.3637 193.057 94.1976C193.077 94.0808 193.088 93.9625 193.089 93.8439C192.922 94.0454 192.711 94.2062 192.472 94.3141C191.679 94.7153 190.962 95.2566 190.177 95.6621C189.354 96.0836 188.485 96.4113 187.589 96.6392C187.026 96.7948 186.447 96.8817 185.863 96.898C184.927 96.8763 184.019 96.5759 183.255 96.0353C182.919 95.8023 182.621 95.5202 182.369 95.1984C181.859 94.5388 181.58 93.7305 181.573 92.897C181.573 92.7834 181.577 92.6691 181.586 92.5541C181.821 89.6574 184.485 88.0246 186.801 86.8211C187.261 86.576 187.734 86.355 188.216 86.1589C189.009 85.8574 189.831 85.6405 190.669 85.5118C190.816 85.4903 190.96 85.4687 191.1 85.4515C192.444 85.1193 193.747 84.9015 195.121 85.3889C195.212 85.4095 195.302 85.4347 195.391 85.4644ZM194.448 88.4495C193.745 87.9491 193.094 87.9491 192.22 88.0397L191.707 88.113C190.85 88.2164 190.008 88.4117 189.194 88.6954C188.137 89.0944 187.194 89.7415 186.269 90.3929C185.681 90.7916 185.116 91.2237 184.578 91.687C184.371 91.8591 184.192 92.0621 184.047 92.2888C183.97 92.3987 183.939 92.534 183.961 92.6662C184.017 92.8819 184.28 92.9704 184.502 93.0113C185.898 93.2708 187.333 93.2414 188.717 92.9251C190.082 92.6145 191.305 91.8725 192.466 91.1241C193.329 90.5697 194.237 89.9442 194.638 88.9952C194.667 88.9387 194.681 88.8755 194.679 88.8119C194.671 88.7616 194.652 88.7137 194.623 88.6717C194.573 88.5918 194.514 88.5174 194.448 88.4495Z" fill="#202020"/>
<path d="M221.793 83.7324C221.549 84.0934 221.215 84.3853 220.825 84.5801C220.667 84.6944 220.234 84.6944 220.025 84.8173C219.881 84.8347 219.737 84.8427 219.593 84.841C219.096 84.8138 218.601 84.7555 218.111 84.6663C217.018 84.5175 215.926 84.345 214.828 84.222C213.903 84.1185 213.75 84.2414 213.439 85.1732C213.291 85.6259 213.166 86.0859 213.066 86.5514C213.043 86.6214 213.038 86.6961 213.052 86.7684C213.067 86.8407 213.099 86.9082 213.147 86.9644C213.194 87.0206 213.255 87.0637 213.324 87.0896C213.393 87.1155 213.468 87.1233 213.54 87.1122C214.101 87.0316 214.658 86.9229 215.208 86.7865C215.657 86.683 216.094 86.5169 216.545 86.4328C216.827 86.3775 217.117 86.3803 217.398 86.4412C217.679 86.502 217.944 86.6195 218.178 86.7865C218.328 86.8898 218.461 87.0157 218.573 87.1597C218.94 87.7334 219.157 88.6005 218.56 89.1742C218.47 89.2599 218.368 89.3325 218.258 89.3899C218.142 89.4796 218.018 89.5583 217.887 89.625C217.505 89.8192 217.074 89.8943 216.649 89.8407C216.189 89.7814 215.735 89.684 215.292 89.5495C214.537 89.3365 213.753 89.2412 212.969 89.267C212.733 89.2481 212.498 89.3166 212.309 89.4593C212.12 89.602 211.991 89.8091 211.944 90.0413C211.83 90.4727 211.694 90.8868 211.61 91.3182C211.094 93.9841 211.047 94.0876 210.583 96.7643C210.346 98.1361 210.24 99.5316 210.074 100.918C210.005 101.501 209.951 102.087 209.858 102.668C209.765 103.284 209.504 103.864 209.106 104.344C207.984 105.694 206.004 105.504 205.132 103.96C204.807 103.418 204.665 102.785 204.727 102.156C204.781 101.573 204.888 100.995 205.046 100.431C205.909 97.627 208.102 91.9868 208.564 90.6754C208.683 90.3389 208.894 90.0283 208.78 89.5668C208.307 89.3187 207.876 89.4503 207.458 89.4179C207.175 89.4143 206.893 89.3796 206.618 89.3144C206.523 89.2823 206.438 89.2257 206.371 89.1503C206.304 89.0749 206.258 88.9833 206.238 88.8846C206.218 88.786 206.223 88.6837 206.255 88.588C206.287 88.4924 206.343 88.4067 206.418 88.3395C206.634 88.1543 206.887 88.0175 207.16 87.9383C207.672 87.7902 208.195 87.6835 208.724 87.6191C209.048 87.601 209.36 87.487 209.619 87.2915C209.879 87.0961 210.075 86.828 210.182 86.5213C210.447 85.8742 210.803 85.2854 211.097 84.6577C211.312 84.2026 211.189 83.9632 210.715 83.8618C210.402 83.7928 210.083 83.7648 209.766 83.713C209.588 83.6925 209.412 83.6601 209.239 83.6159C209.079 83.5829 208.933 83.5008 208.821 83.381C208.709 83.2612 208.638 83.1096 208.616 82.9473C208.614 82.7821 208.667 82.6209 208.766 82.4888C208.865 82.3566 209.005 82.2607 209.164 82.2161C209.57 82.087 209.988 81.9939 210.411 81.9379C211.89 81.7416 213.379 81.5971 214.856 81.3792C215.98 81.2153 217.091 80.963 218.213 80.7667C218.733 80.6583 219.262 80.5955 219.794 80.579C220.193 80.5818 220.585 80.6845 220.934 80.8778C221.284 81.0711 221.579 81.3488 221.793 81.6855C222.015 81.9805 222.136 82.3397 222.136 82.709C222.136 83.0782 222.015 83.4374 221.793 83.7324Z" fill="#202020"/>
<path d="M224.276 88.8421C224.209 88.9391 224.175 88.9866 224.132 89.0448C224.089 89.1031 224.03 89.1743 223.916 89.3101C221.543 91.6396 221.975 95.1143 221.912 98.0779C221.882 98.2236 221.845 98.3676 221.8 98.5092C221.753 98.6509 221.698 98.7899 221.636 98.9255C221.576 99.0537 221.504 99.1758 221.42 99.29C221.006 99.8487 220.342 100.125 219.332 99.8228C219.238 99.7981 219.145 99.7679 219.054 99.7322C218.959 99.6962 218.864 99.6553 218.769 99.6093C218.642 99.5458 218.523 99.4684 218.413 99.3785C218.319 99.3028 218.24 99.2107 218.178 99.1067C218.125 99.0505 218.077 98.9891 218.036 98.9234C217.905 98.6918 217.823 98.4358 217.795 98.1712C217.767 97.9067 217.794 97.6392 217.874 97.3855C217.903 97.3117 217.936 97.2397 217.973 97.1698C218.611 96.3477 219.159 95.4606 219.61 94.5233C219.686 94.368 219.757 94.2106 219.826 94.051C220.67 92.2996 220.887 90.5633 221.092 88.9219C221.092 88.7903 221.108 88.6609 221.114 88.5315C221.114 88.3482 221.129 88.1627 221.131 87.9793C220.454 86.2215 221.973 85.3544 223.72 85.7879C224.798 86.0036 225.23 87.7421 224.393 88.7105L224.276 88.8421Z" fill="#202020"/>
<path d="M234.703 88.0526C234.825 88.5056 234.822 88.9828 234.696 89.4344C234.57 89.886 234.324 90.2953 233.985 90.6193C233.234 91.3462 232.236 91.7884 231.289 92.1939C231.054 92.2952 230.812 92.3858 230.579 92.4915L230.491 92.5325C229.112 93.158 227.831 93.6476 227.005 93.9474C227.002 94.581 227.11 95.2103 227.324 95.8066C227.38 95.99 227.46 96.1649 227.564 96.3265C227.714 96.5799 227.957 96.7653 228.241 96.8441C228.286 96.8558 228.331 96.8645 228.377 96.87C229.334 96.9929 230.318 96.3545 230.892 95.6513C231.226 95.248 231.509 94.7562 231.97 94.4909C232.326 94.2878 232.724 94.1704 233.133 94.148C233.369 94.1326 233.604 94.1798 233.816 94.285C234.027 94.3901 234.207 94.5494 234.337 94.7467C234.467 94.9439 234.543 95.172 234.556 95.4078C234.569 95.6436 234.519 95.8787 234.412 96.0892C233.923 97.043 233.169 97.8353 232.24 98.3712C231.315 98.9006 230.322 99.3025 229.289 99.5661C228.892 99.7028 228.472 99.76 228.053 99.7343C227.611 99.6671 227.199 99.4687 226.871 99.1649C226.356 98.7 225.937 98.1396 225.635 97.5149C225.285 96.7763 225.045 95.9899 224.925 95.1811C224.897 95.0064 224.872 94.8274 224.852 94.6484C224.602 92.5091 225.182 90.3552 226.472 88.6307C226.537 88.5358 226.601 88.4409 226.668 88.3481C226.735 88.2554 226.804 88.1626 226.884 88.0721C228.148 86.4501 230.178 85.212 232.311 85.7405C233.271 85.9777 234.197 86.614 234.557 87.5609C234.617 87.7211 234.666 87.8855 234.703 88.0526ZM232.061 87.8736C231.923 87.8585 231.785 87.8585 231.647 87.8736C229.319 88.057 227.868 90.0176 227.182 92.0796C227.208 91.9997 227.794 91.8876 227.887 91.8639L228.657 91.6482C229.191 91.5017 229.717 91.326 230.232 91.1219C230.724 90.931 231.187 90.6741 231.61 90.3584C232.064 90.0279 232.434 89.5948 232.689 89.0944C232.766 88.9325 232.794 88.7513 232.769 88.5736C232.743 88.3959 232.666 88.2297 232.546 88.0958C232.412 87.9732 232.242 87.8955 232.061 87.8736Z" fill="#202020"/>
<path d="M242.217 94.8468C242.223 94.8347 242.227 94.8216 242.229 94.808C242.246 94.7413 242.246 94.6718 242.229 94.6052C242.061 93.9768 241.738 93.4006 241.289 92.9293C240.396 91.9393 238.916 91.2383 238.485 89.9097C238.053 88.581 238.916 87.3042 239.779 86.4371C241.289 85.143 244.773 84.2651 244.988 86.2214C245.42 88.1756 242.385 88.6091 240.646 89.4783C240.646 89.4783 241.494 90.382 241.576 90.4597C241.932 90.7875 242.303 91.1068 242.667 91.4173C243.364 92.0299 244.076 92.6856 244.499 93.5268C245.116 94.7497 244.945 96.3652 243.819 97.2409C243.172 97.737 242.342 97.9139 241.531 97.929C240.417 97.9392 239.304 97.8366 238.211 97.6227C237.579 97.5019 236.869 97.3747 236.36 96.9497C236.078 96.7265 235.843 96.4488 235.67 96.1331C235.497 95.8175 235.389 95.4702 235.353 95.1121C235.348 95.0525 235.348 94.9927 235.353 94.9331C235.362 94.7539 235.414 94.5795 235.504 94.424C235.593 94.2685 235.718 94.1362 235.868 94.038C236.059 93.8742 236.278 93.7476 236.515 93.6648C236.571 93.6476 236.628 93.6303 236.684 93.6174C237.395 93.4491 238.284 93.9862 238.869 94.3399C239.516 94.7303 240.178 95.1876 240.955 95.2523C241.313 95.2899 241.674 95.2217 241.994 95.056C242.09 95.0139 242.169 94.94 242.217 94.8468Z" fill="#202020"/>
<path d="M267.808 80.303C267.321 81.0124 266.578 81.5056 265.735 81.6791C265.451 81.7496 265.163 81.8001 264.872 81.83C263.121 81.83 261.374 81.72 259.546 81.5906C259.175 81.5906 258.794 81.5906 258.405 81.6165C256.089 81.7481 253.595 82.4146 252.195 84.5132C251.665 85.3112 251.209 86.7089 250.825 88.3654C250.778 88.5811 250.731 88.7838 250.685 88.9974C250.254 91.1413 250.176 93.3262 249.758 95.468C249.527 96.6629 249.395 97.8406 249.281 99.0571C249.221 99.6869 249.208 100.351 249.102 100.964C249.031 101.395 248.619 103.809 245.981 103.591C245.464 103.57 244.964 103.401 244.54 103.106C244.327 102.94 244.157 102.725 244.045 102.48C243.932 102.235 243.88 101.966 243.893 101.697C243.878 101.108 243.871 100.491 244.141 99.9716C244.307 99.6934 244.496 99.4294 244.706 99.1822C244.889 98.9289 245.059 98.6661 245.215 98.3949C246.173 96.8031 247.156 95.1811 247.633 93.3715C248.36 90.6603 250.293 83.0638 245.29 83.9761C243.543 83.9201 243.28 81.6834 246.544 81.6036C248.174 81.3491 248.168 80.8983 248.425 79.6128C248.535 79.0498 248.947 76.4227 250.306 76.3386C253.587 76.041 248.602 81.4849 255.107 80.0247C255.724 79.9622 260.616 78.2992 262.409 77.1884C263.177 76.7247 264.049 76.46 264.946 76.4184C265.753 76.3334 266.563 76.5552 267.215 77.0396C267.706 77.4117 268.038 77.9557 268.145 78.5624C268.201 78.8552 268.201 79.156 268.145 79.4488C268.079 79.7497 267.965 80.0381 267.808 80.303Z" fill="#202020"/>
<path d="M262.719 92.6964C261.158 93.6795 259.486 94.4758 257.739 95.069C257.471 95.138 257.202 95.1984 256.93 95.2501C256.604 95.3105 256.283 95.358 255.955 95.3946C254.001 95.6103 251.828 94.1005 251.828 92.1378C251.613 90.1966 252.691 88.2316 254.201 86.8361C254.417 86.6312 254.65 86.4371 254.885 86.2559C255.073 86.1114 255.267 85.9755 255.465 85.8461C255.664 85.7167 255.866 85.5938 256.074 85.4773C259.203 84.1055 265.5 81.2843 267.249 85.6347C267.306 85.9354 267.342 86.2395 267.357 86.545C267.448 87.7598 267.125 88.9697 266.443 89.9787C266.291 90.1923 266.121 90.3916 265.934 90.574C264.855 92.5734 265.502 94.7433 265.502 96.9152C265.502 98.4251 263.548 98.4251 262.681 97.778C261.602 96.4839 262.896 94.9568 262.715 93.4642C262.717 93.2507 262.717 93.007 262.719 92.6964ZM263.735 86.5363C263.641 86.422 263.529 86.323 263.403 86.243C263.03 86.01 262.519 86.0014 262.092 86.0273C261.568 86.0641 261.051 86.1611 260.549 86.3163C260.463 86.3444 260.377 86.3746 260.293 86.4069C260.209 86.4393 260.122 86.4802 260.038 86.5234C259.868 86.5816 259.702 86.642 259.538 86.7024C259.208 86.8254 258.891 86.9548 258.597 87.0691C258.455 87.1316 258.313 87.1985 258.166 87.2675C257.878 87.4113 257.599 87.5666 257.329 87.7334C257.172 87.8261 257.018 87.9232 256.87 88.0267C256.256 88.45 255.727 88.9831 255.308 89.5991C255.272 89.6556 255.24 89.7139 255.211 89.7738C255.121 89.9693 255.076 90.1822 255.079 90.3971C255.187 91.4756 256.002 91.8638 256.992 91.8379C257.34 91.8259 257.685 91.7767 258.021 91.6913C259.188 91.1564 260.286 90.6128 261.417 89.9873L262.098 89.6013C262.223 89.5366 262.348 89.4654 262.478 89.3856C262.566 89.3338 262.661 89.2713 262.756 89.2022C263.11 88.9421 263.428 88.6369 263.703 88.2942C263.938 88.003 264.268 87.6126 264.167 87.2157C264.121 87.0728 264.048 86.9401 263.951 86.8253C263.884 86.724 263.813 86.6269 263.735 86.5363Z" fill="#202020"/>
<path d="M53.8784 87.5372L52.7201 89.6121H57.6986V87.5372H53.8784Z" fill="#202020"/>
<path d="M0.721741 96.1992L1.77008 83.4887H5.0402L7.78399 89.8083L10.5386 82.1428H14.4019L14.8484 95.9231L11.753 96.0935L11.684 86.3163L8.61015 93.984L6.507 93.9884L4.24639 87.7981L3.98107 95.9878L0.721741 96.1992Z" fill="#202020"/>
<path d="M15.2324 95.9317L18.3644 82.4685L21.5267 82.1018L25.3857 95.6168L22.9137 95.5974L21.7769 91.4411L18.8196 91.4821L17.8359 95.8757L15.2324 95.9317Z" fill="#202020"/>
<path d="M25.9983 95.7786L25.7093 81.6791C25.7093 81.6791 33.0153 80.0938 33.4467 84.1185C33.8781 88.1432 30.4441 88.5746 30.4441 88.5746L33.9968 95.22L31.253 95.248L28.6256 90.1103L28.7421 95.7786H25.9983Z" fill="#202020"/>
<path d="M39.2449 84.1487V80.9867L48.6389 80.1045L47.4892 86.4997H50.9837L50.2697 89.0599H46.9952L46.3309 95.0452H42.7846L43.7208 89.0599H40.5585L41.1647 86.4436L44.0487 86.3336L44.6483 83.7216L39.2449 84.1487Z" fill="#202020"/>
<path d="M65.9408 79.6106C60.0714 78.4092 59.2387 86.8319 62.9705 87.9448C66.7022 89.0578 67.5909 87.2762 67.5909 87.2762C67.5909 87.2762 67.757 88.3136 66.5836 90.5396C64.9161 93.7059 61.4174 90.3907 61.4174 90.3907L60.2396 92.6684C60.2396 92.6684 64.9852 96.2963 67.9792 93.1149C70.9732 89.9335 71.8123 80.812 65.9408 79.6106ZM64.5818 85.7836C63.1926 85.6154 62.895 85.0352 63.0524 83.726C63.2099 82.4167 63.6284 81.5324 65.0175 81.6985C66.4067 81.8646 66.5965 82.8913 66.439 84.2026C66.2816 85.514 65.971 85.9497 64.5818 85.7836Z" fill="#202020"/>
<path d="M31.3759 12.1433C31.2874 10.4005 32.2883 9.56582 33.7659 9.02229C35.4376 8.40326 37.0792 7.69149 38.7099 6.96893C39.6716 6.5236 40.7705 6.47707 41.7665 6.83952C45.5715 8.09914 49.3788 9.3566 53.2335 10.4501C54.9591 10.9398 56.7969 11.08 58.5916 11.3129C60.8307 11.5976 63.0762 11.8133 65.3195 12.0527C67.8649 12.3245 70.4188 12.5509 72.9599 12.8659C76.6053 13.3145 80.24 13.8278 83.8811 14.3066C86.297 14.6237 88.713 14.9278 91.1979 15.2471L91.4136 14.1492C93.7389 13.789 96.0643 13.3727 98.4111 13.101C99.5566 12.9672 100.704 12.3353 101.912 12.9715C102.074 13.0578 102.456 12.6868 102.751 12.566C105.752 11.3474 108.767 10.1633 111.753 8.89934C112.452 8.60385 112.782 8.81954 113.219 9.31562C115.001 11.3345 116.826 13.3123 118.893 15.2514C118.893 14.3002 118.839 13.3447 118.921 12.4021C118.951 12.0592 119.223 11.5674 119.516 11.4402C123.353 9.77288 127.215 8.15738 131.071 6.5354C131.192 6.51992 131.315 6.51992 131.436 6.5354C131.945 8.50535 132.464 10.5084 132.993 12.5445C134.82 11.7443 136.479 12.5078 138.147 12.7127C140.166 12.9629 142.161 13.3813 144.318 13.7523C144.711 11.9966 145.103 10.2582 145.489 8.51973C145.778 7.2256 146.136 5.93147 146.32 4.61146C146.423 3.84577 146.809 3.74871 147.398 3.73145C149.59 3.66243 151.781 3.58478 153.973 3.51576C161.385 3.27275 168.801 3.0355 176.223 2.80399C176.614 2.79105 177.006 2.80399 177.405 2.80399C177.345 3.64733 177.295 4.36558 177.233 5.22833C179.31 4.88538 181.266 4.57048 183.221 4.24048C188.169 3.40504 193.117 2.5653 198.066 1.72124C199.5 1.47751 200.753 1.69751 201.534 3.01537C201.674 3.01537 201.774 3.04556 201.817 3.01537C203.111 1.93693 204.442 2.26477 205.866 2.76948C207.818 3.464 209.807 4.06361 211.808 4.6093C212.783 4.87244 213.228 5.31676 213.034 6.33481C213.015 6.59259 213.026 6.85167 213.066 7.10697C213.2 7.11991 213.32 7.17168 213.402 7.13717C218.422 4.95009 223.849 4.23401 229.082 2.8234C232.533 1.89163 236.039 1.0979 239.518 0.235145C241.794 -0.325644 242.754 0.151027 243.55 2.17634C244.885 2.02104 246.199 1.67163 247.482 1.74496C251.479 2.00595 255.463 2.43301 259.521 2.80184C258.658 9.23797 257.795 15.5641 256.932 21.955L271.229 21.1375C270.737 24.7524 270.263 28.2552 269.797 31.6911H276.395C276.682 35.9617 276.973 40.2755 277.275 44.764L266.676 45.6785C266.417 47.9799 266.151 50.2489 265.908 52.5223C265.373 57.5148 264.846 62.5094 264.329 67.5062C264.249 68.2826 263.962 68.6126 263.097 68.6019C259.076 68.5522 255.047 68.727 251.037 68.5156C249.117 68.4142 247.167 67.8146 245.351 67.1201C242.091 65.8756 239.02 66.1107 235.724 67.1567C229.934 68.9966 224.032 70.4891 218.163 72.0701C217.517 72.2267 216.838 72.1777 216.222 71.9299C211.569 69.9413 206.946 67.8858 202.313 65.854C202.05 65.7397 201.78 65.6383 201.383 65.4916C201.327 66.1732 201.275 66.7858 201.224 67.3811C201.109 68.7377 200.309 69.7536 198.946 69.9262C196.271 70.2756 193.581 70.515 190.896 70.7889C186.725 71.2059 182.551 71.6143 178.372 72.014C177.509 72.0982 176.629 72.1801 175.755 72.2297C174.659 72.2966 173.814 71.7984 173.05 71.0456C171.184 69.2079 169.303 67.3789 167.211 65.345V69.2899C165.041 68.8758 163.02 68.4983 161.005 68.0993C158.99 67.7003 156.937 67.2969 154.916 66.8418C154.407 66.7275 153.943 66.4105 153.365 66.1516C153.365 67.0144 153.365 68.0001 153.365 68.9879C153.365 71.2052 151.74 72.5123 149.566 72.2233C145.517 71.6948 141.458 71.257 137.405 70.7825C136.065 70.6272 134.704 70.5668 133.39 70.2885C132.65 70.1311 131.984 69.6177 131.233 69.2403C131.296 69.1756 131.22 69.2166 131.218 69.264C131.175 69.9327 131.035 71.1254 131.035 71.1254C131.035 71.1254 129.279 71.8523 128.25 72.2858C125.327 73.2866 122.465 74.4535 119.462 75.5966C118.983 73.8064 118.513 72.0421 118.038 70.2605C118.06 70.2066 117.941 70.3252 118.038 70.2605C117.488 71.1233 116.349 72.9631 116.349 72.9631L112.59 73.7245C109.322 74.2033 106.099 74.9819 102.624 75.6786V69.3913L88.7302 70.5754V65.6599C87.0671 66.5593 85.3889 67.3315 83.8617 68.3322C82.3345 69.333 80.9432 69.5034 79.2111 68.8607C76.4069 67.8275 73.5401 67.0058 70.6712 66.1861C69.9959 66.007 69.283 66.0288 68.6198 66.2487C66.7432 66.8958 64.9032 67.6571 63.0783 68.4379C62.6182 68.6543 62.1168 68.769 61.6083 68.7742C61.0999 68.7794 60.5963 68.675 60.1318 68.4681C58.6563 67.8491 57.1593 67.2624 55.6321 66.7901L54.5536 66.5377L53.5829 66.7426C44.3967 69.7522 35.2212 72.7991 26.0565 75.8835C25.1731 76.2214 24.2002 76.2443 23.302 75.9482C21.3606 75.3011 19.4192 74.667 17.4649 74.1321C16.0693 73.7654 15.1741 73.0342 14.9584 71.4878C11.6085 72.3699 8.306 73.2305 5.00784 74.1105C2.54878 74.7576 1.12511 73.7352 1.16825 71.2203C1.32356 63.6044 1.52632 55.9906 1.69673 48.3768C1.89087 39.6673 2.07782 30.9585 2.25757 22.2504C2.31797 19.481 2.39994 16.7116 2.47328 13.9421C2.46722 13.4253 2.62193 12.9194 2.91601 12.4943C3.2101 12.0693 3.62901 11.7461 4.11481 11.5696C6.63858 10.5235 9.15804 9.4666 11.725 8.54993C12.4195 8.29973 13.3061 8.34934 14.0503 8.50679C17.0227 9.13013 19.9671 9.89151 22.9374 10.5256C25.6941 11.0994 28.4638 11.5847 31.3759 12.1433Z" fill="#202020"/>
<path d="M3.9897 13.5992L2.68036 71.9796C2.68085 72.0371 2.69654 72.0934 2.72583 72.1428C2.75512 72.1923 2.79698 72.2331 2.84714 72.2611C2.89731 72.2891 2.954 72.3034 3.01147 72.3025C3.06893 72.3015 3.12512 72.2854 3.17433 72.2557L10.7456 67.6162C10.7921 67.588 10.8307 67.5484 10.8578 67.5013C10.885 67.4542 10.8998 67.401 10.901 67.3466L12.4756 10.4222C12.4772 10.3683 12.4652 10.3148 12.4408 10.2667C12.4165 10.2186 12.3805 10.1774 12.3361 10.1467C12.2917 10.1161 12.2404 10.097 12.1868 10.0912C12.1332 10.0855 12.079 10.0932 12.0291 10.1137L4.19247 13.3059C4.13364 13.3296 4.08307 13.37 4.04702 13.4221C4.01097 13.4743 3.99104 13.5359 3.9897 13.5992Z" fill="white"/>
<path d="M16.6042 71.6733V15.8553C16.6041 15.7916 16.6229 15.7293 16.6582 15.6763C16.6936 15.6233 16.7438 15.582 16.8027 15.5577L23.6881 12.6049C23.7311 12.5866 23.7776 12.5778 23.8244 12.579C23.8712 12.5802 23.9172 12.5914 23.9593 12.6118C24.0013 12.6322 24.0386 12.6614 24.0684 12.6974C24.0983 12.7334 24.1201 12.7754 24.1324 12.8206L33.0627 47.637V11.3453C33.0629 11.2811 33.082 11.2184 33.1177 11.1651C33.1534 11.1117 33.204 11.0701 33.2633 11.0455L39.6569 8.39465C39.7062 8.37455 39.7597 8.36684 39.8127 8.37221C39.8657 8.37758 39.9165 8.39586 39.9608 8.42545C40.0051 8.45504 40.0414 8.49504 40.0667 8.54194C40.0919 8.58883 40.1052 8.6412 40.1055 8.69446L40.2285 63.4577C40.2287 63.5248 40.2081 63.5904 40.1695 63.6452C40.1308 63.7001 40.0761 63.7416 40.0128 63.764L32.8405 66.4838C32.7992 66.5005 32.7548 66.5085 32.7102 66.5074C32.6656 66.5062 32.6217 66.4959 32.5813 66.4771C32.5408 66.4583 32.5047 66.4314 32.4751 66.398C32.4454 66.3647 32.423 66.3256 32.4091 66.2832L22.7756 37.5967L24.2683 73.8474C24.2714 73.9007 24.2613 73.954 24.2388 74.0024C24.2163 74.0508 24.1822 74.0929 24.1394 74.1249C24.0967 74.157 24.0467 74.1779 23.994 74.186C23.9412 74.194 23.8872 74.1888 23.8369 74.1709L16.8329 71.9817C16.7667 71.9618 16.7086 71.921 16.6674 71.8654C16.6263 71.8098 16.6041 71.7424 16.6042 71.6733Z" fill="white"/>
<path d="M57.2931 31.922L62.675 33.4749C62.722 33.4887 62.7715 33.4916 62.8198 33.4834C62.8681 33.4753 62.914 33.4563 62.9538 33.4278C62.9937 33.3993 63.0266 33.3622 63.0501 33.3192C63.0735 33.2762 63.0868 33.2284 63.0891 33.1794L64.0253 14.0457C64.0296 13.9621 64.0015 13.88 63.9469 13.8166C63.8922 13.7531 63.8153 13.7131 63.7319 13.7049L44.8705 11.9277C44.8254 11.9235 44.78 11.9287 44.7371 11.943C44.6941 11.9574 44.6547 11.9805 44.6212 12.011C44.5877 12.0414 44.5609 12.0785 44.5426 12.1198C44.5242 12.1612 44.5147 12.2059 44.5146 12.2512V40.1613C44.5146 40.2238 44.5327 40.285 44.5668 40.3374C44.6009 40.3899 44.6494 40.4313 44.7066 40.4568L56.0808 45.5945L55.8327 56.9095L48.2636 54.9316L48.4793 48.6982C48.482 48.629 48.4625 48.5607 48.4237 48.5033C48.3849 48.4459 48.3288 48.4023 48.2636 48.379L43.9494 46.9749C43.9002 46.958 43.8476 46.9531 43.7961 46.9607C43.7446 46.9683 43.6957 46.9882 43.6534 47.0186C43.6112 47.049 43.5768 47.0891 43.5532 47.1356C43.5297 47.182 43.5176 47.2334 43.518 47.2854V59.8364C43.5185 59.903 43.5395 59.9679 43.578 60.0223C43.6166 60.0767 43.671 60.118 43.7337 60.1405L61.0097 66.6974C61.0574 66.7143 61.1084 66.7198 61.1587 66.7134C61.2089 66.707 61.2569 66.689 61.2989 66.6606C61.3408 66.6323 61.3756 66.5945 61.4003 66.5504C61.425 66.5062 61.439 66.4568 61.4411 66.4062L62.414 40.1181L49.6872 33.8179L50.384 20.2446L56.9846 20.2015L56.9436 31.579C56.9544 31.7861 56.935 31.8077 57.2931 31.922Z" fill="white"/>
<path d="M67.5995 14.0953V22.8156L73.195 24.3081L71.3313 64.2256L79.2585 66.7124L80.0049 24.9293L89.3644 28.1625V16.9704L67.5995 14.0953Z" fill="white"/>
<path d="M93.2881 15.7367L90.6953 68.2956L100.068 67.4868L99.0604 14.8696L93.2881 15.7367Z" fill="white"/>
<path d="M104.158 13.9788L104.684 73.1572L113.754 71.3584L113.017 42.1046L120.931 72.8294L128.427 69.9542L129.19 9.35446L121.05 12.8098L121.082 45.5124L111.067 11.1878L104.158 13.9788Z" fill="white"/>
<path d="M133.813 14.8416L133.101 67.448C133.099 67.6479 133.17 67.8418 133.301 67.9926C133.432 68.1434 133.615 68.2405 133.813 68.2654L150.377 70.2066C150.49 70.2196 150.604 70.2088 150.712 70.175C150.821 70.1412 150.921 70.0852 151.006 70.0104C151.091 69.9356 151.16 69.8439 151.208 69.741C151.255 69.6381 151.281 69.5263 151.283 69.4129L151.527 53.7065L145.44 50.2555L145.071 60.5934L140.056 59.6746L139.999 26.3572L146.218 27.3558L145.304 41.712L151.753 44.5031L153.248 17.8699C153.259 17.6713 153.197 17.4756 153.074 17.3195C152.951 17.1634 152.775 17.0577 152.579 17.0222L134.762 14.05C134.646 14.0304 134.528 14.0361 134.414 14.0667C134.301 14.0973 134.195 14.1521 134.105 14.2273C134.015 14.3025 133.942 14.3964 133.892 14.5024C133.841 14.6085 133.814 14.7242 133.813 14.8416Z" fill="white"/>
<path d="M148.902 5.51524L149.15 13.2951L157.14 14.0241L156.365 64.9719L165.134 66.7125L164.92 14.8675L174.045 15.9244L175.252 4.63307L148.902 5.51524Z" fill="white"/>
<path d="M177.412 7.48013L175.58 42.0593L191.722 38.8563L191.771 59.4136L181.059 59.5085L181.782 48.3919L174.523 49.686L175.11 69.3978C175.113 69.5089 175.14 69.6183 175.187 69.7189C175.234 69.8196 175.302 69.9094 175.385 69.9828C175.469 70.0563 175.567 70.1117 175.673 70.1458C175.779 70.1798 175.89 70.1917 176.001 70.1807L198.883 67.9419C199.04 67.9272 199.187 67.8555 199.295 67.7403C199.403 67.625 199.465 67.4743 199.47 67.3164L200.745 28.3954L183.402 30.2201L184.8 14.4749L192.116 15.0702L191.424 21.4287L200.186 19.7032L199.949 3.6646C199.948 3.6179 199.937 3.57188 199.917 3.5297C199.897 3.48753 199.868 3.45019 199.833 3.42027C199.797 3.39035 199.755 3.36855 199.71 3.35637C199.665 3.34419 199.617 3.34191 199.571 3.3497L177.817 7.02718C177.708 7.04483 177.608 7.09944 177.534 7.18189C177.46 7.26433 177.417 7.36961 177.412 7.48013Z" fill="white"/>
<path d="M226.567 57.6384L226.923 48.2344C226.926 48.1418 226.949 48.0509 226.99 47.9679C227.032 47.8849 227.09 47.8118 227.162 47.7535L241.727 35.9337C241.802 35.8728 241.862 35.7959 241.904 35.7085C241.945 35.6212 241.967 35.5257 241.966 35.429V2.0793C241.966 2.03014 241.955 1.98159 241.934 1.93735C241.912 1.89311 241.881 1.85434 241.843 1.82398C241.804 1.79362 241.759 1.77248 241.711 1.76216C241.663 1.75183 241.613 1.7526 241.565 1.7644L217.837 7.57289C217.767 7.59061 217.705 7.63119 217.66 7.68821C217.616 7.74523 217.592 7.81545 217.591 7.88779V25.5419L224.805 26.286L224.058 14.8049L234.255 12.0937L234.548 30.3733C234.55 30.483 234.524 30.5914 234.473 30.6884C234.422 30.7853 234.347 30.8677 234.255 30.9276L219.14 40.7975C219.047 40.858 218.97 40.9416 218.919 41.0402C218.867 41.1388 218.841 41.2491 218.845 41.3605L219.686 69.6803L245.48 62.4806L244.701 51.9119L226.567 57.6384Z" fill="white"/>
<path d="M275.185 33.9063L267.856 35.0667L269.493 23.2685L260.245 23.7905L258.936 35.4722L253.464 36.2271L257.769 4.35266L248.567 3.52441L243.75 44.9948L256.993 43.8409L253.528 66.4493H262.968L265.45 43.5152L275.768 42.6654L275.185 33.9063Z" fill="white"/>
<path d="M206.109 4.60067V19.261L211.276 13.5194V6.2248L206.109 4.60067Z" fill="white"/>
</g>
<defs>
<clipPath id="clip0_1458_10728">
<rect width="276.554" height="106" fill="white" transform="translate(0.721741 3.05176e-05)"/>
</clipPath>
</defs>
</svg>
