<svg width="851" height="257" viewBox="0 0 851 257" fill="none" xmlns="http://www.w3.org/2000/svg">
<g clip-path="url(#clip0_2081_14779)">
<g clip-path="url(#clip1_2081_14779)">
<rect width="109.75" height="706.809" transform="translate(-27)" fill="#E6FCFF"/>
<path d="M-29.7983 160.595L-63.333 193.075H-32.6124L-15.4933 225.085H15.4619L46.886 193.075H17.1034L0.68782 160.595H-29.7983Z" fill="#4FB6F0"/>
<path d="M34.4566 96.3398L0.921875 128.819H31.6425L48.7616 160.83H79.7167L111.141 128.819H81.3583L64.9427 96.3398H34.4566Z" fill="#4FB6F0"/>
<path d="M80.4205 160.595L46.8857 193.075H77.6064L94.7255 225.085H125.681L157.105 193.075H127.322L110.907 160.595H80.4205Z" fill="#4FB6F0"/>
<path d="M-75.7622 96.3398L-109.297 128.819H-78.5763L-61.4571 160.83H-30.502L0.922134 128.819H-28.8605L-45.276 96.3398H-75.7622Z" fill="#4FB6F0"/>
<path d="M98.712 32.0845L65.1772 64.5639H95.8979L113.017 96.5743H143.972L175.396 64.5639H145.614L129.198 32.0845H98.712Z" fill="#4FB6F0"/>
<path d="M-11.5068 32.0845L-45.0415 64.5639H-14.3209L2.79824 96.5743H33.7534L65.1775 64.5639H35.3949L18.9793 32.0845H-11.5068Z" fill="#4FB6F0"/>
</g>
<g clip-path="url(#clip2_2081_14779)">
<rect width="109.75" height="706.809" transform="translate(82.75)" fill="#E6FCFF"/>
<path d="M79.9517 160.595L46.417 193.075H77.1376L94.2567 225.085H125.212L156.636 193.075H126.853L110.438 160.595H79.9517Z" fill="#4FB6F0"/>
<path d="M144.207 96.3398L110.672 128.819H141.392L158.512 160.83H189.467L220.891 128.819H191.108L174.693 96.3398H144.207Z" fill="#4FB6F0"/>
<path d="M190.17 160.595L156.636 193.075H187.356L204.475 225.085H235.431L266.855 193.075H237.072L220.657 160.595H190.17Z" fill="#4FB6F0"/>
<path d="M33.9878 96.3398L0.453125 128.819H31.1737L48.2929 160.83H79.248L110.672 128.819H80.8895L64.474 96.3398H33.9878Z" fill="#4FB6F0"/>
<path d="M208.462 32.0845L174.927 64.5639H205.648L222.767 96.5743H253.722L285.146 64.5639H255.364L238.948 32.0845H208.462Z" fill="#4FB6F0"/>
<path d="M98.2432 32.0845L64.7085 64.5639H95.4291L112.548 96.5743H143.503L174.928 64.5639H145.145L128.729 32.0845H98.2432Z" fill="#4FB6F0"/>
</g>
<g clip-path="url(#clip3_2081_14779)">
<rect width="109.75" height="706.809" transform="translate(192.5)" fill="#E6FCFF"/>
<path d="M189.702 160.595L156.167 193.075H186.888L204.007 225.085H234.962L266.386 193.075H236.603L220.188 160.595H189.702Z" fill="#4FB6F0"/>
<path d="M253.957 96.3398L220.422 128.819H251.142L268.262 160.83H299.217L330.641 128.819H300.858L284.443 96.3398H253.957Z" fill="#4FB6F0"/>
<path d="M299.92 160.595L266.386 193.075H297.106L314.225 225.085H345.181L376.605 193.075H346.822L330.407 160.595H299.92Z" fill="#4FB6F0"/>
<path d="M143.738 96.3398L110.203 128.819H140.924L158.043 160.83H188.998L220.422 128.819H190.64L174.224 96.3398H143.738Z" fill="#4FB6F0"/>
<path d="M318.212 32.0845L284.677 64.5639H315.398L332.517 96.5743H363.472L394.896 64.5639H365.114L348.698 32.0845H318.212Z" fill="#4FB6F0"/>
<path d="M207.993 32.0845L174.458 64.5639H205.179L222.298 96.5743H253.253L284.678 64.5639H254.895L238.479 32.0845H207.993Z" fill="#4FB6F0"/>
</g>
<g clip-path="url(#clip4_2081_14779)">
<rect width="109.75" height="706.809" transform="translate(302.25)" fill="#E6FCFF"/>
<path d="M299.452 160.595L265.917 193.075H296.638L313.757 225.085H344.712L376.136 193.075H346.353L329.938 160.595H299.452Z" fill="#4FB6F0"/>
<path d="M363.707 96.3398L330.172 128.819H360.892L378.012 160.83H408.967L440.391 128.819H410.608L394.193 96.3398H363.707Z" fill="#4FB6F0"/>
<path d="M409.67 160.595L376.136 193.075H406.856L423.975 225.085H454.931L486.355 193.075H456.572L440.157 160.595H409.67Z" fill="#4FB6F0"/>
<path d="M253.488 96.3398L219.953 128.819H250.674L267.793 160.83H298.748L330.172 128.819H300.39L283.974 96.3398H253.488Z" fill="#4FB6F0"/>
<path d="M427.962 32.0845L394.427 64.5639H425.148L442.267 96.5743H473.222L504.646 64.5639H474.864L458.448 32.0845H427.962Z" fill="#4FB6F0"/>
<path d="M317.743 32.0845L284.208 64.5639H314.929L332.048 96.5743H363.003L394.428 64.5639H364.645L348.229 32.0845H317.743Z" fill="#4FB6F0"/>
</g>
<g clip-path="url(#clip5_2081_14779)">
<rect width="109.75" height="706.809" transform="translate(412)" fill="#E6FCFF"/>
<path d="M409.202 160.595L375.667 193.075H406.388L423.507 225.085H454.462L485.886 193.075H456.103L439.688 160.595H409.202Z" fill="#4FB6F0"/>
<path d="M473.457 96.3398L439.922 128.819H470.642L487.762 160.83H518.717L550.141 128.819H520.358L503.943 96.3398H473.457Z" fill="#4FB6F0"/>
<path d="M519.42 160.595L485.886 193.075H516.606L533.725 225.085H564.681L596.105 193.075H566.322L549.907 160.595H519.42Z" fill="#4FB6F0"/>
<path d="M363.238 96.3398L329.703 128.819H360.424L377.543 160.83H408.498L439.922 128.819H410.14L393.724 96.3398H363.238Z" fill="#4FB6F0"/>
<path d="M537.712 32.0845L504.177 64.5639H534.898L552.017 96.5743H582.972L614.396 64.5639H584.614L568.198 32.0845H537.712Z" fill="#4FB6F0"/>
<path d="M427.493 32.0845L393.958 64.5639H424.679L441.798 96.5743H472.753L504.178 64.5639H474.395L457.979 32.0845H427.493Z" fill="#4FB6F0"/>
</g>
<g clip-path="url(#clip6_2081_14779)">
<rect width="109.75" height="706.809" transform="translate(521.75)" fill="#E6FCFF"/>
<path d="M518.952 160.595L485.417 193.075H516.138L533.257 225.085H564.212L595.636 193.075H565.853L549.438 160.595H518.952Z" fill="#4FB6F0"/>
<path d="M583.207 96.3398L549.672 128.819H580.392L597.512 160.83H628.467L659.891 128.819H630.108L613.693 96.3398H583.207Z" fill="#4FB6F0"/>
<path d="M629.17 160.595L595.636 193.075H626.356L643.475 225.085H674.431L705.855 193.075H676.072L659.657 160.595H629.17Z" fill="#4FB6F0"/>
<path d="M472.988 96.3398L439.453 128.819H470.174L487.293 160.83H518.248L549.672 128.819H519.89L503.474 96.3398H472.988Z" fill="#4FB6F0"/>
<path d="M647.462 32.0845L613.927 64.5639H644.648L661.767 96.5743H692.722L724.146 64.5639H694.364L677.948 32.0845H647.462Z" fill="#4FB6F0"/>
<path d="M537.243 32.0845L503.708 64.5639H534.429L551.548 96.5743H582.503L613.928 64.5639H584.145L567.729 32.0845H537.243Z" fill="#4FB6F0"/>
</g>
<g clip-path="url(#clip7_2081_14779)">
<rect width="109.75" height="706.809" transform="translate(631.5)" fill="#E6FCFF"/>
<path d="M628.702 160.595L595.167 193.075H625.888L643.007 225.085H673.962L705.386 193.075H675.603L659.188 160.595H628.702Z" fill="#4FB6F0"/>
<path d="M692.957 96.3398L659.422 128.819H690.142L707.262 160.83H738.217L769.641 128.819H739.858L723.443 96.3398H692.957Z" fill="#4FB6F0"/>
<path d="M738.92 160.595L705.386 193.075H736.106L753.225 225.085H784.181L815.605 193.075H785.822L769.407 160.595H738.92Z" fill="#4FB6F0"/>
<path d="M582.738 96.3398L549.203 128.819H579.924L597.043 160.83H627.998L659.422 128.819H629.64L613.224 96.3398H582.738Z" fill="#4FB6F0"/>
<path d="M757.212 32.0845L723.677 64.5639H754.398L771.517 96.5743H802.472L833.896 64.5639H804.114L787.698 32.0845H757.212Z" fill="#4FB6F0"/>
<path d="M646.993 32.0845L613.458 64.5639H644.179L661.298 96.5743H692.253L723.678 64.5639H693.895L677.479 32.0845H646.993Z" fill="#4FB6F0"/>
</g>
<g clip-path="url(#clip8_2081_14779)">
<rect width="109.75" height="706.809" transform="translate(741.25)" fill="#E6FCFF"/>
<path d="M738.452 160.595L704.917 193.075H735.638L752.757 225.085H783.712L815.136 193.075H785.353L768.938 160.595H738.452Z" fill="#4FB6F0"/>
<path d="M692.488 96.3398L658.953 128.819H689.674L706.793 160.83H737.748L769.172 128.819H739.39L722.974 96.3398H692.488Z" fill="#4FB6F0"/>
<path d="M756.743 32.0845L723.208 64.5639H753.929L771.048 96.5743H802.003L833.428 64.5639H803.645L787.229 32.0845H756.743Z" fill="#4FB6F0"/>
</g>
</g>
<defs>
<clipPath id="clip0_2081_14779">
<rect width="878" height="257" fill="white" transform="translate(-27)"/>
</clipPath>
<clipPath id="clip1_2081_14779">
<rect width="109.75" height="706.809" fill="white" transform="translate(-27)"/>
</clipPath>
<clipPath id="clip2_2081_14779">
<rect width="109.75" height="706.809" fill="white" transform="translate(82.75)"/>
</clipPath>
<clipPath id="clip3_2081_14779">
<rect width="109.75" height="706.809" fill="white" transform="translate(192.5)"/>
</clipPath>
<clipPath id="clip4_2081_14779">
<rect width="109.75" height="706.809" fill="white" transform="translate(302.25)"/>
</clipPath>
<clipPath id="clip5_2081_14779">
<rect width="109.75" height="706.809" fill="white" transform="translate(412)"/>
</clipPath>
<clipPath id="clip6_2081_14779">
<rect width="109.75" height="706.809" fill="white" transform="translate(521.75)"/>
</clipPath>
<clipPath id="clip7_2081_14779">
<rect width="109.75" height="706.809" fill="white" transform="translate(631.5)"/>
</clipPath>
<clipPath id="clip8_2081_14779">
<rect width="109.75" height="706.809" fill="white" transform="translate(741.25)"/>
</clipPath>
</defs>
</svg>
