<svg width="1514" height="460" viewBox="0 0 1514 460" fill="none" xmlns="http://www.w3.org/2000/svg">
<g clip-path="url(#clip0_2064_13035)">
<path d="M44.7605 51.4904C51.6405 46.9304 56.9905 47.3004 63.5505 51.7504C71.3705 57.0504 79.8205 61.4004 88.0005 66.1104C92.7705 68.8504 92.9005 69.8604 88.1205 72.6304C68.1605 84.2038 48.1605 95.7038 28.1205 107.13C23.7405 109.62 19.0405 111.51 14.4805 113.67V159.67C24.6205 153.99 34.8005 148.4 44.8805 142.67C73.0005 126.57 101.04 110.33 129.25 94.3704C130.373 93.8531 131.594 93.5811 132.83 93.5724C134.066 93.5638 135.29 93.8188 136.42 94.3204C145.68 99.2004 154.68 104.55 163.73 109.82C169.14 112.97 169.05 113.98 163.62 117.1C134.84 133.714 106.064 150.344 77.2905 166.99C57.8971 178.157 38.4871 189.35 19.0605 200.57C17.6305 201.39 16.0605 201.93 14.5205 202.57V523.36C18.0205 523.36 21.5205 523.12 25.0105 523.42C28.8405 523.75 29.8405 522.23 29.8005 518.58C29.6305 503.93 29.9705 489.27 29.5905 474.58C29.4505 469.02 31.3105 465.65 36.0805 462.95C59.2305 449.84 82.2605 436.52 105.32 423.24C131.107 408.414 156.88 393.534 182.64 378.6C186.02 376.6 188.84 375.7 192.7 377.95C226.167 397.43 259.707 416.807 293.32 436.08C309.174 445.234 325.014 454.39 340.84 463.55C344.91 465.9 345.02 467.5 341.12 469.75C330.61 475.82 320.12 481.92 309.47 487.75C308.584 488.173 307.618 488.401 306.636 488.418C305.655 488.436 304.681 488.242 303.78 487.85C283.35 476.34 263.03 464.64 242.71 452.93C225.71 443.14 208.8 433.17 191.66 423.64C189.72 422.56 186 422.89 183.95 424.05C154 441 124.23 458.29 94.4005 475.46C87.3405 479.53 80.1805 483.46 73.2105 487.65C71.6605 488.59 69.7405 490.53 69.6905 492.06C69.3805 502.31 69.5305 512.58 69.5305 523.06H107.69C107.92 522.45 108.44 521.8 108.33 521.26C106.85 513.37 111.92 510.26 117.81 506.94C139.55 494.707 161.147 482.237 182.6 469.53C186.6 467.18 189.65 467.21 193.6 469.53C215.86 482.53 238.25 495.3 260.55 508.21C262.15 509.293 263.661 510.5 265.07 511.82C263.686 513.326 262.188 514.724 260.59 516C257.59 518.08 254.44 519.87 251.35 521.79L251.89 523.12C253.63 523.2 255.38 523.35 257.13 523.35C277.61 523.35 298.13 523.35 318.58 523.35C323.75 523.35 328.21 522.66 332.98 519.64C346.98 510.77 361.69 502.89 376.11 494.64C376.808 494.187 377.537 493.783 378.29 493.43C380.29 492.59 382.36 491.83 384.4 491.04C384.891 493.247 385.225 495.486 385.4 497.74C385.53 506.03 385.45 514.32 385.45 522.97H424C424.09 520.9 424.25 518.97 424.25 516.97C424.25 502.31 424.25 487.66 424.25 472.97C424.25 467.76 425.61 467.02 430.2 469.64C440.15 475.35 450.01 481.23 460.04 486.81C463.22 488.58 464.51 490.81 464.42 494.39C464.23 502.04 464.34 509.7 464.37 517.39C464.37 519.19 464.52 520.98 464.62 523.01H503C503.11 521.25 503.24 519.5 503.34 517.75C503.58 513.39 504.68 512.7 508.58 514.75C511.72 516.303 514.73 518.106 517.58 520.14C520.81 522.61 524.201 523.33 528.201 523.32C563.841 523.2 599.48 523.2 635.12 523.32C639.81 523.32 644.401 523.58 648.021 519.78C648.819 519.177 649.711 518.707 650.66 518.39L659.85 513.66C660.73 516.66 661.62 519.66 662.67 523.25C674.09 523.25 685.88 523.34 697.67 523.09C698.58 523.09 700.171 520.72 700.211 519.42C700.451 511.6 700.471 503.777 700.271 495.95C700.171 491.66 701.54 488.86 705.5 486.71C715.29 481.41 724.831 475.64 734.5 470.1C739.5 467.25 740.23 467.73 740.24 473.69C740.24 488.184 740.24 502.67 740.24 517.15V523.28H762.06C766.23 523.28 770.41 523.03 774.55 523.35C778.44 523.65 779.32 522.04 779.281 518.46C779.13 503.46 779.42 488.46 779.1 473.46C779 468.59 780.8 465.79 784.831 463.46C808.37 450.02 831.87 436.507 855.331 422.92C878.81 409.38 902.33 395.92 925.72 382.21C937.55 375.26 937.38 375.09 949.17 381.89C990.07 405.477 1030.99 429.04 1071.92 452.58C1078.26 456.24 1084.61 459.88 1090.92 463.58C1094.56 465.72 1094.53 467.37 1090.77 469.58C1080.12 475.74 1069.48 481.93 1058.7 487.86C1057.87 488.22 1056.96 488.397 1056.05 488.38C1055.15 488.363 1054.25 488.152 1053.43 487.76C1033.02 476.21 1012.7 464.5 992.43 452.76C975.43 442.97 958.51 433.02 941.38 423.46C940.228 422.955 938.98 422.704 937.721 422.727C936.463 422.749 935.224 423.044 934.091 423.59C903.88 440.77 873.82 458.2 843.711 475.59C837.091 479.41 830.49 483.29 823.771 486.93C820.651 488.62 819.11 490.73 819.19 494.42C819.38 503.72 819.25 513.03 819.25 522.59C820.447 522.883 821.664 523.083 822.891 523.19C833.211 523.19 843.541 523.12 853.891 523.28C857.041 523.33 858.8 522.47 858.24 519.12C857.331 513.75 860.24 510.94 864.521 508.5C887.76 495.2 910.87 481.69 934.17 468.5C935.303 467.982 936.535 467.713 937.781 467.713C939.026 467.713 940.258 467.982 941.391 468.5C965.141 481.89 988.75 495.5 1012.39 509.17C1015.79 511.17 1015.56 512.93 1011.77 515.17C1008.5 517.12 1005.19 519.03 1001.94 521.01C1001.62 521.21 1001.56 521.84 1000.94 523.17H1006.56C1027.22 523.17 1047.87 523.08 1068.56 523.23C1073.45 523.439 1078.29 522.159 1082.44 519.56C1096.7 510.7 1111.44 502.65 1126.02 494.3C1135.15 489.08 1135.16 489.09 1135.16 499.81V522.9H1173.69C1173.8 520.9 1174 519 1174 517.08C1174 502.42 1174 487.77 1174 473.08C1174 467.39 1175.1 466.8 1180.07 469.63C1189.75 475.15 1199.34 480.83 1209.07 486.19C1212.71 488.19 1214.34 490.66 1214.17 494.91C1213.88 502.39 1214.08 509.91 1214.11 517.39C1214.11 519.17 1214.28 520.95 1214.37 522.91H1252.64C1252.75 520.8 1252.93 518.91 1252.93 516.91C1252.93 513.55 1254.46 512.65 1257.34 514.2C1260.42 515.85 1263.73 517.28 1266.34 519.49C1270.24 522.76 1274.52 523.18 1279.34 523.17C1314.15 523.057 1348.96 523.057 1383.77 523.17C1388.92 523.17 1394.08 523.69 1398.06 519.36C1398.58 518.79 1399.54 518.63 1400.28 518.25L1409.47 513.57L1412.39 523.13C1423.64 523.13 1435.29 523.08 1446.92 523.13C1450.31 523.13 1450.09 520.94 1450.09 518.75C1450.09 510.75 1450.18 502.75 1450.01 494.75C1449.93 490.99 1451.31 488.59 1454.67 486.75C1464.57 481.29 1474.32 475.55 1484.13 469.94C1489.13 467.08 1489.89 467.51 1489.91 473.43C1489.91 487.92 1489.91 502.43 1489.91 516.89V523H1513.69V517.7C1513.69 415.46 1513.72 313.214 1513.79 210.96C1513.79 207.14 1512.62 205.27 1509.29 203.37C1473.07 182.66 1436.97 161.72 1400.84 140.85C1387.02 132.85 1373.12 125 1359.43 116.79C1358.49 116.125 1357.7 115.263 1357.12 114.264C1356.54 113.264 1356.18 112.151 1356.07 111C1355.89 53.0471 1355.89 -4.90291 1356.07 -62.8496C1356.19 -64.1757 1356.59 -65.4609 1357.25 -66.6161C1357.91 -67.7713 1358.82 -68.7688 1359.9 -69.5396C1386.72 -85.2596 1413.74 -100.66 1440.68 -116.19C1464.01 -129.636 1487.31 -143.156 1510.57 -156.75C1511.43 -157.386 1512.14 -158.198 1512.65 -159.131C1513.17 -160.064 1513.48 -161.096 1513.57 -162.16C1513.89 -170.64 1513.71 -179.16 1513.71 -187.63V-211.52H1421.58C1437.18 -202.506 1452.77 -193.483 1468.36 -184.45C1469.79 -183.431 1471.13 -182.286 1472.36 -181.03C1471.24 -179.764 1470 -178.618 1468.64 -177.61C1458.77 -171.77 1448.94 -165.82 1438.81 -160.44C1437.52 -159.857 1436.12 -159.556 1434.7 -159.556C1433.28 -159.556 1431.88 -159.857 1430.59 -160.44C1400.98 -177.34 1371.44 -194.363 1341.98 -211.51H1290.92C1268.96 -198.776 1246.98 -186.086 1224.99 -173.44C1217.93 -169.373 1210.86 -165.336 1203.77 -161.33C1200.03 -159.22 1198.04 -156.57 1198.06 -151.79C1198.26 -110.33 1198.26 -68.8696 1198.06 -27.4096C1198.06 -23.4096 1199.37 -20.9296 1202.82 -18.9496C1239.02 1.81042 1275.15 22.7204 1311.37 43.4404C1315.28 45.6804 1317.14 48.2404 1317.01 52.9204C1316.7 64.2404 1316.95 75.5704 1316.87 86.9204C1316.87 91.6004 1315.75 92.1904 1311.99 90.0204C1286.1 75.0204 1260.2 60.0204 1234.29 45.0204C1210.69 31.3704 1187.12 17.6604 1163.43 4.17043C1159.45 2.00043 1158 -0.769577 1158 -5.05957C1158.1 -33.3696 1158 -61.6696 1158 -89.9796H1158.06C1158.06 -118.29 1158.14 -146.6 1157.97 -174.9C1157.97 -179.31 1159.5 -181.9 1163.29 -184.06C1179.29 -193.186 1195.26 -202.34 1211.2 -211.52H1093.86C1061.99 -193.246 1030.15 -174.913 998.341 -156.52C987.401 -150.206 976.484 -143.85 965.591 -137.45C963.041 -135.96 960.94 -135.05 957.841 -136.86C914.861 -161.806 871.844 -186.693 828.79 -211.52H671.91C687.65 -202.46 703.384 -193.39 719.11 -184.31C720.416 -183.365 721.62 -182.285 722.701 -181.09C721.471 -179.94 720.41 -178.5 718.99 -177.66C709.12 -171.81 699.29 -165.87 689.17 -160.48C687.876 -159.894 686.471 -159.591 685.05 -159.591C683.63 -159.591 682.225 -159.894 680.93 -160.48C651.324 -177.373 621.791 -194.4 592.331 -211.56H541.081C512.1 -194.766 483.1 -178.026 454.08 -161.34C450.34 -159.19 448.44 -156.45 448.45 -151.73C448.59 -110.43 448.564 -69.1296 448.37 -27.8296C448.37 -23.6796 449.72 -21.0896 453.37 -18.9896C489.58 1.75043 525.691 22.6804 561.901 43.4304C565.82 45.6704 567.57 48.3604 567.43 53.0004C567.12 63.3204 567.43 73.6504 567.271 84.0004C567.271 86.3504 566.44 88.6804 565.99 91.0004C563.99 90.0704 561.84 89.2904 559.91 88.1804C540.41 77.0604 520.93 65.9005 501.47 54.7004C472.36 37.9304 443.33 21.0004 414.15 4.41043C410.25 2.19043 408.88 -0.489578 408.9 -4.77957C409.01 -33.2496 408.95 -61.7296 408.95 -90.2096H409C409 -118.52 409.08 -146.83 408.93 -175.14C408.93 -179.51 410.36 -182.14 414.2 -184.3C430.04 -193.346 445.874 -202.42 461.7 -211.52H344.29C323.71 -199.72 303.16 -187.873 282.64 -175.98C260.76 -163.35 238.85 -150.76 217.06 -137.98C213.41 -135.85 210.73 -135.4 206.69 -137.76C170.53 -158.9 134.17 -179.76 97.8805 -200.66C91.6405 -204.26 85.4071 -207.88 79.1805 -211.52H14.5205V68.7104C24.6405 63.0004 35.1205 57.8904 44.7605 51.4904ZM267.76 368.49C267.76 375.13 266.76 375.72 261.02 372.42C251.63 367.07 242.35 361.54 232.9 356.31C229.28 354.31 227.65 351.8 227.73 347.56C227.95 335.92 227.73 324.26 227.86 312.56C227.984 311.071 227.656 309.579 226.919 308.279C226.183 306.979 225.071 305.93 223.73 305.27C213.17 299.27 202.73 293.07 192.07 287.33C190.07 286.26 186.65 285.97 184.77 286.98C173.59 292.994 162.627 299.31 151.88 305.93C150 307.1 148.66 310.55 148.58 312.98C148.24 324.46 148.29 335.98 148.48 347.44C148.55 351.58 147.21 354.24 143.48 356.27C133.58 361.7 123.87 367.5 114 373C109.59 375.47 108.46 374.77 108.44 369.75C108.44 356.43 108.44 343.11 108.44 329.8C108.44 317.31 108.71 304.8 108.31 292.35C108.13 286.9 110.17 283.74 114.71 281.18C132.51 271.12 150.19 260.87 167.91 250.67C173.09 247.67 178.33 244.77 183.37 241.55C186.57 239.5 189.27 239.55 192.56 241.47C215.1 254.6 237.68 267.68 260.38 280.53C265.53 283.45 267.97 286.79 267.87 293.09C267.52 318.25 267.74 343.39 267.73 368.53L267.76 368.49ZM346.6 329.78C346.6 357.92 346.6 386.064 346.6 414.21C346.6 420.6 345.6 421.16 340.09 418C330.69 412.66 321.39 407.16 311.91 402C308.09 399.9 306.58 397.2 306.6 392.81C306.72 351.18 306.6 309.55 306.74 267.91C306.74 263.67 305.29 261.39 301.6 259.3C276.3 244.93 251.14 230.3 225.93 215.77C214.55 209.21 203.26 202.49 191.73 196.22C190.578 195.709 189.33 195.449 188.069 195.459C186.808 195.47 185.564 195.75 184.42 196.28C154.35 213.37 124.42 230.71 94.4205 248C88.0805 251.66 81.9405 255.74 75.3605 258.89C70.6905 261.12 69.3605 264.1 69.3605 269.04C69.5205 310.04 69.3605 350.97 69.5505 391.94C69.5505 397.18 67.7605 400.17 63.2405 402.58C54.0005 407.53 45.0805 413 36.0005 418.15C30.8105 421.09 29.6605 420.38 29.6605 414.44C29.6605 357.987 29.6405 301.537 29.6005 245.09C29.6005 240.47 31.7705 238.09 35.3105 236.09C52.8838 225.984 70.4471 215.85 88.0005 205.69L165.39 161.15C171.73 157.5 177.93 153.57 184.46 150.31C185.6 149.804 186.833 149.542 188.08 149.542C189.328 149.542 190.561 149.804 191.7 150.31C222.78 167.99 253.7 185.92 284.7 203.78C302.4 214 320 224.34 337.93 234.25C344 237.61 346.98 241.25 346.81 248.89C346.19 275.85 346.57 302.84 346.57 329.82L346.6 329.78ZM385.42 267.05C385.42 263.59 386.42 261.23 389.69 259.4C399.89 253.8 409.8 247.68 419.97 242.03C423.15 240.26 424.46 238.16 424.42 234.53C424.25 222.38 424.53 210.22 424.19 198.08C424.076 196.85 423.704 195.657 423.097 194.58C422.49 193.503 421.664 192.566 420.67 191.83C409.92 185.2 398.97 178.83 387.92 172.77C386.49 171.97 383.74 172.34 382.17 173.21C371.25 179.21 360.54 185.62 349.61 191.61C347.85 192.61 344.8 193.04 343.2 192.17C331.66 185.91 320.33 179.26 308.96 172.69C308.46 172.4 308.22 171.69 307.42 170.47C313.54 166.86 319.47 163.33 325.42 159.87C343.84 149.21 362.29 138.63 380.66 127.87C383.74 126.07 386.37 125.87 389.48 127.68C413.2 141.46 437.01 155.08 460.64 169C461.656 169.709 462.507 170.629 463.134 171.698C463.76 172.766 464.148 173.958 464.27 175.19C464.524 202.657 464.524 230.124 464.27 257.59C464.16 258.928 463.763 260.226 463.106 261.396C462.448 262.566 461.546 263.581 460.46 264.37C437.4 278 414.16 291.3 391 304.63C389.391 305.417 387.738 306.111 386.05 306.71C385.8 304.41 385.51 302.98 385.5 301.55C385.41 290.06 385.47 278.57 385.39 267.09L385.42 267.05ZM734.51 425.05C703.581 442.64 672.831 460.54 642.01 478.33C623.43 489.05 604.891 499.84 586.151 510.27C584.151 511.37 580.41 511.15 578.36 509.98C549.451 493.54 520.69 476.82 491.89 460.19C471.89 448.644 451.87 437.104 431.83 425.57C430.674 424.917 429.556 424.199 428.48 423.42C426.02 421.61 426.25 420.06 428.89 418.55C439.42 412.55 449.81 406.21 460.51 400.5C462.51 399.5 466.15 399.8 468.21 400.96C490.1 413.26 511.831 425.85 533.591 438.37C548.871 447.17 564.06 456.11 579.48 464.64C581.26 465.64 584.701 465.18 586.641 464.09C606.19 453.09 625.64 441.79 645.04 430.58C661.61 421.03 678.13 411.39 694.771 401.98C698.69 399.76 700.461 397.04 700.44 392.43C700.307 350.804 700.307 309.174 700.44 267.54C700.44 263.61 699.19 261.09 695.67 259.09C672.27 245.757 648.92 232.337 625.62 218.83C612.38 211.18 599.24 203.35 585.93 195.83C582.93 194.14 582.27 191.99 582.29 188.92C582.39 177.6 582.29 166.27 582.29 154.92C582.29 149.07 583.521 148.44 588.701 151.42L656.951 190.86C682.86 205.86 708.74 220.86 734.74 235.7C738.74 237.98 740.25 240.75 740.22 245.3C740.06 273.61 740.141 301.92 740.141 330.23C740.141 358.54 740.06 386.84 740.22 415.15C740.25 419.93 738.73 422.65 734.48 425.07L734.51 425.05ZM1017.27 329.75C1017.27 342.9 1017.27 356.05 1017.27 369.2C1017.27 374.9 1016.13 375.6 1011.19 372.81C1001.35 367.25 991.62 361.51 981.75 356C978.43 354.14 977.19 351.65 977.25 347.89C977.41 336.08 977.25 324.26 977.36 312.44C977.461 310.95 977.108 309.465 976.347 308.18C975.587 306.894 974.455 305.87 973.1 305.24C962.67 299.37 952.26 293.47 941.961 287.39C939.041 285.67 936.59 285.48 933.62 287.22C923.01 293.43 912.18 299.28 901.72 305.73C899.79 306.92 898.211 310.23 898.13 312.62C897.76 324.43 897.88 336.25 898 348.07C898 351.59 897 354.07 893.781 355.81C883.621 361.47 873.581 367.36 863.44 373.06C859.281 375.4 858.06 374.71 858.06 370.06C858.06 343.43 858.06 316.8 857.961 290.17C857.961 286.31 859.55 284.02 862.73 282.17C886.51 268.51 910.201 254.7 934.07 241.17C935.21 240.662 936.446 240.406 937.694 240.42C938.942 240.434 940.172 240.717 941.3 241.25C965.03 254.66 988.581 268.38 1012.24 281.92C1016 284.07 1017.44 286.92 1017.36 291.26C1017.09 304.14 1017.24 317 1017.24 329.77L1017.27 329.75ZM1096.12 329.46H1096.17C1096.17 357.774 1096.17 386.077 1096.17 414.37C1096.17 420.58 1095.03 421.21 1089.53 418.04C1080.32 412.73 1071.2 407.24 1061.85 402.18C1057.64 399.9 1056.06 397.01 1056.08 392.24C1056.21 350.95 1056.08 309.66 1056.21 268.37C1056.21 263.76 1054.63 261.37 1050.57 259.07C1019.65 241.48 988.91 223.57 958.11 205.76C952.79 202.68 947.34 199.82 942.11 196.55C939.05 194.63 936.5 194.55 933.35 196.42C903.437 213.754 873.49 231.047 843.51 248.3C836.74 252.2 830 256.14 823.11 259.82C819.61 261.69 818.91 264.41 818.92 268.05C819 309.05 818.85 349.96 819.1 390.91C819.1 396.91 817.221 400.34 811.94 403.07C802.94 407.71 794.32 413.07 785.521 418.13C780.26 421.13 779.091 420.5 779.091 414.7C779.091 358.93 779.18 303.16 778.91 247.39C778.91 241.51 780.91 238.16 785.72 235.44C803.38 225.48 820.984 215.414 838.531 205.24C862.151 191.634 885.75 177.984 909.331 164.29C917.531 159.55 925.62 154.61 934.01 150.22C935.159 149.719 936.401 149.467 937.654 149.48C938.907 149.494 940.143 149.774 941.281 150.3C966.731 164.73 992.01 179.47 1017.37 194.08C1040.84 207.6 1064.3 221.17 1087.89 234.5C1093.6 237.73 1096.45 241.35 1096.31 248.56C1095.77 275.54 1096.09 302.51 1096.09 329.48L1096.12 329.46ZM1173.7 198.1C1173.65 196.03 1172.28 193.1 1170.61 192.1C1159.7 185.4 1148.61 179.01 1137.4 172.83C1135.96 172.04 1133.2 172.41 1131.63 173.28C1120.85 179.22 1110.31 185.57 1099.48 191.41C1097.48 192.49 1094.06 192.83 1092.19 191.83C1080.89 185.83 1069.85 179.34 1058.76 172.96C1058.12 172.59 1057.76 171.75 1056.82 170.54C1062.82 167.02 1068.41 163.63 1074.1 160.33C1092.67 149.59 1111.3 138.97 1129.8 128.11C1133.26 126.11 1136.07 126.04 1139.5 128.03C1162.64 141.464 1185.84 154.797 1209.1 168.03C1212.77 170.11 1214.1 172.63 1214.04 176.8C1213.88 203.267 1213.88 229.737 1214.04 256.21C1214.04 260.59 1212.53 263.12 1208.68 265.31C1186.56 277.87 1164.6 290.71 1142.56 303.42C1140.56 304.56 1138.47 305.47 1135.68 306.84C1135.35 305.078 1135.12 303.299 1134.99 301.51C1134.99 290.02 1134.99 278.51 1134.92 267.05C1134.92 263.58 1135.83 261.26 1139.17 259.43C1149.51 253.75 1159.57 247.54 1169.88 241.81C1172.98 240.08 1173.88 237.88 1173.88 234.56C1173.75 222.42 1174 210.27 1173.67 198.12L1173.7 198.1ZM1458.65 221.1C1467.29 226.1 1475.89 231.1 1484.65 235.95C1488.28 237.95 1489.85 240.51 1489.84 244.72C1489.75 301.647 1489.75 358.584 1489.84 415.53C1489.84 420.15 1488.09 422.66 1484.12 424.93C1453.12 442.65 1422.19 460.63 1391.22 478.49C1372.79 489.12 1354.39 499.8 1335.77 510.11C1333.67 511.27 1329.71 511.11 1327.56 509.86C1287.17 486.73 1246.92 463.34 1206.62 440.02C1198.13 435.11 1189.62 430.29 1181.08 425.41C1174.77 421.8 1174.74 420.79 1180.81 417.26C1190.29 411.74 1199.81 406.31 1209.24 400.68C1210.46 399.824 1211.9 399.36 1213.39 399.349C1214.88 399.338 1216.33 399.782 1217.56 400.62C1245.04 416.54 1272.56 432.39 1300.11 448.17C1309.76 453.73 1319.31 459.48 1329.11 464.73C1330.81 465.64 1334.02 465.25 1335.83 464.22C1355.39 453.22 1374.83 441.96 1394.25 430.75C1410.67 421.29 1427.01 411.68 1443.53 402.4C1448.14 399.8 1449.92 396.7 1449.89 391.26C1449.64 350.474 1449.64 309.684 1449.89 268.89C1449.89 263.62 1448.13 260.62 1443.76 258.14C1420.63 245.02 1397.55 231.807 1374.52 218.5C1361.41 210.947 1348.36 203.28 1335.37 195.5C1333.79 194.5 1331.99 192.36 1331.95 190.71C1331.68 177.89 1331.81 165.07 1331.86 152.25C1332.08 151.008 1332.41 149.789 1332.86 148.61C1338.86 151.94 1344.16 154.86 1349.43 157.9C1385.81 179 1422.21 200.084 1458.62 221.15L1458.65 221.1ZM1316.76 -3.74957C1316.76 0.490433 1315.45 1.16043 1312.03 -0.829575C1292.19 -12.3296 1272.72 -24.5396 1252.37 -35.0596C1240.42 -41.2396 1234.53 -48.5296 1236.6 -62.4596C1237.93 -71.4096 1236.85 -80.7296 1236.85 -89.8896C1236.85 -103.04 1236.94 -116.19 1236.78 -129.34C1236.78 -133.46 1238.14 -136.12 1241.78 -138.21C1265.46 -151.71 1289 -165.45 1312.78 -178.85C1314.61 -179.85 1318.09 -179.7 1319.99 -178.64C1342.15 -166.18 1364.1 -153.33 1386.25 -140.83C1395.07 -135.83 1396.51 -135.63 1386.25 -130.02C1377.36 -125.16 1368.78 -119.69 1359.79 -115.02C1358.5 -114.434 1357.11 -114.124 1355.69 -114.108C1354.28 -114.093 1352.88 -114.373 1351.58 -114.93C1341.19 -120.5 1331.07 -126.59 1320.95 -132.66C1317.95 -134.43 1315.62 -135.02 1312.32 -133.02C1302.24 -126.91 1291.88 -121.23 1281.66 -115.32C1280.02 -114.494 1278.67 -113.195 1277.77 -111.59C1276.88 -109.984 1276.49 -108.148 1276.66 -106.32C1276.96 -95.5129 1276.96 -84.6962 1276.66 -73.8696C1276.55 -69.0696 1278.33 -66.2096 1282.51 -63.9396C1292.15 -58.7096 1301.51 -52.9896 1311.1 -47.6596C1315.1 -45.4096 1317.03 -42.5396 1316.88 -37.6596C1316.58 -26.3896 1316.87 -15.0596 1316.76 -3.74957ZM1328.38 373.38C1329.41 373.89 1330.54 374.176 1331.69 374.221C1332.84 374.266 1333.99 374.068 1335.06 373.64C1346.03 367.714 1356.84 361.504 1367.5 355.01C1368.52 354.262 1369.36 353.308 1369.99 352.21C1370.61 351.113 1371 349.897 1371.12 348.64C1371.45 336.64 1371.19 324.64 1371.25 312.69C1371.25 309.18 1370.06 306.78 1366.88 304.99C1356.31 299.04 1345.79 292.99 1335.45 286.65C1334.49 285.997 1333.68 285.149 1333.08 284.162C1332.47 283.174 1332.08 282.07 1331.93 280.92C1331.6 268.92 1331.72 256.92 1331.79 244.92C1331.79 240.23 1333.09 239.49 1337.17 241.83C1360.37 255.164 1383.55 268.547 1406.71 281.98C1409.98 283.86 1411.11 286.58 1411.08 290.26C1410.97 303.58 1411.08 316.9 1411.08 330.26C1411.08 343.62 1411.02 356.89 1411.08 370.26C1411.08 374.12 1409.97 376.82 1406.43 378.84C1383.04 392.174 1359.7 405.604 1336.43 419.13C1335.12 420.003 1333.58 420.469 1332 420.469C1330.42 420.469 1328.88 420.003 1327.57 419.13L1259.82 379.88C1258.82 379.29 1257.82 378.62 1256.9 377.96C1254.03 375.96 1254.52 374.52 1257.37 372.91C1267.79 367.01 1278.04 360.83 1288.57 355.15C1289.7 354.63 1290.93 354.355 1292.17 354.343C1293.42 354.331 1294.65 354.582 1295.79 355.08C1306.77 361 1317.43 367.43 1328.38 373.38ZM1139.78 37.1704C1166.67 52.7971 1193.61 68.3371 1220.59 83.7904C1242.59 96.4804 1264.59 109.26 1286.75 121.79C1291.1 124.26 1293.08 127.03 1293.06 132.35C1292.85 188.484 1292.85 244.607 1293.06 300.72C1293.06 305.61 1291.62 308.52 1287.2 311.04C1251.2 331.51 1215.36 352.24 1179.5 372.94C1166.97 380.17 1154.5 387.55 1142.01 394.81C1140.2 395.86 1138.23 396.63 1135.59 397.87C1135.34 395.49 1135.04 393.92 1135.03 392.35C1135.03 380.86 1135.03 369.35 1134.95 357.88C1134.95 354.34 1136.09 352.19 1139.33 350.34C1174.98 329.95 1210.5 309.34 1246.15 288.94C1250.78 286.29 1253.03 283.42 1252.99 277.66C1252.72 236.36 1252.82 195.06 1252.99 153.76C1252.99 150.01 1251.99 147.76 1248.57 145.76C1211.63 124.59 1174.81 103.22 1137.87 82.0704C1136.97 81.6479 1135.98 81.4289 1134.98 81.4289C1133.98 81.4289 1133 81.6479 1132.09 82.0704C1098.16 101.457 1064.29 120.95 1030.48 140.55C1029.27 141.105 1028.11 141.775 1027.03 142.55C1019.81 148.98 1013.03 147.55 1005.57 142.46C997.891 137.25 989.5 133.07 981.44 128.46C980.246 127.648 979.094 126.773 977.99 125.84C980.47 124.06 982.42 122.41 984.6 121.15C1020.6 100.364 1056.6 79.6038 1092.6 58.8704C1104.99 51.7304 1117.44 44.6904 1129.7 37.3404C1133.27 35.0704 1136.16 35.0804 1139.78 37.1704ZM881.72 -128.83C881.72 -134.88 882.53 -135.33 887.91 -132.26C898.02 -126.49 908.211 -120.86 918.091 -114.7C920 -113.51 921.57 -110.23 921.651 -107.86C922 -96.2196 921.891 -84.5496 921.74 -72.8596C921.74 -69.1596 922.74 -66.5496 926.11 -64.6596C936.53 -58.7696 946.85 -52.6596 957.19 -46.6596C960.04 -45.0096 962.62 -45.0896 965.581 -46.8596C975.581 -52.8596 985.69 -58.5896 995.841 -64.2796C999.451 -66.2796 1000.94 -69.0696 1000.84 -73.2196C1000.63 -84.5396 1000.84 -95.8596 1000.61 -107.22C1000.48 -108.881 1000.85 -110.544 1001.67 -111.995C1002.49 -113.445 1003.73 -114.617 1005.22 -115.36C1015.35 -121.1 1025.42 -126.94 1035.57 -132.65C1039.77 -135.01 1040.68 -134.43 1040.69 -129.54C1040.69 -116.05 1040.69 -102.54 1040.69 -89.0696C1040.69 -76.0696 1040.6 -63.0696 1040.75 -50.0696C1040.75 -46.1196 1039.47 -43.6296 1035.96 -41.6196C1012.16 -27.9896 988.5 -14.1096 964.641 -0.56958C963.51 -0.0786591 962.286 0.16127 961.053 0.133652C959.82 0.106033 958.608 -0.188477 957.5 -0.729568C933.79 -14.1996 910.27 -27.9896 886.6 -41.5296C883.14 -43.5296 881.6 -45.7996 881.6 -49.8296C881.79 -76.2596 881.7 -102.57 881.72 -128.88V-128.83ZM802.831 -174.36C802.831 -180.28 803.551 -180.72 808.591 -177.85C818.721 -172.11 828.781 -166.26 838.94 -160.59C842.221 -158.76 842.81 -156.09 842.81 -152.66C842.73 -111.36 842.81 -70.0596 842.66 -28.7596C842.66 -23.7596 844.32 -20.7596 848.57 -18.3496C884.497 2.23042 920.374 22.8971 956.201 43.6504C959.771 45.7204 962.771 45.6504 966.401 43.5604C997.734 25.3338 1029.12 7.19708 1060.57 -10.8496C1065.33 -13.5896 1070 -16.4796 1074.87 -19.0096C1078.46 -20.8696 1079.61 -23.5196 1079.6 -27.4796C1079.51 -68.2796 1079.67 -109.08 1079.44 -149.88C1079.44 -156.01 1081.35 -159.67 1086.84 -162.5C1096.14 -167.29 1105.06 -172.84 1114.16 -178.03C1115.66 -178.737 1117.19 -179.365 1118.75 -179.91C1118.91 -177.22 1119.11 -175.45 1119.11 -173.68C1119.11 -119.06 1119.03 -64.4296 1119.26 -9.80957C1119.26 -3.55957 1116.94 -0.109573 1111.76 2.85043C1073.09 24.9504 1034.46 47.1571 995.87 69.4704C985.07 75.6904 974.091 81.6304 963.451 88.1204C959.63 90.4504 956.73 89.8304 953.32 87.8504C932.44 75.7438 911.551 63.6804 890.651 51.6604C863.01 35.6604 835.401 19.6604 807.651 3.81042C804.181 1.81042 802.72 -0.55957 802.73 -4.53957C802.837 -61.1729 802.87 -117.796 802.831 -174.41V-174.36ZM767.37 67.0604C778.331 61.1304 789 54.7004 800 48.7204C801.73 47.7704 804.741 47.3604 806.341 48.2204C817.591 54.3304 828.62 60.8304 839.701 67.2204C840.487 67.8846 841.192 68.6399 841.8 69.4704C840.569 70.5561 839.266 71.5583 837.901 72.4704C814.411 86.1204 791 99.7404 767.401 113.09C766.303 113.571 765.115 113.808 763.917 113.788C762.72 113.767 761.541 113.488 760.461 112.97C736.591 99.4404 712.901 85.6104 689.091 71.9704C687.833 71.3677 686.788 70.3959 686.097 69.1846C685.406 67.9733 685.1 66.58 685.22 65.1904C685.32 37.7204 685.221 10.2404 685.44 -17.2296C685.44 -19.5596 687.16 -22.8996 689.1 -24.0496C712.3 -37.7296 735.68 -51.0996 759 -64.5296C760.358 -65.1971 761.754 -65.7848 763.18 -66.2896C763.43 -64.1096 763.76 -62.5496 763.771 -60.9796C763.771 -49.3196 763.69 -37.6696 763.86 -25.9796C763.91 -22.5196 762.61 -20.5096 759.641 -18.8496C749.76 -13.3396 740.07 -7.49957 730.18 -2.01958C726.56 -0.019577 724.96 2.53043 725.04 6.75043C725.26 18.4004 725.22 30.0604 725.04 41.7504C724.924 43.3264 725.277 44.9017 726.055 46.2774C726.832 47.6531 728 48.7677 729.41 49.4804C739.83 55.3705 750.161 61.4204 760.711 67.0704C761.757 67.5434 762.893 67.7872 764.042 67.7855C765.19 67.7838 766.325 67.5366 767.37 67.0604ZM698.57 -120.72C718.57 -132.28 738.6 -143.806 758.66 -155.3C759.78 -155.95 761.01 -156.4 763.23 -157.42C763.49 -154.95 763.8 -153.42 763.8 -151.79C763.85 -140.3 763.701 -128.79 763.901 -117.33C763.961 -113.67 762.62 -111.63 759.49 -109.84C729.757 -92.8196 700.09 -75.7196 670.49 -58.5396C663.72 -54.6396 656.79 -50.9596 650.3 -46.6396C649.233 -45.8397 648.344 -44.8265 647.69 -43.6644C647.036 -42.5023 646.631 -41.2168 646.5 -39.8896C646.267 2.57043 646.267 45.0304 646.5 87.4904C646.5 89.8404 648.201 93.2404 650.151 94.3804C686.771 115.72 723.581 136.77 760.271 158.01C763.141 159.67 765.16 159.56 767.98 157.92C803.22 137.49 838.641 117.36 873.75 96.7004C879.99 93.0304 884.75 92.4404 890.86 96.5704C897.86 101.32 905.49 105.15 912.8 109.44C918.891 113.02 918.891 113.76 912.901 117.22L781.531 193C775.911 196.24 770.391 199.69 764.61 202.6C763.651 203.028 762.611 203.25 761.56 203.25C760.51 203.25 759.47 203.028 758.51 202.6C728.591 185.594 698.734 168.467 668.94 151.22C649.49 140.02 630.101 128.74 610.57 117.67C607.18 115.75 606.18 113.38 606.19 109.67C606.277 52.7304 606.277 -4.21623 606.19 -61.1696C606.19 -65.7496 607.72 -68.3096 611.75 -70.5996C640.76 -87.1596 669.63 -104 698.57 -120.72ZM567.26 -6.99957C567.26 -4.64957 566.391 -2.31958 565.93 0.000427246C563.93 -0.919571 561.771 -1.68958 559.841 -2.79958C540.507 -13.8396 521.174 -24.9096 501.84 -36.0096C500.764 -36.7906 499.612 -37.4606 498.4 -38.0096C488.4 -41.3196 486.4 -48.4696 487.17 -58.1896C488.01 -68.6096 487.36 -79.1896 487.36 -89.6296H487.31C487.31 -102.78 487.42 -115.94 487.24 -129.08C487.24 -133.38 488.58 -136.08 492.48 -138.28C516.17 -151.76 539.671 -165.58 563.391 -179C565.19 -180 568.67 -179.68 570.61 -178.6C587.16 -169.39 603.531 -159.85 619.961 -150.42C626.88 -146.42 633.83 -142.53 640.73 -138.53C644.82 -136.16 644.73 -134.8 640.79 -132.53C630.73 -126.7 620.61 -121 610.63 -115C609.335 -114.099 607.797 -113.611 606.22 -113.601C604.642 -113.59 603.098 -114.057 601.79 -114.94C591.61 -120.94 581.35 -126.75 571.22 -132.81C568.22 -134.62 565.771 -134.89 562.57 -132.96C552.57 -126.96 542.44 -121.29 532.35 -115.5C528.92 -113.5 527.141 -110.95 527.25 -106.64C527.531 -95.4896 527.43 -84.3396 527.25 -73.1896C527.18 -69.0396 528.701 -66.3796 532.36 -64.3496C542.26 -58.8596 552 -52.9996 561.81 -47.5296C565.69 -45.3596 567.56 -42.6296 567.42 -37.9596C567.11 -27.6396 567.401 -17.3196 567.26 -6.99957ZM578.901 373.35C579.928 373.855 581.051 374.136 582.195 374.178C583.339 374.219 584.479 374.019 585.54 373.59C596.37 367.77 606.961 361.52 617.651 355.43C620.651 353.7 621.91 351.26 621.85 347.65C621.64 336 621.68 324.35 621.771 312.7C621.771 309.17 620.641 306.85 617.44 305.04C606.721 299.04 596.09 292.83 585.61 286.41C584.727 285.792 583.985 284.993 583.435 284.065C582.885 283.137 582.539 282.103 582.42 281.03C582.13 269.03 582.23 257.03 582.3 245.09C582.3 240.31 583.49 239.59 587.6 241.95C605.487 252.184 623.34 262.47 641.16 272.81C646.35 275.81 651.491 278.86 656.711 281.76C658.288 282.503 659.602 283.708 660.477 285.216C661.353 286.724 661.748 288.462 661.61 290.2C661.41 303.68 661.54 317.2 661.54 330.64C661.54 343.95 661.46 357.27 661.6 370.58C661.6 374.33 660.39 376.83 657.1 378.71C633.714 392.044 610.38 405.447 587.1 418.92C583.72 420.92 580.991 420.81 577.841 418.99C555.121 405.824 532.39 392.674 509.65 379.54C503.98 376.26 504.03 375.31 509.72 372.02C519.5 366.36 529.17 360.5 539.11 355.13C540.239 354.628 541.46 354.369 542.695 354.369C543.931 354.369 545.152 354.628 546.281 355.13C557.26 361 567.94 367.42 578.901 373.35ZM389.94 37.0004C422.734 56.0338 455.557 74.9971 488.41 93.8904C504.83 103.35 521.23 112.89 537.75 122.13C541.831 124.42 543.551 127.13 543.531 131.98C543.371 187.92 543.371 243.864 543.531 299.81C543.531 305.53 541.831 308.81 536.771 311.69C491.591 337.43 446.474 363.337 401.42 389.41C396.59 392.19 391.8 395 386.14 398.28C385.82 395.6 385.52 394.19 385.51 392.78C385.51 381.13 385.51 369.47 385.51 357.78C385.51 354.52 386.37 352.35 389.51 350.55C421.11 332.47 452.6 314.19 484.12 295.96C489.31 292.96 494.65 290.2 499.55 286.8C501.36 285.53 503.16 282.72 503.17 280.61C503.39 237.824 503.39 195.03 503.17 152.23C503.048 151.076 502.677 149.962 502.081 148.965C501.485 147.969 500.68 147.114 499.72 146.46C463.95 125.61 427.95 105.17 392.33 84.0904C386.56 80.6704 382.96 81.4204 377.7 84.5004C342.254 105.267 306.667 125.767 270.94 146C269.09 147.06 265.8 147.52 264.07 146.59C252.65 140.45 241.47 133.86 230.23 127.38C229.71 127.08 229.41 126.38 228.36 125.11C234.21 121.62 239.77 118.21 245.42 114.95C275.24 97.7504 305.07 80.5737 334.91 63.4204C350.18 54.6204 365.49 45.9004 380.7 36.9804C382.062 36.0481 383.674 35.5509 385.324 35.5544C386.973 35.558 388.583 36.0622 389.94 37.0004ZM132.21 -128.73C132.21 -134.92 132.96 -135.38 138.21 -132.37C148.33 -126.62 158.53 -121 168.41 -114.88C169.466 -114.075 170.34 -113.057 170.975 -111.893C171.611 -110.728 171.994 -109.442 172.1 -108.12C172.47 -96.6396 172.46 -85.1196 172.16 -73.6696C172.04 -69.0396 173.72 -66.1996 177.63 -64.0196C187.51 -58.5296 197.3 -52.8796 207.07 -47.1896C210.23 -45.3496 212.98 -45.1096 216.33 -47.1896C226 -52.9996 235.86 -58.5996 245.75 -63.9996C249.75 -66.1896 251.44 -68.9996 251.34 -73.5996C251.09 -84.7496 251.34 -95.9096 251.17 -107.06C251.17 -110.54 252.04 -113.26 255.17 -115.06C265.43 -120.9 275.66 -126.8 285.96 -132.55C290.41 -135.03 291.2 -134.46 291.21 -129.11C291.21 -115.63 291.21 -102.11 291.21 -88.6596C291.21 -76.1796 291.06 -63.6596 291.29 -51.2096C291.38 -46.5396 290.01 -43.6296 285.73 -41.2096C262.13 -27.8596 238.79 -14.1096 215.23 -0.749573C214.11 -0.245438 212.893 0.0102234 211.664 -0.000137329C210.435 -0.010498 209.223 -0.286621 208.11 -0.80957C184.4 -14.2696 160.89 -28.0796 137.21 -41.5896C133.52 -43.6896 132.12 -46.1596 132.14 -50.3196C132.27 -76.4596 132.2 -102.59 132.21 -128.73ZM53.3105 -175C53.3105 -180.2 54.1605 -180.7 58.6805 -178.15C69.1105 -172.28 79.6305 -166.54 89.7805 -160.21C91.7805 -158.99 93.1105 -155.29 93.1205 -152.73C93.3205 -112.27 93.4305 -71.7996 93.1205 -31.3296C93.0605 -24.4396 95.1805 -20.5996 101.24 -17.1596C136.53 2.84042 171.58 23.2704 206.68 43.6104C209.99 45.5304 212.84 45.8604 216.41 43.7904C248.03 25.4038 279.697 7.11043 311.41 -11.0896C316.17 -13.8296 320.89 -16.6196 325.71 -19.2496C328.82 -20.9396 330.1 -23.2496 330.1 -26.9096C329.99 -68.2096 330.1 -109.51 329.89 -150.81C329.89 -156.2 331.7 -159.4 336.39 -161.93C345.45 -166.82 354.24 -172.23 363.17 -177.38C364.85 -178.38 366.66 -179.08 369.17 -180.31C369.51 -178.354 369.744 -176.381 369.87 -174.4C369.87 -119.61 369.76 -64.8196 369.98 -10.0296C369.98 -4.02957 367.98 -0.56958 362.92 2.31042C339.05 15.8304 315.33 29.6204 291.55 43.3104C265.61 58.2404 239.62 73.0804 213.76 88.1604C210.36 90.1604 207.76 89.9904 204.54 88.1604C187 78.0004 169.39 68.0005 151.81 57.8304C120.55 39.8104 89.3405 21.7004 58.0005 3.76042C54.7205 1.88042 53.2405 -0.30957 53.2505 -4.13957C53.3438 -61.0929 53.3638 -118.046 53.3105 -175Z" fill="#7F5823"/>
<path d="M1511.18 -112.19C1508.84 -111.19 1507.32 -110.66 1505.97 -109.88C1494.86 -103.51 1483.8 -97.0604 1472.71 -90.6704C1448.24 -76.5571 1423.74 -62.4604 1399.22 -48.3804C1395.92 -46.4804 1393.38 -44.5304 1393.39 -40.0004C1393.53 2.29291 1393.53 44.5862 1393.39 86.8796C1393.29 88.4489 1393.66 90.0115 1394.45 91.372C1395.24 92.7326 1396.41 93.8308 1397.82 94.5296C1427.67 111.656 1457.5 128.83 1487.3 146.05C1494.88 150.42 1502.49 154.74 1511.14 159.69C1511.14 144.35 1511.21 130.37 1511.02 116.41C1511.02 115.26 1509.47 113.75 1508.27 113.05C1484.39 99.2029 1460.47 85.4329 1436.5 71.7396C1433.5 70.0496 1432.32 68.0696 1432.34 64.6096C1432.46 37.2762 1432.46 9.96957 1432.34 -17.3104C1432.34 -21.1504 1433.86 -23.3104 1437.14 -25.1804C1460.82 -38.7004 1484.42 -52.3671 1507.95 -66.1804C1508.8 -66.821 1509.5 -67.6311 1510.02 -68.5592C1510.53 -69.4873 1510.85 -70.5128 1510.95 -71.5704C1511.31 -78.5704 1511.09 -85.5704 1511.09 -92.5704L1511.18 -112.19Z" fill="#7F5823"/>
<path d="M1473.45 -1.92964C1471.89 -0.92964 1470.74 1.90036 1470.7 3.91036C1470.44 16.2204 1470.36 28.5404 1470.7 40.8504C1470.85 42.181 1471.28 43.4663 1471.95 44.6283C1472.61 45.7902 1473.51 46.8047 1474.58 47.6104C1479.74 51.2004 1485.41 54.0704 1490.9 57.1904C1496.74 60.5204 1502.61 63.8104 1509.09 67.4804V-21.6196C1508.23 -21.6286 1507.37 -21.5107 1506.55 -21.2696C1495.5 -14.8996 1484.36 -8.60964 1473.45 -1.92964Z" fill="#7F5823"/>
</g>
<defs>
<clipPath id="clip0_2064_13035">
<rect width="1513.61" height="459.97" fill="white"/>
</clipPath>
</defs>
</svg>
