<svg width="1280" height="372" viewBox="0 0 1280 372" fill="none" xmlns="http://www.w3.org/2000/svg">
<path d="M1275.96 154.912H1245.37C1247.53 138.105 1249.73 121.012 1252.01 103.351L1185.73 107.271C1189.73 76.0471 1193.73 45.0975 1197.73 13.6947C1178.95 11.84 1160.44 9.75353 1141.95 8.4363C1135.95 8.02532 1129.95 9.73246 1123.72 10.5439C1119.95 0.659366 1115.54 -1.6695 1104.95 1.0598C1088.82 5.27494 1072.61 9.15287 1056.57 13.7052C1032.31 20.6075 1007.15 24.1061 983.875 34.7809C983.495 34.9495 982.935 34.6966 982.315 34.6334C982.128 33.3861 982.078 32.1203 982.165 30.8608C983.065 25.8975 981.005 23.7267 976.485 22.4306C967.204 19.7961 957.984 16.835 948.934 13.4418C942.333 10.9759 936.153 9.33202 930.163 14.6431C929.963 14.8117 929.503 14.6431 928.853 14.6431C925.232 8.18339 919.422 7.10853 912.772 8.32038C889.831 12.4442 866.89 16.5469 843.948 20.6286C834.888 22.2409 825.817 23.7899 816.187 25.4549C816.477 21.2398 816.707 17.7307 816.987 13.6104C815.137 13.6104 813.317 13.6104 811.507 13.6104C777.138 14.7695 742.763 15.9428 708.382 17.13C698.221 17.4778 688.061 17.8571 677.9 18.1838C675.14 18.2681 673.35 18.7423 672.9 22.4833C672.08 28.9113 670.39 35.2235 669.05 41.5778C667.26 50.0713 665.439 58.5648 663.619 67.1427C653.619 65.3301 644.368 63.2858 635.008 62.0634C627.278 61.0623 619.587 57.3319 611.117 61.2415C608.677 51.3289 606.28 41.5638 603.926 31.9462C603.365 31.8706 602.797 31.8706 602.236 31.9462C584.355 39.8707 566.455 47.753 548.664 55.9093C547.304 56.531 546.044 58.9337 545.904 60.6092C545.523 65.2142 545.773 69.8825 545.773 74.5297C536.193 65.0456 527.773 55.393 519.472 45.5295C517.472 43.1058 515.912 42.052 512.672 43.4957C498.831 49.6393 484.85 55.4246 470.94 61.4101C469.57 62.0002 467.8 63.8127 467.05 63.3912C461.449 60.2298 456.129 63.3912 450.819 64.0235C439.918 65.3407 429.138 67.3745 418.367 69.1132L417.367 74.477C405.847 72.9174 394.646 71.4316 383.445 69.8825C366.575 67.5431 349.714 65.0351 332.813 62.8432C321.032 61.3047 309.192 60.1982 297.391 58.8704C286.991 57.7007 276.58 56.647 266.2 55.256C257.879 54.139 249.369 53.454 241.358 51.0408C223.487 45.6981 205.837 39.5546 188.196 33.4005C183.578 31.6297 178.484 31.857 174.025 34.0327C166.465 37.5629 158.854 41.0404 151.104 44.0648C144.253 46.7203 139.613 50.7985 140.023 59.313C126.523 56.5837 113.682 54.2127 100.931 51.357C87.1606 48.2588 73.51 44.539 59.7293 41.4935C56.2791 40.7243 52.1689 40.4397 48.9487 41.7043C37.0481 46.2356 25.3676 51.3991 13.667 56.4573C11.4147 57.3199 9.47259 58.8988 8.10918 60.9755C6.74577 63.0521 6.0285 65.5239 6.05659 68.0489C5.70657 81.5795 5.32656 95.1101 5.05654 108.641C4.1765 151.186 3.30979 193.734 2.45641 236.286C1.66637 273.484 0.726327 310.683 0.00629068 347.892C-0.233721 360.179 6.40661 365.206 17.8072 362.013C33.0979 357.713 48.4087 353.509 63.9395 349.199C64.9395 356.754 69.0697 360.295 75.4701 362.118C84.5805 364.732 93.571 367.83 102.531 370.991C106.696 372.437 111.207 372.326 115.302 370.675C157.797 355.641 200.336 340.754 242.918 326.015L247.419 325.014L252.419 326.247C259.499 328.555 266.42 331.421 273.28 334.446C275.424 335.463 277.751 335.983 280.103 335.971C282.455 335.958 284.776 335.413 286.911 334.372C295.371 330.557 303.911 326.848 312.602 323.676C315.676 322.602 318.981 322.495 322.112 323.37C335.413 327.375 348.744 331.39 361.704 336.437C369.705 339.599 376.235 338.714 383.265 333.856C390.296 328.998 398.126 325.194 405.837 320.799V344.815L470.3 339.03V369.779C486.411 366.375 501.301 362.571 516.502 360.232L533.923 356.512C533.923 356.512 539.203 347.534 541.753 343.308C543.953 352.012 546.133 360.632 548.354 369.379C562.274 363.794 575.545 358.093 589.096 353.203C593.866 351.096 602.006 347.534 602.006 347.534C602.006 347.534 602.656 341.706 602.856 338.44C602.856 338.208 603.216 338.008 602.926 338.324C606.397 340.168 609.487 342.676 612.927 343.445C619.017 344.804 625.327 345.1 631.538 345.858C650.329 348.177 669.15 350.316 687.921 352.898C698.001 354.289 705.491 347.903 705.531 337.091C705.531 332.264 705.531 327.438 705.531 323.233C708.212 324.519 710.362 326.047 712.722 326.606C722.092 328.829 731.523 330.821 740.953 332.749C750.384 334.678 759.664 336.543 769.725 338.566V319.303C779.425 329.272 788.146 338.176 796.806 347.154C800.306 350.79 804.256 353.266 809.337 352.94C813.387 352.676 817.427 352.276 821.467 351.886C840.802 349.905 860.156 347.91 879.53 345.9C891.981 344.594 904.451 343.424 916.852 341.685C923.172 340.821 926.852 335.879 927.412 329.251C927.652 326.3 927.893 323.349 928.153 320.019C929.993 320.768 931.243 321.231 932.463 321.79C953.944 331.716 975.375 341.812 996.946 351.475C999.805 352.686 1002.95 352.925 1005.95 352.16C1033.16 344.436 1060.52 337.143 1087.36 328.155C1102.64 323.044 1116.88 321.895 1131.99 327.976C1140.41 331.369 1149.45 334.298 1158.35 334.794C1176.94 335.847 1195.63 334.973 1214.27 335.215C1218.27 335.268 1219.61 333.655 1219.98 329.862C1222.37 305.456 1224.81 281.054 1227.3 256.655C1228.43 245.548 1229.66 234.463 1230.86 223.219L1280 218.751C1278.64 196.8 1277.29 175.725 1275.96 154.912ZM45.0885 329.082C45.0832 329.348 45.0145 329.608 44.8887 329.838C44.7628 330.068 44.5839 330.261 44.3685 330.399L9.26675 353.024C9.0357 353.171 8.77151 353.25 8.50165 353.253C8.2318 353.256 7.96615 353.182 7.73234 353.04C7.49854 352.898 7.30512 352.693 7.17222 352.445C7.03931 352.198 6.97178 351.917 6.97664 351.633L13.0469 66.4472C13.0531 66.1375 13.1456 65.8366 13.3127 65.5818C13.4798 65.327 13.7143 65.1296 13.987 65.014L50.3188 49.4601C50.55 49.3599 50.8013 49.3222 51.0499 49.3504C51.2984 49.3785 51.5364 49.4717 51.7421 49.6215C51.9477 49.7712 52.1147 49.9727 52.2276 50.2077C52.3406 50.4427 52.396 50.7037 52.3889 50.9671L45.0885 329.082ZM180.095 311.536L146.844 324.825C146.652 324.906 146.446 324.945 146.239 324.94C146.033 324.934 145.829 324.884 145.642 324.792C145.454 324.7 145.287 324.569 145.149 324.406C145.012 324.243 144.908 324.052 144.844 323.845L100.181 183.691L107.102 360.801C107.116 361.061 107.069 361.321 106.965 361.558C106.86 361.795 106.702 362 106.504 362.157C106.306 362.313 106.074 362.416 105.83 362.455C105.585 362.494 105.335 362.469 105.102 362.382L72.5899 351.686C72.2829 351.588 72.0138 351.389 71.8229 351.117C71.6319 350.846 71.5291 350.517 71.5299 350.179V77.4698C71.5292 77.1586 71.6163 76.8542 71.7801 76.5953C71.9439 76.3364 72.1771 76.1346 72.4499 76.0155L104.382 61.5892C104.578 61.509 104.788 61.4729 104.998 61.4832C105.209 61.4936 105.415 61.5503 105.603 61.6495C105.791 61.7487 105.958 61.8884 106.092 62.0595C106.226 62.2306 106.325 62.4293 106.382 62.643L147.784 232.745V55.4351C147.784 55.1216 147.873 54.8153 148.039 54.5547C148.204 54.2941 148.439 54.0908 148.714 53.9703L178.405 41.0193C178.634 40.9211 178.882 40.8835 179.128 40.9097C179.373 40.9359 179.609 41.0253 179.814 41.1698C180.02 41.3144 180.188 41.5098 180.305 41.7389C180.422 41.968 180.484 42.2239 180.485 42.4841L181.055 310.04C181.059 310.364 180.968 310.682 180.794 310.949C180.62 311.217 180.373 311.422 180.085 311.536H180.095ZM287.101 162.078C287.09 162.317 287.028 162.551 286.919 162.761C286.811 162.971 286.658 163.153 286.473 163.292C286.289 163.431 286.076 163.524 285.852 163.563C285.628 163.603 285.398 163.589 285.181 163.522L260.169 155.966C258.509 155.439 258.599 155.334 258.589 154.312L258.779 98.7246L228.178 98.9353L224.907 165.218L283.91 196.01L279.38 324.424C279.37 324.671 279.305 324.913 279.191 325.128C279.076 325.344 278.915 325.529 278.721 325.667C278.526 325.806 278.304 325.894 278.071 325.925C277.838 325.956 277.601 325.93 277.38 325.847L197.286 293.812C196.995 293.702 196.743 293.5 196.564 293.235C196.386 292.969 196.288 292.652 196.286 292.326V230.996C196.284 230.741 196.34 230.49 196.449 230.263C196.559 230.037 196.718 229.841 196.914 229.692C197.11 229.543 197.337 229.446 197.575 229.409C197.814 229.372 198.058 229.396 198.286 229.478L218.287 236.338C218.59 236.452 218.85 236.665 219.029 236.946C219.209 237.226 219.3 237.56 219.287 237.898L218.287 268.352L253.379 278.016L254.529 222.734L201.796 197.633C201.531 197.509 201.306 197.306 201.148 197.05C200.99 196.794 200.906 196.495 200.906 196.189V59.8294C200.907 59.6083 200.951 59.3897 201.036 59.1877C201.121 58.9856 201.245 58.8044 201.401 58.6557C201.556 58.5069 201.739 58.3939 201.938 58.3239C202.137 58.2538 202.347 58.2282 202.556 58.2487L290.001 66.9319C290.387 66.972 290.744 67.1674 290.997 67.4774C291.25 67.7874 291.381 68.1883 291.361 68.5969L287.101 162.078ZM408.907 137.599L365.525 121.792L362.004 325.942L325.253 313.792L333.913 118.768L307.912 111.475V68.8709L408.847 82.9178L408.907 137.599ZM415.077 333.677L427.048 76.9323L453.809 72.7172L458.479 329.841L415.077 333.677ZM589.926 341.78L555.174 355.827L518.512 205.715L521.922 348.64L479.92 357.429L477.44 68.3018L509.442 54.6658L555.924 222.355L555.774 62.5798L593.516 45.7192L589.926 341.78ZM698.071 217.433L668.17 203.797L672.41 133.658L643.578 128.779L643.838 291.557L667.09 296.046L668.83 245.538L697.051 262.398L695.931 339.146C695.922 339.7 695.803 340.246 695.582 340.748C695.36 341.251 695.042 341.7 694.646 342.065C694.25 342.43 693.787 342.704 693.285 342.869C692.783 343.034 692.253 343.087 691.731 343.024L614.937 333.539C614.012 333.425 613.159 332.954 612.544 332.216C611.93 331.479 611.595 330.527 611.607 329.546L614.927 72.517C614.934 71.9454 615.058 71.3821 615.291 70.8657C615.524 70.3493 615.86 69.892 616.275 69.5248C616.691 69.1577 617.177 68.8894 617.701 68.7384C618.224 68.5873 618.772 68.557 619.307 68.6496L701.931 83.1707C702.846 83.3348 703.671 83.8475 704.25 84.6111C704.829 85.3747 705.121 86.3361 705.071 87.3121L698.071 217.433ZM759.074 72.6329L760.074 325.931L719.422 317.427L723.072 68.502L686.07 64.9402L684.93 26.9408L807.096 22.6413L801.496 77.807L759.074 72.6329ZM919.322 328.934C919.301 329.706 919.013 330.443 918.511 331.005C918.01 331.568 917.331 331.919 916.602 331.99L810.517 342.897C810.003 342.951 809.485 342.893 808.994 342.726C808.503 342.56 808.05 342.289 807.663 341.93C807.275 341.572 806.962 341.133 806.743 340.641C806.523 340.149 806.402 339.615 806.386 339.072L803.666 242.766L837.318 236.444L833.938 290.714L883.6 290.25L883.37 189.814L808.567 205.494L817.057 36.5829C817.083 36.0429 817.283 35.5286 817.625 35.1258C817.968 34.723 818.431 34.4562 818.937 34.3699L919.792 16.4556C920.006 16.4176 920.224 16.4287 920.434 16.4882C920.643 16.5477 920.837 16.6542 921.003 16.8004C921.169 16.9466 921.304 17.129 921.397 17.335C921.49 17.5411 921.539 17.766 921.542 17.9941L922.642 96.3536L882.02 104.784L885.23 73.7183L851.309 70.8098L844.828 147.736L925.232 138.821L919.322 328.934ZM974.055 66.0573L950.054 94.109V22.4516L974.055 30.3866V66.0573ZM1013 340.442L1009.1 202.08C1009.08 201.536 1009.2 200.997 1009.44 200.515C1009.68 200.033 1010.03 199.625 1010.47 199.329L1080.54 151.108C1080.97 150.815 1081.31 150.413 1081.55 149.939C1081.79 149.466 1081.91 148.936 1081.9 148.4L1080.54 59.0917L1033.27 72.3378L1036.73 128.431L1003.29 124.795V38.5429C1003.29 38.1895 1003.4 37.8464 1003.61 37.5678C1003.81 37.2892 1004.1 37.091 1004.43 37.0044L1114.43 8.62598C1114.65 8.56833 1114.88 8.56458 1115.11 8.61502C1115.33 8.66546 1115.54 8.76876 1115.72 8.91708C1115.9 9.06539 1116.04 9.25482 1116.14 9.47097C1116.24 9.68712 1116.29 9.9243 1116.29 10.1645V173.101C1116.29 173.573 1116.19 174.04 1116 174.466C1115.81 174.893 1115.53 175.269 1115.18 175.567L1047.66 233.314C1047.32 233.599 1047.05 233.956 1046.86 234.362C1046.67 234.767 1046.56 235.211 1046.55 235.664L1044.9 281.609L1128.95 253.589L1132.56 305.224L1013 340.442ZM1225.22 212.607L1213.71 324.656H1169.95L1186.02 214.198L1124.62 219.836L1146.95 17.2249L1189.62 21.2714L1169.61 177L1194.99 173.311L1201.06 116.239L1243.93 113.688L1236.34 171.33L1270.34 165.661L1273.03 208.455L1225.22 212.607Z" fill="#FFFCEA"/>
</svg>
