<svg width="504" height="200" viewBox="0 0 504 200" fill="none" xmlns="http://www.w3.org/2000/svg">
<g filter="url(#filter0_d_454_7306)">
<g clip-path="url(#clip0_454_7306)">
<path d="M223.71 154.149C222.994 154.191 222.439 154.237 221.884 154.253C219.245 154.314 217.303 152.349 217.646 149.934C217.729 149.305 217.959 148.704 218.318 148.181C218.677 147.657 219.154 147.226 219.711 146.921C220.814 146.295 222.038 145.913 223.302 145.8C225.375 145.55 227.447 145.303 229.52 145.03C230.037 144.938 230.569 144.977 231.067 145.145C231.564 145.313 232.012 145.603 232.368 145.989C233.323 146.998 233.423 148.354 232.368 149.233C230.491 150.774 229.817 152.889 229.181 155.081C227.852 159.665 227.305 164.377 226.831 169.1C226.673 170.703 226.507 172.306 226.392 173.912C226.334 174.717 226.392 175.526 226.392 176.335L226.681 176.439C226.895 176.22 227.088 175.981 227.259 175.727C229.721 171.319 232.079 166.847 234.652 162.509C236.016 160.197 237.48 157.978 238.956 155.751C240.278 153.748 242.081 151.656 242.154 149.136C242.158 148.92 242.15 148.704 242.131 148.489C242.061 147.85 241.865 147.229 241.857 146.59C241.836 146.132 241.941 145.678 242.161 145.276C242.38 144.873 242.705 144.539 243.102 144.309C243.502 144.134 243.929 144.028 244.365 143.997C245.365 143.866 246.365 143.745 247.367 143.635C248.909 143.43 250.466 143.347 252.021 143.388C253.501 143.462 255.015 143.774 256.259 144.579C257.504 145.384 258.405 146.817 258.317 148.297C258.189 149.456 257.623 150.523 256.733 151.278C255.849 152.023 254.866 152.641 253.813 153.116C252.796 153.625 251.628 154.102 250.842 154.942C250.056 155.782 249.031 156.318 248.172 156.988C246.395 158.38 244.696 159.87 243.082 161.449C239.872 164.597 237.029 168.098 234.606 171.886C233.797 173.154 233.034 174.45 232.318 175.773C230.622 178.913 229.158 182.176 227.575 185.373C227.296 186.011 226.945 186.613 226.527 187.169C225.371 188.529 223.649 188.259 222.982 186.61C222.725 185.963 222.594 185.272 222.597 184.576C222.635 177.133 222.312 169.682 223.021 162.254C223.229 160.089 223.483 157.924 223.695 155.759C223.753 155.254 223.71 154.75 223.71 154.149Z" fill="white"/>
<path d="M248.546 171.211C248.407 171.335 248.141 171.643 247.867 171.959C245.633 174.814 244.858 178.366 244.935 181.925C244.935 182.222 244.935 182.519 244.974 182.815C244.889 184.684 245.664 188.174 243.047 189.014C242.884 189.099 242.716 189.172 242.543 189.234C242.348 189.292 242.15 189.338 241.949 189.372C241.542 189.439 241.127 189.448 240.716 189.399C238.933 189.187 237.653 188.062 237.322 186.41C237.296 186.276 237.276 186.141 237.264 186.005C237.159 184.939 237.341 183.864 237.792 182.892C238.428 181.413 240.142 179.286 241.156 176.886C243.209 172.263 242.604 169.647 242.82 168.449C242.96 167.531 243.411 166.689 244.099 166.064C244.583 165.607 245.179 165.285 245.827 165.132C246.475 164.978 247.153 164.998 247.79 165.19C250.946 166.153 251.659 168.472 248.546 171.211Z" fill="white"/>
<path d="M284.466 155.878C284.012 157.077 283.217 158.117 282.178 158.868C281.587 159.344 280.957 159.768 280.293 160.135C278.438 161.162 276.807 162.549 275.497 164.215C273.378 166.912 271.258 169.586 269.294 172.352C266.15 176.748 263.129 181.213 260.663 185.982C260.429 186.46 260.126 186.901 259.765 187.292C259.522 187.565 259.217 187.778 258.877 187.912C258.536 188.046 258.169 188.098 257.804 188.064C257.44 188.03 257.088 187.91 256.778 187.715C256.469 187.52 256.209 187.255 256.02 186.941C255.71 186.439 255.491 185.886 255.373 185.308C254.961 183.335 254.602 181.351 254.244 179.367C253.886 177.383 253.585 175.395 253.277 173.404C253.127 172.444 252.969 171.477 252.892 170.51C252.822 169.462 253.038 168.414 253.516 167.478C253.898 166.679 254.506 166.009 255.265 165.552C257.577 164.2 260.359 165.267 260.798 167.744C260.908 168.578 260.856 169.426 260.644 170.241C260.387 171.187 260.075 172.117 259.708 173.026C259.169 174.497 258.882 176.048 258.86 177.614C258.86 178 258.837 178.385 259.395 178.689C259.599 178.571 259.785 178.425 259.946 178.254C260.248 177.817 260.525 177.363 260.775 176.894C263.809 171.436 267.161 166.162 270.815 161.099C272.181 159.219 273.42 157.25 274.522 155.204C275.077 154.215 275.752 153.299 276.533 152.477C277.404 151.556 278.584 150.988 279.847 150.882C282.952 150.523 285.368 153.147 284.466 155.878Z" fill="white"/>
<path d="M290.249 181.251C289.266 181.775 288.708 182.049 288.172 182.368C286.723 183.235 285.306 184.156 283.841 184.992C282.168 185.964 280.324 186.608 278.409 186.887C276.411 187.22 274.359 186.887 272.568 185.94C269.559 184.318 268.549 180.573 270.102 177.526C270.673 176.401 271.414 175.37 272.298 174.471C272.472 174.293 272.657 174.116 272.841 173.947C273.035 173.706 273.242 173.475 273.462 173.257C273.675 173.048 273.9 172.851 274.136 172.668C275.49 171.421 277 170.356 278.628 169.497C278.906 169.354 279.191 169.223 279.48 169.112C282.138 168.029 284.466 166.48 287.752 166.843C288.072 166.82 288.388 166.793 288.7 166.777C290.294 166.637 291.895 166.945 293.323 167.667C293.6 167.849 293.858 168.056 294.094 168.287C294.499 168.687 294.843 169.144 295.115 169.643C295.404 170.165 295.63 170.718 295.789 171.292C295.959 171.889 296.074 172.501 296.132 173.118C296.193 173.745 296.202 174.375 296.159 175.002C296.091 176.197 295.815 177.37 295.342 178.47C295.231 178.697 295.13 178.928 295.038 179.159C293.015 184.248 296.363 188.594 293.786 190.775C292.341 192.007 290.095 190.99 289.64 189.334C289.104 187.369 290.264 185.481 290.291 183.555C290.283 182.939 290.268 182.318 290.249 181.251ZM290.827 171.288C289.924 171.099 288.994 171.089 288.087 171.258C287.791 171.304 287.494 171.365 287.205 171.435C285.61 171.5 284.446 172.279 283.094 172.675L282.235 173.026C280.224 173.827 278.216 174.648 276.687 176.254C276.502 176.382 276.301 176.516 276.136 176.64C275.591 177.046 275.086 177.504 274.629 178.007C272.383 180.515 276.617 180.681 279.7 180.242C280.368 180.153 281.031 180.025 281.684 179.857C283.344 179.163 285.363 178.577 287.101 177.676C287.348 177.545 287.59 177.41 287.825 177.268C289.486 176.154 291.039 174.605 291.293 172.19C291.192 171.864 291.034 171.559 290.827 171.288Z" fill="white"/>
<path d="M313.563 186.891L313.209 186.914C312.03 186.988 311.17 186.356 311.217 185.108C311.261 184.184 311.452 183.274 311.783 182.411C311.914 182.053 312.076 181.64 312.265 181.193C312.453 180.747 312.65 180.246 312.896 179.706C315.47 173.812 318.186 168.384 320.922 162.432C321.165 161.915 321.392 161.395 321.616 160.871C321.839 160.347 322.059 159.816 322.282 159.28L322.471 158.826C325.168 154.426 324.397 146.282 331.629 147.53C331.823 147.584 332.012 147.654 332.196 147.738C332.718 147.948 333.179 148.286 333.536 148.721C333.894 149.156 334.136 149.674 334.241 150.227C334.866 153.474 330.427 155.871 329.102 158.121L328.605 158.679C327.954 159.427 327.329 160.174 326.705 160.902C326.578 161.06 326.455 161.214 326.32 161.372C325.423 162.5 324.636 163.712 323.97 164.99C321.754 169.278 319.843 173.746 318.938 175.519C318.553 176.251 316.056 180.388 317.959 180.25L318.344 180.223C322.455 180.404 325.557 177.691 329.036 176.05C329.221 176.012 329.41 175.992 329.599 175.993C329.892 175.988 330.184 176.028 330.466 176.112C330.898 176.245 331.292 176.479 331.615 176.797C331.938 177.114 332.179 177.504 332.319 177.934C332.388 178.138 332.439 178.346 332.473 178.558C332.666 179.257 332.708 179.988 332.596 180.704C332.562 180.901 332.511 181.094 332.442 181.282C329.048 187.384 319.728 183.894 314.126 186.826C313.929 186.864 313.74 186.88 313.563 186.891Z" fill="white"/>
<path d="M351.761 154.653C351.976 154.815 352.196 154.988 352.412 155.162C353.93 156.387 355.405 157.805 355.359 159.654C355.359 159.931 355.359 160.205 355.359 160.474C355.359 160.744 355.29 161.018 355.236 161.287C355.182 161.557 355.12 161.819 355.043 162.081C354.966 162.343 354.801 162.655 354.658 162.936C354.515 163.217 354.365 163.491 354.207 163.764C354.049 164.038 353.907 164.242 353.76 164.473C353.614 164.704 353.475 164.924 353.348 165.14C353.192 165.403 353.051 165.674 352.924 165.953C352.795 166.24 352.687 166.536 352.601 166.839C352.52 167.047 352.446 167.259 352.381 167.467C350.84 172.502 353.999 177.445 351.086 178.97C345.307 180.743 347.176 175.068 347.534 171.184C347.565 170.861 347.584 170.549 347.592 170.252C347.628 170.043 347.648 169.832 347.65 169.62C347.351 169.98 346.974 170.267 346.548 170.46C345.13 171.177 343.851 172.144 342.448 172.868C340.977 173.621 339.426 174.206 337.825 174.613C336.82 174.891 335.785 175.046 334.742 175.076C333.071 175.037 331.449 174.5 330.084 173.535C329.485 173.118 328.951 172.614 328.501 172.04C327.591 170.862 327.091 169.418 327.079 167.929C327.079 167.726 327.087 167.522 327.102 167.316C327.522 162.143 332.281 159.226 336.418 157.076C337.24 156.639 338.084 156.244 338.946 155.894C340.361 155.355 341.83 154.968 343.327 154.738C343.589 154.699 343.847 154.661 344.097 154.63C346.498 154.037 348.825 153.648 351.279 154.518C351.442 154.555 351.602 154.6 351.761 154.653ZM350.077 159.985C348.821 159.091 347.657 159.091 346.097 159.253L345.18 159.384C343.651 159.569 342.146 159.918 340.691 160.424C338.803 161.137 337.12 162.293 335.467 163.456C334.417 164.168 333.408 164.94 332.446 165.768C332.077 166.075 331.757 166.438 331.498 166.843C331.362 167.039 331.306 167.281 331.344 167.517C331.444 167.902 331.914 168.06 332.311 168.133C334.805 168.597 337.367 168.544 339.84 167.979C342.279 167.424 344.463 166.099 346.536 164.762C348.077 163.772 349.699 162.655 350.416 160.96C350.468 160.859 350.493 160.746 350.489 160.632C350.475 160.542 350.441 160.457 350.389 160.382C350.299 160.239 350.194 160.106 350.077 159.985Z" fill="white"/>
<path d="M398.919 151.56C398.482 152.204 397.887 152.726 397.189 153.074C396.908 153.278 396.134 153.278 395.76 153.497C395.504 153.529 395.247 153.543 394.989 153.54C394.102 153.491 393.217 153.387 392.343 153.228C390.389 152.962 388.44 152.654 386.478 152.434C384.826 152.249 384.552 152.469 383.997 154.133C383.733 154.942 383.51 155.763 383.331 156.595C383.29 156.72 383.281 156.853 383.307 156.982C383.332 157.112 383.39 157.232 383.475 157.332C383.56 157.433 383.669 157.51 383.792 157.556C383.915 157.602 384.048 157.616 384.178 157.597C385.18 157.453 386.174 157.258 387.157 157.015C387.958 156.83 388.74 156.533 389.545 156.383C390.049 156.284 390.567 156.289 391.069 156.398C391.57 156.507 392.044 156.717 392.462 157.015C392.73 157.199 392.968 157.424 393.167 157.681C393.822 158.706 394.211 160.255 393.144 161.28C392.983 161.433 392.802 161.562 392.605 161.665C392.397 161.825 392.175 161.966 391.942 162.085C391.26 162.432 390.489 162.566 389.73 162.47C388.909 162.364 388.099 162.19 387.307 161.95C385.958 161.569 384.558 161.399 383.157 161.445C382.736 161.412 382.317 161.534 381.979 161.789C381.642 162.044 381.41 162.414 381.327 162.828C381.123 163.599 380.88 164.339 380.73 165.109C379.809 169.871 379.724 170.056 378.896 174.837C378.472 177.287 378.283 179.78 377.987 182.257C377.863 183.297 377.767 184.345 377.601 185.381C377.434 186.483 376.969 187.518 376.257 188.375C374.253 190.786 370.716 190.447 369.16 187.689C368.579 186.721 368.325 185.592 368.435 184.468C368.532 183.426 368.723 182.394 369.006 181.386C370.547 176.378 374.465 166.303 375.29 163.961C375.502 163.36 375.879 162.805 375.675 161.981C374.831 161.538 374.061 161.773 373.313 161.715C372.808 161.709 372.306 161.647 371.814 161.53C371.644 161.473 371.491 161.372 371.372 161.237C371.253 161.102 371.171 160.939 371.135 160.762C371.098 160.586 371.109 160.403 371.165 160.233C371.222 160.062 371.322 159.909 371.456 159.789C371.842 159.458 372.294 159.214 372.781 159.072C373.696 158.808 374.63 158.617 375.575 158.502C376.154 158.47 376.711 158.266 377.175 157.917C377.638 157.568 377.988 157.089 378.179 156.541C378.653 155.385 379.289 154.333 379.813 153.212C380.198 152.4 379.979 151.972 379.131 151.791C378.572 151.668 378.002 151.617 377.436 151.525C377.119 151.488 376.805 151.431 376.496 151.352C376.209 151.293 375.948 151.146 375.748 150.932C375.549 150.718 375.421 150.447 375.382 150.157C375.379 149.862 375.473 149.574 375.65 149.338C375.827 149.102 376.077 148.931 376.361 148.851C377.087 148.621 377.832 148.454 378.588 148.354C381.231 148.004 383.889 147.746 386.529 147.357C388.536 147.064 390.52 146.613 392.524 146.262C393.453 146.069 394.398 145.957 395.348 145.927C396.061 145.932 396.761 146.116 397.385 146.461C398.009 146.806 398.537 147.302 398.919 147.904C399.316 148.431 399.531 149.072 399.531 149.732C399.531 150.391 399.316 151.033 398.919 151.56Z" fill="white"/>
<path d="M403.354 160.686C403.235 160.86 403.173 160.944 403.096 161.048C403.019 161.152 402.915 161.28 402.711 161.522C398.472 165.683 399.243 171.889 399.131 177.183C399.078 177.443 399.011 177.7 398.931 177.953C398.847 178.206 398.749 178.455 398.638 178.697C398.531 178.926 398.402 179.144 398.253 179.348C397.513 180.346 396.326 180.839 394.523 180.3C394.354 180.256 394.188 180.202 394.026 180.138C393.857 180.074 393.687 180 393.518 179.918C393.291 179.805 393.078 179.667 392.882 179.506C392.714 179.371 392.572 179.206 392.462 179.021C392.366 178.92 392.281 178.81 392.208 178.693C391.974 178.279 391.828 177.822 391.778 177.35C391.728 176.877 391.776 176.399 391.919 175.946C391.97 175.814 392.029 175.686 392.096 175.561C393.234 174.092 394.214 172.508 395.02 170.834C395.155 170.556 395.282 170.275 395.406 169.99C396.912 166.862 397.301 163.761 397.667 160.829C397.667 160.594 397.694 160.363 397.706 160.131C397.706 159.804 397.733 159.473 397.737 159.145C396.527 156.005 399.239 154.457 402.36 155.231C404.286 155.616 405.057 158.721 403.562 160.451L403.354 160.686Z" fill="white"/>
<path d="M421.979 159.276C422.196 160.085 422.192 160.938 421.966 161.744C421.74 162.551 421.302 163.282 420.696 163.861C419.355 165.159 417.572 165.949 415.88 166.673C415.46 166.854 415.029 167.016 414.613 167.205L414.455 167.278C411.993 168.395 409.704 169.27 408.228 169.805C408.223 170.937 408.416 172.061 408.799 173.126C408.898 173.454 409.042 173.766 409.226 174.055C409.495 174.507 409.929 174.839 410.436 174.979C410.516 175 410.597 175.016 410.679 175.026C412.389 175.245 414.146 174.105 415.171 172.849C415.768 172.128 416.273 171.25 417.098 170.776C417.733 170.413 418.444 170.204 419.174 170.164C419.595 170.136 420.016 170.22 420.394 170.408C420.772 170.596 421.093 170.881 421.325 171.233C421.557 171.585 421.692 171.993 421.715 172.414C421.739 172.835 421.651 173.255 421.459 173.631C420.585 175.335 419.238 176.75 417.579 177.707C415.927 178.652 414.154 179.37 412.309 179.841C411.6 180.085 410.849 180.188 410.101 180.142C409.311 180.022 408.576 179.667 407.989 179.125C407.07 178.294 406.32 177.293 405.782 176.177C405.156 174.858 404.728 173.453 404.514 172.009C404.464 171.697 404.418 171.377 404.383 171.057C403.936 167.236 404.972 163.389 407.277 160.309C407.392 160.139 407.508 159.97 407.627 159.804C407.747 159.638 407.87 159.473 408.013 159.311C410.27 156.414 413.896 154.203 417.706 155.146C419.421 155.57 421.074 156.707 421.717 158.398C421.825 158.684 421.913 158.978 421.979 159.276ZM417.259 158.957C417.014 158.93 416.766 158.93 416.52 158.957C412.363 159.284 409.769 162.786 408.544 166.469C408.591 166.326 409.638 166.126 409.804 166.084L411.18 165.699C412.134 165.437 413.073 165.123 413.992 164.758C414.871 164.418 415.699 163.959 416.454 163.395C417.265 162.804 417.925 162.031 418.381 161.137C418.519 160.848 418.568 160.524 418.523 160.207C418.478 159.889 418.34 159.592 418.126 159.353C417.886 159.134 417.583 158.996 417.259 158.957Z" fill="white"/>
<path d="M435.398 171.412C435.41 171.39 435.418 171.367 435.422 171.342C435.45 171.223 435.45 171.099 435.422 170.98C435.121 169.858 434.543 168.829 433.742 167.987C432.147 166.219 429.504 164.966 428.733 162.593C427.962 160.22 429.504 157.939 431.045 156.391C433.742 154.079 439.964 152.511 440.349 156.005C441.12 159.496 435.699 160.27 432.594 161.823C432.594 161.823 434.108 163.437 434.254 163.576C434.89 164.161 435.553 164.731 436.204 165.286C437.448 166.38 438.72 167.552 439.475 169.054C440.577 171.238 440.272 174.124 438.261 175.688C437.105 176.574 435.622 176.89 434.173 176.917C432.183 176.935 430.197 176.752 428.244 176.37C427.115 176.154 425.847 175.927 424.938 175.168C424.433 174.769 424.014 174.273 423.705 173.709C423.396 173.146 423.203 172.525 423.139 171.886C423.131 171.779 423.131 171.672 423.139 171.566C423.156 171.246 423.248 170.934 423.408 170.657C423.568 170.379 423.791 170.143 424.059 169.967C424.4 169.675 424.792 169.448 425.215 169.301C425.315 169.27 425.416 169.239 425.516 169.216C426.787 168.915 428.375 169.875 429.419 170.506C430.575 171.204 431.757 172.02 433.145 172.136C433.785 172.203 434.43 172.081 435.002 171.785C435.173 171.71 435.313 171.578 435.398 171.412Z" fill="white"/>
<path d="M481.109 145.434C480.239 146.701 478.912 147.582 477.407 147.892C476.9 148.018 476.385 148.108 475.865 148.162C472.737 148.162 469.616 147.965 466.353 147.734C465.69 147.734 465.008 147.734 464.315 147.78C460.177 148.015 455.723 149.206 453.222 152.954C452.274 154.38 451.461 156.876 450.776 159.835C450.691 160.22 450.606 160.582 450.525 160.964C449.755 164.793 449.616 168.696 448.868 172.521C448.456 174.656 448.221 176.759 448.017 178.932C447.909 180.057 447.886 181.243 447.697 182.338C447.57 183.108 446.834 187.419 442.122 187.03C441.199 186.992 440.306 186.691 439.548 186.163C439.168 185.867 438.865 185.484 438.664 185.046C438.463 184.608 438.37 184.129 438.392 183.647C438.365 182.596 438.354 181.494 438.835 180.565C439.133 180.069 439.47 179.597 439.845 179.155C440.172 178.703 440.476 178.234 440.754 177.749C442.465 174.906 444.222 172.009 445.073 168.777C446.372 163.934 449.824 150.365 440.889 151.995C437.768 151.895 437.298 147.9 443.128 147.757C446.04 147.303 446.029 146.497 446.487 144.201C446.684 143.196 447.42 138.503 449.847 138.353C455.707 137.821 446.803 147.545 458.424 144.937C459.525 144.825 468.264 141.855 471.466 139.871C472.838 139.043 474.395 138.57 475.997 138.496C477.439 138.344 478.886 138.74 480.05 139.605C480.927 140.27 481.52 141.241 481.71 142.325C481.81 142.848 481.81 143.385 481.71 143.908C481.593 144.446 481.39 144.961 481.109 145.434Z" fill="white"/>
<path d="M472.02 167.571C469.231 169.327 466.245 170.749 463.124 171.809C462.646 171.932 462.164 172.04 461.679 172.132C461.097 172.24 460.523 172.325 459.937 172.39C456.447 172.776 452.567 170.079 452.567 166.573C452.181 163.106 454.108 159.596 456.805 157.103C457.19 156.737 457.606 156.391 458.026 156.067C458.361 155.809 458.708 155.566 459.063 155.335C459.417 155.104 459.779 154.884 460.149 154.676C465.74 152.226 476.986 147.187 480.111 154.958C480.212 155.495 480.276 156.038 480.304 156.583C480.465 158.753 479.889 160.914 478.67 162.717C478.4 163.098 478.096 163.454 477.761 163.78C475.834 167.351 476.99 171.227 476.99 175.106C476.99 177.803 473.499 177.803 471.951 176.647C470.024 174.336 472.336 171.608 472.012 168.942C472.016 168.561 472.016 168.126 472.02 167.571ZM473.835 156.568C473.665 156.364 473.465 156.187 473.241 156.044C472.575 155.628 471.662 155.613 470.899 155.659C469.964 155.724 469.039 155.898 468.144 156.175C467.99 156.225 467.836 156.279 467.685 156.337C467.535 156.395 467.381 156.468 467.231 156.545C466.926 156.649 466.63 156.757 466.337 156.865C465.747 157.084 465.181 157.315 464.657 157.52C464.403 157.631 464.148 157.751 463.886 157.874C463.373 158.131 462.874 158.408 462.392 158.706C462.11 158.872 461.837 159.045 461.571 159.23C460.476 159.986 459.53 160.938 458.781 162.039C458.718 162.14 458.66 162.244 458.608 162.351C458.448 162.7 458.368 163.08 458.373 163.464C458.566 165.39 460.022 166.084 461.79 166.038C462.411 166.016 463.027 165.928 463.628 165.776C465.713 164.82 467.674 163.849 469.693 162.732L470.91 162.042C471.134 161.927 471.357 161.8 471.588 161.657C471.746 161.565 471.916 161.453 472.085 161.33C472.717 160.865 473.286 160.32 473.777 159.708C474.197 159.188 474.786 158.49 474.605 157.782C474.524 157.526 474.393 157.289 474.22 157.084C474.1 156.903 473.973 156.73 473.835 156.568Z" fill="white"/>
<path d="M98.9958 158.355L96.9268 162.062H105.819V158.355H98.9958Z" fill="white"/>
<path d="M4.0498 173.827L5.9223 151.124H11.7633L16.6641 162.412L21.5843 148.72H28.4848L29.2823 173.334L23.7534 173.639L23.6301 156.175L18.1398 169.871L14.3832 169.879L10.3454 158.822L9.8715 173.45L4.0498 173.827Z" fill="white"/>
<path d="M29.9678 173.35L35.5622 149.302L41.2105 148.647L48.1033 172.787L43.6879 172.752L41.6574 165.329L36.3751 165.402L34.6182 173.249L29.9678 173.35Z" fill="white"/>
<path d="M49.1979 173.076L48.6816 147.892C48.6816 147.892 61.7313 145.06 62.5019 152.249C63.2725 159.438 57.1387 160.209 57.1387 160.209L63.4844 172.078L58.5835 172.128L53.8907 162.952L54.0988 173.076H49.1979Z" fill="white"/>
<path d="M72.8584 152.303V146.655L89.6377 145.08L87.5841 156.503H93.8258L92.5505 161.075H86.7018L85.5151 171.766H79.181L80.8531 161.075H75.2048L76.2875 156.402L81.4388 156.206L82.5099 151.54L72.8584 152.303Z" fill="white"/>
<path d="M120.542 144.197C110.058 142.052 108.571 157.096 115.236 159.084C121.902 161.072 123.489 157.889 123.489 157.889C123.489 157.889 123.786 159.742 121.69 163.718C118.711 169.374 112.462 163.452 112.462 163.452L110.358 167.521C110.358 167.521 118.835 174.001 124.183 168.318C129.53 162.636 131.029 146.343 120.542 144.197ZM118.114 155.223C115.633 154.923 115.101 153.887 115.383 151.548C115.664 149.21 116.411 147.63 118.893 147.927C121.374 148.223 121.713 150.057 121.432 152.4C121.15 154.742 120.595 155.52 118.114 155.223Z" fill="white"/>
<path d="M58.8031 23.6898C58.6451 20.577 60.4329 19.086 63.0721 18.1152C66.0581 17.0095 68.9901 15.7382 71.9029 14.4476C73.6207 13.6521 75.5835 13.569 77.3624 14.2164C84.1589 16.4663 90.9592 18.7123 97.8443 20.6656C100.927 21.5401 104.209 21.7905 107.415 22.2066C111.414 22.7151 115.425 23.1004 119.432 23.528C123.978 24.0134 128.54 24.4179 133.079 24.9804C139.59 25.7817 146.082 26.6987 152.586 27.5539C156.901 28.1202 161.216 28.6634 165.655 29.2336L166.04 27.2727C170.194 26.6293 174.347 25.8858 178.539 25.4003C180.585 25.1615 182.635 24.0327 184.792 25.1692C185.081 25.3233 185.763 24.6607 186.291 24.4449C191.65 22.2682 197.037 20.1532 202.369 17.8956C203.617 17.3678 204.207 17.753 204.989 18.6391C208.172 22.2451 211.431 25.7779 215.122 29.2413C215.122 27.5424 215.026 25.8357 215.172 24.1521C215.226 23.5396 215.712 22.6612 216.236 22.4339C223.09 19.4559 229.987 16.5703 236.875 13.6732C237.092 13.6456 237.31 13.6456 237.527 13.6732C238.436 17.1919 239.363 20.7696 240.308 24.4064C243.572 22.9771 246.535 24.3409 249.513 24.7069C253.119 25.1538 256.683 25.9012 260.536 26.5638C261.237 23.4278 261.938 20.3227 262.628 17.2175C263.144 14.906 263.784 12.5945 264.111 10.2367C264.296 8.86908 264.986 8.69571 266.038 8.66489C269.952 8.54161 273.867 8.40292 277.781 8.27964C291.02 7.84558 304.267 7.4218 317.524 7.0083C318.221 6.98518 318.923 7.0083 319.635 7.0083C319.527 8.51464 319.439 9.79754 319.327 11.3386C323.037 10.726 326.532 10.1635 330.023 9.57409C338.861 8.08187 347.7 6.58195 356.538 5.07432C359.1 4.63898 361.339 5.03194 362.734 7.38585C362.984 7.38585 363.161 7.43978 363.238 7.38585C365.55 5.45958 367.927 6.04516 370.47 6.94666C373.957 8.18718 377.509 9.25818 381.085 10.2329C382.826 10.7029 383.62 11.4965 383.273 13.3149C383.24 13.7753 383.259 14.2381 383.331 14.6941C383.57 14.7172 383.786 14.8097 383.932 14.7481C392.898 10.8416 402.592 9.56253 411.939 7.04297C418.103 5.37867 424.364 3.96094 430.579 2.41992C434.644 1.41826 436.358 2.26967 437.78 5.88721C440.165 5.60983 442.511 4.98571 444.804 5.1167C451.943 5.58286 459.059 6.34566 466.307 7.00445C464.766 18.5004 463.224 29.7999 461.683 41.215L487.22 39.7549C486.342 46.2118 485.494 52.4683 484.662 58.6054H496.448C496.96 66.2335 497.48 73.9385 498.02 81.9557L479.087 83.5892C478.624 87.6998 478.15 91.7527 477.715 95.8133C476.76 104.731 475.819 113.652 474.895 122.577C474.752 123.964 474.24 124.553 472.695 124.534C465.513 124.445 458.316 124.757 451.153 124.38C447.724 124.199 444.241 123.128 440.997 121.887C435.175 119.664 429.689 120.084 423.802 121.953C413.461 125.239 402.919 127.905 392.435 130.729C391.282 131.009 390.069 130.921 388.968 130.478C380.657 126.926 372.4 123.255 364.124 119.626C363.654 119.422 363.173 119.241 362.464 118.979C362.364 120.196 362.271 121.29 362.179 122.353C361.975 124.777 360.545 126.591 358.11 126.899C353.333 127.524 348.528 127.951 343.731 128.44C336.282 129.185 328.826 129.915 321.361 130.629C319.82 130.779 318.248 130.925 316.688 131.014C314.731 131.133 313.22 130.243 311.856 128.899C308.524 125.617 305.164 122.35 301.427 118.717V125.763C297.551 125.023 293.94 124.349 290.342 123.636C286.743 122.924 283.075 122.203 279.465 121.39C278.556 121.186 277.728 120.62 276.695 120.158C276.695 121.699 276.695 123.459 276.695 125.224C276.695 129.184 273.794 131.519 269.91 131.002C262.678 130.059 255.427 129.276 248.188 128.429C245.795 128.152 243.364 128.044 241.017 127.547C239.696 127.265 238.505 126.349 237.164 125.674C237.276 125.559 237.141 125.632 237.137 125.717C237.06 126.911 236.81 129.041 236.81 129.041C236.81 129.041 233.674 130.34 231.836 131.114C226.615 132.902 221.502 134.986 216.139 137.028C215.284 133.83 214.444 130.679 213.596 127.497C213.423 127.612 213.635 127.4 213.596 127.497C212.614 129.038 210.58 132.324 210.58 132.324L203.864 133.684C198.027 134.539 192.271 135.93 186.064 137.174V125.944L161.247 128.059V119.279C158.277 120.886 155.279 122.265 152.551 124.052C149.824 125.84 147.338 126.144 144.245 124.996C139.236 123.151 134.115 121.683 128.991 120.219C127.785 119.899 126.511 119.938 125.327 120.331C121.975 121.487 118.688 122.847 115.429 124.241C114.607 124.628 113.711 124.832 112.803 124.842C111.895 124.851 110.996 124.665 110.166 124.295C107.53 123.189 104.857 122.142 102.129 121.298L100.202 120.847L98.4685 121.213C82.0604 126.589 65.6715 132.031 49.3019 137.54C47.724 138.144 45.9863 138.185 44.3818 137.656C40.9142 136.5 37.4466 135.367 33.9559 134.412C31.4631 133.757 29.8641 132.451 29.4789 129.689C23.4953 131.264 17.5966 132.802 11.7055 134.373C7.31325 135.529 4.77035 133.703 4.84741 129.211C5.12481 115.608 5.48698 102.008 5.79136 88.4087C6.13812 72.8521 6.47204 57.2968 6.79311 41.7428C6.90099 36.7962 7.0474 31.8495 7.1784 26.9028C7.16757 25.9797 7.44392 25.076 7.9692 24.3168C8.49447 23.5576 9.24272 22.9804 10.1104 22.665C14.6183 20.7966 19.1185 18.9088 23.7034 17.2715C24.944 16.8246 26.5276 16.9132 27.8568 17.1944C33.1661 18.3078 38.4252 19.6678 43.7307 20.8004C48.6546 21.8252 53.6017 22.692 58.8031 23.6898Z" fill="white"/>
<path d="M9.88655 26.2904L7.54785 130.567C7.54873 130.67 7.57675 130.77 7.62907 130.859C7.68139 130.947 7.75615 131.02 7.84576 131.07C7.93536 131.12 8.03663 131.146 8.13927 131.144C8.2419 131.142 8.34227 131.113 8.43016 131.06L21.9538 122.774C22.0368 122.723 22.1057 122.652 22.1542 122.568C22.2026 122.484 22.2291 122.389 22.2312 122.292L25.0438 20.6156C25.0465 20.5193 25.0252 20.4239 24.9816 20.338C24.9381 20.2521 24.8738 20.1784 24.7946 20.1237C24.7153 20.0689 24.6236 20.0349 24.5279 20.0246C24.4321 20.0143 24.3353 20.028 24.2462 20.0647L10.2487 25.7665C10.1437 25.8087 10.0533 25.8809 9.98893 25.974C9.92454 26.0672 9.88894 26.1772 9.88655 26.2904Z" fill="#202020"/>
<path d="M32.418 130.02V30.32C32.4177 30.2063 32.4513 30.095 32.5144 30.0003C32.5775 29.9057 32.6673 29.8319 32.7724 29.7884L45.0708 24.5143C45.1478 24.4816 45.2308 24.4659 45.3143 24.468C45.3979 24.4701 45.48 24.4901 45.5552 24.5266C45.6304 24.5631 45.6969 24.6152 45.7502 24.6796C45.8036 24.7439 45.8426 24.8189 45.8645 24.8995L61.8154 87.0873V22.2644C61.8158 22.1497 61.8499 22.0378 61.9137 21.9425C61.9774 21.8472 62.0679 21.7729 62.1738 21.7289L73.5937 16.9941C73.6818 16.9582 73.7773 16.9444 73.872 16.954C73.9666 16.9636 74.0575 16.9963 74.1366 17.0491C74.2157 17.102 74.2806 17.1734 74.3257 17.2572C74.3707 17.3409 74.3946 17.4345 74.3951 17.5296L74.6147 115.346C74.6152 115.466 74.5783 115.583 74.5093 115.681C74.4403 115.779 74.3424 115.853 74.2294 115.893L61.4186 120.751C61.3447 120.781 61.2655 120.795 61.1858 120.793C61.1062 120.791 61.0278 120.772 60.9556 120.739C60.8833 120.705 60.8187 120.657 60.7658 120.598C60.7129 120.538 60.6728 120.468 60.648 120.393L43.4411 69.1537L46.1073 133.903C46.1128 133.999 46.0946 134.094 46.0545 134.18C46.0143 134.267 45.9533 134.342 45.877 134.399C45.8007 134.456 45.7115 134.494 45.6172 134.508C45.5229 134.522 45.4265 134.513 45.3367 134.481L32.8264 130.571C32.7081 130.535 32.6044 130.462 32.5309 130.363C32.4573 130.264 32.4177 130.144 32.418 130.02Z" fill="#202020"/>
<path d="M105.095 59.0178L114.708 61.7917C114.792 61.8163 114.88 61.8215 114.966 61.8069C115.053 61.7923 115.135 61.7583 115.206 61.7075C115.277 61.6567 115.336 61.5903 115.378 61.5135C115.42 61.4366 115.443 61.3513 115.447 61.2639L117.12 27.088C117.127 26.9386 117.077 26.792 116.979 26.6787C116.882 26.5653 116.744 26.4939 116.596 26.4792L82.906 23.3048C82.8255 23.2973 82.7444 23.3066 82.6677 23.3322C82.591 23.3579 82.5205 23.3992 82.4607 23.4535C82.4009 23.5079 82.3531 23.5741 82.3203 23.648C82.2875 23.7219 82.2705 23.8018 82.2703 23.8826V73.7346C82.2703 73.8463 82.3027 73.9556 82.3636 74.0492C82.4244 74.1429 82.5111 74.2169 82.6132 74.2624L102.929 83.4391L102.486 103.65L88.9666 100.117L89.3519 88.9829C89.3567 88.8593 89.3219 88.7373 89.2526 88.6348C89.1833 88.5322 89.0831 88.4544 88.9666 88.4127L81.2608 85.9047C81.1729 85.8746 81.0789 85.8659 80.9869 85.8795C80.8949 85.8931 80.8076 85.9286 80.7321 85.9829C80.6566 86.0372 80.5953 86.1089 80.5532 86.1918C80.5111 86.2747 80.4895 86.3665 80.4903 86.4595V108.877C80.4911 108.997 80.5286 109.112 80.5975 109.21C80.6664 109.307 80.7634 109.38 80.8755 109.421L111.733 121.132C111.818 121.163 111.91 121.172 111.999 121.161C112.089 121.15 112.175 121.117 112.25 121.067C112.325 121.016 112.387 120.949 112.431 120.87C112.475 120.791 112.5 120.703 112.504 120.612L114.241 73.6575L91.5095 62.4042L92.754 38.1602L104.544 38.0831L104.471 58.4053C104.49 58.7751 104.455 58.8136 105.095 59.0178Z" fill="#202020"/>
<path d="M123.504 27.1764V42.7522L133.498 45.4182L130.169 116.717L144.329 121.159L145.662 46.5277L162.379 52.3027V32.3118L123.504 27.1764Z" fill="#202020"/>
<path d="M169.388 30.1083L164.757 123.987L181.498 122.542L179.698 28.5596L169.388 30.1083Z" fill="#202020"/>
<path d="M188.803 26.9683L189.743 132.671L205.944 129.458L204.627 77.2055L218.763 132.085L232.151 126.95L233.515 18.7085L218.975 24.8803L219.032 83.2925L201.144 21.9832L188.803 26.9683Z" fill="#202020"/>
<path d="M241.773 28.5094L240.501 122.473C240.496 122.83 240.623 123.176 240.858 123.446C241.093 123.715 241.418 123.889 241.773 123.933L271.359 127.4C271.56 127.423 271.764 127.404 271.957 127.344C272.151 127.284 272.33 127.183 272.482 127.05C272.634 126.916 272.757 126.752 272.842 126.569C272.928 126.385 272.973 126.185 272.977 125.983L273.412 97.9284L262.54 91.7643L261.881 110.23L252.923 108.588L252.823 49.0781L263.93 50.8619L262.297 76.5044L273.817 81.4896L276.487 33.9184C276.507 33.5638 276.396 33.2142 276.176 32.9353C275.956 32.6565 275.642 32.4677 275.293 32.4043L243.468 27.0955C243.261 27.0604 243.049 27.0706 242.847 27.1252C242.644 27.1799 242.456 27.2778 242.295 27.4121C242.133 27.5465 242.003 27.7141 241.913 27.9036C241.823 28.093 241.775 28.2997 241.773 28.5094Z" fill="#202020"/>
<path d="M268.723 11.8511L269.166 25.7472L283.437 27.0494L282.054 118.05L297.716 121.159L297.334 28.5557L313.632 30.4435L315.789 10.2754L268.723 11.8511Z" fill="#202020"/>
<path d="M319.646 15.3607L316.375 77.1247L345.206 71.4036L345.295 108.122L326.162 108.292L327.452 88.4357L314.487 90.7473L315.535 125.956C315.541 126.154 315.588 126.349 315.672 126.529C315.757 126.709 315.878 126.87 316.027 127.001C316.176 127.132 316.351 127.231 316.54 127.292C316.729 127.353 316.929 127.374 317.127 127.354L357.998 123.355C358.279 123.329 358.54 123.201 358.734 122.995C358.927 122.789 359.038 122.52 359.046 122.238L361.323 52.7188L330.346 55.9781L332.842 27.8545L345.911 28.9178L344.675 40.2751L360.325 37.193L359.901 8.54554C359.9 8.46212 359.881 8.37992 359.845 8.30458C359.809 8.22925 359.758 8.16257 359.694 8.10912C359.629 8.05568 359.555 8.01674 359.474 7.99498C359.394 7.97322 359.309 7.96916 359.227 7.98307L320.371 14.5517C320.176 14.5832 319.997 14.6807 319.865 14.828C319.733 14.9752 319.656 15.1633 319.646 15.3607Z" fill="#202020"/>
<path d="M407.446 104.952L408.082 88.1546C408.087 87.9891 408.128 87.8268 408.202 87.6786C408.276 87.5303 408.381 87.3997 408.509 87.2955L434.524 66.1835C434.658 66.0748 434.766 65.9373 434.84 65.7813C434.914 65.6253 434.952 65.4547 434.952 65.282V5.71401C434.952 5.62619 434.932 5.53948 434.894 5.46045C434.855 5.38143 434.8 5.31218 434.73 5.25796C434.661 5.20373 434.581 5.16597 434.495 5.14753C434.409 5.12909 434.32 5.13046 434.235 5.15153L391.853 15.5264C391.728 15.5581 391.617 15.6306 391.537 15.7324C391.458 15.8343 391.414 15.9597 391.414 16.0889V47.622L404.298 48.9511L402.965 28.444L421.178 23.6014L421.702 56.2517C421.705 56.4476 421.659 56.6413 421.568 56.8144C421.476 56.9876 421.342 57.1347 421.178 57.2418L394.18 74.871C394.013 74.979 393.877 75.1283 393.784 75.3045C393.692 75.4806 393.647 75.6777 393.653 75.8765L395.155 126.46L441.228 113.601L439.837 94.7232L407.446 104.952Z" fill="#202020"/>
<path d="M494.286 62.5621L481.194 64.6348L484.118 43.5613L467.601 44.4937L465.262 65.359L455.487 66.7074L463.178 9.77454L446.741 8.29517L438.138 82.368L461.791 80.3069L455.603 120.689H472.463L476.898 79.7252L495.326 78.2073L494.286 62.5621Z" fill="#202020"/>
<path d="M370.905 10.2175V36.4033L380.133 26.1478V13.1185L370.905 10.2175Z" fill="#202020"/>
</g>
</g>
<defs>
<filter id="filter0_d_454_7306" x="0.2" y="0.2" width="503.62" height="199.6" filterUnits="userSpaceOnUse" color-interpolation-filters="sRGB">
<feFlood flood-opacity="0" result="BackgroundImageFix"/>
<feColorMatrix in="SourceAlpha" type="matrix" values="0 0 0 0 0 0 0 0 0 0 0 0 0 0 0 0 0 0 127 0" result="hardAlpha"/>
<feOffset dx="1" dy="3"/>
<feGaussianBlur stdDeviation="2.4"/>
<feColorMatrix type="matrix" values="0 0 0 0 0 0 0 0 0 0 0 0 0 0 0 0 0 0 0.25 0"/>
<feBlend mode="normal" in2="BackgroundImageFix" result="effect1_dropShadow_454_7306"/>
<feBlend mode="normal" in="SourceGraphic" in2="effect1_dropShadow_454_7306" result="shape"/>
</filter>
<clipPath id="clip0_454_7306">
<rect width="493.97" height="189.333" fill="white" transform="translate(4.0498 2)"/>
</clipPath>
</defs>
</svg>
