<svg width="199" height="72" viewBox="0 0 199 72" fill="none" xmlns="http://www.w3.org/2000/svg">
<g clip-path="url(#clip0_196_3904)">
<g clip-path="url(#clip1_196_3904)">
<path d="M89.0083 57.8594C88.7375 57.8756 88.5279 57.8931 88.3183 57.899C87.3211 57.9225 86.5874 57.1753 86.717 56.2567C86.7484 56.0174 86.8355 55.789 86.971 55.59C87.1066 55.3909 87.2869 55.2268 87.4972 55.111C87.914 54.8728 88.3766 54.7274 88.8539 54.6847C89.6371 54.5895 90.4203 54.4957 91.2034 54.3917C91.3988 54.3567 91.5997 54.3718 91.7877 54.4356C91.9757 54.4993 92.1447 54.6097 92.2792 54.7565C92.6402 55.1403 92.6781 55.656 92.2792 55.99C91.5703 56.5761 91.3155 57.3804 91.0753 58.214C90.5731 59.9574 90.3664 61.7492 90.1874 63.5453C90.1277 64.1548 90.0651 64.7642 90.0214 65.3752C89.9996 65.6814 90.0214 65.989 90.0214 66.2967L90.1306 66.3362C90.2114 66.2528 90.2845 66.1621 90.3489 66.0652C91.2791 64.3892 92.17 62.6883 93.1424 61.0386C93.6577 60.1596 94.2109 59.3157 94.7684 58.4689C95.2677 57.7071 95.949 56.9116 95.9766 55.9534C95.9781 55.8713 95.9752 55.7891 95.9679 55.7073C95.9417 55.4641 95.8675 55.2282 95.8645 54.985C95.8566 54.811 95.8962 54.6381 95.9791 54.4852C96.062 54.3323 96.185 54.2052 96.3347 54.1177C96.486 54.051 96.6475 54.0109 96.8122 53.999C97.1897 53.9492 97.5677 53.9033 97.9462 53.8613C98.529 53.7833 99.117 53.752 99.7047 53.7676C100.264 53.7954 100.836 53.9141 101.306 54.2203C101.776 54.5265 102.117 55.0715 102.083 55.634C102.035 56.0751 101.821 56.4808 101.485 56.768C101.151 57.051 100.78 57.2862 100.382 57.4668C99.9973 57.6602 99.5562 57.8419 99.2592 58.1613C98.9623 58.4806 98.575 58.6843 98.2504 58.9392C97.579 59.4687 96.937 60.0351 96.3275 60.6357C95.1147 61.8329 94.0403 63.1643 93.1249 64.6046C92.8193 65.087 92.531 65.5798 92.2603 66.0828C91.6198 67.2768 91.0666 68.5177 90.4683 69.7337C90.3632 69.976 90.2303 70.2051 90.0724 70.4164C89.6357 70.9336 88.985 70.831 88.7331 70.204C88.6361 69.9578 88.5867 69.6953 88.5876 69.4304C88.6021 66.6 88.4798 63.7665 88.7477 60.9419C88.8263 60.1186 88.9224 59.2952 89.0024 58.4718C89.0243 58.2799 89.0083 58.088 89.0083 57.8594Z" fill="#202020"/>
<path d="M98.3918 64.3481C98.3394 64.395 98.239 64.5122 98.1356 64.6323C97.2913 65.7179 96.9987 67.0687 97.0279 68.4224C97.0279 68.5352 97.0279 68.648 97.0424 68.7608C97.0104 69.4714 97.303 70.7987 96.3146 71.1181C96.253 71.1502 96.1892 71.1781 96.1239 71.2016C96.0503 71.2237 95.9754 71.2413 95.8997 71.2543C95.7457 71.2798 95.5889 71.2832 95.4339 71.2646C94.7599 71.184 94.2766 70.7562 94.1514 70.1277C94.1415 70.0769 94.1342 70.0255 94.1296 69.9739C94.0899 69.5685 94.1588 69.1597 94.329 68.7901C94.5692 68.2275 95.217 67.4188 95.5998 66.5061C96.3757 64.748 96.1472 63.7533 96.2287 63.2976C96.2814 62.9484 96.4521 62.6282 96.712 62.3908C96.8948 62.2168 97.1201 62.0945 97.3649 62.0361C97.6097 61.9777 97.8655 61.9853 98.1065 62.0582C99.2987 62.4245 99.568 63.3064 98.3918 64.3481Z" fill="#202020"/>
<path d="M111.963 58.5172C111.792 58.9732 111.491 59.3685 111.098 59.6541C110.875 59.835 110.637 59.9963 110.387 60.1361C109.686 60.5264 109.069 61.0539 108.574 61.6876C107.774 62.7131 106.973 63.7298 106.231 64.7818C105.043 66.4534 103.901 68.1514 102.97 69.9651C102.881 70.1468 102.767 70.3146 102.631 70.4632C102.539 70.5672 102.424 70.6479 102.295 70.6989C102.166 70.7499 102.027 70.7697 101.89 70.7567C101.752 70.7437 101.619 70.6983 101.502 70.6242C101.385 70.55 101.287 70.4492 101.216 70.3299C101.098 70.139 101.016 69.9287 100.971 69.7087C100.815 68.9586 100.68 68.2041 100.545 67.4496C100.409 66.6951 100.296 65.9391 100.179 65.1817C100.122 64.8169 100.063 64.4492 100.034 64.0815C100.007 63.6827 100.089 63.2843 100.27 62.9285C100.414 62.6244 100.644 62.3696 100.93 62.1959C101.804 61.6817 102.855 62.0875 103.021 63.0296C103.062 63.3468 103.043 63.6692 102.963 63.9789C102.866 64.3387 102.748 64.6924 102.609 65.0381C102.405 65.5975 102.297 66.1874 102.289 66.783C102.289 66.9295 102.28 67.076 102.491 67.1918C102.568 67.1469 102.638 67.0912 102.699 67.0262C102.813 66.8599 102.917 66.6872 103.012 66.509C104.158 64.4336 105.425 62.4279 106.806 60.5023C107.322 59.7875 107.789 59.0387 108.206 58.2608C108.416 57.8847 108.671 57.5363 108.966 57.2235C109.295 56.8735 109.741 56.6576 110.218 56.617C111.391 56.4808 112.304 57.4785 111.963 58.5172Z" fill="#202020"/>
<path d="M114.148 68.166C113.777 68.3652 113.566 68.4692 113.364 68.5908C112.816 68.9205 112.281 69.2706 111.728 69.5885C111.095 69.9583 110.399 70.2029 109.675 70.3093C108.92 70.4357 108.145 70.3091 107.468 69.9489C106.331 69.3321 105.95 67.9081 106.537 66.7493C106.752 66.3215 107.032 65.9296 107.366 65.5875C107.432 65.5201 107.502 65.4527 107.572 65.3882C107.645 65.2965 107.723 65.209 107.806 65.126C107.886 65.0464 107.972 64.9716 108.061 64.9018C108.572 64.4279 109.143 64.0226 109.758 63.6961C109.863 63.6419 109.971 63.5921 110.08 63.5496C111.084 63.1379 111.963 62.549 113.205 62.6867C113.326 62.6779 113.445 62.6676 113.563 62.6618C114.165 62.6084 114.77 62.7256 115.31 63.0002C115.414 63.0692 115.512 63.1482 115.601 63.2361C115.754 63.3879 115.884 63.5617 115.987 63.7518C116.096 63.95 116.181 64.1605 116.242 64.3788C116.306 64.6058 116.349 64.8383 116.371 65.0732C116.394 65.3113 116.398 65.551 116.381 65.7896C116.356 66.2439 116.251 66.6902 116.073 67.1082C116.031 67.1946 115.993 67.2825 115.958 67.3704C115.194 69.3058 116.459 70.9584 115.485 71.7876C114.939 72.2564 114.09 71.8696 113.918 71.2396C113.716 70.4925 114.154 69.7746 114.164 69.0421C114.161 68.8077 114.156 68.5718 114.148 68.166ZM114.367 64.3773C114.026 64.3054 113.674 64.3015 113.332 64.3656C113.22 64.3832 113.108 64.4066 112.998 64.433C112.396 64.4579 111.956 64.7539 111.445 64.9048L111.121 65.0381C110.361 65.3428 109.602 65.6549 109.024 66.2658C108.954 66.3141 108.879 66.3654 108.816 66.4123C108.61 66.5669 108.42 66.741 108.247 66.9324C107.398 67.8861 108.998 67.9491 110.163 67.7821C110.415 67.7484 110.666 67.6995 110.912 67.6356C111.54 67.3719 112.303 67.1492 112.959 66.8064C113.052 66.7566 113.144 66.7053 113.233 66.6511C113.86 66.2277 114.447 65.6387 114.543 64.7202C114.505 64.5963 114.445 64.4802 114.367 64.3773Z" fill="#202020"/>
<path d="M122.957 70.3108L122.823 70.3196C122.377 70.3474 122.053 70.1071 122.07 69.6325C122.087 69.2813 122.159 68.9351 122.284 68.6069C122.333 68.4707 122.395 68.3139 122.466 68.144C122.537 67.974 122.612 67.7836 122.705 67.5785C123.677 65.3369 124.703 63.2727 125.737 61.0092C125.829 60.8129 125.914 60.6151 125.999 60.4158C126.083 60.2166 126.166 60.0144 126.251 59.8108L126.322 59.6379C127.341 57.9648 127.05 54.8677 129.782 55.3423C129.856 55.363 129.927 55.3895 129.996 55.4215C130.194 55.5014 130.368 55.63 130.503 55.7953C130.638 55.9607 130.729 56.1576 130.769 56.3679C131.005 57.6029 129.328 58.5142 128.827 59.3698L128.64 59.5822C128.394 59.8664 128.158 60.1506 127.922 60.4275C127.874 60.4876 127.827 60.5462 127.776 60.6063C127.437 61.0354 127.14 61.496 126.888 61.982C126.051 63.6126 125.329 65.312 124.987 65.986C124.842 66.2643 123.898 67.8378 124.617 67.785L124.763 67.7748C126.316 67.8436 127.488 66.8122 128.803 66.1881C128.872 66.1735 128.944 66.1661 129.015 66.1662C129.126 66.1643 129.236 66.1797 129.343 66.2116C129.506 66.262 129.655 66.3513 129.777 66.4719C129.899 66.5925 129.99 66.7409 130.043 66.9045C130.069 66.9819 130.088 67.0613 130.101 67.1419C130.174 67.4075 130.19 67.6857 130.148 67.9579C130.135 68.0328 130.115 68.1063 130.089 68.1777C128.807 70.4983 125.286 69.171 123.169 70.2859C123.095 70.3005 123.023 70.3064 122.957 70.3108Z" fill="#202020"/>
<path d="M137.388 58.0513C137.47 58.1129 137.553 58.1788 137.634 58.2447C138.208 58.7106 138.765 59.2497 138.748 59.953C138.748 60.0584 138.748 60.1625 138.748 60.265C138.748 60.3676 138.722 60.4716 138.701 60.5741C138.681 60.6767 138.658 60.7763 138.628 60.8759C138.599 60.9756 138.537 61.0942 138.483 61.2012C138.429 61.3081 138.372 61.4122 138.313 61.5162C138.253 61.6202 138.199 61.6978 138.144 61.7857C138.088 61.8736 138.036 61.9572 137.988 62.0392C137.929 62.1393 137.876 62.2425 137.828 62.3483C137.779 62.4575 137.738 62.5702 137.705 62.6853C137.675 62.7644 137.647 62.845 137.623 62.9241C137.04 64.8389 138.234 66.7186 137.133 67.2987C134.95 67.9727 135.656 65.8146 135.791 64.3379C135.803 64.2148 135.81 64.0961 135.813 63.9833C135.827 63.904 135.834 63.8236 135.835 63.7431C135.722 63.8799 135.58 63.9892 135.419 64.0624C134.883 64.3349 134.4 64.7027 133.87 64.9781C133.314 65.2644 132.728 65.487 132.123 65.6418C131.743 65.7475 131.352 65.8065 130.958 65.8176C130.327 65.8028 129.714 65.5987 129.198 65.2315C128.972 65.0733 128.77 64.8817 128.6 64.6631C128.256 64.2151 128.068 63.666 128.063 63.0999C128.063 63.0227 128.066 62.9451 128.072 62.8669C128.23 60.8994 130.028 59.7903 131.592 58.9728C131.902 58.8064 132.221 58.6563 132.547 58.5231C133.081 58.3183 133.636 58.171 134.202 58.0836C134.301 58.0689 134.398 58.0543 134.493 58.0425C135.4 57.8169 136.279 57.6689 137.206 58C137.268 58.014 137.328 58.0311 137.388 58.0513ZM136.752 60.079C136.277 59.7391 135.838 59.7391 135.248 59.8006L134.902 59.8504C134.324 59.9206 133.755 60.0533 133.206 60.246C132.493 60.517 131.857 60.9565 131.232 61.399C130.835 61.6698 130.454 61.9633 130.091 62.278C129.951 62.3949 129.83 62.5328 129.733 62.6867C129.681 62.7614 129.66 62.8533 129.674 62.9431C129.712 63.0896 129.89 63.1497 130.04 63.1775C130.982 63.3538 131.95 63.3338 132.884 63.1189C133.806 62.908 134.631 62.404 135.414 61.8956C135.996 61.5191 136.609 61.0942 136.88 60.4496C136.9 60.4112 136.909 60.3683 136.908 60.3251C136.902 60.2909 136.889 60.2584 136.87 60.2299C136.836 60.1756 136.796 60.125 136.752 60.079Z" fill="#202020"/>
<path d="M155.206 56.8748C155.041 57.12 154.815 57.3183 154.552 57.4506C154.446 57.5282 154.153 57.5282 154.012 57.6117C153.915 57.6236 153.818 57.629 153.721 57.6279C153.385 57.6094 153.051 57.5697 152.721 57.5092C151.983 57.4081 151.246 57.2909 150.505 57.2074C149.881 57.1371 149.777 57.2206 149.568 57.8535C149.468 58.161 149.384 58.4734 149.316 58.7896C149.3 58.8372 149.297 58.8879 149.307 58.937C149.316 58.9861 149.338 59.0319 149.37 59.0701C149.402 59.1083 149.444 59.1376 149.49 59.1552C149.537 59.1727 149.587 59.178 149.636 59.1706C150.015 59.1158 150.39 59.0419 150.761 58.9493C151.064 58.879 151.36 58.7662 151.664 58.7091C151.854 58.6715 152.05 58.6734 152.24 58.7147C152.429 58.756 152.608 58.8359 152.766 58.9493C152.867 59.0195 152.957 59.105 153.032 59.2028C153.28 59.5925 153.427 60.1814 153.024 60.5711C152.963 60.6294 152.894 60.6787 152.82 60.7176C152.741 60.7786 152.658 60.832 152.569 60.8773C152.312 61.0093 152.021 61.0603 151.734 61.0238C151.424 60.9836 151.117 60.9174 150.818 60.8261C150.309 60.6814 149.78 60.6166 149.25 60.6341C149.091 60.6213 148.933 60.6678 148.805 60.7648C148.678 60.8617 148.59 61.0024 148.559 61.1601C148.482 61.4531 148.39 61.7344 148.333 62.0274C147.985 63.8382 147.953 63.9085 147.64 65.7267C147.48 66.6584 147.409 67.6063 147.297 68.5484C147.25 68.9439 147.214 69.3424 147.151 69.7365C147.088 70.1554 146.912 70.5491 146.643 70.8749C145.886 71.792 144.55 71.6631 143.962 70.6141C143.742 70.246 143.646 69.8165 143.688 69.3893C143.725 68.9929 143.797 68.6006 143.904 68.2173C144.486 66.3127 145.966 62.4816 146.278 61.5908C146.358 61.3623 146.501 61.1513 146.423 60.8378C146.105 60.6693 145.814 60.7587 145.531 60.7367C145.34 60.7342 145.151 60.7107 144.965 60.6664C144.9 60.6446 144.843 60.6061 144.798 60.5549C144.753 60.5037 144.722 60.4415 144.708 60.3744C144.694 60.3074 144.698 60.238 144.72 60.173C144.741 60.108 144.779 60.0498 144.83 60.0042C144.975 59.8784 145.146 59.7855 145.33 59.7317C145.676 59.6311 146.029 59.5586 146.386 59.5148C146.605 59.5025 146.815 59.4251 146.99 59.2923C147.165 59.1596 147.297 58.9775 147.37 58.7691C147.549 58.3296 147.789 57.9297 147.987 57.5033C148.132 57.1942 148.05 57.0316 147.729 56.9627C147.518 56.9158 147.303 56.8968 147.089 56.8616C146.969 56.8477 146.85 56.8257 146.734 56.7957C146.625 56.7733 146.527 56.7175 146.451 56.6361C146.376 56.5548 146.328 56.4518 146.313 56.3415C146.312 56.2293 146.347 56.1199 146.414 56.0301C146.481 55.9403 146.575 55.8752 146.683 55.8449C146.957 55.7572 147.239 55.694 147.524 55.6559C148.523 55.5226 149.527 55.4244 150.524 55.2764C151.283 55.1651 152.032 54.9937 152.789 54.8604C153.141 54.7867 153.498 54.7441 153.856 54.7329C154.126 54.7348 154.39 54.8046 154.626 54.9358C154.862 55.0671 155.061 55.2558 155.206 55.4845C155.356 55.6849 155.437 55.9289 155.437 56.1796C155.437 56.4304 155.356 56.6744 155.206 56.8748Z" fill="#202020"/>
<path d="M156.881 60.3455C156.836 60.4114 156.813 60.4437 156.784 60.4832C156.755 60.5228 156.715 60.5711 156.638 60.6634C155.037 62.2457 155.328 64.6059 155.286 66.6189C155.266 66.7178 155.241 66.8157 155.21 66.9119C155.179 67.0081 155.142 67.1025 155.1 67.1946C155.059 67.2817 155.01 67.3647 154.954 67.4422C154.675 67.8217 154.226 68.0092 153.545 67.8041C153.481 67.7874 153.418 67.7668 153.357 67.7426C153.293 67.7182 153.229 67.6903 153.165 67.6591C153.079 67.6159 152.999 67.5634 152.925 67.5023C152.861 67.4509 152.808 67.3884 152.766 67.3177C152.73 67.2795 152.698 67.2378 152.67 67.1932C152.582 67.0359 152.526 66.862 152.508 66.6823C152.489 66.5026 152.507 66.3209 152.561 66.1486C152.58 66.0985 152.603 66.0495 152.628 66.0021C153.058 65.4437 153.428 64.8411 153.733 64.2045C153.784 64.099 153.832 63.992 153.878 63.8836C154.447 62.694 154.594 61.5146 154.733 60.3997C154.733 60.3104 154.743 60.2225 154.747 60.1346C154.747 60.01 154.758 59.884 154.759 59.7595C154.302 58.5655 155.327 57.9765 156.506 58.271C157.234 58.4175 157.525 59.5983 156.96 60.2562L156.881 60.3455Z" fill="#202020"/>
<path d="M163.918 59.8093C164 60.1169 163.998 60.4411 163.913 60.7479C163.828 61.0546 163.662 61.3326 163.433 61.5527C162.927 62.0464 162.253 62.3468 161.614 62.6222C161.455 62.6911 161.292 62.7526 161.135 62.8244L161.075 62.8522C160.145 63.2771 159.28 63.6097 158.723 63.8133C158.721 64.2437 158.794 64.6711 158.938 65.0762C158.976 65.2007 159.03 65.3195 159.1 65.4293C159.201 65.6014 159.365 65.7274 159.557 65.7809C159.587 65.7888 159.618 65.7947 159.649 65.7984C160.295 65.882 160.959 65.4483 161.346 64.9707C161.572 64.6967 161.762 64.3627 162.074 64.1825C162.314 64.0445 162.582 63.9647 162.858 63.9495C163.017 63.9391 163.176 63.9712 163.319 64.0426C163.462 64.114 163.583 64.2222 163.671 64.3562C163.759 64.4901 163.81 64.6451 163.818 64.8053C163.827 64.9654 163.794 65.1251 163.722 65.2681C163.391 65.9159 162.882 66.4541 162.256 66.8181C161.631 67.1777 160.961 67.4507 160.264 67.6298C159.996 67.7226 159.713 67.7615 159.43 67.744C159.132 67.6983 158.854 67.5636 158.632 67.3573C158.285 67.0415 158.002 66.6608 157.798 66.2365C157.562 65.7348 157.4 65.2006 157.319 64.6513C157.301 64.5326 157.283 64.411 157.27 64.2894C157.101 62.8363 157.492 61.3733 158.363 60.2019C158.407 60.1375 158.451 60.073 158.496 60.01C158.541 59.947 158.587 59.884 158.641 59.8225C159.494 58.7208 160.864 57.8798 162.304 58.2388C162.952 58.3999 163.576 58.8321 163.819 59.4753C163.86 59.5841 163.893 59.6957 163.918 59.8093ZM162.135 59.6877C162.042 59.6775 161.948 59.6775 161.855 59.6877C160.285 59.8122 159.305 61.144 158.842 62.5446C158.86 62.4904 159.256 62.4142 159.318 62.3981L159.838 62.2516C160.198 62.152 160.553 62.0327 160.9 61.8941C161.232 61.7644 161.545 61.5899 161.831 61.3755C162.137 61.151 162.386 60.8568 162.558 60.5169C162.611 60.4069 162.629 60.2838 162.612 60.1632C162.595 60.0425 162.543 59.9295 162.462 59.8386C162.371 59.7553 162.257 59.7026 162.135 59.6877Z" fill="#202020"/>
<path d="M168.988 64.4243C168.993 64.4161 168.996 64.4072 168.997 64.3979C169.008 64.3527 169.008 64.3055 168.997 64.2602C168.883 63.8333 168.665 63.442 168.362 63.1219C167.76 62.4494 166.761 61.9733 166.47 61.0708C166.179 60.1683 166.761 59.301 167.343 58.7121C168.362 57.833 170.713 57.2367 170.859 58.5655C171.15 59.8929 169.102 60.1874 167.928 60.7778C167.928 60.7778 168.501 61.3916 168.556 61.4444C168.796 61.6671 169.046 61.8839 169.292 62.0949C169.763 62.5109 170.243 62.9563 170.528 63.5277C170.945 64.3584 170.83 65.4557 170.07 66.0505C169.633 66.3875 169.073 66.5076 168.525 66.5179C167.773 66.5248 167.023 66.4551 166.285 66.3098C165.858 66.2278 165.38 66.1413 165.036 65.8527C164.845 65.7011 164.687 65.5125 164.57 65.298C164.453 65.0836 164.381 64.8478 164.356 64.6045C164.353 64.564 164.353 64.5234 164.356 64.4829C164.363 64.3612 164.398 64.2427 164.458 64.1371C164.518 64.0315 164.603 63.9416 164.704 63.8749C164.833 63.7636 164.981 63.6777 165.141 63.6214C165.179 63.6097 165.217 63.598 165.254 63.5892C165.735 63.4749 166.334 63.8397 166.729 64.08C167.166 64.3452 167.613 64.6558 168.137 64.6997C168.378 64.7253 168.622 64.6789 168.838 64.5664C168.903 64.5378 168.956 64.4876 168.988 64.4243Z" fill="#202020"/>
<path d="M186.258 54.5453C185.93 55.0271 185.428 55.3621 184.86 55.48C184.668 55.5279 184.473 55.5622 184.277 55.5825C183.095 55.5825 181.916 55.5078 180.683 55.4199C180.433 55.4199 180.175 55.4199 179.913 55.4375C178.35 55.5269 176.667 55.9796 175.722 57.405C175.364 57.9471 175.057 58.8965 174.798 60.0216C174.766 60.1681 174.734 60.3059 174.703 60.4509C174.412 61.9072 174.36 63.3913 174.077 64.8461C173.921 65.6577 173.833 66.4576 173.756 67.2839C173.715 67.7117 173.706 68.1629 173.635 68.579C173.587 68.872 173.309 70.5114 171.528 70.3634C171.18 70.349 170.842 70.2346 170.556 70.0338C170.412 69.9211 170.298 69.7754 170.222 69.6089C170.146 69.4425 170.111 69.2601 170.119 69.0771C170.109 68.6772 170.105 68.2582 170.287 67.9051C170.399 67.7161 170.527 67.5368 170.668 67.3689C170.792 67.1968 170.906 67.0183 171.012 66.8341C171.658 65.7529 172.322 64.6512 172.643 63.422C173.134 61.5804 174.438 56.4205 171.063 57.0403C169.883 57.0022 169.706 55.4829 171.908 55.4287C173.009 55.2558 173.004 54.9496 173.178 54.0764C173.252 53.6941 173.53 51.9096 174.447 51.8525C176.661 51.6503 173.297 55.3481 177.687 54.3563C178.104 54.3138 181.405 53.1842 182.615 52.4297C183.133 52.1147 183.722 51.935 184.327 51.9067C184.872 51.849 185.418 51.9996 185.858 52.3286C186.189 52.5814 186.414 52.9509 186.486 53.363C186.523 53.5619 186.523 53.7662 186.486 53.9651C186.441 54.1695 186.365 54.3654 186.258 54.5453Z" fill="#202020"/>
<path d="M182.824 62.9636C181.771 63.6314 180.642 64.1723 179.463 64.5752C179.283 64.6221 179.101 64.6631 178.917 64.6982C178.698 64.7393 178.481 64.7715 178.259 64.7964C176.94 64.9429 175.475 63.9174 175.475 62.5842C175.329 61.2656 176.057 59.931 177.076 58.9831C177.221 58.8439 177.379 58.712 177.537 58.589C177.664 58.4908 177.795 58.3985 177.929 58.3106C178.063 58.2227 178.2 58.1392 178.339 58.0601C180.452 57.1283 184.701 55.212 185.881 58.167C185.919 58.3712 185.944 58.5778 185.954 58.7853C186.015 59.6105 185.798 60.4323 185.337 61.1177C185.235 61.2627 185.12 61.3981 184.993 61.522C184.266 62.8801 184.702 64.354 184.702 65.8293C184.702 66.8548 183.383 66.8548 182.798 66.4153C182.07 65.5363 182.944 64.499 182.821 63.4852C182.823 63.3401 182.823 63.1746 182.824 62.9636ZM183.51 58.7794C183.446 58.7017 183.37 58.6345 183.286 58.5802C183.034 58.422 182.689 58.4161 182.401 58.4337C182.047 58.4587 181.698 58.5245 181.36 58.63C181.302 58.649 181.244 58.6696 181.187 58.6915C181.13 58.7135 181.072 58.7413 181.015 58.7706C180.9 58.8102 180.788 58.8512 180.677 58.8922C180.455 58.9758 180.241 59.0637 180.043 59.1413C179.946 59.1838 179.85 59.2292 179.751 59.2761C179.557 59.3738 179.369 59.4792 179.187 59.5925C179.08 59.6555 178.977 59.7215 178.877 59.7918C178.463 60.0793 178.105 60.4414 177.823 60.8598C177.799 60.8982 177.777 60.9378 177.757 60.9785C177.697 61.1113 177.667 61.2559 177.668 61.4019C177.741 62.1344 178.291 62.3981 178.96 62.3805C179.194 62.3724 179.427 62.339 179.654 62.2809C180.441 61.9176 181.182 61.5484 181.945 61.1235L182.405 60.8613C182.49 60.8173 182.574 60.769 182.661 60.7148C182.721 60.6796 182.785 60.6371 182.849 60.5902C183.088 60.4136 183.303 60.2062 183.488 59.9735C183.647 59.7757 183.87 59.5105 183.801 59.2409C183.77 59.1438 183.721 59.0537 183.656 58.9758C183.61 58.9069 183.562 58.841 183.51 58.7794Z" fill="#202020"/>
<path d="M41.8891 59.4592L41.1074 60.8686H44.4672V59.4592H41.8891Z" fill="#202020"/>
<path d="M6.0166 65.3429L6.72407 56.7094H8.93089L10.7825 61.002L12.6414 55.7952H15.2486L15.5499 65.1554L13.461 65.2711L13.4144 58.63L11.3401 63.8383L9.92076 63.8412L8.3952 59.6365L8.21615 65.1993L6.0166 65.3429Z" fill="#202020"/>
<path d="M15.8091 65.1613L17.9227 56.0164L20.0568 55.7673L22.661 64.9474L20.9928 64.9342L20.2256 62.111L18.2299 62.1389L17.5661 65.1232L15.8091 65.1613Z" fill="#202020"/>
<path d="M23.0745 65.0571L22.8794 55.4801C22.8794 55.4801 27.8098 54.4033 28.101 57.1371C28.3921 59.8708 26.0746 60.1639 26.0746 60.1639L28.4722 64.6777L26.6205 64.6967L24.8475 61.207L24.9261 65.0571H23.0745Z" fill="#202020"/>
<path d="M32.0137 57.1576V55.0099L38.3532 54.4106L37.5773 58.7545H39.9355L39.4537 60.4935H37.244L36.7956 64.5591H34.4025L35.0342 60.4935H32.9002L33.3092 58.7164L35.2555 58.6417L35.6602 56.8675L32.0137 57.1576Z" fill="#202020"/>
<path d="M50.0295 54.0751C46.0686 53.259 45.5067 58.9801 48.025 59.736C50.5434 60.492 51.1431 59.2819 51.1431 59.2819C51.1431 59.2819 51.2552 59.9865 50.4633 61.4985C49.3381 63.6492 46.9769 61.3974 46.9769 61.3974L46.1821 62.9445C46.1821 62.9445 49.3846 65.4087 51.4051 63.2478C53.4256 61.0868 53.9919 54.8911 50.0295 54.0751ZM49.1124 58.268C48.175 58.1538 47.9741 57.7597 48.0803 56.8704C48.1866 55.9811 48.469 55.3804 49.4065 55.4932C50.3439 55.606 50.472 56.3034 50.3658 57.1942C50.2595 58.0849 50.0499 58.3808 49.1124 58.268Z" fill="#202020"/>
<path d="M26.7035 8.2482C26.6438 7.06444 27.3193 6.49747 28.3164 6.12827C29.4446 5.7078 30.5524 5.22434 31.6529 4.73354C32.3019 4.43105 33.0435 4.39945 33.7156 4.64564C36.2834 5.50123 38.8527 6.35536 41.454 7.09814C42.6186 7.43071 43.8588 7.52593 45.07 7.68416C46.581 7.87755 48.0963 8.02405 49.6103 8.18667C51.328 8.37127 53.0515 8.5251 54.7663 8.739C57.2264 9.04373 59.6793 9.39241 62.1365 9.71765C63.7669 9.93302 65.3972 10.1396 67.0742 10.3564L67.2198 9.6107C68.789 9.36604 70.3582 9.08329 71.942 8.89869C72.715 8.80785 73.4894 8.37859 74.3046 8.81078C74.4138 8.86939 74.6714 8.6174 74.8709 8.53535C76.8957 7.7076 78.9308 6.90329 80.9455 6.04477C81.4171 5.84405 81.6398 5.99056 81.9353 6.32752C83.1377 7.69881 84.3692 9.04226 85.7638 10.3593C85.7638 9.71326 85.7274 9.06424 85.7827 8.42401C85.8031 8.19107 85.9865 7.85704 86.1845 7.7706C88.7742 6.63811 91.3799 5.54079 93.9826 4.43907C94.0643 4.42855 94.147 4.42855 94.2286 4.43907C94.5722 5.77715 94.9225 7.13769 95.2796 8.5207C96.5126 7.97717 97.632 8.4958 98.7573 8.63498C100.12 8.80492 101.466 9.08914 102.922 9.34113C103.187 8.14858 103.452 6.96775 103.712 5.78692C103.908 4.90789 104.149 4.02885 104.273 3.13224C104.343 2.61215 104.603 2.54622 105.001 2.5345C106.48 2.48762 107.959 2.43488 109.438 2.38799C114.439 2.22293 119.445 2.06178 124.453 1.90453C124.717 1.89574 124.982 1.90453 125.251 1.90453C125.21 2.47736 125.177 2.96523 125.134 3.55125C126.536 3.3183 127.857 3.10441 129.175 2.88025C132.515 2.31279 135.854 1.74239 139.193 1.16907C140.161 1.00352 141.007 1.15296 141.534 2.0481C141.629 2.0481 141.696 2.06861 141.725 2.0481C142.598 1.31558 143.496 1.53826 144.457 1.88109C145.775 2.35283 147.117 2.76012 148.468 3.13078C149.126 3.30951 149.426 3.61131 149.295 4.30282C149.282 4.47791 149.289 4.6539 149.316 4.82731C149.407 4.8361 149.488 4.87126 149.543 4.84782C152.931 3.36225 156.593 2.87586 160.125 1.91771C162.454 1.28481 164.819 0.745671 167.167 0.15965C168.703 -0.221264 169.351 0.102513 169.888 1.4782C170.789 1.37271 171.676 1.13537 172.542 1.18519C175.239 1.36246 177.928 1.65254 180.666 1.90306C180.084 6.27478 179.502 10.5718 178.919 14.9127L188.568 14.3575C188.236 16.8129 187.915 19.1921 187.601 21.526H192.054C192.248 24.4268 192.444 27.3569 192.648 30.4057L185.495 31.0268C185.32 32.5901 185.141 34.1313 184.976 35.6755C184.615 39.0666 184.26 42.4591 183.911 45.8532C183.857 46.3806 183.663 46.6047 183.08 46.5974C180.366 46.5637 177.647 46.6824 174.941 46.5388C173.645 46.47 172.329 46.0627 171.104 45.5909C168.904 44.7456 166.831 44.9053 164.607 45.6158C160.7 46.8655 156.717 47.8793 152.756 48.9532C152.32 49.0596 151.862 49.0263 151.446 48.858C148.306 47.5072 145.187 46.111 142.06 44.7309C141.882 44.6533 141.7 44.5844 141.432 44.4848C141.394 44.9478 141.36 45.3638 141.325 45.7682C141.247 46.6897 140.707 47.3798 139.787 47.497C137.982 47.7343 136.167 47.8969 134.355 48.083C131.54 48.3662 128.723 48.6436 125.903 48.9151C125.321 48.9723 124.727 49.0279 124.137 49.0616C123.398 49.1071 122.827 48.7686 122.312 48.2573C121.053 47.0091 119.783 45.7667 118.371 44.3852V47.0648C116.907 46.7835 115.543 46.5271 114.183 46.2561C112.824 45.985 111.438 45.7111 110.074 45.4019C109.73 45.3243 109.417 45.1089 109.027 44.9331C109.027 45.5191 109.027 46.1887 109.027 46.8597C109.027 48.3657 107.931 49.2536 106.464 49.0572C103.731 48.6983 100.992 48.4009 98.2565 48.0786C97.3526 47.9731 96.434 47.9321 95.5475 47.7431C95.0482 47.6361 94.5984 47.2875 94.0918 47.0311C94.134 46.9871 94.0831 47.015 94.0816 47.0472C94.0525 47.5014 93.9579 48.3115 93.9579 48.3115C93.9579 48.3115 92.7729 48.8053 92.0786 49.0997C90.1061 49.7795 88.1744 50.5721 86.1481 51.3486C85.8249 50.1326 85.5076 48.9342 85.1873 47.724C85.1218 47.768 85.2019 47.6874 85.1873 47.724C84.8161 48.3101 84.0475 49.5598 84.0475 49.5598L81.5103 50.0769C79.3049 50.4022 77.1301 50.931 74.785 51.4043V47.1336L65.4089 47.9379V44.5991C64.2865 45.21 63.154 45.7345 62.1234 46.4143C61.0928 47.0941 60.1538 47.2098 58.9849 46.7732C57.0925 46.0715 55.1579 45.5133 53.2218 44.9566C52.7661 44.8349 52.285 44.8497 51.8375 44.999C50.571 45.4386 49.3293 45.9557 48.0978 46.4861C47.7873 46.633 47.4489 46.7109 47.1058 46.7145C46.7627 46.718 46.4228 46.6471 46.1093 46.5066C45.1136 46.0861 44.1034 45.6876 43.0728 45.3668L42.3449 45.1954L41.6898 45.3345C35.4905 47.3788 29.2985 49.4484 23.1138 51.5434C22.5176 51.773 21.8611 51.7885 21.2549 51.5874C19.9447 51.1479 18.6346 50.7171 17.3158 50.3538C16.3739 50.1048 15.7698 49.6081 15.6243 48.5577C13.3636 49.1569 11.1349 49.7414 8.90916 50.3392C7.24967 50.7787 6.28891 50.0842 6.31803 48.376C6.42284 43.2029 6.55967 38.0313 6.67467 32.8596C6.80568 26.9437 6.93184 21.0283 7.05315 15.1134C7.09391 13.2323 7.14923 11.3512 7.19872 9.47006C7.19463 9.11901 7.29904 8.77537 7.4975 8.48665C7.69596 8.19794 7.97866 7.97844 8.3065 7.8585C10.0097 7.14795 11.7099 6.43007 13.4422 5.80743C13.9109 5.63748 14.5092 5.67118 15.0114 5.77813C17.0174 6.20153 19.0044 6.71869 21.0089 7.14942C22.8692 7.53912 24.7383 7.86876 26.7035 8.2482Z" fill="#202020"/>
<path d="M8.22198 9.23707L7.33838 48.8916C7.33871 48.9307 7.3493 48.9689 7.36907 49.0025C7.38883 49.0361 7.41708 49.0638 7.45093 49.0829C7.48479 49.1019 7.52305 49.1116 7.56183 49.111C7.60061 49.1103 7.63852 49.0993 7.67173 49.0792L12.7812 45.9278C12.8126 45.9086 12.8386 45.8818 12.8569 45.8498C12.8752 45.8178 12.8852 45.7816 12.886 45.7447L13.9487 7.07905C13.9497 7.04244 13.9416 7.00615 13.9252 6.97348C13.9087 6.94081 13.8845 6.91279 13.8545 6.89198C13.8246 6.87116 13.7899 6.8582 13.7538 6.85429C13.7176 6.85037 13.681 6.85562 13.6473 6.86955L8.35882 9.03783C8.31912 9.05389 8.28499 9.08134 8.26066 9.11676C8.23634 9.15219 8.22289 9.19402 8.22198 9.23707Z" fill="white"/>
<path d="M16.7349 48.6836V10.7695C16.7348 10.7263 16.7474 10.684 16.7713 10.648C16.7951 10.612 16.8291 10.5839 16.8688 10.5674L21.5154 8.5617C21.5444 8.54929 21.5758 8.54329 21.6074 8.5441C21.6389 8.54491 21.67 8.5525 21.6984 8.56638C21.7268 8.58026 21.7519 8.6001 21.772 8.62456C21.7922 8.64902 21.8069 8.67754 21.8152 8.7082L27.8418 32.3571V7.70611C27.8419 7.66251 27.8548 7.61993 27.8789 7.5837C27.903 7.54747 27.9372 7.51921 27.9772 7.50246L32.2918 5.70192C32.3251 5.68826 32.3612 5.68303 32.397 5.68667C32.4327 5.69032 32.4671 5.70274 32.4969 5.72284C32.5268 5.74294 32.5514 5.7701 32.5684 5.80196C32.5854 5.83381 32.5944 5.86939 32.5946 5.90556L32.6776 43.1032C32.6778 43.1488 32.6638 43.1933 32.6378 43.2306C32.6117 43.2679 32.5747 43.2961 32.532 43.3113L27.6918 45.1587C27.6639 45.17 27.634 45.1755 27.6039 45.1747C27.5738 45.1739 27.5442 45.1669 27.5169 45.1541C27.4896 45.1414 27.4652 45.1231 27.4452 45.1004C27.4252 45.0778 27.4101 45.0512 27.4007 45.0224L20.8996 25.5373L21.9069 50.1604C21.909 50.1966 21.9022 50.2328 21.887 50.2656C21.8718 50.2985 21.8488 50.3271 21.82 50.3489C21.7911 50.3707 21.7574 50.3849 21.7218 50.3903C21.6862 50.3958 21.6497 50.3923 21.6158 50.3801L16.8892 48.8931C16.8445 48.8796 16.8053 48.8518 16.7775 48.8141C16.7497 48.7764 16.7348 48.7306 16.7349 48.6836Z" fill="white"/>
<path d="M44.1935 21.6828L47.8255 22.7377C47.8572 22.747 47.8906 22.749 47.9232 22.7434C47.9558 22.7379 47.9867 22.725 48.0137 22.7056C48.0406 22.6863 48.0628 22.6611 48.0786 22.6319C48.0944 22.6026 48.1034 22.5702 48.1049 22.5369L48.7367 9.54047C48.7396 9.48367 48.7207 9.42793 48.6838 9.38482C48.6469 9.34172 48.595 9.31456 48.5387 9.30899L35.8102 8.10178C35.7798 8.09893 35.7491 8.10249 35.7201 8.11223C35.6912 8.12198 35.6645 8.13769 35.6419 8.15836C35.6193 8.17904 35.6013 8.20423 35.5889 8.23232C35.5765 8.26042 35.5701 8.2908 35.57 8.32154V27.2793C35.57 27.3218 35.5823 27.3634 35.6052 27.399C35.6282 27.4346 35.661 27.4628 35.6996 27.48L43.3754 30.9698L43.208 38.6555L38.1 37.312L38.2456 33.078C38.2474 33.031 38.2342 32.9846 38.208 32.9456C38.1819 32.9066 38.144 32.877 38.1 32.8612L35.1886 31.9074C35.1554 31.8959 35.1199 31.8927 35.0851 31.8978C35.0504 31.903 35.0173 31.9165 34.9888 31.9371C34.9603 31.9578 34.9371 31.985 34.9212 32.0166C34.9053 32.0481 34.8972 32.083 34.8975 32.1184V40.6435C34.8978 40.6888 34.9119 40.7329 34.938 40.7699C34.964 40.8068 35.0007 40.8348 35.043 40.8501L46.7017 45.3039C46.7339 45.3154 46.7683 45.3191 46.8022 45.3148C46.8361 45.3104 46.8685 45.2981 46.8968 45.2789C46.9251 45.2597 46.9486 45.234 46.9652 45.204C46.9819 45.174 46.9913 45.1404 46.9928 45.1061L47.6493 27.25L39.0607 22.9706L39.5309 13.751L43.9853 13.7217L43.9577 21.4499C43.965 21.5905 43.9519 21.6052 44.1935 21.6828Z" fill="white"/>
<path d="M51.1489 9.57422V15.4974L54.925 16.5112L53.6673 43.625L59.0169 45.3142L59.5206 16.9332L65.8368 19.1293V11.5271L51.1489 9.57422Z" fill="white"/>
<path d="M68.4846 10.689L66.7349 46.3894L73.0598 45.8401L72.38 10.1001L68.4846 10.689Z" fill="white"/>
<path d="M75.8198 9.49508L76.175 49.6917L82.2962 48.4699L81.7984 28.5994L87.1393 49.469L92.1978 47.5161L92.7131 6.354L87.2193 8.70102L87.2412 30.9141L80.4824 7.5993L75.8198 9.49508Z" fill="white"/>
<path d="M95.8325 10.0811L95.3521 45.8137C95.3503 45.9495 95.3983 46.0812 95.487 46.1837C95.5756 46.2861 95.6986 46.3521 95.8325 46.369L107.011 47.6875C107.087 47.6963 107.164 47.689 107.237 47.6661C107.31 47.6431 107.377 47.605 107.435 47.5542C107.493 47.5035 107.539 47.4411 107.571 47.3712C107.603 47.3013 107.621 47.2254 107.622 47.1484L107.787 36.4799L103.679 34.1358L103.43 41.1578L100.045 40.5337L100.007 17.903L104.204 18.5813L103.587 28.3327L107.939 30.2285L108.948 12.138C108.956 12.0032 108.914 11.8702 108.831 11.7642C108.748 11.6582 108.629 11.5863 108.497 11.5623L96.473 9.54342C96.3948 9.53008 96.3148 9.53394 96.2382 9.55472C96.1617 9.57551 96.0906 9.61273 96.0297 9.66382C95.9688 9.71491 95.9197 9.77867 95.8856 9.8507C95.8516 9.92273 95.8335 10.0013 95.8325 10.0811Z" fill="white"/>
<path d="M106.015 3.74618L106.183 9.03062L111.574 9.52581L111.052 44.1318L116.969 45.3141L116.825 10.0986L122.983 10.8165L123.798 3.14697L106.015 3.74618Z" fill="white"/>
<path d="M125.255 5.08087L124.019 28.5686L134.912 26.393L134.945 40.3564L127.716 40.4209L128.204 32.87L123.306 33.749L123.702 47.1381C123.704 47.2136 123.721 47.2879 123.753 47.3563C123.785 47.4246 123.831 47.4857 123.887 47.5355C123.944 47.5854 124.01 47.6231 124.081 47.6462C124.153 47.6693 124.228 47.6774 124.303 47.6699L139.745 46.1492C139.851 46.1392 139.95 46.0905 140.023 46.0123C140.096 45.934 140.138 45.8316 140.141 45.7244L141.001 19.2875L129.297 20.5269L130.241 9.83203L135.178 10.2364L134.711 14.5554L140.624 13.3833L140.464 2.48919C140.463 2.45747 140.456 2.42621 140.443 2.39756C140.429 2.36891 140.41 2.34355 140.385 2.32323C140.361 2.30291 140.333 2.2881 140.303 2.27982C140.272 2.27155 140.24 2.27 140.209 2.27529L125.529 4.77321C125.455 4.78519 125.387 4.82229 125.338 4.87829C125.288 4.93429 125.259 5.0058 125.255 5.08087Z" fill="white"/>
<path d="M158.427 39.1505L158.667 32.7629C158.67 32.6999 158.685 32.6382 158.713 32.5818C158.741 32.5255 158.78 32.4758 158.829 32.4362L168.658 24.4077C168.709 24.3663 168.749 24.314 168.777 24.2547C168.805 24.1954 168.82 24.1305 168.819 24.0649V1.41222C168.82 1.37882 168.812 1.34584 168.798 1.31579C168.783 1.28574 168.762 1.25941 168.736 1.23879C168.71 1.21817 168.679 1.20381 168.647 1.19679C168.614 1.18978 168.581 1.1903 168.549 1.19832L152.536 5.1437C152.489 5.15574 152.447 5.1833 152.417 5.22203C152.387 5.26077 152.37 5.30846 152.37 5.3576V17.3491L157.238 17.8545L156.734 10.056L163.615 8.21445L163.813 20.6308C163.815 20.7053 163.797 20.7789 163.763 20.8448C163.728 20.9106 163.677 20.9666 163.615 21.0073L153.415 27.7114C153.352 27.7524 153.301 27.8092 153.266 27.8762C153.231 27.9432 153.214 28.0181 153.216 28.0937L153.784 47.3299L171.191 42.4395L170.665 35.2608L158.427 39.1505Z" fill="white"/>
<path d="M191.237 23.0308L186.291 23.819L187.396 15.8051L181.155 16.1597L180.272 24.0944L176.578 24.6072L179.484 2.95662L173.274 2.39404L170.023 30.5626L178.96 29.7788L176.622 45.1355H182.992L184.668 29.5576L191.63 28.9804L191.237 23.0308Z" fill="white"/>
<path d="M144.622 3.125V13.083L148.108 9.18299V4.22818L144.622 3.125Z" fill="white"/>
</g>
</g>
<defs>
<clipPath id="clip0_196_3904">
<rect width="199" height="72" rx="20" fill="white"/>
</clipPath>
<clipPath id="clip1_196_3904">
<rect width="186.631" height="72" fill="white" transform="translate(6.0166)"/>
</clipPath>
</defs>
</svg>
