<svg width="140" height="83" viewBox="0 0 140 83" fill="none" xmlns="http://www.w3.org/2000/svg">
<path d="M54.2168 9.35C53.7501 9.45 53.3835 9.63333 53.1168 9.9C53.0501 9.96667 52.9835 10.0833 52.9168 10.25C52.8835 10.3833 52.8501 10.4833 52.8168 10.55C52.7501 10.65 52.6835 11.2333 52.6168 12.3C52.5835 13.3667 52.5501 14.6333 52.5168 16.1C52.4835 17.5667 52.4668 19.1 52.4668 20.7C52.4668 22.2667 52.5168 23.6333 52.6168 24.8C52.7168 25.7667 52.9668 26.7167 53.3668 27.65C53.8001 28.55 54.5001 29.1333 55.4668 29.4C56.2001 29.4667 56.8835 29.3667 57.5168 29.1C58.1835 28.8 58.6835 28.3167 59.0168 27.65C59.3835 26.8833 59.5335 26.0833 59.4668 25.25C59.4335 24.3833 59.5001 23.5333 59.6668 22.7C60.1335 22.7667 60.6501 22.7833 61.2168 22.75C61.8168 22.7167 62.4168 22.7 63.0168 22.7C63.6168 22.7 64.2001 22.7167 64.7668 22.75C65.3668 22.7833 65.9001 22.8667 66.3668 23C66.9335 24.7333 67.0835 26.4667 66.8168 28.2C66.5501 29.9 65.9668 31.4333 65.0668 32.8C64.1668 34.1667 62.9835 35.3 61.5168 36.2C60.0835 37.0667 58.4501 37.5167 56.6168 37.55C55.4168 37.7167 54.1835 37.7167 52.9168 37.55C51.6501 37.4167 50.4668 37.1 49.3668 36.6C48.2668 36.0667 47.3335 35.3333 46.5668 34.4C45.8335 33.4667 45.4001 32.3 45.2668 30.9C45.2001 29.7 45.1501 28.45 45.1168 27.15C45.0835 25.85 45.0501 24.4 45.0168 22.8C45.0168 21.1667 45.0168 19.3333 45.0168 17.3C45.0501 15.2333 45.0835 12.85 45.1168 10.15C45.0501 9.58333 45.0668 9.01667 45.1668 8.45C45.3001 7.85 45.4668 7.3 45.6668 6.8C45.9668 5.93333 46.3335 5.13333 46.7668 4.4C47.2335 3.66667 47.7835 3.01667 48.4168 2.45C48.7835 2.18333 49.1835 1.96666 49.6168 1.8C50.0501 1.6 50.5001 1.43333 50.9668 1.3C52.5001 0.799998 54.0168 0.599999 55.5168 0.699999C57.0168 0.799998 58.4168 1.15 59.7168 1.75C61.0501 2.31667 62.2501 3.08333 63.3168 4.05C64.3835 5.01666 65.2335 6.13333 65.8668 7.4C66.5001 8.63333 66.8835 9.98333 67.0168 11.45C67.1501 12.9167 66.9501 14.4167 66.4168 15.95C65.1835 16.2167 63.9668 16.3167 62.7668 16.25C61.6001 16.15 60.3835 15.9833 59.1168 15.75C59.0168 15.1167 58.9501 14.4 58.9168 13.6C58.9168 12.8 58.8335 12.0667 58.6668 11.4C58.5001 10.7 58.1835 10.1333 57.7168 9.7C57.2835 9.26667 56.5835 9.06667 55.6168 9.1C55.1835 9.16666 54.7168 9.25 54.2168 9.35ZM90.6809 31.55C90.6809 31.8833 90.6975 32.1833 90.7309 32.45C90.7975 33.65 90.8309 34.5667 90.8309 35.2C90.8309 35.8 90.7809 36.25 90.6809 36.55C90.6142 36.8167 90.4809 36.9667 90.2809 37C90.0809 37 89.7975 37 89.4309 37C89.0642 36.9667 88.5809 36.9667 87.9809 37C87.4142 37.0333 86.4309 37.0667 85.0309 37.1C83.6642 37.1333 81.7642 37.15 79.3309 37.15C76.9309 37.15 73.7142 37.1167 69.6809 37.05V36.15C69.7809 33.65 69.8642 31.4 69.9309 29.4C69.9975 27.3667 70.0309 25.4833 70.0309 23.75C70.0642 21.9833 70.0809 20.2833 70.0809 18.65C70.0809 17.0167 70.0642 15.35 70.0309 13.65C69.9975 11.95 69.9642 10.15 69.9309 8.25C69.8975 6.31667 69.8642 4.18333 69.8309 1.85C70.1642 1.71667 70.6809 1.61667 71.3809 1.55C72.0809 1.45 72.8309 1.4 73.6309 1.4C74.4309 1.4 75.2142 1.45 75.9809 1.55C76.7475 1.65 77.3642 1.8 77.8309 2C77.7642 4.16666 77.7309 6.4 77.7309 8.7C77.7642 10.9667 77.7975 13.25 77.8309 15.55C77.8642 17.85 77.8809 20.15 77.8809 22.45C77.9142 24.7167 77.9142 26.9167 77.8809 29.05V29.1C78.1142 29.0333 78.5475 29.0167 79.1809 29.05C79.8475 29.05 80.6142 29.0667 81.4809 29.1C82.3475 29.1333 83.2642 29.1833 84.2309 29.25C85.2309 29.2833 86.1642 29.3167 87.0309 29.35C87.9309 29.3833 88.7142 29.4167 89.3809 29.45C90.0809 29.45 90.5642 29.4333 90.8309 29.4C90.8309 29.7667 90.8142 30.1333 90.7809 30.5C90.7475 30.8333 90.7142 31.1833 90.6809 31.55ZM112.828 3.1C113.461 3.16666 113.978 3.31666 114.378 3.55C114.578 7.81667 114.644 12.1333 114.578 16.5C114.511 20.8333 114.244 25.15 113.778 29.45C113.511 31.65 112.678 33.5167 111.278 35.05C109.878 36.5833 107.978 37.4667 105.578 37.7C104.178 37.8333 102.728 37.7667 101.228 37.5C99.7277 37.2667 98.3611 36.8333 97.1277 36.2C95.9277 35.5333 94.9111 34.6667 94.0777 33.6C93.2777 32.5 92.8444 31.1833 92.7777 29.65C92.7777 25.25 92.8277 20.8167 92.9277 16.35C93.0277 11.8833 93.0444 7.45 92.9777 3.05L92.9277 3H92.9777C93.4777 3 94.0277 2.98333 94.6277 2.95C95.2611 2.91666 95.8944 2.9 96.5277 2.9C97.1611 2.9 97.7777 2.93333 98.3777 3C98.9777 3.03333 99.5277 3.11667 100.028 3.25V3.3C99.6611 11.3667 99.8111 19.55 100.478 27.85C100.711 28.65 101.128 29.2333 101.728 29.6C102.361 29.9667 103.011 30.1333 103.678 30.1C104.344 30.0667 104.961 29.8333 105.528 29.4C106.094 28.9667 106.461 28.3667 106.628 27.6C106.794 23.6 106.878 19.5333 106.878 15.4C106.911 11.2667 106.978 7.26666 107.078 3.4C107.511 3.36666 108.061 3.31667 108.728 3.25C109.428 3.15 110.128 3.08333 110.828 3.05C111.528 3.01667 112.194 3.03333 112.828 3.1ZM135.572 19.95C135.639 20.0833 135.755 20.25 135.922 20.45C136.455 21.1167 136.955 21.7833 137.422 22.45C137.922 23.0833 138.339 23.7667 138.672 24.5C139.039 25.2 139.289 25.9833 139.422 26.85C139.555 27.7167 139.522 28.6833 139.322 29.75C139.055 31.3167 138.539 32.6 137.772 33.6C137.039 34.5667 136.139 35.3167 135.072 35.85C134.005 36.3833 132.822 36.75 131.522 36.95C130.222 37.1167 128.872 37.2 127.472 37.2C126.105 37.2333 124.722 37.2 123.322 37.1C121.955 37 120.672 36.9333 119.472 36.9C119.272 36.9 119.072 36.9 118.872 36.9C118.705 36.9 118.539 36.8667 118.372 36.8C118.172 31.0333 118.122 25.3167 118.222 19.65C118.322 13.95 118.322 8.2 118.222 2.4L118.272 2.35C119.605 1.98333 121.022 1.7 122.522 1.5C124.022 1.3 125.505 1.23333 126.972 1.3C128.439 1.36667 129.839 1.58333 131.172 1.95C132.539 2.31666 133.739 2.91666 134.772 3.75C135.805 4.55 136.622 5.6 137.222 6.9C137.822 8.16667 138.122 9.73333 138.122 11.6C138.122 13 137.872 14.3667 137.372 15.7C136.905 17.0333 136.339 18.2667 135.672 19.4C135.539 19.6333 135.505 19.8167 135.572 19.95ZM130.022 29.65C130.489 29.45 130.889 29.15 131.222 28.75C131.589 28.25 131.755 27.65 131.722 26.95C131.722 26.25 131.605 25.6167 131.372 25.05C131.172 24.65 130.872 24.3 130.472 24C130.072 23.6667 129.655 23.45 129.222 23.35C128.589 23.1833 127.939 23.1 127.272 23.1C126.605 23.0667 125.955 23.0167 125.322 22.95C125.189 23.45 125.072 24.0167 124.972 24.65C124.872 25.2833 124.805 25.9333 124.772 26.6C124.772 27.2333 124.822 27.85 124.922 28.45C125.022 29.05 125.205 29.55 125.472 29.95L125.572 30C126.039 30 126.522 30.0167 127.022 30.05C127.555 30.05 128.072 30.0333 128.572 30C129.105 29.9333 129.589 29.8167 130.022 29.65ZM130.072 15.65C130.539 15.3833 130.905 15 131.172 14.5C131.405 14.1 131.605 13.6333 131.772 13.1C131.939 12.5667 131.889 12.0333 131.622 11.5C131.355 10.9667 131.005 10.5667 130.572 10.3C130.172 10 129.705 9.78333 129.172 9.65C128.505 9.51667 127.789 9.45 127.022 9.45C126.289 9.41667 125.672 9.53333 125.172 9.8C125.239 10.5667 125.205 11.5 125.072 12.6C124.972 13.7 125.072 14.8333 125.372 16C125.872 16.0667 126.405 16.1167 126.972 16.15C127.539 16.1833 128.089 16.1667 128.622 16.1C129.155 16.0333 129.639 15.8833 130.072 15.65ZM15.0461 75.15C17.1794 75.25 19.3794 75.2667 21.6461 75.2V75.3C21.7128 76.3667 21.7294 77.4833 21.6961 78.65C21.6628 79.7833 21.5128 80.85 21.2461 81.85C17.8461 81.8167 14.3794 81.8667 10.8461 82C7.34609 82.1 3.97943 82.0167 0.746094 81.75C0.746094 78.85 0.712761 75.9833 0.646094 73.15C0.579427 70.2833 0.529427 67.4333 0.496094 64.6C0.46276 61.7667 0.46276 58.9333 0.496094 56.1C0.529427 53.2667 0.629427 50.4167 0.796094 47.55C2.09609 47.4833 3.49609 47.4333 4.99609 47.4C6.52943 47.3333 8.06276 47.2833 9.59609 47.25C11.1294 47.2167 12.6128 47.1833 14.0461 47.15C15.4794 47.1167 16.7461 47.1 17.8461 47.1C18.9461 47.1 19.8294 47.1167 20.4961 47.15C21.1628 47.1833 21.4961 47.2167 21.4961 47.25C21.6628 48.4167 21.6961 49.6 21.5961 50.8C21.5294 52 21.4961 53.1833 21.4961 54.35V54.4C20.4294 54.6333 19.3461 54.7833 18.2461 54.85C17.1794 54.8833 16.0961 54.9 14.9961 54.9C13.8961 54.8667 12.7961 54.85 11.6961 54.85C10.5961 54.85 9.49609 54.9 8.39609 55H8.24609L8.19609 55.05C8.22943 56.0167 8.17943 57.0167 8.04609 58.05C7.94609 59.05 8.01276 60 8.24609 60.9L8.29609 60.95C9.29609 61.0167 10.3128 61.05 11.3461 61.05C12.3794 61.05 13.4128 61.0667 14.4461 61.1V61.15C14.6128 62.2833 14.6628 63.4167 14.5961 64.55C14.5294 65.6833 14.5128 66.8667 14.5461 68.1C14.0461 68.2333 13.4794 68.3167 12.8461 68.35C12.2128 68.35 11.5961 68.35 10.9961 68.35C10.4294 68.35 9.91276 68.3667 9.44609 68.4C8.97943 68.4333 8.66276 68.5167 8.49609 68.65C8.32943 69.6167 8.26276 70.7 8.29609 71.9C8.36276 73.1 8.42943 74.1 8.49609 74.9L8.54609 74.95C10.7461 74.95 12.9128 75.0167 15.0461 75.15ZM43.0184 47.65C43.6517 47.65 44.2517 47.7 44.8184 47.8C44.2517 50.7667 43.635 53.6667 42.9684 56.5C42.335 59.3333 41.6684 62.15 40.9684 64.95C40.2684 67.75 39.5517 70.5667 38.8184 73.4C38.085 76.2 37.3184 79.05 36.5184 81.95C36.2517 81.95 35.835 81.9833 35.2684 82.05C34.7017 82.1167 34.0684 82.15 33.3684 82.15C32.635 82.15 31.885 82.1167 31.1184 82.05C30.385 82.0167 29.7517 81.9167 29.2184 81.75C27.7184 76.35 26.485 70.8167 25.5184 65.15C24.5517 59.45 23.835 53.7167 23.3684 47.95V47.9C23.5684 47.6667 24.0017 47.5 24.6684 47.4C25.335 47.3 26.0517 47.25 26.8184 47.25C27.585 47.2167 28.3184 47.2167 29.0184 47.25C29.7184 47.2833 30.2017 47.3333 30.4684 47.4C30.6017 48.0667 30.685 49.15 30.7184 50.65C30.7517 52.15 30.835 53.95 30.9684 56.05C31.1017 58.15 31.3184 60.4667 31.6184 63C31.9517 65.5333 32.4517 68.15 33.1184 70.85C33.7517 68.15 34.2684 65.6833 34.6684 63.45C35.0684 61.1833 35.4184 59.1 35.7184 57.2C36.0184 55.3 36.3017 53.55 36.5684 51.95C36.835 50.35 37.1517 48.85 37.5184 47.45C37.5184 47.3833 37.5517 47.35 37.6184 47.35C38.185 47.4833 38.7684 47.5667 39.3684 47.6C39.9684 47.6 40.5684 47.6 41.1684 47.6C41.8017 47.6 42.4184 47.6167 43.0184 47.65ZM61.1398 75.15C63.2732 75.25 65.4732 75.2667 67.7398 75.2V75.3C67.8065 76.3667 67.8232 77.4833 67.7898 78.65C67.7565 79.7833 67.6065 80.85 67.3398 81.85C63.9398 81.8167 60.4732 81.8667 56.9398 82C53.4398 82.1 50.0732 82.0167 46.8398 81.75C46.8398 78.85 46.8065 75.9833 46.7398 73.15C46.6732 70.2833 46.6232 67.4333 46.5898 64.6C46.5565 61.7667 46.5565 58.9333 46.5898 56.1C46.6232 53.2667 46.7232 50.4167 46.8898 47.55C48.1898 47.4833 49.5898 47.4333 51.0898 47.4C52.6232 47.3333 54.1565 47.2833 55.6898 47.25C57.2232 47.2167 58.7065 47.1833 60.1398 47.15C61.5732 47.1167 62.8398 47.1 63.9398 47.1C65.0398 47.1 65.9232 47.1167 66.5898 47.15C67.2565 47.1833 67.5898 47.2167 67.5898 47.25C67.7565 48.4167 67.7898 49.6 67.6898 50.8C67.6232 52 67.5898 53.1833 67.5898 54.35V54.4C66.5232 54.6333 65.4398 54.7833 64.3398 54.85C63.2732 54.8833 62.1898 54.9 61.0898 54.9C59.9898 54.8667 58.8898 54.85 57.7898 54.85C56.6898 54.85 55.5898 54.9 54.4898 55H54.3398L54.2898 55.05C54.3232 56.0167 54.2732 57.0167 54.1398 58.05C54.0398 59.05 54.1065 60 54.3398 60.9L54.3898 60.95C55.3898 61.0167 56.4065 61.05 57.4398 61.05C58.4732 61.05 59.5065 61.0667 60.5398 61.1V61.15C60.7065 62.2833 60.7565 63.4167 60.6898 64.55C60.6232 65.6833 60.6065 66.8667 60.6398 68.1C60.1398 68.2333 59.5732 68.3167 58.9398 68.35C58.3065 68.35 57.6898 68.35 57.0898 68.35C56.5232 68.35 56.0065 68.3667 55.5398 68.4C55.0732 68.4333 54.7565 68.5167 54.5898 68.65C54.4232 69.6167 54.3565 70.7 54.3898 71.9C54.4565 73.1 54.5232 74.1 54.5898 74.9L54.6398 74.95C56.8398 74.95 59.0065 75.0167 61.1398 75.15ZM91.0621 82.15C90.8288 82.2167 90.4288 82.25 89.8621 82.25C89.1954 82.25 88.4288 82.2 87.5621 82.1C86.6954 82.0333 85.9288 82 85.2621 82C84.1621 79.5333 83.0621 77.15 81.9621 74.85C80.8954 72.5167 79.9788 70.2833 79.2121 68.15L78.7121 66.65C78.5788 66.2833 78.4454 65.95 78.3121 65.65C78.2121 65.3167 78.1288 65.15 78.0621 65.15C78.0288 65.15 77.9788 65.55 77.9121 66.35C77.8788 67.15 77.8454 68.1667 77.8121 69.4C77.7788 70.6333 77.7454 72 77.7121 73.5C77.7121 75 77.7121 76.45 77.7121 77.85C77.7121 78.6167 77.7121 79.3667 77.7121 80.1C77.7121 80.8 77.7288 81.4333 77.7621 82C77.3954 82.1 77.0288 82.1667 76.6621 82.2C76.2954 82.2333 75.9288 82.25 75.5621 82.25C74.7621 82.25 73.9454 82.2 73.1121 82.1C72.3121 82 71.5288 81.95 70.7621 81.95V78.45C70.7621 75.2833 70.7288 72.2667 70.6621 69.4C70.6288 66.5333 70.6121 63.5333 70.6121 60.4C70.6121 58.1 70.6454 55.8333 70.7121 53.6C70.7788 51.3333 70.8954 49.1333 71.0621 47C71.3954 46.9333 71.7454 46.8833 72.1121 46.85C72.5121 46.8167 72.9121 46.8 73.3121 46.8C73.5121 46.8 73.8454 46.8167 74.3121 46.85C74.7788 46.85 75.2454 46.8833 75.7121 46.95C76.1788 46.9833 76.5788 47.0333 76.9121 47.1C77.2788 47.1667 77.4621 47.2333 77.4621 47.3C77.6954 47.9 77.9121 48.4 78.1121 48.8C78.3121 49.2 78.4954 49.5833 78.6621 49.95C78.8621 50.3167 79.0621 50.7333 79.2621 51.2C79.4954 51.6333 79.7621 52.2 80.0621 52.9C80.1288 53.0667 80.2788 53.3833 80.5121 53.85C80.7454 54.3167 81.0121 54.8667 81.3121 55.5C81.6121 56.1 81.9288 56.75 82.2621 57.45C82.5954 58.1167 82.8954 58.7333 83.1621 59.3C83.4621 59.8333 83.7121 60.3 83.9121 60.7C84.1121 61.0667 84.2288 61.25 84.2621 61.25C84.3621 61.1833 84.4454 60.85 84.5121 60.25C84.5788 59.65 84.6121 59.0667 84.6121 58.5C84.6121 57.1667 84.5788 55.9333 84.5121 54.8C84.4788 53.6333 84.4621 52.45 84.4621 51.25C84.4621 50.55 84.4621 49.85 84.4621 49.15C84.4954 48.4167 84.5288 47.6333 84.5621 46.8C85.6954 46.6 86.8954 46.5 88.1621 46.5C89.3954 46.5 90.4954 46.6 91.4621 46.8V62.9C91.4954 64.3 91.5121 65.7167 91.5121 67.15C91.5121 68.5833 91.5121 70.0167 91.5121 71.45C91.5121 72.4167 91.4954 73.35 91.4621 74.25C91.4621 75.15 91.4621 76.0667 91.4621 77C91.4621 77.6667 91.4621 78.3333 91.4621 79C91.4954 79.6667 91.5121 80.3333 91.5121 81V82C91.4454 82.0333 91.2954 82.0833 91.0621 82.15ZM104.564 46.75C108.198 46.7167 111.731 46.8833 115.164 47.25C115.231 48.35 115.248 49.6167 115.214 51.05C115.214 52.4833 115.131 53.8 114.964 55C114.331 54.8667 113.548 54.8167 112.614 54.85C111.681 54.8833 110.431 54.9333 108.864 55H108.764H108.714C108.714 55.0333 108.698 55.0667 108.664 55.1C108.664 55.1 108.664 55.1167 108.664 55.15C108.631 55.3167 108.598 55.5833 108.564 55.95C108.564 56.2833 108.564 56.8333 108.564 57.6C108.564 58.3333 108.564 59.3167 108.564 60.55C108.598 61.75 108.631 63.3167 108.664 65.25C108.698 67.15 108.731 69.45 108.764 72.15C108.798 74.8167 108.848 77.9667 108.914 81.6V81.65V81.7C108.314 81.8 107.648 81.8667 106.914 81.9C106.214 81.9 105.498 81.9 104.764 81.9C104.064 81.9 103.364 81.9 102.664 81.9C101.964 81.9 101.314 81.95 100.714 82.05C100.681 81.9167 100.681 81.3167 100.714 80.25C100.748 79.1833 100.764 77.6 100.764 75.5C100.798 73.3667 100.781 70.65 100.714 67.35C100.681 64.05 100.564 60.0667 100.364 55.4L100.314 55.35C99.9145 55.15 99.4145 55.0333 98.8145 55C98.2145 54.9333 97.6145 54.9 97.0145 54.9C96.4145 54.8667 95.8645 54.85 95.3645 54.85C94.8645 54.85 94.5145 54.8167 94.3145 54.75C94.2478 54.6167 94.1811 54.2833 94.1145 53.75C94.0811 53.2167 94.0478 52.5833 94.0145 51.85C94.0145 51.0833 94.0145 50.2667 94.0145 49.4C94.0145 48.5333 94.0478 47.7 94.1145 46.9C94.1145 46.8667 94.0978 46.85 94.0645 46.85C94.0645 46.85 94.0645 46.8333 94.0645 46.8C97.4645 46.7667 100.964 46.75 104.564 46.75ZM138.282 52.1C139.149 53.7333 139.349 55.8 138.882 58.3H138.832C137.666 58.5 136.416 58.6333 135.082 58.7C133.749 58.7333 132.499 58.5833 131.332 58.25C131.532 57.35 131.349 56.6 130.782 56C130.216 55.4 129.532 55.0167 128.732 54.85C127.932 54.6833 127.149 54.7667 126.382 55.1C125.649 55.4333 125.216 56.0667 125.082 57C125.016 57.2333 124.982 57.4667 124.982 57.7C125.016 57.9 125.049 58.1167 125.082 58.35C125.349 59.15 125.782 59.6833 126.382 59.95C126.982 60.2167 127.632 60.4 128.332 60.5C130.099 60.7 131.732 61.2667 133.232 62.2C134.766 63.1333 136.016 64.3167 136.982 65.75C137.582 66.5167 138.032 67.35 138.332 68.25C138.632 69.1167 138.799 70.0167 138.832 70.95C138.899 71.8833 138.832 72.8333 138.632 73.8C138.466 74.7333 138.182 75.6333 137.782 76.5C137.382 77.5333 136.849 78.4167 136.182 79.15C135.516 79.8833 134.749 80.4833 133.882 80.95C133.049 81.4167 132.132 81.7667 131.132 82C130.166 82.2 129.166 82.2833 128.132 82.25C126.666 82.2167 125.199 81.9667 123.732 81.5C122.299 81 121.016 80.3167 119.882 79.45C118.749 78.5833 117.849 77.5333 117.182 76.3C116.516 75.0333 116.232 73.6 116.332 72V71.85V71.7C117.499 71.5333 118.782 71.5 120.182 71.6C121.582 71.6667 122.849 71.6833 123.982 71.65C124.049 72.7167 124.466 73.5167 125.232 74.05C126.032 74.5833 126.866 74.85 127.732 74.85C128.632 74.8167 129.399 74.5167 130.032 73.95C130.699 73.3833 130.932 72.5167 130.732 71.35C130.632 70.55 130.332 69.9167 129.832 69.45C129.332 68.95 128.732 68.55 128.032 68.25C127.366 67.95 126.632 67.7333 125.832 67.6C125.032 67.4333 124.282 67.2833 123.582 67.15C122.916 67.0167 122.299 66.8 121.732 66.5C121.166 66.2 120.649 65.85 120.182 65.45C118.649 63.9833 117.649 62.3667 117.182 60.6C116.749 58.8333 116.732 57.1167 117.132 55.45C117.532 53.7833 118.282 52.2667 119.382 50.9C120.516 49.5333 121.882 48.5167 123.482 47.85C124.282 47.5167 125.166 47.3 126.132 47.2C127.099 47.0667 128.066 47.0333 129.032 47.1C130.032 47.1333 130.999 47.2667 131.932 47.5C132.899 47.7333 133.782 48.0333 134.582 48.4C136.182 49.2333 137.416 50.4667 138.282 52.1Z" fill="#DB2525"/>
</svg>
