<svg width="288" height="398" viewBox="0 0 288 398" fill="none" xmlns="http://www.w3.org/2000/svg">
<rect x="93.7781" y="215.312" width="10.1253" height="145.405" fill="#FC6655"/>
<rect width="10.1449" height="153.391" transform="matrix(-0.918728 0.394892 -0.386598 -0.922248 168.614 357.646)" fill="#FC6655"/>
<rect width="10.1433" height="153.414" transform="matrix(0.925538 0.378655 0.370588 -0.928797 31.4544 358.306)" fill="#FC6655"/>
<rect x="15.5372" y="356.058" width="169.368" height="8.38874" fill="#DB2525"/>
<rect x="22.9011" y="362.582" width="152.8" height="35.4191" fill="#DB2525"/>
<rect x="22.9011" y="364.446" width="152.8" height="9.32084" fill="#AD1212"/>
<rect x="29.3446" y="378.427" width="4.60241" height="9.3208" fill="#AD1212"/>
<rect x="56.9594" y="378.427" width="4.6024" height="9.3208" fill="#AD1212"/>
<rect x="84.573" y="378.427" width="4.6024" height="9.3208" fill="#AD1212"/>
<rect x="112.188" y="378.427" width="4.60239" height="9.3208" fill="#AD1212"/>
<rect x="139.802" y="378.427" width="4.60239" height="9.3208" fill="#AD1212"/>
<rect x="167.417" y="378.427" width="4.60241" height="9.3208" fill="#AD1212"/>
<rect x="38.5499" y="378.427" width="4.6024" height="9.3208" fill="#AD1212"/>
<rect x="66.1636" y="378.427" width="4.6024" height="9.3208" fill="#AD1212"/>
<rect x="93.7784" y="378.427" width="4.60239" height="9.3208" fill="#AD1212"/>
<rect x="121.393" y="378.427" width="4.60241" height="9.3208" fill="#AD1212"/>
<rect x="149.007" y="378.427" width="4.60241" height="9.3208" fill="#AD1212"/>
<rect x="47.7539" y="378.427" width="4.6024" height="9.3208" fill="#AD1212"/>
<rect x="75.369" y="378.427" width="4.6024" height="9.3208" fill="#AD1212"/>
<rect x="102.983" y="378.427" width="4.60241" height="9.3208" fill="#AD1212"/>
<rect x="130.598" y="378.427" width="4.60241" height="9.3208" fill="#AD1212"/>
<rect x="158.212" y="378.427" width="4.60239" height="9.3208" fill="#AD1212"/>
<rect x="96.5406" y="25.166" width="4.60243" height="346.736" fill="#DB2525"/>
<rect x="96.5414" y="69.7783" width="4.60241" height="8.22109" fill="#AD1212"/>
<rect width="4.65113" height="346.308" transform="matrix(0.925507 0.378734 -0.370511 0.928829 161.462 38.8105)" fill="#DB2525"/>
<rect width="4.62884" height="7.09951" transform="matrix(0.925058 0.379856 -0.369414 0.929277 147.012 75.083)" fill="#AD1212"/>
<rect width="4.63148" height="360.024" transform="matrix(0.702332 0.711849 -0.702997 0.711193 222.628 74.6152)" fill="#DB2525"/>
<rect width="4.63149" height="5.43008" transform="matrix(0.702332 0.711849 -0.702998 0.711192 193.191 104.396)" fill="#AD1212"/>
<rect width="4.61221" height="347.059" transform="matrix(0.382196 0.924082 -0.920572 0.390575 254.957 134.895)" fill="#DB2525"/>
<rect width="4.63735" height="4.55772" transform="matrix(0.3811 0.924546 -0.920107 0.391697 223.576 148.204)" fill="#AD1212"/>
<rect x="264.987" y="201.333" width="4.66042" height="336.897" transform="rotate(90 264.987 201.333)" fill="#DB2525"/>
<rect width="4.61189" height="351.207" transform="matrix(-0.374325 0.927299 -0.923917 -0.382595 263.469 269.325)" fill="#DB2525"/>
<rect width="4.63144" height="352.309" transform="matrix(-0.701739 0.712434 -0.703589 -0.710607 225.598 328.28)" fill="#DB2525"/>
<rect width="4.63148" height="6.60548" transform="matrix(-0.701739 0.712434 -0.703589 -0.710608 9.01868 109.475)" fill="#AD1212"/>
<rect width="4.65054" height="352.928" transform="matrix(-0.918697 0.394964 -0.386528 -0.922278 167.183 361.031)" fill="#DB2525"/>
<rect width="4.63195" height="9.25641" transform="matrix(-0.918279 0.39596 -0.385555 -0.922696 51.39 85.1621)" fill="#AD1212"/>
<path fill-rule="evenodd" clip-rule="evenodd" d="M99.3013 310.385C157.764 310.385 205.157 262.395 205.157 203.196C205.157 143.996 157.764 96.0059 99.3013 96.0059C40.8388 96.0059 -6.55432 143.996 -6.55432 203.196C-6.55432 262.395 40.8388 310.385 99.3013 310.385ZM99.3011 306.657C155.73 306.657 201.475 260.336 201.475 203.196C201.475 146.056 155.73 99.7343 99.3011 99.7343C42.8722 99.7343 -2.8725 146.056 -2.8725 203.196C-2.8725 260.336 42.8722 306.657 99.3011 306.657Z" fill="#DB2525"/>
<path fill-rule="evenodd" clip-rule="evenodd" d="M99.3013 310.385C157.764 310.385 205.157 262.395 205.157 203.196C205.157 143.996 157.764 96.0059 99.3013 96.0059C40.8388 96.0059 -6.55432 143.996 -6.55432 203.196C-6.55432 262.395 40.8388 310.385 99.3013 310.385ZM99.3011 306.657C155.73 306.657 201.475 260.336 201.475 203.196C201.475 146.056 155.73 99.7343 99.3011 99.7343C42.8722 99.7343 -2.8725 146.056 -2.8725 203.196C-2.8725 260.336 42.8722 306.657 99.3011 306.657Z" fill="#DB2525"/>
<path fill-rule="evenodd" clip-rule="evenodd" d="M99.3001 326.231C166.405 326.231 220.804 271.146 220.804 203.195C220.804 135.245 166.405 80.1602 99.3001 80.1602C32.1954 80.1602 -22.2037 135.245 -22.2037 203.195C-22.2037 271.146 32.1954 326.231 99.3001 326.231ZM99.7596 320.638C163.56 320.638 215.28 268.266 215.28 203.661C215.28 139.057 163.56 86.6846 99.7596 86.6846C35.9593 86.6846 -15.761 139.057 -15.761 203.661C-15.761 268.266 35.9593 320.638 99.7596 320.638Z" fill="#DB2525"/>
<path fill-rule="evenodd" clip-rule="evenodd" d="M98.8397 356.057C181.958 356.057 249.339 287.827 249.339 203.662C249.339 119.496 181.958 51.2656 98.8397 51.2656C15.7214 51.2656 -51.6593 119.496 -51.6593 203.662C-51.6593 287.827 15.7214 356.057 98.8397 356.057ZM98.8396 341.144C173.824 341.144 234.611 279.591 234.611 203.661C234.611 127.732 173.824 66.179 98.8396 66.179C23.8552 66.179 -36.9317 127.732 -36.9317 203.661C-36.9317 279.591 23.8552 341.144 98.8396 341.144Z" fill="#DB2525"/>
<path fill-rule="evenodd" clip-rule="evenodd" d="M99.3009 245.138C122.177 245.138 140.723 226.36 140.723 203.195C140.723 180.03 122.177 161.251 99.3009 161.251C76.4244 161.251 57.8793 180.03 57.8793 203.195C57.8793 226.36 76.4244 245.138 99.3009 245.138ZM99.3011 238.614C118.619 238.614 134.279 222.756 134.279 203.195C134.279 183.633 118.619 167.775 99.3011 167.775C79.9831 167.775 64.3228 183.633 64.3228 203.195C64.3228 222.756 79.9831 238.614 99.3011 238.614Z" fill="#DB2525"/>
<path d="M12.7762 31.6911C12.7762 35.8936 14.4248 39.9239 17.3594 42.8955C20.294 45.8671 24.2742 47.5365 28.4243 47.5365C32.5745 47.5365 36.5547 45.8671 39.4893 42.8955C42.4239 39.9239 44.0725 35.8936 44.0725 31.6911L28.4243 31.6911L12.7762 31.6911Z" fill="#DB2525"/>
<path d="M12.7762 31.6911C12.7762 33.7719 13.1809 35.8324 13.9673 37.7549C14.7537 39.6773 15.9064 41.4241 17.3594 42.8955C18.8125 44.3669 20.5375 45.534 22.4361 46.3303C24.3346 47.1266 26.3694 47.5365 28.4243 47.5365L28.4243 31.6911L12.7762 31.6911Z" fill="#AD1212"/>
<path d="M83.6541 15.8454C83.6541 20.0478 85.3028 24.0782 88.2374 27.0498C91.172 30.0214 95.1521 31.6908 99.3023 31.6908C103.452 31.6908 107.433 30.0214 110.367 27.0498C113.302 24.0782 114.95 20.0479 114.95 15.8454L99.3023 15.8454L83.6541 15.8454Z" fill="#DB2525"/>
<path d="M83.6541 15.8454C83.6541 17.9262 84.0589 19.9867 84.8453 21.9092C85.6317 23.8316 86.7843 25.5784 88.2374 27.0498C89.6904 28.5212 91.4155 29.6883 93.314 30.4846C95.2125 31.2809 97.2473 31.6908 99.3023 31.6908L99.3023 15.8454L83.6541 15.8454Z" fill="#AD1212"/>
<path d="M149.007 31.6911C149.007 35.8936 150.656 39.9239 153.59 42.8955C156.525 45.8671 160.505 47.5365 164.655 47.5365C168.805 47.5365 172.786 45.8671 175.72 42.8955C178.655 39.9239 180.303 35.8936 180.303 31.6911L164.655 31.6911L149.007 31.6911Z" fill="#DB2525"/>
<path d="M149.007 31.6911C149.007 33.7719 149.412 35.8324 150.198 37.7549C150.985 39.6773 152.137 41.4241 153.59 42.8955C155.043 44.3669 156.768 45.534 158.667 46.3303C160.566 47.1266 162.6 47.5365 164.655 47.5365L164.655 31.6911L149.007 31.6911Z" fill="#AD1212"/>
<path d="M241.976 127.696C241.976 131.898 243.624 135.929 246.559 138.9C249.493 141.872 253.474 143.541 257.624 143.541C261.774 143.541 265.754 141.872 268.689 138.9C271.623 135.929 273.272 131.898 273.272 127.696L257.624 127.696L241.976 127.696Z" fill="#DB2525"/>
<path d="M241.976 127.696C241.976 129.777 242.38 131.837 243.167 133.76C243.953 135.682 245.106 137.429 246.559 138.9C248.012 140.372 249.737 141.539 251.635 142.335C253.534 143.132 255.569 143.541 257.624 143.541L257.624 127.696L241.976 127.696Z" fill="#AD1212"/>
<path d="M256.705 196.671C256.705 200.873 258.354 204.903 261.288 207.875C264.223 210.847 268.203 212.516 272.353 212.516C276.503 212.516 280.484 210.847 283.418 207.875C286.353 204.903 288.001 200.873 288.001 196.671L272.353 196.671L256.705 196.671Z" fill="#DB2525"/>
<path d="M256.705 196.671C256.705 198.751 257.11 200.812 257.896 202.734C258.683 204.657 259.835 206.404 261.288 207.875C262.741 209.346 264.466 210.514 266.365 211.31C268.263 212.106 270.298 212.516 272.353 212.516L272.353 196.671L256.705 196.671Z" fill="#AD1212"/>
<path d="M245.657 265.644C245.657 269.847 247.306 273.877 250.24 276.849C253.175 279.82 257.155 281.49 261.305 281.49C265.456 281.49 269.436 279.82 272.37 276.849C275.305 273.877 276.954 269.847 276.954 265.644L261.305 265.644L245.657 265.644Z" fill="#DB2525"/>
<path d="M245.657 265.644C245.657 267.725 246.062 269.786 246.848 271.708C247.635 273.63 248.787 275.377 250.24 276.849C251.694 278.32 253.419 279.487 255.317 280.283C257.216 281.08 259.25 281.49 261.305 281.49L261.305 265.644L245.657 265.644Z" fill="#AD1212"/>
<path d="M206.999 321.57C206.999 325.772 208.648 329.803 211.582 332.774C214.517 335.746 218.497 337.415 222.647 337.415C226.797 337.415 230.777 335.746 233.712 332.774C236.647 329.803 238.295 325.772 238.295 321.57L222.647 321.57L206.999 321.57Z" fill="#DB2525"/>
<path d="M206.999 321.57C206.999 323.651 207.404 325.711 208.19 327.634C208.977 329.556 210.129 331.303 211.582 332.774C213.035 334.246 214.76 335.413 216.659 336.209C218.557 337.006 220.592 337.415 222.647 337.415L222.647 321.57L206.999 321.57Z" fill="#AD1212"/>
<path d="M149.927 352.328C149.927 356.53 151.576 360.561 154.51 363.532C157.445 366.504 161.425 368.173 165.575 368.173C169.725 368.173 173.705 366.504 176.64 363.532C179.575 360.561 181.223 356.53 181.223 352.328L165.575 352.328L149.927 352.328Z" fill="#DB2525"/>
<path d="M149.927 352.328C149.927 354.409 150.332 356.469 151.118 358.392C151.905 360.314 153.057 362.061 154.51 363.532C155.963 365.004 157.688 366.171 159.587 366.967C161.485 367.763 163.52 368.173 165.575 368.173L165.575 352.328L149.927 352.328Z" fill="#AD1212"/>
<path d="M83.6541 368.174C83.6541 372.376 85.3028 376.406 88.2374 379.378C91.172 382.349 95.1521 384.019 99.3023 384.019C103.452 384.019 107.433 382.349 110.367 379.378C113.302 376.406 114.95 372.376 114.95 368.174L99.3023 368.174L83.6541 368.174Z" fill="#DB2525"/>
<path d="M83.6541 368.174C83.6541 370.254 84.0589 372.315 84.8453 374.237C85.6317 376.16 86.7843 377.907 88.2374 379.378C89.6904 380.849 91.4155 382.016 93.314 382.813C95.2125 383.609 97.2473 384.019 99.3023 384.019L99.3023 368.174L83.6541 368.174Z" fill="#AD1212"/>
<path d="M20.1398 352.329C20.1398 356.531 21.7885 360.562 24.7231 363.533C27.6577 366.505 31.6378 368.174 35.788 368.174C39.9381 368.174 43.9183 366.505 46.8529 363.533C49.7875 360.562 51.4362 356.531 51.4362 352.329L35.788 352.329L20.1398 352.329Z" fill="#DB2525"/>
<path d="M20.1398 352.329C20.1398 354.41 20.5446 356.47 21.331 358.393C22.1174 360.315 23.27 362.062 24.7231 363.533C26.1761 365.005 27.9012 366.172 29.7997 366.968C31.6982 367.764 33.7331 368.174 35.788 368.174L35.788 352.329L20.1398 352.329Z" fill="#AD1212"/>
<path d="M207.919 69.9059C207.919 74.1084 209.567 78.1387 212.502 81.1103C215.437 84.0819 219.417 85.7513 223.567 85.7513C227.717 85.7513 231.697 84.0819 234.632 81.1103C237.567 78.1387 239.215 74.1084 239.215 69.9059L223.567 69.9059L207.919 69.9059Z" fill="#DB2525"/>
<path d="M207.919 69.9059C207.919 71.9868 208.324 74.0473 209.11 75.9697C209.896 77.8922 211.049 79.6389 212.502 81.1103C213.955 82.5817 215.68 83.7489 217.579 84.5452C219.477 85.3415 221.512 85.7513 223.567 85.7513L223.567 69.9059L207.919 69.9059Z" fill="#AD1212"/>
<ellipse cx="98.8405" cy="203.66" rx="17.0289" ry="17.2435" fill="#FC6655"/>
<path d="M98.8405 220.904C101.077 220.904 103.291 220.458 105.357 219.591C107.423 218.725 109.3 217.455 110.882 215.853C112.463 214.252 113.717 212.351 114.573 210.259C115.429 208.167 115.869 205.925 115.869 203.66C115.869 201.396 115.429 199.154 114.573 197.062C113.717 194.97 112.463 193.069 110.882 191.467C109.3 189.866 107.423 188.596 105.357 187.73C103.291 186.863 101.077 186.417 98.8405 186.417V203.66V220.904Z" fill="#AD1212"/>
<path d="M81.8116 203.66C81.8116 205.925 82.252 208.167 83.1078 210.259C83.9636 212.351 85.218 214.252 86.7992 215.853C88.3805 217.455 90.2578 218.725 92.3238 219.591C94.3898 220.458 96.6042 220.904 98.8405 220.904V203.66L81.8116 203.66Z" fill="#DB2525"/>
<ellipse cx="77.2102" cy="94.141" rx="2.76144" ry="2.79625" fill="#FC6655"/>
<ellipse cx="119.552" cy="313.181" rx="2.76145" ry="2.79625" fill="#FC6655"/>
<ellipse cx="2.76648" cy="2.79127" rx="2.76648" ry="2.79127" transform="matrix(0.923582 0.3834 -0.375266 0.926917 118.31 90.5469)" fill="#FC6655"/>
<ellipse cx="2.76648" cy="2.79126" rx="2.76648" ry="2.79126" transform="matrix(0.923582 0.3834 -0.375267 0.926917 75.4366 309.479)" fill="#FC6655"/>
<ellipse cx="2.77894" cy="2.77886" rx="2.77894" ry="2.77886" transform="matrix(0.701884 0.712291 -0.703445 0.71075 159.994 107.174)" fill="#FC6655"/>
<ellipse cx="2.77894" cy="2.77886" rx="2.77894" ry="2.77886" transform="matrix(0.701884 0.712291 -0.703445 0.71075 36.7767 292.239)" fill="#FC6655"/>
<ellipse cx="2.79108" cy="2.76665" rx="2.79108" ry="2.76665" transform="matrix(0.381903 0.924202 -0.920759 0.390133 191.465 137.951)" fill="#FC6655"/>
<ellipse cx="2.79109" cy="2.76665" rx="2.79109" ry="2.76665" transform="matrix(0.381903 0.924202 -0.920759 0.390133 8.26013 262.054)" fill="#FC6655"/>
<ellipse cx="2.79625" cy="2.76144" rx="2.79625" ry="2.76144" transform="matrix(-0.000200178 1 -1 -0.000205256 209.304 179.45)" fill="#FC6655"/>
<ellipse cx="2.79129" cy="2.76646" rx="2.79129" ry="2.76646" transform="matrix(-0.374473 0.927238 -0.923916 -0.382596 210.105 223.744)" fill="#FC6655"/>
<ellipse cx="2.77877" cy="2.77902" rx="2.77877" ry="2.77902" transform="matrix(-0.705161 0.709047 -0.700162 -0.713984 193.518 266.283)" fill="#FC6655"/>
<ellipse cx="2.77878" cy="2.77902" rx="2.77878" ry="2.77902" transform="matrix(-0.70516 0.709048 -0.700161 -0.713985 11.0541 141.065)" fill="#FC6655"/>
<ellipse cx="2.76664" cy="2.79109" rx="2.76664" ry="2.79109" transform="matrix(-0.920934 0.38972 -0.381497 -0.92437 163.233 297.946)" fill="#FC6655"/>
<ellipse cx="2.76665" cy="2.7911" rx="2.76665" ry="2.7911" transform="matrix(-0.920934 0.38972 -0.381497 -0.92437 40.7549 112.378)" fill="#FC6655"/>
</svg>
