<svg width="373" height="236" viewBox="0 0 373 236" fill="none" xmlns="http://www.w3.org/2000/svg">
<path d="M335.899 130.46C344.369 124.293 361.088 105.392 361.958 104.405C362.022 103.405 361.994 103.304 361.994 104.365C361.994 104.365 361.982 104.379 361.958 104.405C361.596 110.092 358.258 144.843 329.818 160.356C334.716 161.116 347.097 161.622 357.434 157.569C352.113 166.521 335.544 185.437 311.83 189.491C315.8 191.18 324.346 197.7 326.778 210.266C320.529 210.941 305.497 210.975 295.363 205.705C285.229 200.436 318.164 153.346 335.899 130.46Z" fill="#F6C826"/>
<path d="M36.9509 130.46C28.4805 124.293 11.7618 105.392 10.8912 104.405C10.8274 103.405 10.8558 103.304 10.8558 104.365C10.8558 104.365 10.8677 104.379 10.8912 104.405C11.2534 110.092 14.5915 144.843 43.0313 160.356C38.1332 161.116 25.7528 161.622 15.4161 157.569C20.7365 166.521 37.3056 185.437 61.0192 189.491C57.05 191.18 48.5037 197.7 46.0715 210.266C52.3208 210.941 67.353 210.975 77.487 205.705C87.621 200.436 54.6854 153.346 36.9509 130.46Z" fill="#F6C826"/>
<path d="M100.165 123.976C100.691 126.782 106.814 133.037 109.81 135.814L115.29 140.636L140.719 141.513L144.007 133.183L129.32 115.427L127.128 122.442L125.155 112.358L110.687 98.1095C110.221 99.8631 109.394 103.59 109.81 104.467C107.706 100.433 107.764 96.3558 108.057 94.8213L97.5344 82.9839L94.6847 93.7252C94.6847 95.3036 98.3382 98.0364 100.165 99.2055C99.2882 100.433 96.1461 98.694 94.6847 97.671C92.7118 108.632 97.5344 117.619 98.6305 119.811C99.5073 121.565 104.111 123.319 106.303 123.976H100.165Z" fill="#F6C826"/>
<path d="M105.604 105.793C105.429 105.341 104.921 105.117 104.469 105.292C104.018 105.467 103.794 105.975 103.969 106.427L105.604 105.793ZM127.645 133.353C123.35 131.694 112.598 123.825 105.604 105.793L103.969 106.427C111.104 124.822 122.168 133.118 127.014 134.989L127.645 133.353Z" fill="#F6800E"/>
<path d="M267.861 123.757C267.335 126.563 261.212 132.818 258.216 135.595L252.736 140.417L227.307 141.294L224.019 132.964L238.706 115.208L240.898 122.223L242.871 112.139L257.339 97.8902C257.805 99.6439 258.632 103.371 258.216 104.247C260.32 100.214 260.262 96.1365 259.97 94.6021L270.492 82.7646L273.342 93.506C273.342 95.0843 269.688 97.8172 267.861 98.9863C268.738 100.214 271.88 98.4748 273.342 97.4518C275.315 108.412 270.492 117.4 269.396 119.592C268.519 121.346 263.916 123.1 261.723 123.757H267.861Z" fill="#F6C826"/>
<path d="M262.424 105.573C262.599 105.122 263.107 104.898 263.558 105.073C264.01 105.248 264.234 105.756 264.059 106.207L262.424 105.573ZM240.382 133.133C244.678 131.475 255.429 123.606 262.424 105.573L264.059 106.207C256.924 124.602 245.86 132.899 241.014 134.769L240.382 133.133Z" fill="#F6800E"/>
<path d="M210.429 113.674L207.141 106.001L197.715 113.674L182.809 141.733L191.577 147.432C202.245 144.436 225.248 136.778 231.912 130.114C238.576 123.45 243.311 110.532 244.845 104.905C242.566 106.308 239.073 106.513 237.611 106.44C242.171 105.037 245.503 101.032 246.599 99.2056C250.282 87.6313 246.38 74.5078 243.969 69.3929C242.039 72.3742 239.365 73.1195 238.269 73.1195C241.25 71.1904 241.996 66.7623 241.996 64.7894L234.542 52.0752L226.432 70.7081V83.4224C226.081 80.9672 224.386 77.1383 223.582 75.5308C223.407 76.7584 214.74 91.0948 210.429 98.1095V113.674Z" fill="#F6800E"/>
<path d="M235.684 84.8762C232.403 98.6642 220.208 129.706 197.669 143.567" stroke="#DB2525" stroke-width="2.19211" stroke-linecap="round"/>
<path d="M158.233 113.235L161.521 105.563L170.947 113.235L185.854 141.294L177.085 146.994C166.417 143.998 143.414 136.34 136.75 129.676C130.086 123.012 125.351 110.093 123.817 104.467C126.097 105.87 129.589 106.074 131.051 106.001C126.491 104.598 123.159 100.594 122.063 98.7674C118.38 87.193 122.282 74.0696 124.694 68.9546C126.623 71.9359 129.297 72.6812 130.393 72.6812C127.412 70.7522 126.666 66.3241 126.666 64.3512L134.12 51.637L142.23 70.2699V82.9842C142.581 80.529 144.276 76.7001 145.08 75.0926C145.256 76.3201 153.922 90.6566 158.233 97.6713V113.235Z" fill="#F6800E"/>
<path d="M134.71 83.3862C137.186 97.3411 147.563 129.037 169.26 144.181" stroke="#DB2525" stroke-width="1.75369" stroke-linecap="round"/>
<path d="M198.152 135.595L186.753 149.843C180.615 148.09 172.942 134.937 169.873 128.58C173.205 129.983 175.061 130.187 175.573 130.114L165.708 119.373C162.376 115.69 161.982 103.078 162.201 97.2327L173.381 100.74C167.769 97.5835 164.758 92.264 163.955 89.9988L169.873 67.42L175.573 68.9545L172.285 62.1589L186.753 28.6196L194.425 49.2255C194.25 51.856 191.283 55.4365 189.822 56.8979C192.277 57.0732 194.937 55.948 195.959 55.3634L202.097 73.9963L198.152 80.1343L203.632 78.819C208.016 81.4495 208.674 98.3288 208.455 106.44L198.152 117.181L206.701 115.646C205.605 130.334 188.068 135.595 189.822 137.129C191.225 138.357 195.959 136.618 198.152 135.595Z" fill="#F6C826"/>
<path d="M186.971 71.6122C186.986 71.1282 186.606 70.7236 186.122 70.7085C185.638 70.6935 185.233 71.0737 185.218 71.5577L186.971 71.6122ZM185.218 71.5577C184.816 84.495 184.334 104.056 184.193 120.692C184.122 129.008 184.137 136.603 184.291 142.276C184.368 145.11 184.48 147.478 184.634 149.222C184.711 150.092 184.801 150.824 184.906 151.389C184.958 151.67 185.017 151.927 185.086 152.145C185.15 152.345 185.245 152.593 185.405 152.796L186.784 151.713C186.823 151.763 186.804 151.76 186.758 151.616C186.719 151.491 186.675 151.311 186.63 151.068C186.54 150.583 186.456 149.914 186.381 149.067C186.231 147.377 186.121 145.051 186.044 142.228C185.891 136.587 185.876 129.017 185.946 120.707C186.087 104.088 186.569 84.5418 186.971 71.6122L185.218 71.5577Z" fill="#F6800E"/>
<path d="M186.012 146.867C202.204 135.711 241.915 116.863 272.053 130.213C302.253 143.59 326.861 135.787 335.391 130.213C335.56 160.531 313.805 222.433 225.437 227.5C219.441 226.908 205.523 222.179 197.821 207.992C196.223 205.048 194.46 203.02 192.625 201.703C190.434 200.482 187.96 199.648 185.433 199.703C183.552 199.867 181.721 200.487 180.039 201.351C177.996 202.644 176.027 204.779 174.261 208.032C166.559 222.22 152.642 226.949 146.646 227.54C58.2769 222.473 36.5225 160.571 36.6914 130.254C45.2209 135.827 69.8297 143.63 100.029 130.254C130.131 116.92 169.782 135.705 186.012 146.867Z" fill="#F6C826"/>
<path d="M231.772 148.951C213.013 150.961 197.401 169.388 191.996 179.1C236.332 238.384 284.976 184.167 292.323 150.725C279.993 149.796 245.96 147.431 231.772 148.951Z" fill="#FF4E84"/>
<path d="M139.806 148.951C158.565 150.961 174.177 169.388 179.582 179.1C135.246 238.384 86.6023 184.167 79.2552 150.725C91.5849 149.796 125.618 147.431 139.806 148.951Z" fill="#FF4E84"/>
<path d="M10.8486 104.371C13.1288 108.425 19.2092 115.519 30.1033 130.254C37.9403 140.854 47.581 149.985 65.0658 148.201C73.3846 147.352 82.9263 145.878 92.3855 144.416C111.158 141.515 129.606 138.664 137.524 140.854C137.524 140.854 164.579 146.731 185.657 180.37L185.661 180.63C206.739 146.985 233.797 141.107 233.797 141.107C241.715 138.917 260.163 141.768 278.936 144.669C288.395 146.131 297.937 147.605 306.256 148.454C326.118 150.481 340.711 130.973 345.778 125.146L353.885 115.012L361.993 104.371C327.79 140.6 301.736 143.361 272.053 130.213C241.915 116.863 202.204 135.711 186.012 146.867C169.782 135.706 130.131 116.92 100.029 130.254C69.8664 143.614 37.9572 130.254 35.1703 128.693C32.3834 127.132 10.8486 104.371 10.8486 104.371Z" fill="#FF4E84"/>
<path fill-rule="evenodd" clip-rule="evenodd" d="M160.303 222.594C154.936 225.83 149.737 227.235 146.645 227.54C103.655 225.075 76.4309 209.16 59.8262 189.973L59.9987 190.004C78.1257 204.103 79.24 204.441 160.303 222.594Z" fill="#F6800E"/>
<path fill-rule="evenodd" clip-rule="evenodd" d="M211.548 222.482C216.933 225.74 222.155 227.153 225.257 227.459C268.799 224.962 296.168 208.667 312.711 189.15L312.082 189.244C298.147 203.728 279.077 207.73 249.244 213.991C238.238 216.301 225.766 218.918 211.548 222.482Z" fill="#F6800E"/>
<circle cx="67.8516" cy="159.855" r="1.77345" fill="#FFF9DA"/>
<circle cx="71.3994" cy="167.455" r="1.77345" fill="#FFF9DA"/>
<circle cx="74.9453" cy="174.549" r="1.77345" fill="#FFF9DA"/>
<circle cx="79" cy="180.629" r="1.77345" fill="#FFF9DA"/>
<circle cx="84.0664" cy="187.217" r="1.77345" fill="#FFF9DA"/>
<circle cx="90.1465" cy="192.79" r="1.77345" fill="#FFF9DA"/>
<circle cx="96.7334" cy="198.364" r="1.77345" fill="#FFF9DA"/>
<circle cx="102.814" cy="202.925" r="1.77345" fill="#FFF9DA"/>
<circle cx="110.414" cy="206.471" r="1.77345" fill="#FFF9DA"/>
<circle cx="118.015" cy="209.005" r="1.77345" fill="#FFF9DA"/>
<circle cx="126.122" cy="211.032" r="1.77345" fill="#FFF9DA"/>
<circle cx="133.723" cy="212.552" r="1.77345" fill="#FFF9DA"/>
<circle cx="141.83" cy="212.552" r="1.77345" fill="#FFF9DA"/>
<circle cx="149.938" cy="211.032" r="1.77345" fill="#FFF9DA"/>
<circle cx="157.538" cy="208.498" r="1.77345" fill="#FFF9DA"/>
<circle cx="164.632" cy="204.444" r="1.77345" fill="#FFF9DA"/>
<circle cx="170.713" cy="198.871" r="1.77345" fill="#FFF9DA"/>
<circle cx="1.77345" cy="1.77345" r="1.77345" transform="matrix(-1 0 0 1 303.721 158.081)" fill="#FFF9DA"/>
<circle cx="1.77345" cy="1.77345" r="1.77345" transform="matrix(-1 0 0 1 300.173 165.682)" fill="#FFF9DA"/>
<circle cx="1.77345" cy="1.77345" r="1.77345" transform="matrix(-1 0 0 1 296.627 172.776)" fill="#FFF9DA"/>
<circle cx="1.77345" cy="1.77345" r="1.77345" transform="matrix(-1 0 0 1 292.572 178.856)" fill="#FFF9DA"/>
<circle cx="1.77345" cy="1.77345" r="1.77345" transform="matrix(-1 0 0 1 287.506 185.443)" fill="#FFF9DA"/>
<circle cx="1.77345" cy="1.77345" r="1.77345" transform="matrix(-1 0 0 1 281.426 191.017)" fill="#FFF9DA"/>
<circle cx="1.77345" cy="1.77345" r="1.77345" transform="matrix(-1 0 0 1 274.839 196.591)" fill="#FFF9DA"/>
<circle cx="1.77345" cy="1.77345" r="1.77345" transform="matrix(-1 0 0 1 268.759 201.151)" fill="#FFF9DA"/>
<circle cx="1.77345" cy="1.77345" r="1.77345" transform="matrix(-1 0 0 1 261.158 204.698)" fill="#FFF9DA"/>
<circle cx="1.77345" cy="1.77345" r="1.77345" transform="matrix(-1 0 0 1 253.558 207.231)" fill="#FFF9DA"/>
<circle cx="1.77345" cy="1.77345" r="1.77345" transform="matrix(-1 0 0 1 245.45 209.258)" fill="#FFF9DA"/>
<circle cx="1.77345" cy="1.77345" r="1.77345" transform="matrix(-1 0 0 1 237.85 210.778)" fill="#FFF9DA"/>
<circle cx="1.77345" cy="1.77345" r="1.77345" transform="matrix(-1 0 0 1 229.742 210.778)" fill="#FFF9DA"/>
<circle cx="1.77345" cy="1.77345" r="1.77345" transform="matrix(-1 0 0 1 221.635 209.258)" fill="#FFF9DA"/>
<circle cx="1.77345" cy="1.77345" r="1.77345" transform="matrix(-1 0 0 1 214.034 206.725)" fill="#FFF9DA"/>
<circle cx="1.77345" cy="1.77345" r="1.77345" transform="matrix(-1 0 0 1 206.941 202.671)" fill="#FFF9DA"/>
<circle cx="1.77345" cy="1.77345" r="1.77345" transform="matrix(-1 0 0 1 200.86 197.097)" fill="#FFF9DA"/>
<path d="M125.616 158.672C140.614 157.456 158.383 169.819 165.392 176.153C135.243 217.196 104.504 182.993 93.9473 160.698C98.7609 161.458 106.868 160.192 125.616 158.672Z" fill="#202020"/>
<path d="M246.211 158.672C231.213 157.456 213.444 169.819 206.435 176.153C236.584 217.196 267.324 182.993 277.88 160.698C273.066 161.458 264.959 160.192 246.211 158.672Z" fill="#202020"/>
<circle cx="190.22" cy="161.882" r="2.02681" fill="#FFF9DA"/>
<circle cx="195.288" cy="155.295" r="2.02681" fill="#FFF9DA"/>
<circle cx="200.861" cy="149.721" r="2.02681" fill="#FFF9DA"/>
<circle cx="207.448" cy="144.654" r="2.02681" fill="#FFF9DA"/>
<circle cx="214.036" cy="140.601" r="2.02681" fill="#FFF9DA"/>
<circle cx="221.636" cy="137.56" r="2.02681" fill="#FFF9DA"/>
<circle cx="229.237" cy="135.534" r="2.02681" fill="#FFF9DA"/>
<circle cx="237.344" cy="134.52" r="2.02681" fill="#FFF9DA"/>
<circle cx="245.45" cy="134.013" r="2.02681" fill="#FFF9DA"/>
<circle cx="253.557" cy="134.013" r="2.02681" fill="#FFF9DA"/>
<circle cx="262.172" cy="135.027" r="2.02681" fill="#FFF9DA"/>
<circle cx="270.28" cy="136.547" r="2.02681" fill="#FFF9DA"/>
<circle cx="277.373" cy="138.574" r="2.02681" fill="#FFF9DA"/>
<circle cx="285.481" cy="140.601" r="2.02681" fill="#FFF9DA"/>
<circle cx="293.081" cy="141.614" r="2.02681" fill="#FFF9DA"/>
<circle cx="301.694" cy="142.627" r="2.02681" fill="#FFF9DA"/>
<circle cx="309.294" cy="142.627" r="2.02681" fill="#FFF9DA"/>
<circle cx="317.909" cy="141.614" r="2.02681" fill="#FFF9DA"/>
<circle cx="2.02681" cy="2.02681" r="2.02681" transform="matrix(-1 0 0 1 181.607 159.855)" fill="#FFF9DA"/>
<circle cx="2.02681" cy="2.02681" r="2.02681" transform="matrix(-1 0 0 1 176.54 153.268)" fill="#FFF9DA"/>
<circle cx="2.02681" cy="2.02681" r="2.02681" transform="matrix(-1 0 0 1 170.967 147.694)" fill="#FFF9DA"/>
<circle cx="2.02681" cy="2.02681" r="2.02681" transform="matrix(-1 0 0 1 164.38 142.627)" fill="#FFF9DA"/>
<circle cx="2.02681" cy="2.02681" r="2.02681" transform="matrix(-1 0 0 1 157.792 138.574)" fill="#FFF9DA"/>
<circle cx="2.02681" cy="2.02681" r="2.02681" transform="matrix(-1 0 0 1 150.191 135.533)" fill="#FFF9DA"/>
<circle cx="2.02681" cy="2.02681" r="2.02681" transform="matrix(-1 0 0 1 142.591 133.507)" fill="#FFF9DA"/>
<circle cx="2.02681" cy="2.02681" r="2.02681" transform="matrix(-1 0 0 1 134.483 132.493)" fill="#FFF9DA"/>
<circle cx="2.02681" cy="2.02681" r="2.02681" transform="matrix(-1 0 0 1 126.378 131.987)" fill="#FFF9DA"/>
<circle cx="2.02681" cy="2.02681" r="2.02681" transform="matrix(-1 0 0 1 118.271 131.987)" fill="#FFF9DA"/>
<circle cx="2.02681" cy="2.02681" r="2.02681" transform="matrix(-1 0 0 1 109.655 133)" fill="#FFF9DA"/>
<circle cx="2.02681" cy="2.02681" r="2.02681" transform="matrix(-1 0 0 1 101.548 134.52)" fill="#FFF9DA"/>
<circle cx="2.02681" cy="2.02681" r="2.02681" transform="matrix(-1 0 0 1 94.4541 136.547)" fill="#FFF9DA"/>
<circle cx="2.02681" cy="2.02681" r="2.02681" transform="matrix(-1 0 0 1 86.3477 138.574)" fill="#FFF9DA"/>
<circle cx="2.02681" cy="2.02681" r="2.02681" transform="matrix(-1 0 0 1 78.7461 139.587)" fill="#FFF9DA"/>
<circle cx="2.02681" cy="2.02681" r="2.02681" transform="matrix(-1 0 0 1 70.1338 140.601)" fill="#FFF9DA"/>
<circle cx="2.02681" cy="2.02681" r="2.02681" transform="matrix(-1 0 0 1 62.5322 140.601)" fill="#FFF9DA"/>
<circle cx="2.02681" cy="2.02681" r="2.02681" transform="matrix(-1 0 0 1 53.9189 139.587)" fill="#FFF9DA"/>
</svg>
