<svg width="373" height="236" viewBox="0 0 373 236" fill="none" xmlns="http://www.w3.org/2000/svg">
<path d="M335.899 130.397C344.369 124.23 361.088 105.329 361.958 104.342C362.022 103.342 361.994 103.241 361.994 104.302C361.994 104.302 361.982 104.316 361.958 104.342C361.705 108.324 359.992 126.554 349.226 142.453C345.774 148.261 341.041 164.605 331.663 176.473C331.917 176.991 332.126 177.653 332.286 178.477C326.037 179.153 305.497 210.912 295.363 205.642C285.229 200.373 318.164 153.283 335.899 130.397Z" fill="#F6C826"/>
<path d="M36.9509 130.397C28.4805 124.23 11.7618 105.329 10.8912 104.342C10.8274 103.342 10.8558 103.241 10.8558 104.302C10.8558 104.302 10.8677 104.316 10.8912 104.342C11.0975 107.582 12.2697 120.254 18.4982 133.428C19.0639 134.624 19.6713 135.825 20.3234 137.023C24.3261 145.641 31.0973 163.125 41.0289 175.592C44.2448 179.629 47.7921 183.141 51.684 185.655C60.1395 195.663 70.908 209.064 77.487 205.642C87.621 200.373 54.6854 153.283 36.9509 130.397Z" fill="#F6C826"/>
<path d="M110.677 159.531C113.275 160.713 121.913 159.298 125.908 158.443L133.004 156.73L148.338 136.427L143.412 128.948L120.44 130.76L124.92 136.586L115.535 132.404L95.5588 136.052C96.7261 137.441 99.2999 140.26 100.257 140.424C95.7465 139.827 92.4437 137.436 91.3561 136.315L75.6214 138.12L82.7729 146.627C84.0644 147.534 88.4007 146.115 90.4074 145.292C90.9079 146.715 87.6788 148.287 86.0016 148.895C93.8364 156.809 103.963 158.029 106.387 158.392C108.326 158.683 112.407 155.924 114.205 154.508L110.677 159.531Z" fill="#F6C826"/>
<path d="M98.9233 144.629C98.4532 144.512 97.9779 144.799 97.8617 145.269C97.7454 145.739 98.0323 146.215 98.5024 146.331L98.9233 144.629ZM134.145 142.434C130.319 144.996 117.7 149.271 98.9233 144.629L98.5024 146.331C117.656 151.066 130.804 146.781 135.121 143.891L134.145 142.434Z" fill="#F6800E"/>
<path d="M260.161 161.513C257.486 162.511 248.968 160.496 245.043 159.363L238.084 157.159L224.206 135.833L229.643 128.717L252.432 132.13L247.556 137.629L257.211 134.113L276.883 139.149C275.621 140.453 272.857 143.085 271.891 143.181C276.432 142.901 279.893 140.746 281.057 139.704L296.627 142.605L288.898 150.591C287.547 151.405 283.32 149.687 281.376 148.726C280.777 150.111 283.888 151.904 285.519 152.628C277.15 159.975 266.963 160.485 264.52 160.677C262.565 160.832 258.687 157.794 256.992 156.256L260.161 161.513Z" fill="#F6C826"/>
<path d="M272.928 147.469C273.405 147.386 273.859 147.705 273.942 148.182C274.025 148.659 273.706 149.113 273.229 149.196L272.928 147.469ZM237.945 142.818C241.583 145.641 253.873 150.787 272.928 147.469L273.229 149.196C253.791 152.581 240.974 147.388 236.87 144.204L237.945 142.818Z" fill="#F6800E"/>
<path d="M222.684 157.337L227.789 150.733L216.501 146.227L184.735 146.848L184.019 157.281C191.824 165.146 209.702 181.521 218.766 184.104C227.829 186.686 241.42 184.541 247.083 183.145C244.748 181.836 242.871 178.883 242.224 177.571C245.667 180.872 250.787 181.837 252.916 181.906C264.82 179.495 274.39 169.704 277.687 165.109C274.143 164.874 272.192 162.899 271.659 161.941C274.794 163.608 279.026 162.106 280.75 161.147L288.235 148.451L268.009 150.425L256.899 156.608C258.874 155.108 261.395 151.765 262.409 150.281C261.251 150.724 244.51 150.124 236.284 149.768L222.684 157.337Z" fill="#F6800E"/>
<path d="M260.129 165.4C246.486 169.239 213.432 173.679 190.36 160.726" stroke="#DB2525" stroke-width="2.19211" stroke-linecap="round"/>
<path d="M170.699 155.942L166.107 148.971L177.703 145.331L209.332 148.349L209.259 158.806C200.881 166.059 181.818 181.038 172.585 182.928C163.353 184.819 149.962 181.654 144.421 179.835C146.848 178.705 148.943 175.903 149.687 174.643C146.004 177.675 140.827 178.25 138.699 178.158C127.01 174.856 118.207 164.369 115.267 159.539C118.818 159.572 120.913 157.75 121.517 156.836C118.265 158.261 114.158 156.444 112.512 155.357L106.007 142.132L126.026 145.628L136.637 152.632C134.781 150.987 132.519 147.463 131.62 145.906C132.741 146.436 149.48 147.102 157.71 147.368L170.699 155.942Z" fill="#F6800E"/>
<path d="M132.829 159.13C145.84 164.751 178.008 173.552 202.6 163.787" stroke="#DB2525" stroke-width="1.75369" stroke-linecap="round"/>
<path d="M190.979 173.061L176.122 162.466C177.534 156.241 190.243 147.854 196.421 144.439C195.205 147.843 195.103 149.708 195.204 150.214L205.384 139.772C208.877 136.241 221.448 135.151 227.297 135.047L224.412 146.404C227.254 140.626 232.399 137.326 234.617 136.399L257.488 141.062L256.271 146.837L262.874 143.179L297.161 155.772L277.01 164.571C274.374 164.541 270.635 161.777 269.096 160.398C269.056 162.859 270.327 165.453 270.967 166.442L252.701 173.6L246.355 169.999L247.971 175.398C245.586 179.921 228.769 181.51 220.658 181.739L209.364 172.044L211.369 180.496C196.643 180.213 190.422 162.993 188.987 164.829C187.838 166.297 189.836 170.929 190.979 173.061Z" fill="#F6C826"/>
<path d="M254.246 158.365C254.73 158.353 255.113 157.951 255.101 157.467C255.09 156.983 254.688 156.6 254.204 156.612L254.246 158.365ZM254.204 156.612C241.264 156.925 221.706 157.523 205.088 158.301C196.78 158.69 189.198 159.125 183.543 159.591C180.717 159.824 178.358 160.067 176.626 160.317C175.761 160.443 175.035 160.572 174.477 160.708C174.199 160.776 173.946 160.849 173.732 160.93C173.536 161.004 173.294 161.113 173.099 161.284L174.257 162.601C174.209 162.644 174.211 162.624 174.353 162.571C174.475 162.524 174.652 162.47 174.893 162.412C175.372 162.295 176.035 162.175 176.877 162.053C178.556 161.81 180.873 161.571 183.687 161.339C189.311 160.875 196.868 160.442 205.17 160.053C221.771 159.276 241.314 158.678 254.246 158.365L254.204 156.612Z" fill="#F6800E"/>
<path d="M186.012 146.804C202.204 135.648 241.915 116.8 272.053 130.15C302.253 143.527 326.861 135.724 335.391 130.15C335.56 160.468 313.805 222.37 225.437 227.437C219.441 226.845 205.523 222.116 197.821 207.929C196.223 204.985 194.46 202.958 192.625 201.64C190.434 200.419 187.96 199.585 185.433 199.64C183.552 199.804 181.721 200.424 180.039 201.288C177.996 202.581 176.027 204.716 174.261 207.969C166.559 222.157 152.642 226.886 146.646 227.477C58.2769 222.41 36.5225 160.508 36.6914 130.191C45.2209 135.764 69.8297 143.567 100.029 130.191C130.131 116.857 169.782 135.642 186.012 146.804Z" fill="#F6C826"/>
<path d="M231.772 148.889C213.013 150.899 197.401 169.325 191.996 179.037C236.332 238.321 284.976 184.104 292.323 150.662C279.993 149.733 245.96 147.368 231.772 148.889Z" fill="#FF4E84"/>
<path d="M139.806 148.889C158.565 150.899 174.177 169.325 179.582 179.037C135.246 238.321 86.6023 184.104 79.2552 150.662C91.5849 149.733 125.618 147.368 139.806 148.889Z" fill="#FF4E84"/>
<path d="M10.8486 104.308C13.1288 108.362 19.2092 115.456 30.1033 130.19C37.9403 140.791 47.581 149.922 65.0658 148.138C73.3846 147.289 82.9263 145.814 92.3855 144.353C111.158 141.451 129.606 138.601 137.524 140.791C137.524 140.791 164.579 146.668 185.657 180.307L185.661 180.567C206.739 146.922 233.797 141.044 233.797 141.044C241.715 138.854 260.163 141.705 278.936 144.606C288.395 146.068 297.937 147.542 306.256 148.391C326.118 150.418 340.711 130.91 345.778 125.083L353.885 114.949L361.993 104.308C327.79 140.537 301.736 143.298 272.053 130.15C241.915 116.8 202.204 135.647 186.012 146.804C169.782 135.642 130.131 116.857 100.029 130.19C69.8664 143.551 37.9572 130.19 35.1703 128.63C32.3834 127.069 10.8486 104.308 10.8486 104.308Z" fill="#FF4E84"/>
<path fill-rule="evenodd" clip-rule="evenodd" d="M160.303 222.531C154.936 225.767 149.737 227.173 146.645 227.478C103.655 225.013 76.4309 209.097 59.8262 189.91L59.9979 189.941C78.1249 204.04 79.2392 204.378 160.303 222.531Z" fill="#F6800E"/>
<path fill-rule="evenodd" clip-rule="evenodd" d="M211.548 222.419C216.933 225.677 222.155 227.09 225.257 227.396C268.799 224.899 296.168 208.604 312.711 189.087L312.082 189.181C298.147 203.665 279.077 207.667 249.244 213.928C238.238 216.238 225.766 218.855 211.548 222.419Z" fill="#F6800E"/>
<circle cx="67.8516" cy="159.792" r="1.77345" fill="#FFF9DA"/>
<circle cx="71.3994" cy="167.393" r="1.77345" fill="#FFF9DA"/>
<circle cx="74.9453" cy="174.487" r="1.77345" fill="#FFF9DA"/>
<circle cx="79" cy="180.567" r="1.77345" fill="#FFF9DA"/>
<circle cx="84.0664" cy="187.154" r="1.77345" fill="#FFF9DA"/>
<circle cx="90.1465" cy="192.728" r="1.77345" fill="#FFF9DA"/>
<circle cx="96.7334" cy="198.302" r="1.77345" fill="#FFF9DA"/>
<circle cx="102.814" cy="202.862" r="1.77345" fill="#FFF9DA"/>
<circle cx="110.414" cy="206.409" r="1.77345" fill="#FFF9DA"/>
<circle cx="118.015" cy="208.942" r="1.77345" fill="#FFF9DA"/>
<circle cx="126.122" cy="210.969" r="1.77345" fill="#FFF9DA"/>
<circle cx="133.723" cy="212.489" r="1.77345" fill="#FFF9DA"/>
<circle cx="141.83" cy="212.489" r="1.77345" fill="#FFF9DA"/>
<circle cx="149.938" cy="210.969" r="1.77345" fill="#FFF9DA"/>
<circle cx="157.538" cy="208.436" r="1.77345" fill="#FFF9DA"/>
<circle cx="164.632" cy="204.382" r="1.77345" fill="#FFF9DA"/>
<circle cx="170.713" cy="198.808" r="1.77345" fill="#FFF9DA"/>
<circle cx="1.77345" cy="1.77345" r="1.77345" transform="matrix(-1 0 0 1 303.721 158.019)" fill="#FFF9DA"/>
<circle cx="1.77345" cy="1.77345" r="1.77345" transform="matrix(-1 0 0 1 300.173 165.619)" fill="#FFF9DA"/>
<circle cx="1.77345" cy="1.77345" r="1.77345" transform="matrix(-1 0 0 1 296.627 172.713)" fill="#FFF9DA"/>
<circle cx="1.77345" cy="1.77345" r="1.77345" transform="matrix(-1 0 0 1 292.572 178.793)" fill="#FFF9DA"/>
<circle cx="1.77345" cy="1.77345" r="1.77345" transform="matrix(-1 0 0 1 287.506 185.381)" fill="#FFF9DA"/>
<circle cx="1.77345" cy="1.77345" r="1.77345" transform="matrix(-1 0 0 1 281.426 190.954)" fill="#FFF9DA"/>
<circle cx="1.77345" cy="1.77345" r="1.77345" transform="matrix(-1 0 0 1 274.839 196.528)" fill="#FFF9DA"/>
<circle cx="1.77345" cy="1.77345" r="1.77345" transform="matrix(-1 0 0 1 268.759 201.089)" fill="#FFF9DA"/>
<circle cx="1.77345" cy="1.77345" r="1.77345" transform="matrix(-1 0 0 1 261.158 204.635)" fill="#FFF9DA"/>
<circle cx="1.77345" cy="1.77345" r="1.77345" transform="matrix(-1 0 0 1 253.558 207.169)" fill="#FFF9DA"/>
<circle cx="1.77345" cy="1.77345" r="1.77345" transform="matrix(-1 0 0 1 245.45 209.196)" fill="#FFF9DA"/>
<circle cx="1.77345" cy="1.77345" r="1.77345" transform="matrix(-1 0 0 1 237.85 210.716)" fill="#FFF9DA"/>
<circle cx="1.77345" cy="1.77345" r="1.77345" transform="matrix(-1 0 0 1 229.742 210.716)" fill="#FFF9DA"/>
<circle cx="1.77345" cy="1.77345" r="1.77345" transform="matrix(-1 0 0 1 221.635 209.196)" fill="#FFF9DA"/>
<circle cx="1.77345" cy="1.77345" r="1.77345" transform="matrix(-1 0 0 1 214.034 206.662)" fill="#FFF9DA"/>
<circle cx="1.77345" cy="1.77345" r="1.77345" transform="matrix(-1 0 0 1 206.941 202.608)" fill="#FFF9DA"/>
<circle cx="1.77345" cy="1.77345" r="1.77345" transform="matrix(-1 0 0 1 200.86 197.035)" fill="#FFF9DA"/>
<path d="M125.616 158.609C140.614 157.393 158.383 169.756 165.392 176.09C135.243 217.133 104.504 182.931 93.9473 160.636C98.7609 161.396 106.868 160.129 125.616 158.609Z" fill="#202020"/>
<path d="M246.211 158.609C231.213 157.393 213.444 169.756 206.435 176.09C236.584 217.133 267.324 182.931 277.88 160.636C273.066 161.396 264.959 160.129 246.211 158.609Z" fill="#202020"/>
<circle cx="190.22" cy="161.819" r="2.02681" fill="#FFF9DA"/>
<circle cx="195.288" cy="155.232" r="2.02681" fill="#FFF9DA"/>
<circle cx="200.861" cy="149.658" r="2.02681" fill="#FFF9DA"/>
<circle cx="207.448" cy="144.591" r="2.02681" fill="#FFF9DA"/>
<circle cx="214.036" cy="140.537" r="2.02681" fill="#FFF9DA"/>
<circle cx="221.636" cy="137.497" r="2.02681" fill="#FFF9DA"/>
<circle cx="229.237" cy="135.47" r="2.02681" fill="#FFF9DA"/>
<circle cx="237.344" cy="134.457" r="2.02681" fill="#FFF9DA"/>
<circle cx="245.45" cy="133.95" r="2.02681" fill="#FFF9DA"/>
<circle cx="253.557" cy="133.95" r="2.02681" fill="#FFF9DA"/>
<circle cx="262.172" cy="134.964" r="2.02681" fill="#FFF9DA"/>
<circle cx="270.28" cy="136.484" r="2.02681" fill="#FFF9DA"/>
<circle cx="277.373" cy="138.51" r="2.02681" fill="#FFF9DA"/>
<circle cx="285.481" cy="140.537" r="2.02681" fill="#FFF9DA"/>
<circle cx="293.081" cy="141.551" r="2.02681" fill="#FFF9DA"/>
<circle cx="301.694" cy="142.564" r="2.02681" fill="#FFF9DA"/>
<circle cx="309.294" cy="142.564" r="2.02681" fill="#FFF9DA"/>
<circle cx="317.909" cy="141.551" r="2.02681" fill="#FFF9DA"/>
<circle cx="2.02681" cy="2.02681" r="2.02681" transform="matrix(-1 0 0 1 181.607 159.792)" fill="#FFF9DA"/>
<circle cx="2.02681" cy="2.02681" r="2.02681" transform="matrix(-1 0 0 1 176.54 153.205)" fill="#FFF9DA"/>
<circle cx="2.02681" cy="2.02681" r="2.02681" transform="matrix(-1 0 0 1 170.967 147.631)" fill="#FFF9DA"/>
<circle cx="2.02681" cy="2.02681" r="2.02681" transform="matrix(-1 0 0 1 164.38 142.564)" fill="#FFF9DA"/>
<circle cx="2.02681" cy="2.02681" r="2.02681" transform="matrix(-1 0 0 1 157.792 138.51)" fill="#FFF9DA"/>
<circle cx="2.02681" cy="2.02681" r="2.02681" transform="matrix(-1 0 0 1 150.191 135.47)" fill="#FFF9DA"/>
<circle cx="2.02681" cy="2.02681" r="2.02681" transform="matrix(-1 0 0 1 142.591 133.444)" fill="#FFF9DA"/>
<circle cx="2.02681" cy="2.02681" r="2.02681" transform="matrix(-1 0 0 1 134.483 132.43)" fill="#FFF9DA"/>
<circle cx="2.02681" cy="2.02681" r="2.02681" transform="matrix(-1 0 0 1 126.378 131.923)" fill="#FFF9DA"/>
<circle cx="2.02681" cy="2.02681" r="2.02681" transform="matrix(-1 0 0 1 118.271 131.923)" fill="#FFF9DA"/>
<circle cx="2.02681" cy="2.02681" r="2.02681" transform="matrix(-1 0 0 1 109.655 132.937)" fill="#FFF9DA"/>
<circle cx="2.02681" cy="2.02681" r="2.02681" transform="matrix(-1 0 0 1 101.548 134.457)" fill="#FFF9DA"/>
<circle cx="2.02681" cy="2.02681" r="2.02681" transform="matrix(-1 0 0 1 94.4541 136.484)" fill="#FFF9DA"/>
<circle cx="2.02681" cy="2.02681" r="2.02681" transform="matrix(-1 0 0 1 86.3477 138.51)" fill="#FFF9DA"/>
<circle cx="2.02681" cy="2.02681" r="2.02681" transform="matrix(-1 0 0 1 78.7461 139.524)" fill="#FFF9DA"/>
<circle cx="2.02681" cy="2.02681" r="2.02681" transform="matrix(-1 0 0 1 70.1338 140.537)" fill="#FFF9DA"/>
<circle cx="2.02681" cy="2.02681" r="2.02681" transform="matrix(-1 0 0 1 62.5322 140.537)" fill="#FFF9DA"/>
<circle cx="2.02681" cy="2.02681" r="2.02681" transform="matrix(-1 0 0 1 53.9189 139.524)" fill="#FFF9DA"/>
</svg>
