<svg width="82" height="20" viewBox="0 0 82 20" fill="none" xmlns="http://www.w3.org/2000/svg">
<path d="M6.025 10.325C6.025 10.325 6.04167 10.3167 6.075 10.3C6.29167 10.1667 6.64167 10.0917 7.125 10.075C7.625 10.0417 8.15 10.0333 8.7 10.05C9.25 10.0667 9.75833 10.1 10.225 10.15C10.7083 10.1833 11.0333 10.2 11.2 10.2H11.25L11.275 10.225C11.375 11.1083 11.4417 12.05 11.475 13.05C11.5083 14.0333 11.4417 14.975 11.275 15.875C11.1917 16.725 10.9333 17.375 10.5 17.825C10.0667 18.275 9.53333 18.6167 8.9 18.85C8.48333 18.9667 8.05 19.0667 7.6 19.15C7.15 19.25 6.69167 19.3167 6.225 19.35C5.75833 19.4 5.3 19.4 4.85 19.35C4.41667 19.3 4 19.1917 3.6 19.025C2.93333 18.7417 2.425 18.3583 2.075 17.875C1.725 17.3917 1.45 16.7917 1.25 16.075C1.2 15.8917 1.14167 15.6417 1.075 15.325C1.025 14.9917 0.983333 14.6583 0.95 14.325C0.9 13.7917 0.858333 13.3083 0.825 12.875C0.791667 12.4417 0.758333 12.0167 0.725 11.6C0.708333 11.1667 0.691667 10.7167 0.675 10.25C0.675 9.76667 0.683333 9.21667 0.7 8.6C0.716667 8.06667 0.741667 7.525 0.775 6.975C0.808333 6.40833 0.866667 5.85833 0.95 5.325C1.03333 4.775 1.175 4.24167 1.375 3.725C1.59167 3.20833 1.94167 2.78333 2.425 2.45C2.75833 2.16667 3.13333 1.95833 3.55 1.825C3.96667 1.69167 4.4 1.59167 4.85 1.525C5.76667 1.40833 6.64167 1.44167 7.475 1.625C8.30833 1.79167 9.025 2.1 9.625 2.55C10.225 3 10.675 3.6 10.975 4.35C11.275 5.08333 11.3667 5.95833 11.25 6.975L11.225 7.125C11.1917 7.175 11.1167 7.2 11 7.2C10.8833 7.2 10.6917 7.20833 10.425 7.225C10.175 7.225 9.95833 7.23333 9.775 7.25C9.60833 7.25 9.43333 7.25 9.25 7.25C9.08333 7.25 8.90833 7.24167 8.725 7.225C8.54167 7.20833 8.325 7.18333 8.075 7.15C8.025 6.98333 7.95 6.78333 7.85 6.55C7.76667 6.3 7.65 6.075 7.5 5.875C7.36667 5.65833 7.20833 5.475 7.025 5.325C6.84167 5.15833 6.625 5.075 6.375 5.075C6.09167 5.05833 5.81667 5.05 5.55 5.05C5.28333 5.05 5.05 5.15 4.85 5.35C4.81667 5.38333 4.76667 5.475 4.7 5.625C4.65 5.75833 4.60833 5.89167 4.575 6.025C4.45833 6.425 4.35833 6.90833 4.275 7.475C4.20833 8.04167 4.15833 8.65 4.125 9.3C4.09167 9.93333 4.08333 10.5917 4.1 11.275C4.11667 11.9583 4.15 12.6083 4.2 13.225C4.23333 13.5917 4.3 13.9917 4.4 14.425C4.5 14.8583 4.70833 15.2 5.025 15.45C5.175 15.55 5.36667 15.625 5.6 15.675C5.85 15.7083 6.10833 15.7 6.375 15.65C6.65833 15.6 6.91667 15.5333 7.15 15.45C7.33333 15.3667 7.49167 15.2583 7.625 15.125C7.75833 14.975 7.85833 14.7833 7.925 14.55C7.94167 14.4833 7.95833 14.375 7.975 14.225C8.00833 14.0583 8.025 13.8917 8.025 13.725C8.04167 13.5583 8.04167 13.4083 8.025 13.275C8.025 13.1417 8 13.0667 7.95 13.05C7.85 13.0333 7.70833 13.0333 7.525 13.05C7.35833 13.05 7.175 13.0583 6.975 13.075C6.79167 13.075 6.61667 13.075 6.45 13.075C6.3 13.0583 6.18333 13.0333 6.1 13C6.06667 12.7333 6.04167 12.5 6.025 12.3C6.025 12.1 6.025 11.9083 6.025 11.725C6.04167 11.525 6.05 11.325 6.05 11.125C6.05 10.925 6.03333 10.675 6 10.375V10.35C6 10.3333 6.00833 10.325 6.025 10.325ZM20.6402 9.075C20.7569 9.55833 20.8486 9.94167 20.9152 10.225L22.7902 18.975V19C22.2902 19.1 21.7402 19.1333 21.1402 19.1C20.5402 19.0833 19.9736 19.0167 19.4402 18.9H19.4152C19.3152 18.6333 19.2152 18.3167 19.1152 17.95C19.0319 17.5833 18.9402 17.2083 18.8402 16.825C18.7569 16.4417 18.6652 16.075 18.5652 15.725C18.4652 15.375 18.3569 15.075 18.2402 14.825C18.0236 14.7917 17.8569 14.775 17.7402 14.775C17.6236 14.775 17.5152 14.775 17.4152 14.775C17.3319 14.775 17.2319 14.7833 17.1152 14.8C17.0152 14.8 16.8736 14.8 16.6902 14.8C16.5736 15.0667 16.4736 15.3833 16.3902 15.75C16.3236 16.1 16.2486 16.475 16.1652 16.875C16.0986 17.2583 16.0236 17.6333 15.9402 18C15.8569 18.3667 15.7402 18.6917 15.5902 18.975C15.5736 18.975 15.5569 18.9833 15.5402 19C15.5402 19 15.5319 19 15.5152 19C15.3819 19.0333 15.0486 19.0333 14.5152 19C13.9819 18.9667 13.1486 18.9583 12.0152 18.975C11.9986 18.975 11.9819 18.9667 11.9652 18.95C11.9986 18.8333 12.0569 18.5083 12.1402 17.975C12.2236 17.4417 12.3402 16.75 12.4902 15.9C12.6402 15.05 12.8152 14.075 13.0152 12.975C13.2319 11.8583 13.4819 10.675 13.7652 9.425C14.0486 8.175 14.3569 6.875 14.6902 5.525C15.0236 4.175 15.3902 2.83333 15.7902 1.5C15.9069 1.48333 16.0319 1.475 16.1652 1.475C16.2986 1.475 16.4736 1.475 16.6902 1.475C16.9069 1.475 17.1819 1.475 17.5152 1.475C17.8652 1.45833 18.3152 1.425 18.8652 1.375C18.9152 1.59167 18.9902 1.925 19.0902 2.375C19.2069 2.80833 19.3236 3.30833 19.4402 3.875C19.5736 4.425 19.7069 5.01667 19.8402 5.65C19.9902 6.28333 20.1319 6.89167 20.2652 7.475C20.3986 8.05833 20.5236 8.59167 20.6402 9.075ZM17.4152 11.875C17.7319 11.8583 18.0486 11.85 18.3652 11.85C18.1986 10.4167 18.0486 9.3 17.9152 8.5C17.7986 7.7 17.6902 7.15833 17.5902 6.875C17.5069 6.59167 17.4152 6.53333 17.3152 6.7C17.2319 6.85 17.1486 7.16667 17.0652 7.65C16.9986 8.13333 16.9152 8.74167 16.8152 9.475C16.7319 10.2083 16.6319 11 16.5152 11.85C16.7986 11.8667 17.0986 11.875 17.4152 11.875ZM34.1051 16.275C34.1051 16.4417 34.1134 16.5917 34.1301 16.725C34.1634 17.325 34.1801 17.7833 34.1801 18.1C34.1801 18.4 34.1551 18.625 34.1051 18.775C34.0717 18.9083 34.0051 18.9833 33.9051 19C33.8051 19 33.6634 19 33.4801 19C33.2967 18.9833 33.0551 18.9833 32.7551 19C32.4717 19.0167 31.9801 19.0333 31.2801 19.05C30.5967 19.0667 29.6467 19.075 28.4301 19.075C27.2301 19.075 25.6217 19.0583 23.6051 19.025L23.6051 18.575C23.6551 17.325 23.6967 16.2 23.7301 15.2C23.7634 14.1833 23.7801 13.2417 23.7801 12.375C23.7967 11.4917 23.8051 10.6417 23.8051 9.825C23.8051 9.00833 23.7967 8.175 23.7801 7.325C23.7634 6.475 23.7467 5.575 23.7301 4.625C23.7134 3.65833 23.6967 2.59167 23.6801 1.425C23.8467 1.35833 24.1051 1.30833 24.4551 1.275C24.8051 1.225 25.1801 1.2 25.5801 1.2C25.9801 1.2 26.3717 1.225 26.7551 1.275C27.1384 1.325 27.4467 1.4 27.6801 1.5C27.6467 2.58333 27.6301 3.7 27.6301 4.85C27.6467 5.98333 27.6634 7.125 27.6801 8.275C27.6967 9.425 27.7051 10.575 27.7051 11.725C27.7217 12.8583 27.7217 13.9583 27.7051 15.025V15.05C27.8217 15.0167 28.0384 15.0083 28.3551 15.025C28.6884 15.025 29.0717 15.0333 29.5051 15.05C29.9384 15.0667 30.3967 15.0917 30.8801 15.125C31.3801 15.1417 31.8467 15.1583 32.2801 15.175C32.7301 15.1917 33.1217 15.2083 33.4551 15.225C33.8051 15.225 34.0467 15.2167 34.1801 15.2C34.1801 15.3833 34.1717 15.5667 34.1551 15.75C34.1384 15.9167 34.1217 16.0917 34.1051 16.275ZM45.6285 16.275C45.6285 16.4417 45.6368 16.5917 45.6535 16.725C45.6868 17.325 45.7035 17.7833 45.7035 18.1C45.7035 18.4 45.6785 18.625 45.6285 18.775C45.5952 18.9083 45.5285 18.9833 45.4285 19C45.3285 19 45.1868 19 45.0035 19C44.8202 18.9833 44.5785 18.9833 44.2785 19C43.9952 19.0167 43.5035 19.0333 42.8035 19.05C42.1202 19.0667 41.1702 19.075 39.9535 19.075C38.7535 19.075 37.1452 19.0583 35.1285 19.025L35.1285 18.575C35.1785 17.325 35.2202 16.2 35.2535 15.2C35.2868 14.1833 35.3035 13.2417 35.3035 12.375C35.3202 11.4917 35.3285 10.6417 35.3285 9.825C35.3285 9.00833 35.3202 8.175 35.3035 7.325C35.2868 6.475 35.2702 5.575 35.2535 4.625C35.2368 3.65833 35.2202 2.59167 35.2035 1.425C35.3702 1.35833 35.6285 1.30833 35.9785 1.275C36.3285 1.225 36.7035 1.2 37.1035 1.2C37.5035 1.2 37.8952 1.225 38.2785 1.275C38.6618 1.325 38.9702 1.4 39.2035 1.5C39.1702 2.58333 39.1535 3.7 39.1535 4.85C39.1702 5.98333 39.1868 7.125 39.2035 8.275C39.2202 9.425 39.2285 10.575 39.2285 11.725C39.2452 12.8583 39.2452 13.9583 39.2285 15.025L39.2285 15.05C39.3452 15.0167 39.5618 15.0083 39.8785 15.025C40.2118 15.025 40.5952 15.0333 41.0285 15.05C41.4618 15.0667 41.9202 15.0917 42.4035 15.125C42.9035 15.1417 43.3702 15.1583 43.8035 15.175C44.2535 15.1917 44.6452 15.2083 44.9785 15.225C45.3285 15.225 45.5702 15.2167 45.7035 15.2C45.7035 15.3833 45.6952 15.5667 45.6785 15.75C45.6618 15.9167 45.6452 16.0917 45.6285 16.275ZM54.027 15.575C55.0936 15.625 56.1936 15.6333 57.327 15.6V15.65C57.3603 16.1833 57.3686 16.7417 57.352 17.325C57.3353 17.8917 57.2603 18.425 57.127 18.925C55.427 18.9083 53.6936 18.9333 51.927 19C50.177 19.05 48.4936 19.0083 46.877 18.875C46.877 17.425 46.8603 15.9917 46.827 14.575C46.7936 13.1417 46.7686 11.7167 46.752 10.3C46.7353 8.88333 46.7353 7.46667 46.752 6.05C46.7686 4.63333 46.8186 3.20833 46.902 1.775C47.552 1.74167 48.252 1.71667 49.002 1.7C49.7686 1.66667 50.5353 1.64167 51.302 1.625C52.0686 1.60833 52.8103 1.59167 53.527 1.575C54.2436 1.55833 54.877 1.55 55.427 1.55C55.977 1.55 56.4186 1.55833 56.752 1.575C57.0853 1.59167 57.252 1.60833 57.252 1.625C57.3353 2.20833 57.352 2.8 57.302 3.4C57.2686 4 57.252 4.59167 57.252 5.175V5.2C56.7186 5.31667 56.177 5.39167 55.627 5.425C55.0936 5.44167 54.552 5.45 54.002 5.45C53.452 5.43333 52.902 5.425 52.352 5.425C51.802 5.425 51.252 5.45 50.702 5.5H50.627L50.602 5.525C50.6186 6.00833 50.5936 6.50833 50.527 7.025C50.477 7.525 50.5103 8 50.627 8.45L50.652 8.475C51.152 8.50833 51.6603 8.525 52.177 8.525C52.6936 8.525 53.2103 8.53333 53.727 8.55V8.575C53.8103 9.14167 53.8353 9.70833 53.802 10.275C53.7686 10.8417 53.7603 11.4333 53.777 12.05C53.527 12.1167 53.2436 12.1583 52.927 12.175C52.6103 12.175 52.302 12.175 52.002 12.175C51.7186 12.175 51.4603 12.1833 51.227 12.2C50.9936 12.2167 50.8353 12.2583 50.752 12.325C50.6686 12.8083 50.6353 13.35 50.652 13.95C50.6853 14.55 50.7186 15.05 50.752 15.45L50.777 15.475C51.877 15.475 52.9603 15.5083 54.027 15.575ZM69.7631 16.95C70.1298 17.5833 70.4381 18.2417 70.6881 18.925H70.7131C70.1298 18.925 69.4798 18.95 68.7631 19C68.0464 19.0333 67.3131 19.025 66.5631 18.975H66.5381C66.3714 18.5917 66.1631 18.1333 65.9131 17.6C65.6631 17.0667 65.3881 16.5083 65.0881 15.925C64.7881 15.3417 64.4631 14.7667 64.1131 14.2C63.7631 13.6333 63.4131 13.1333 63.0631 12.7L63.0131 12.625C62.9631 13.0083 62.9381 13.4833 62.9381 14.05C62.9381 14.6 62.9464 15.175 62.9631 15.775C62.9964 16.3583 63.0298 16.9167 63.0631 17.45C63.0964 17.9833 63.1214 18.4083 63.1381 18.725C62.8548 18.8417 62.4798 18.9167 62.0131 18.95C61.5631 18.9833 61.1131 19 60.6631 19C60.2131 19.0167 59.8048 19.0167 59.4381 19C59.0881 18.9833 58.8714 18.9833 58.7881 19C58.8214 19 58.8464 18.775 58.8631 18.325C58.8798 17.8583 58.8881 17.25 58.8881 16.5C58.8881 15.75 58.8881 14.8917 58.8881 13.925C58.8881 12.9417 58.8798 11.9333 58.8631 10.9C58.8631 9.85 58.8464 8.81667 58.8131 7.8C58.7964 6.76667 58.7798 5.825 58.7631 4.975C58.7464 4.10833 58.7214 3.375 58.6881 2.775C58.6714 2.15833 58.6464 1.74167 58.6131 1.525C59.5464 1.39167 60.5714 1.26667 61.6881 1.15C62.8048 1.03333 63.9714 1.04167 65.1881 1.175C66.1714 1.225 67.0548 1.50833 67.8381 2.025C68.6214 2.54167 69.2298 3.18333 69.6631 3.95C70.0964 4.71667 70.3214 5.56667 70.3381 6.5C70.3714 7.41667 70.1298 8.30833 69.6131 9.175C69.2964 9.775 68.8714 10.275 68.3381 10.675C67.8214 11.075 67.1631 11.3 66.3631 11.35H66.2631H66.2381V11.375C66.5881 11.9917 66.9714 12.6083 67.3881 13.225C67.8048 13.825 68.2131 14.4333 68.6131 15.05C69.0131 15.6667 69.3964 16.3 69.7631 16.95ZM63.9881 4.65C63.4214 4.66667 62.8464 4.79167 62.2631 5.025C62.2798 5.24167 62.2881 5.49167 62.2881 5.775C62.3048 6.04167 62.3131 6.31667 62.3131 6.6C62.3131 6.88333 62.3131 7.15833 62.3131 7.425C62.3298 7.69167 62.3548 7.91667 62.3881 8.1H62.4131C62.7964 8.13333 63.2131 8.15833 63.6631 8.175C64.1131 8.19167 64.5381 8.16667 64.9381 8.1C65.2548 8.03333 65.4964 7.875 65.6631 7.625C65.8464 7.35833 65.9548 7.075 65.9881 6.775C66.0214 6.45833 65.9881 6.15 65.8881 5.85C65.7881 5.53333 65.6214 5.28333 65.3881 5.1C65.0214 4.76667 64.5548 4.61667 63.9881 4.65ZM81.5775 1.65C81.7442 1.65 81.8775 1.65833 81.9775 1.675V1.7C81.5109 3.2 80.9609 4.66667 80.3275 6.1C79.6942 7.53333 79.0359 8.96667 78.3525 10.4C77.6692 11.8167 77.0025 13.2417 76.3525 14.675C75.7025 16.0917 75.1275 17.5333 74.6275 19C74.5275 18.9833 74.4275 18.975 74.3275 18.975C74.2275 18.975 74.1192 18.975 74.0025 18.975C73.6525 18.975 73.2692 18.9833 72.8525 19C72.4359 19.0333 72.0359 19.05 71.6525 19.05C71.5525 19.05 71.4525 19.05 71.3525 19.05C71.2525 19.05 71.1525 19.0417 71.0525 19.025H71.0025C71.4359 17.675 71.9442 16.2667 72.5275 14.8C73.1109 13.3167 73.6942 11.8417 74.2775 10.375V10.325C74.0942 9.59167 73.8609 8.86667 73.5775 8.15C73.2942 7.41667 72.9942 6.69167 72.6775 5.975C72.3775 5.25833 72.0859 4.54167 71.8025 3.825C71.5192 3.10833 71.2942 2.4 71.1275 1.7C71.4609 1.7 71.8109 1.675 72.1775 1.625C72.5442 1.575 72.9109 1.55 73.2775 1.55C73.4775 1.55 73.6775 1.56667 73.8775 1.6C74.0775 1.61667 74.2692 1.66667 74.4525 1.75C74.5359 2.11667 74.6525 2.55 74.8025 3.05C74.9692 3.55 75.1359 4.05833 75.3025 4.575C75.4859 5.09167 75.6692 5.58333 75.8525 6.05C76.0525 6.51667 76.2275 6.90833 76.3775 7.225C76.5442 6.925 76.7109 6.54167 76.8775 6.075C77.0609 5.59167 77.2359 5.09167 77.4025 4.575C77.5859 4.05833 77.7609 3.55 77.9275 3.05C78.0942 2.55 78.2525 2.13333 78.4025 1.8C78.7025 1.73333 79.1025 1.69167 79.6025 1.675C80.1192 1.64167 80.5942 1.625 81.0275 1.625C81.2275 1.625 81.4109 1.63333 81.5775 1.65Z" fill="#FEDE88"/>
</svg>
