<svg width="41" height="180" viewBox="0 0 41 180" fill="none" xmlns="http://www.w3.org/2000/svg">
<path d="M20.085 12.255C20.085 12.255 20.1033 12.2917 20.14 12.365C20.4333 12.8417 20.5983 13.6117 20.635 14.675C20.7083 15.775 20.7267 16.93 20.69 18.14C20.6533 19.35 20.58 20.4683 20.47 21.495C20.3967 22.5583 20.36 23.2733 20.36 23.64L20.36 23.75L20.305 23.805C18.3617 24.025 16.29 24.1717 14.09 24.245C11.9267 24.3183 9.855 24.1717 7.875 23.805C6.005 23.6217 4.575 23.0533 3.585 22.1C2.595 21.1467 1.84333 19.9733 1.33 18.58C1.07333 17.6633 0.853333 16.71 0.669999 15.72C0.449999 14.73 0.303333 13.7217 0.229999 12.695C0.119999 11.6683 0.119999 10.66 0.23 9.67C0.34 8.71667 0.578333 7.8 0.945 6.92C1.56833 5.45333 2.41167 4.335 3.475 3.565C4.53833 2.795 5.85833 2.19 7.435 1.75C7.83833 1.64 8.38833 1.51167 9.085 1.365C9.81833 1.255 10.5517 1.16333 11.285 1.09C12.4583 0.979999 13.5217 0.888332 14.475 0.814999C15.4283 0.741666 16.3633 0.668332 17.28 0.594999C18.2333 0.558333 19.2233 0.521666 20.25 0.484999C21.3133 0.484999 22.5233 0.503333 23.88 0.539999C25.0533 0.576666 26.245 0.631666 27.455 0.705C28.7017 0.778333 29.9117 0.906666 31.085 1.09C32.295 1.27333 33.4683 1.585 34.605 2.025C35.7417 2.50167 36.6767 3.27167 37.41 4.335C38.0333 5.06833 38.4917 5.89333 38.785 6.81C39.0783 7.72667 39.2983 8.68 39.445 9.67C39.7017 11.6867 39.6283 13.6117 39.225 15.445C38.8583 17.2783 38.18 18.855 37.19 20.175C36.2 21.495 34.88 22.485 33.23 23.145C31.6167 23.805 29.6917 24.0067 27.455 23.75L27.125 23.695C27.015 23.6217 26.96 23.4567 26.96 23.2C26.96 22.9433 26.9417 22.5217 26.905 21.935C26.905 21.385 26.8867 20.9083 26.85 20.505C26.85 20.1383 26.85 19.7533 26.85 19.35C26.85 18.9833 26.8683 18.5983 26.905 18.195C26.9417 17.7917 26.9967 17.315 27.07 16.765C27.4367 16.655 27.8767 16.49 28.39 16.27C28.94 16.0867 29.435 15.83 29.875 15.5C30.3517 15.2067 30.755 14.8583 31.085 14.455C31.4517 14.0517 31.635 13.575 31.635 13.025C31.6717 12.4017 31.69 11.7967 31.69 11.21C31.69 10.6233 31.47 10.11 31.03 9.67C30.9567 9.59667 30.755 9.48667 30.425 9.34C30.1317 9.23 29.8383 9.13833 29.545 9.065C28.665 8.80833 27.6017 8.58833 26.355 8.405C25.1083 8.25833 23.77 8.14833 22.34 8.075C20.9467 8.00167 19.4983 7.98333 17.995 8.02C16.4917 8.05667 15.0617 8.13 13.705 8.24C12.8983 8.31333 12.0183 8.46 11.065 8.68C10.1117 8.9 9.36 9.35833 8.81 10.055C8.59 10.385 8.425 10.8067 8.315 11.32C8.24167 11.87 8.26 12.4383 8.37 13.025C8.48 13.6483 8.62667 14.2167 8.81 14.73C8.99333 15.1333 9.23167 15.4817 9.525 15.775C9.855 16.0683 10.2767 16.2883 10.79 16.435C10.9367 16.4717 11.175 16.5083 11.505 16.545C11.8717 16.6183 12.2383 16.655 12.605 16.655C12.9717 16.6917 13.3017 16.6917 13.595 16.655C13.8883 16.655 14.0533 16.6 14.09 16.49C14.1267 16.27 14.1267 15.9583 14.09 15.555C14.09 15.1883 14.0717 14.785 14.035 14.345C14.035 13.9417 14.035 13.5567 14.035 13.19C14.0717 12.86 14.1267 12.6033 14.2 12.42C14.7867 12.3467 15.3 12.2917 15.74 12.255C16.18 12.255 16.6017 12.255 17.005 12.255C17.445 12.2917 17.885 12.31 18.325 12.31C18.765 12.31 19.315 12.2733 19.975 12.2L20.03 12.2C20.0667 12.2 20.085 12.2183 20.085 12.255ZM22.835 44.4085C21.7717 44.6652 20.9283 44.8668 20.305 45.0135L1.055 49.1385L0.999998 49.1385C0.779998 48.0385 0.706665 46.8285 0.779998 45.5085C0.816665 44.1885 0.963331 42.9418 1.22 41.7685L1.22 41.7135C1.80666 41.4935 2.50333 41.2735 3.31 41.0535C4.11667 40.8702 4.94167 40.6685 5.785 40.4485C6.62833 40.2652 7.435 40.0635 8.205 39.8435C8.975 39.6235 9.635 39.3852 10.185 39.1285C10.2583 38.6518 10.295 38.2852 10.295 38.0285C10.295 37.7718 10.295 37.5335 10.295 37.3135C10.295 37.1302 10.2767 36.9102 10.24 36.6535C10.24 36.4335 10.24 36.1218 10.24 35.7185C9.65333 35.4618 8.95667 35.2418 8.15 35.0585C7.38 34.9118 6.555 34.7468 5.675 34.5635C4.83167 34.4168 4.00667 34.2518 3.2 34.0685C2.39333 33.8852 1.67833 33.6285 1.055 33.2985C1.055 33.2618 1.03667 33.2252 0.999999 33.1885C0.999999 33.1885 0.999999 33.1702 0.999999 33.1335C0.926665 32.8402 0.926665 32.1068 0.999999 30.9335C1.07333 29.7602 1.09167 27.9268 1.055 25.4335C1.055 25.3968 1.07333 25.3602 1.11 25.3235C1.36667 25.3968 2.08167 25.5252 3.255 25.7085C4.42833 25.8918 5.95 26.1485 7.82 26.4785C9.69 26.8085 11.835 27.1935 14.255 27.6335C16.7117 28.1102 19.315 28.6602 22.065 29.2835C24.815 29.9068 27.675 30.5852 30.645 31.3185C33.615 32.0518 36.5667 32.8585 39.5 33.7385C39.5367 33.9952 39.555 34.2702 39.555 34.5635C39.555 34.8568 39.555 35.2418 39.555 35.7185C39.555 36.1952 39.555 36.8002 39.555 37.5335C39.5917 38.3035 39.665 39.2935 39.775 40.5035C39.2983 40.6135 38.565 40.7785 37.575 40.9985C36.6217 41.2552 35.5217 41.5118 34.275 41.7685C33.065 42.0618 31.7633 42.3552 30.37 42.6485C28.9767 42.9785 27.6383 43.2902 26.355 43.5835C25.0717 43.8768 23.8983 44.1518 22.835 44.4085ZM16.675 37.3135C16.7117 38.0102 16.73 38.7068 16.73 39.4035C19.8833 39.0368 22.34 38.7068 24.1 38.4135C25.86 38.1568 27.0517 37.9185 27.675 37.6985C28.2983 37.5152 28.4267 37.3135 28.06 37.0935C27.73 36.9102 27.0333 36.7268 25.97 36.5435C24.9067 36.3968 23.5683 36.2135 21.955 35.9935C20.3417 35.8102 18.6 35.5902 16.73 35.3335C16.6933 35.9568 16.675 36.6168 16.675 37.3135ZM6.995 74.0312C6.62833 74.0312 6.29833 74.0495 6.005 74.0862C4.685 74.1595 3.67666 74.1962 2.98 74.1962C2.32 74.1962 1.825 74.1412 1.495 74.0312C1.20166 73.9578 1.03666 73.8112 0.999997 73.5912C0.999997 73.3712 0.999997 73.0595 0.999997 72.6562C1.03666 72.2528 1.03666 71.7212 0.999997 71.0612C0.96333 70.4378 0.926664 69.3562 0.889997 67.8162C0.85333 66.3128 0.834997 64.2228 0.834997 61.5462C0.834997 58.9062 0.871664 55.3678 0.944998 50.9312L1.935 50.9312C4.685 51.0412 7.16 51.1328 9.36 51.2062C11.5967 51.2795 13.6683 51.3162 15.575 51.3162C17.5183 51.3528 19.3883 51.3712 21.185 51.3712C22.9817 51.3712 24.815 51.3528 26.685 51.3162C28.555 51.2795 30.535 51.2428 32.625 51.2062C34.7517 51.1695 37.0983 51.1328 39.665 51.0962C39.8117 51.4628 39.9217 52.0312 39.995 52.8012C40.105 53.5712 40.16 54.3962 40.16 55.2762C40.16 56.1562 40.105 57.0178 39.995 57.8612C39.885 58.7045 39.72 59.3828 39.5 59.8962C37.1167 59.8228 34.66 59.7862 32.13 59.7862C29.6367 59.8228 27.125 59.8595 24.595 59.8962C22.065 59.9328 19.535 59.9512 17.005 59.9512C14.5117 59.9878 12.0917 59.9878 9.745 59.9512L9.69 59.9512C9.76333 60.2078 9.78166 60.6845 9.745 61.3812C9.745 62.1145 9.72666 62.9578 9.69 63.9112C9.65333 64.8645 9.59833 65.8728 9.525 66.9362C9.48833 68.0362 9.45166 69.0628 9.415 70.0162C9.37833 71.0062 9.34166 71.8678 9.305 72.6012C9.305 73.3712 9.32333 73.9028 9.36 74.1962C8.95666 74.1962 8.55333 74.1778 8.15 74.1412C7.78333 74.1045 7.39833 74.0678 6.995 74.0312ZM6.995 99.3827C6.62833 99.3827 6.29833 99.4011 6.005 99.4377C4.685 99.5111 3.67666 99.5477 2.98 99.5477C2.32 99.5477 1.825 99.4927 1.495 99.3827C1.20166 99.3094 1.03666 99.1627 0.999996 98.9427C0.999996 98.7227 0.999996 98.4111 0.999996 98.0077C1.03666 97.6044 1.03666 97.0727 0.999996 96.4127C0.963329 95.7894 0.926662 94.7077 0.889996 93.1677C0.853329 91.6644 0.834996 89.5744 0.834996 86.8977C0.834996 84.2577 0.871663 80.7194 0.944997 76.2827L1.935 76.2827C4.685 76.3927 7.16 76.4844 9.36 76.5577C11.5967 76.6311 13.6683 76.6677 15.575 76.6677C17.5183 76.7044 19.3883 76.7227 21.185 76.7227C22.9817 76.7227 24.815 76.7044 26.685 76.6677C28.555 76.6311 30.535 76.5944 32.625 76.5577C34.7517 76.5211 37.0983 76.4844 39.665 76.4477C39.8117 76.8144 39.9217 77.3827 39.995 78.1527C40.105 78.9227 40.16 79.7477 40.16 80.6277C40.16 81.5077 40.105 82.3694 39.995 83.2127C39.885 84.0561 39.72 84.7344 39.5 85.2477C37.1167 85.1744 34.66 85.1377 32.13 85.1377C29.6367 85.1744 27.125 85.2111 24.595 85.2477C22.065 85.2844 19.535 85.3027 17.005 85.3027C14.5117 85.3394 12.0917 85.3394 9.745 85.3027L9.69 85.3027C9.76333 85.5594 9.78166 86.0361 9.745 86.7327C9.745 87.4661 9.72666 88.3094 9.69 89.2627C9.65333 90.2161 9.59833 91.2244 9.525 92.2877C9.48833 93.3877 9.45166 94.4144 9.415 95.3677C9.37833 96.3577 9.34166 97.2194 9.305 97.9527C9.305 98.7227 9.32333 99.2544 9.36 99.5477C8.95666 99.5477 8.55333 99.5294 8.15 99.4927C7.78333 99.4561 7.39833 99.4194 6.995 99.3827ZM8.535 117.859C8.42499 120.206 8.40666 122.626 8.47999 125.119L8.36999 125.119C7.19666 125.193 5.96833 125.211 4.68499 125.174C3.43833 125.138 2.26499 124.973 1.16499 124.679C1.20166 120.939 1.14666 117.126 0.999995 113.239C0.889995 109.389 0.981662 105.686 1.275 102.129C4.465 102.129 7.61833 102.093 10.735 102.019C13.8883 101.946 17.0233 101.891 20.14 101.854C23.2567 101.818 26.3733 101.818 29.49 101.854C32.6067 101.891 35.7417 102.001 38.895 102.184C38.9683 103.614 39.0233 105.154 39.06 106.804C39.1333 108.491 39.1883 110.178 39.225 111.864C39.2617 113.551 39.2983 115.183 39.335 116.759C39.3717 118.336 39.39 119.729 39.39 120.939C39.39 122.149 39.3717 123.121 39.335 123.854C39.2983 124.588 39.2617 124.954 39.225 124.954C37.9417 125.138 36.64 125.174 35.32 125.064C34 124.991 32.6983 124.954 31.415 124.954L31.36 124.954C31.1033 123.781 30.9383 122.589 30.865 121.379C30.8283 120.206 30.81 119.014 30.81 117.804C30.8467 116.594 30.865 115.384 30.865 114.174C30.865 112.964 30.81 111.754 30.7 110.544L30.7 110.379L30.645 110.324C29.5817 110.361 28.4817 110.306 27.345 110.159C26.245 110.049 25.2 110.123 24.21 110.379L24.155 110.434C24.0817 111.534 24.045 112.653 24.045 113.789C24.045 114.926 24.0267 116.063 23.99 117.199L23.935 117.199C22.6883 117.383 21.4417 117.438 20.195 117.364C18.9483 117.291 17.6467 117.273 16.29 117.309C16.1433 116.759 16.0517 116.136 16.015 115.439C16.015 114.743 16.015 114.064 16.015 113.404C16.015 112.781 15.9967 112.213 15.96 111.699C15.9233 111.186 15.8317 110.838 15.685 110.654C14.6217 110.471 13.43 110.398 12.11 110.434C10.79 110.508 9.69 110.581 8.81 110.654L8.755 110.709C8.755 113.129 8.68166 115.513 8.535 117.859ZM5.50999 152.479C4.11666 153.285 2.66833 153.964 1.16499 154.514L1.16499 154.569C1.16499 153.285 1.10999 151.855 0.999993 150.279C0.92666 148.702 0.944994 147.089 1.05499 145.439L1.05499 145.384C1.89833 145.017 2.90666 144.559 4.07999 144.009C5.25333 143.459 6.48166 142.854 7.76499 142.194C9.04833 141.534 10.3133 140.819 11.56 140.049C12.8067 139.279 13.9067 138.509 14.86 137.739L15.025 137.629C14.1817 137.519 13.1367 137.464 11.89 137.464C10.68 137.464 9.41499 137.482 8.09499 137.519C6.81166 137.592 5.58333 137.665 4.40999 137.739C3.23666 137.812 2.30166 137.867 1.60499 137.904C1.34833 137.28 1.18333 136.455 1.10999 135.429C1.03666 134.439 0.999994 133.449 0.999994 132.459C0.963328 131.469 0.963328 130.57 0.999994 129.764C1.03666 128.994 1.03666 128.517 0.999994 128.334C0.999994 128.407 1.49499 128.462 2.48499 128.499C3.51166 128.535 4.84999 128.554 6.49999 128.554C8.14999 128.554 10.0383 128.554 12.165 128.554C14.3283 128.554 16.5467 128.535 18.82 128.499C21.13 128.499 23.4033 128.462 25.64 128.389C27.9133 128.352 29.985 128.315 31.855 128.279C33.7617 128.242 35.375 128.187 36.695 128.114C38.0517 128.077 38.9683 128.022 39.445 127.949C39.7383 130.002 40.0133 132.257 40.27 134.714C40.5267 137.17 40.5083 139.737 40.215 142.414C40.105 144.577 39.4817 146.52 38.345 148.244C37.2083 149.967 35.7967 151.305 34.11 152.259C32.4233 153.212 30.5533 153.707 28.5 153.744C26.4833 153.817 24.5217 153.285 22.615 152.149C21.295 151.452 20.195 150.517 19.315 149.344C18.435 148.207 17.94 146.759 17.83 144.999L17.83 144.779L17.83 144.724L17.775 144.724C16.4183 145.494 15.0617 146.337 13.705 147.254C12.385 148.17 11.0467 149.069 9.68999 149.949C8.33333 150.829 6.93999 151.672 5.50999 152.479ZM32.57 139.774C32.5333 138.527 32.2583 137.262 31.745 135.979C31.2683 136.015 30.7183 136.034 30.095 136.034C29.5083 136.07 28.9033 136.089 28.28 136.089C27.6567 136.089 27.0517 136.089 26.465 136.089C25.8783 136.125 25.3833 136.18 24.98 136.254L24.98 136.309C24.9067 137.152 24.8517 138.069 24.815 139.059C24.7783 140.049 24.8333 140.984 24.98 141.864C25.1267 142.56 25.475 143.092 26.025 143.459C26.6117 143.862 27.235 144.1 27.895 144.174C28.5917 144.247 29.27 144.174 29.93 143.954C30.6267 143.734 31.1767 143.367 31.58 142.854C32.3133 142.047 32.6433 141.02 32.57 139.774ZM39.17 178.471C39.17 178.837 39.1517 179.131 39.115 179.351L39.06 179.351C35.76 178.324 32.5333 177.114 29.38 175.721C26.2267 174.327 23.0733 172.879 19.92 171.376C16.8033 169.872 13.6683 168.406 10.515 166.976C7.39833 165.546 4.22666 164.281 0.999993 163.181C1.03666 162.961 1.05499 162.741 1.05499 162.521C1.05499 162.301 1.05499 162.062 1.05499 161.806C1.05499 161.036 1.03666 160.192 0.999993 159.276C0.92666 158.359 0.889993 157.479 0.889993 156.636C0.889993 156.416 0.889993 156.196 0.889993 155.976C0.889993 155.756 0.908326 155.536 0.944993 155.316L0.944993 155.206C3.91499 156.159 7.01333 157.277 10.24 158.561C13.5033 159.844 16.7483 161.127 19.975 162.411L20.085 162.411C21.6983 162.007 23.2933 161.494 24.87 160.871C26.4833 160.247 28.0783 159.587 29.655 158.891C31.2317 158.231 32.8083 157.589 34.385 156.966C35.9617 156.342 37.52 155.847 39.06 155.481C39.06 156.214 39.115 156.984 39.225 157.791C39.335 158.597 39.39 159.404 39.39 160.211C39.39 160.651 39.3533 161.091 39.28 161.531C39.2433 161.971 39.1333 162.392 38.95 162.796C38.1433 162.979 37.19 163.236 36.09 163.566C34.99 163.932 33.8717 164.299 32.735 164.666C31.5983 165.069 30.5167 165.472 29.49 165.876C28.4633 166.316 27.6017 166.701 26.905 167.031C27.565 167.397 28.4083 167.764 29.435 168.131C30.4983 168.534 31.5983 168.919 32.735 169.286C33.8717 169.689 34.99 170.074 36.09 170.441C37.19 170.807 38.1067 171.156 38.84 171.486C38.9867 172.146 39.0783 173.026 39.115 174.126C39.1883 175.262 39.225 176.307 39.225 177.261C39.225 177.701 39.2067 178.104 39.17 178.471Z" fill="#FEDE88"/>
</svg>
