<svg width="630" height="318" viewBox="0 0 630 318" fill="none" xmlns="http://www.w3.org/2000/svg">
<g clip-path="url(#clip0_1753_12797)">
<rect width="157.5" height="158.596" fill="#FFFCEA"/>
<path fill-rule="evenodd" clip-rule="evenodd" d="M132.249 56.4837C132.64 65.229 133.607 72.4945 137.421 79.6635C137.421 85.3258 135.958 92.4535 132.671 94.4633C126.276 73.2684 113.46 59.1868 93.0998 59.1868C76.1118 59.1868 61.5209 70.0025 56.0426 85.1449C54.9552 88.1505 52.653 93.9152 52.2761 93.9152C47.7193 93.9152 48.2564 84.4121 48.2564 78.3844C52.0877 71.1826 53.5268 65.9599 53.951 56.4837C54.8846 35.6255 72.055 19.0022 93.0998 19.0022C114.145 19.0022 131.315 35.6255 132.249 56.4837Z" fill="#202020"/>
<path fill-rule="evenodd" clip-rule="evenodd" d="M132.249 135.782C132.64 144.527 133.607 151.793 137.421 158.962C137.421 164.624 135.958 171.752 132.671 173.761C126.276 152.567 113.46 138.485 93.0998 138.485C76.1118 138.485 61.5209 149.301 56.0426 164.443C54.9552 167.449 52.653 173.213 52.2761 173.213C47.7193 173.213 48.2564 163.71 48.2564 157.683C52.0877 150.481 53.5268 145.258 53.951 135.782C54.8846 114.924 72.055 98.3003 93.0998 98.3003C114.145 98.3003 131.315 114.924 132.249 135.782Z" fill="#202020"/>
<path fill-rule="evenodd" clip-rule="evenodd" d="M131.246 101.93C130.854 93.1843 129.887 85.9188 126.073 78.7499C126.073 73.0875 127.536 65.9598 130.824 63.95C137.219 85.1449 150.034 99.2265 170.394 99.2265C187.382 99.2265 201.973 88.4108 207.452 73.2684C208.539 70.2628 210.841 64.4981 211.218 64.4981C215.775 64.4981 215.238 74.0012 215.238 80.0289C211.406 87.2307 209.967 92.4535 209.543 101.93C208.61 122.788 191.439 139.411 170.394 139.411C149.35 139.411 132.179 122.788 131.246 101.93Z" fill="#202020"/>
<path fill-rule="evenodd" clip-rule="evenodd" d="M131.246 181.228C130.854 172.482 129.887 165.217 126.073 158.048C126.073 152.386 127.536 145.258 130.824 143.248C137.219 164.443 150.034 178.525 170.394 178.525C187.382 178.525 201.973 167.709 207.452 152.567C208.539 149.561 210.841 143.796 211.218 143.796C215.775 143.796 215.238 153.299 215.238 159.327C211.406 166.529 209.967 171.752 209.543 181.228C208.61 202.086 191.439 218.709 170.394 218.709C149.35 218.709 132.179 202.086 131.246 181.228Z" fill="#202020"/>
<path fill-rule="evenodd" clip-rule="evenodd" d="M-25.8892 101.93C-26.2807 93.1843 -27.2479 85.9188 -31.0617 78.7499C-31.0617 73.0875 -29.599 65.9598 -26.3111 63.95C-19.9161 85.1449 -7.10039 99.2265 13.2596 99.2265C30.2476 99.2265 44.8385 88.4108 50.3168 73.2684C51.4041 70.2628 53.7064 64.4981 54.0833 64.4981C58.6401 64.4981 58.103 74.0012 58.103 80.0289C54.2717 87.2307 52.8326 92.4535 52.4084 101.93C51.4747 122.788 34.3044 139.411 13.2596 139.411C-7.78519 139.411 -24.9556 122.788 -25.8892 101.93Z" fill="#202020"/>
<path fill-rule="evenodd" clip-rule="evenodd" d="M-25.8892 181.228C-26.2807 172.482 -27.2479 165.217 -31.0617 158.048C-31.0617 152.386 -29.599 145.258 -26.3111 143.248C-19.9161 164.443 -7.10039 178.525 13.2596 178.525C30.2476 178.525 44.8385 167.709 50.3168 152.567C51.4041 149.561 53.7064 143.796 54.0833 143.796C58.6401 143.796 58.103 153.299 58.103 159.327C54.2717 166.529 52.8326 171.752 52.4084 181.228C51.4747 202.086 34.3044 218.709 13.2596 218.709C-7.78519 218.709 -24.9556 202.086 -25.8892 181.228Z" fill="#202020"/>
</g>
<g clip-path="url(#clip1_1753_12797)">
<rect width="157.5" height="158.596" transform="translate(157.5)" fill="#FFFCEA"/>
<path fill-rule="evenodd" clip-rule="evenodd" d="M289.749 56.4837C290.14 65.229 291.107 72.4945 294.921 79.6635C294.921 85.3258 293.458 92.4535 290.171 94.4633C283.776 73.2684 270.96 59.1868 250.6 59.1868C233.612 59.1868 219.021 70.0025 213.543 85.1449C212.455 88.1505 210.153 93.9152 209.776 93.9152C205.219 93.9152 205.756 84.4121 205.756 78.3844C209.588 71.1826 211.027 65.9599 211.451 56.4837C212.385 35.6255 229.555 19.0022 250.6 19.0022C271.645 19.0022 288.815 35.6255 289.749 56.4837Z" fill="#202020"/>
<path fill-rule="evenodd" clip-rule="evenodd" d="M289.749 135.782C290.14 144.527 291.107 151.793 294.921 158.962C294.921 164.624 293.458 171.752 290.171 173.761C283.776 152.567 270.96 138.485 250.6 138.485C233.612 138.485 219.021 149.301 213.543 164.443C212.455 167.449 210.153 173.213 209.776 173.213C205.219 173.213 205.756 163.71 205.756 157.683C209.588 150.481 211.027 145.258 211.451 135.782C212.385 114.924 229.555 98.3003 250.6 98.3003C271.645 98.3003 288.815 114.924 289.749 135.782Z" fill="#202020"/>
<path fill-rule="evenodd" clip-rule="evenodd" d="M288.746 101.93C288.354 93.1843 287.387 85.9188 283.573 78.7499C283.573 73.0875 285.036 65.9598 288.324 63.95C294.719 85.1449 307.534 99.2265 327.894 99.2265C344.882 99.2265 359.473 88.4108 364.952 73.2684C366.039 70.2628 368.341 64.4981 368.718 64.4981C373.275 64.4981 372.738 74.0012 372.738 80.0289C368.906 87.2307 367.467 92.4535 367.043 101.93C366.11 122.788 348.939 139.411 327.894 139.411C306.85 139.411 289.679 122.788 288.746 101.93Z" fill="#202020"/>
<path fill-rule="evenodd" clip-rule="evenodd" d="M288.746 181.228C288.354 172.482 287.387 165.217 283.573 158.048C283.573 152.386 285.036 145.258 288.324 143.248C294.719 164.443 307.534 178.525 327.894 178.525C344.882 178.525 359.473 167.709 364.952 152.567C366.039 149.561 368.341 143.796 368.718 143.796C373.275 143.796 372.738 153.299 372.738 159.327C368.906 166.529 367.467 171.752 367.043 181.228C366.11 202.086 348.939 218.709 327.894 218.709C306.85 218.709 289.679 202.086 288.746 181.228Z" fill="#202020"/>
<path fill-rule="evenodd" clip-rule="evenodd" d="M131.611 101.93C131.219 93.1843 130.252 85.9188 126.438 78.7499C126.438 73.0875 127.901 65.9598 131.189 63.95C137.584 85.1449 150.4 99.2265 170.76 99.2265C187.748 99.2265 202.339 88.4108 207.817 73.2684C208.904 70.2628 211.206 64.4981 211.583 64.4981C216.14 64.4981 215.603 74.0012 215.603 80.0289C211.772 87.2307 210.333 92.4535 209.908 101.93C208.975 122.788 191.804 139.411 170.76 139.411C149.715 139.411 132.544 122.788 131.611 101.93Z" fill="#202020"/>
<path fill-rule="evenodd" clip-rule="evenodd" d="M131.611 181.228C131.219 172.482 130.252 165.217 126.438 158.048C126.438 152.386 127.901 145.258 131.189 143.248C137.584 164.443 150.4 178.525 170.76 178.525C187.748 178.525 202.339 167.709 207.817 152.567C208.904 149.561 211.206 143.796 211.583 143.796C216.14 143.796 215.603 153.299 215.603 159.327C211.772 166.529 210.333 171.752 209.908 181.228C208.975 202.086 191.804 218.709 170.76 218.709C149.715 218.709 132.544 202.086 131.611 181.228Z" fill="#202020"/>
</g>
<g clip-path="url(#clip2_1753_12797)">
<rect width="157.5" height="158.596" transform="translate(315)" fill="#FFFCEA"/>
<path fill-rule="evenodd" clip-rule="evenodd" d="M447.249 56.4837C447.64 65.229 448.607 72.4945 452.421 79.6635C452.421 85.3258 450.958 92.4535 447.671 94.4633C441.276 73.2684 428.46 59.1868 408.1 59.1868C391.112 59.1868 376.521 70.0025 371.043 85.1449C369.955 88.1505 367.653 93.9152 367.276 93.9152C362.719 93.9152 363.256 84.4121 363.256 78.3844C367.088 71.1826 368.527 65.9599 368.951 56.4837C369.885 35.6255 387.055 19.0022 408.1 19.0022C429.145 19.0022 446.315 35.6255 447.249 56.4837Z" fill="#202020"/>
<path fill-rule="evenodd" clip-rule="evenodd" d="M447.249 135.782C447.64 144.527 448.607 151.793 452.421 158.962C452.421 164.624 450.958 171.752 447.671 173.761C441.276 152.567 428.46 138.485 408.1 138.485C391.112 138.485 376.521 149.301 371.043 164.443C369.955 167.449 367.653 173.213 367.276 173.213C362.719 173.213 363.256 163.71 363.256 157.683C367.088 150.481 368.527 145.258 368.951 135.782C369.885 114.924 387.055 98.3003 408.1 98.3003C429.145 98.3003 446.315 114.924 447.249 135.782Z" fill="#202020"/>
<path fill-rule="evenodd" clip-rule="evenodd" d="M446.246 101.93C445.854 93.1843 444.887 85.9188 441.073 78.7499C441.073 73.0875 442.536 65.9598 445.824 63.95C452.219 85.1449 465.034 99.2265 485.394 99.2265C502.382 99.2265 516.973 88.4108 522.452 73.2684C523.539 70.2628 525.841 64.4981 526.218 64.4981C530.775 64.4981 530.238 74.0012 530.238 80.0289C526.406 87.2307 524.967 92.4535 524.543 101.93C523.61 122.788 506.439 139.411 485.394 139.411C464.35 139.411 447.179 122.788 446.246 101.93Z" fill="#202020"/>
<path fill-rule="evenodd" clip-rule="evenodd" d="M446.246 181.228C445.854 172.482 444.887 165.217 441.073 158.048C441.073 152.386 442.536 145.258 445.824 143.248C452.219 164.443 465.034 178.525 485.394 178.525C502.382 178.525 516.973 167.709 522.452 152.567C523.539 149.561 525.841 143.796 526.218 143.796C530.775 143.796 530.238 153.299 530.238 159.327C526.406 166.529 524.967 171.752 524.543 181.228C523.61 202.086 506.439 218.709 485.394 218.709C464.35 218.709 447.179 202.086 446.246 181.228Z" fill="#202020"/>
<path fill-rule="evenodd" clip-rule="evenodd" d="M289.111 101.93C288.719 93.1843 287.752 85.9188 283.938 78.7499C283.938 73.0875 285.401 65.9598 288.689 63.95C295.084 85.1449 307.9 99.2265 328.26 99.2265C345.248 99.2265 359.839 88.4108 365.317 73.2684C366.404 70.2628 368.706 64.4981 369.083 64.4981C373.64 64.4981 373.103 74.0012 373.103 80.0289C369.272 87.2307 367.833 92.4535 367.408 101.93C366.475 122.788 349.304 139.411 328.26 139.411C307.215 139.411 290.044 122.788 289.111 101.93Z" fill="#202020"/>
<path fill-rule="evenodd" clip-rule="evenodd" d="M289.111 181.228C288.719 172.482 287.752 165.217 283.938 158.048C283.938 152.386 285.401 145.258 288.689 143.248C295.084 164.443 307.9 178.525 328.26 178.525C345.248 178.525 359.839 167.709 365.317 152.567C366.404 149.561 368.706 143.796 369.083 143.796C373.64 143.796 373.103 153.299 373.103 159.327C369.272 166.529 367.833 171.752 367.408 181.228C366.475 202.086 349.304 218.709 328.26 218.709C307.215 218.709 290.044 202.086 289.111 181.228Z" fill="#202020"/>
</g>
<g clip-path="url(#clip3_1753_12797)">
<rect width="157.5" height="158.596" transform="translate(472.5)" fill="#FFFCEA"/>
<path fill-rule="evenodd" clip-rule="evenodd" d="M604.749 56.4837C605.14 65.229 606.107 72.4945 609.921 79.6635C609.921 85.3258 608.458 92.4535 605.171 94.4633C598.776 73.2684 585.96 59.1868 565.6 59.1868C548.612 59.1868 534.021 70.0025 528.543 85.1449C527.455 88.1505 525.153 93.9152 524.776 93.9152C520.219 93.9152 520.756 84.4121 520.756 78.3844C524.588 71.1826 526.027 65.9599 526.451 56.4837C527.385 35.6255 544.555 19.0022 565.6 19.0022C586.645 19.0022 603.815 35.6255 604.749 56.4837Z" fill="#202020"/>
<path fill-rule="evenodd" clip-rule="evenodd" d="M604.749 135.782C605.14 144.527 606.107 151.793 609.921 158.962C609.921 164.624 608.458 171.752 605.171 173.761C598.776 152.567 585.96 138.485 565.6 138.485C548.612 138.485 534.021 149.301 528.543 164.443C527.455 167.449 525.153 173.213 524.776 173.213C520.219 173.213 520.756 163.71 520.756 157.683C524.588 150.481 526.027 145.258 526.451 135.782C527.385 114.924 544.555 98.3003 565.6 98.3003C586.645 98.3003 603.815 114.924 604.749 135.782Z" fill="#202020"/>
<path fill-rule="evenodd" clip-rule="evenodd" d="M603.746 101.93C603.354 93.1843 602.387 85.9188 598.573 78.7499C598.573 73.0875 600.036 65.9598 603.324 63.95C609.719 85.1449 622.534 99.2265 642.894 99.2265C659.882 99.2265 674.473 88.4108 679.952 73.2684C681.039 70.2628 683.341 64.4981 683.718 64.4981C688.275 64.4981 687.738 74.0012 687.738 80.0289C683.906 87.2307 682.467 92.4535 682.043 101.93C681.11 122.788 663.939 139.411 642.894 139.411C621.85 139.411 604.679 122.788 603.746 101.93Z" fill="#202020"/>
<path fill-rule="evenodd" clip-rule="evenodd" d="M603.746 181.228C603.354 172.482 602.387 165.217 598.573 158.048C598.573 152.386 600.036 145.258 603.324 143.248C609.719 164.443 622.534 178.525 642.894 178.525C659.882 178.525 674.473 167.709 679.952 152.567C681.039 149.561 683.341 143.796 683.718 143.796C688.275 143.796 687.738 153.299 687.738 159.327C683.906 166.529 682.467 171.752 682.043 181.228C681.11 202.086 663.939 218.709 642.894 218.709C621.85 218.709 604.679 202.086 603.746 181.228Z" fill="#202020"/>
<path fill-rule="evenodd" clip-rule="evenodd" d="M446.611 101.93C446.219 93.1843 445.252 85.9188 441.438 78.7499C441.438 73.0875 442.901 65.9598 446.189 63.95C452.584 85.1449 465.4 99.2265 485.76 99.2265C502.748 99.2265 517.339 88.4108 522.817 73.2684C523.904 70.2628 526.206 64.4981 526.583 64.4981C531.14 64.4981 530.603 74.0012 530.603 80.0289C526.772 87.2307 525.333 92.4535 524.908 101.93C523.975 122.788 506.804 139.411 485.76 139.411C464.715 139.411 447.544 122.788 446.611 101.93Z" fill="#202020"/>
<path fill-rule="evenodd" clip-rule="evenodd" d="M446.611 181.228C446.219 172.482 445.252 165.217 441.438 158.048C441.438 152.386 442.901 145.258 446.189 143.248C452.584 164.443 465.4 178.525 485.76 178.525C502.748 178.525 517.339 167.709 522.817 152.567C523.904 149.561 526.206 143.796 526.583 143.796C531.14 143.796 530.603 153.299 530.603 159.327C526.772 166.529 525.333 171.752 524.908 181.228C523.975 202.086 506.804 218.709 485.76 218.709C464.715 218.709 447.544 202.086 446.611 181.228Z" fill="#202020"/>
</g>
<g clip-path="url(#clip4_1753_12797)">
<rect width="157.5" height="158.596" transform="translate(0 158.596)" fill="#FFFCEA"/>
<path fill-rule="evenodd" clip-rule="evenodd" d="M132.614 135.782C133.006 144.527 133.973 151.793 137.787 158.962C137.787 164.624 136.324 171.752 133.036 173.762C126.641 152.567 113.825 138.485 93.4655 138.485C76.4775 138.485 61.8866 149.301 56.4083 164.443C55.321 167.449 53.0187 173.213 52.6418 173.213C48.085 173.213 48.6221 163.71 48.6221 157.683C52.4534 150.481 53.8925 145.258 54.3167 135.782C55.2504 114.924 72.4207 98.3004 93.4655 98.3004C114.51 98.3004 131.681 114.924 132.614 135.782Z" fill="#202020"/>
<path fill-rule="evenodd" clip-rule="evenodd" d="M132.249 215.08C132.64 223.825 133.607 231.091 137.421 238.26C137.421 243.922 135.958 251.05 132.671 253.06C126.276 231.865 113.46 217.783 93.0998 217.783C76.1118 217.783 61.5209 228.599 56.0426 243.741C54.9552 246.747 52.653 252.512 52.2761 252.512C47.7193 252.512 48.2564 243.008 48.2564 236.981C52.0877 229.779 53.5268 224.556 53.951 215.08C54.8846 194.222 72.055 177.599 93.0998 177.599C114.145 177.599 131.315 194.222 132.249 215.08Z" fill="#202020"/>
<path fill-rule="evenodd" clip-rule="evenodd" d="M131.611 181.228C131.22 172.483 130.253 165.217 126.439 158.048C126.439 152.386 127.902 145.258 131.189 143.248C137.584 164.443 150.4 178.525 170.76 178.525C187.748 178.525 202.339 167.709 207.817 152.567C208.905 149.561 211.207 143.796 211.584 143.796C216.141 143.796 215.604 153.299 215.604 159.327C211.772 166.529 210.333 171.752 209.909 181.228C208.975 202.086 191.805 218.709 170.76 218.709C149.715 218.709 132.545 202.086 131.611 181.228Z" fill="#202020"/>
<path fill-rule="evenodd" clip-rule="evenodd" d="M131.246 260.526C130.854 251.781 129.887 244.515 126.073 237.346C126.073 231.684 127.536 224.556 130.824 222.546C137.219 243.741 150.034 257.823 170.394 257.823C187.382 257.823 201.973 247.007 207.452 231.865C208.539 228.859 210.841 223.094 211.218 223.094C215.775 223.094 215.238 232.597 215.238 238.625C211.406 245.827 209.967 251.05 209.543 260.526C208.61 281.384 191.439 298.007 170.394 298.007C149.35 298.007 132.179 281.384 131.246 260.526Z" fill="#202020"/>
<path fill-rule="evenodd" clip-rule="evenodd" d="M-25.5235 181.228C-25.915 172.483 -26.8822 165.217 -30.696 158.048C-30.696 152.386 -29.2332 145.258 -25.9454 143.248C-19.5504 164.443 -6.73467 178.525 13.6253 178.525C30.6133 178.525 45.2042 167.709 50.6825 152.567C51.7699 149.561 54.0721 143.796 54.449 143.796C59.0058 143.796 58.4687 153.299 58.4687 159.327C54.6374 166.529 53.1983 171.752 52.7741 181.228C51.8405 202.086 34.6701 218.709 13.6253 218.709C-7.41946 218.709 -24.5898 202.086 -25.5235 181.228Z" fill="#202020"/>
<path fill-rule="evenodd" clip-rule="evenodd" d="M-25.8887 260.526C-26.2802 251.781 -27.2474 244.515 -31.0612 237.346C-31.0612 231.684 -29.5985 224.556 -26.3107 222.546C-19.9156 243.741 -7.0999 257.823 13.2601 257.823C30.2481 257.823 44.839 247.007 50.3172 231.865C51.4046 228.859 53.7069 223.094 54.0838 223.094C58.6406 223.094 58.1035 232.597 58.1035 238.625C54.2722 245.827 52.8331 251.05 52.4089 260.526C51.4752 281.384 34.3049 298.007 13.2601 298.007C-7.7847 298.007 -24.9551 281.384 -25.8887 260.526Z" fill="#202020"/>
</g>
<g clip-path="url(#clip5_1753_12797)">
<rect width="157.5" height="158.596" transform="translate(157.5 158.596)" fill="#FFFCEA"/>
<path fill-rule="evenodd" clip-rule="evenodd" d="M290.114 135.782C290.506 144.527 291.473 151.793 295.287 158.962C295.287 164.624 293.824 171.752 290.536 173.761C284.141 152.567 271.325 138.485 250.966 138.485C233.977 138.485 219.387 149.301 213.908 164.443C212.821 167.449 210.519 173.213 210.142 173.213C205.585 173.213 206.122 163.71 206.122 157.683C209.953 150.481 211.392 145.258 211.817 135.782C212.75 114.924 229.921 98.3003 250.966 98.3003C272.01 98.3003 289.181 114.924 290.114 135.782Z" fill="#202020"/>
<path fill-rule="evenodd" clip-rule="evenodd" d="M289.749 215.08C290.14 223.825 291.107 231.091 294.921 238.26C294.921 243.922 293.458 251.05 290.171 253.06C283.776 231.865 270.96 217.783 250.6 217.783C233.612 217.783 219.021 228.599 213.543 243.741C212.455 246.747 210.153 252.512 209.776 252.512C205.219 252.512 205.756 243.008 205.756 236.981C209.588 229.779 211.027 224.556 211.451 215.08C212.385 194.222 229.555 177.599 250.6 177.599C271.645 177.599 288.815 194.222 289.749 215.08Z" fill="#202020"/>
<path fill-rule="evenodd" clip-rule="evenodd" d="M289.111 181.228C288.72 172.482 287.753 165.217 283.939 158.048C283.939 152.386 285.402 145.258 288.689 143.248C295.084 164.443 307.9 178.525 328.26 178.525C345.248 178.525 359.839 167.709 365.317 152.567C366.405 149.561 368.707 143.796 369.084 143.796C373.641 143.796 373.104 153.299 373.104 159.327C369.272 166.529 367.833 171.752 367.409 181.228C366.475 202.086 349.305 218.709 328.26 218.709C307.215 218.709 290.045 202.086 289.111 181.228Z" fill="#202020"/>
<path fill-rule="evenodd" clip-rule="evenodd" d="M288.746 260.526C288.354 251.781 287.387 244.515 283.573 237.346C283.573 231.684 285.036 224.556 288.324 222.546C294.719 243.741 307.534 257.823 327.894 257.823C344.882 257.823 359.473 247.007 364.952 231.865C366.039 228.859 368.341 223.094 368.718 223.094C373.275 223.094 372.738 232.597 372.738 238.625C368.906 245.827 367.467 251.05 367.043 260.526C366.11 281.384 348.939 298.007 327.894 298.007C306.85 298.007 289.679 281.384 288.746 260.526Z" fill="#202020"/>
<path fill-rule="evenodd" clip-rule="evenodd" d="M131.976 181.228C131.585 172.482 130.618 165.217 126.804 158.048C126.804 152.386 128.267 145.258 131.555 143.248C137.95 164.443 150.765 178.525 171.125 178.525C188.113 178.525 202.704 167.709 208.182 152.567C209.27 149.561 211.572 143.796 211.949 143.796C216.506 143.796 215.969 153.299 215.969 159.327C212.137 166.529 210.698 171.752 210.274 181.228C209.34 202.086 192.17 218.709 171.125 218.709C150.081 218.709 132.91 202.086 131.976 181.228Z" fill="#202020"/>
<path fill-rule="evenodd" clip-rule="evenodd" d="M131.611 260.526C131.22 251.781 130.253 244.515 126.439 237.346C126.439 231.684 127.902 224.556 131.189 222.546C137.584 243.741 150.4 257.823 170.76 257.823C187.748 257.823 202.339 247.007 207.817 231.865C208.905 228.859 211.207 223.094 211.584 223.094C216.141 223.094 215.604 232.597 215.604 238.625C211.772 245.827 210.333 251.05 209.909 260.526C208.975 281.384 191.805 298.007 170.76 298.007C149.715 298.007 132.545 281.384 131.611 260.526Z" fill="#202020"/>
</g>
<g clip-path="url(#clip6_1753_12797)">
<rect width="157.5" height="158.596" transform="translate(315 158.596)" fill="#FFFCEA"/>
<path fill-rule="evenodd" clip-rule="evenodd" d="M447.614 135.782C448.006 144.527 448.973 151.793 452.787 158.962C452.787 164.624 451.324 171.752 448.036 173.762C441.641 152.567 428.825 138.485 408.466 138.485C391.477 138.485 376.887 149.301 371.408 164.443C370.321 167.449 368.019 173.213 367.642 173.213C363.085 173.213 363.622 163.71 363.622 157.683C367.453 150.481 368.892 145.258 369.317 135.782C370.25 114.924 387.421 98.3004 408.466 98.3004C429.51 98.3004 446.681 114.924 447.614 135.782Z" fill="#202020"/>
<path fill-rule="evenodd" clip-rule="evenodd" d="M447.249 215.08C447.64 223.825 448.607 231.091 452.421 238.26C452.421 243.922 450.958 251.05 447.671 253.06C441.276 231.865 428.46 217.783 408.1 217.783C391.112 217.783 376.521 228.599 371.043 243.741C369.955 246.747 367.653 252.512 367.276 252.512C362.719 252.512 363.256 243.008 363.256 236.981C367.088 229.779 368.527 224.556 368.951 215.08C369.885 194.222 387.055 177.599 408.1 177.599C429.145 177.599 446.315 194.222 447.249 215.08Z" fill="#202020"/>
<path fill-rule="evenodd" clip-rule="evenodd" d="M446.611 181.228C446.22 172.483 445.253 165.217 441.439 158.048C441.439 152.386 442.902 145.258 446.189 143.248C452.584 164.443 465.4 178.525 485.76 178.525C502.748 178.525 517.339 167.709 522.817 152.567C523.905 149.561 526.207 143.796 526.584 143.796C531.141 143.796 530.604 153.299 530.604 159.327C526.772 166.529 525.333 171.752 524.909 181.228C523.975 202.086 506.805 218.709 485.76 218.709C464.715 218.709 447.545 202.086 446.611 181.228Z" fill="#202020"/>
<path fill-rule="evenodd" clip-rule="evenodd" d="M446.246 260.526C445.854 251.781 444.887 244.515 441.073 237.346C441.073 231.684 442.536 224.556 445.824 222.546C452.219 243.741 465.034 257.823 485.394 257.823C502.382 257.823 516.973 247.007 522.452 231.865C523.539 228.859 525.841 223.094 526.218 223.094C530.775 223.094 530.238 232.597 530.238 238.625C526.406 245.827 524.967 251.05 524.543 260.526C523.61 281.384 506.439 298.007 485.394 298.007C464.35 298.007 447.179 281.384 446.246 260.526Z" fill="#202020"/>
<path fill-rule="evenodd" clip-rule="evenodd" d="M289.476 181.228C289.085 172.483 288.118 165.217 284.304 158.048C284.304 152.386 285.767 145.258 289.055 143.248C295.45 164.443 308.265 178.525 328.625 178.525C345.613 178.525 360.204 167.709 365.682 152.567C366.77 149.561 369.072 143.796 369.449 143.796C374.006 143.796 373.469 153.299 373.469 159.327C369.637 166.529 368.198 171.752 367.774 181.228C366.84 202.086 349.67 218.709 328.625 218.709C307.581 218.709 290.41 202.086 289.476 181.228Z" fill="#202020"/>
<path fill-rule="evenodd" clip-rule="evenodd" d="M289.111 260.526C288.72 251.781 287.753 244.515 283.939 237.346C283.939 231.684 285.402 224.556 288.689 222.546C295.084 243.741 307.9 257.823 328.26 257.823C345.248 257.823 359.839 247.007 365.317 231.865C366.405 228.859 368.707 223.094 369.084 223.094C373.641 223.094 373.104 232.597 373.104 238.625C369.272 245.827 367.833 251.05 367.409 260.526C366.475 281.384 349.305 298.007 328.26 298.007C307.215 298.007 290.045 281.384 289.111 260.526Z" fill="#202020"/>
</g>
<g clip-path="url(#clip7_1753_12797)">
<rect width="157.5" height="158.596" transform="translate(472.5 158.596)" fill="#FFFCEA"/>
<path fill-rule="evenodd" clip-rule="evenodd" d="M605.114 135.782C605.506 144.527 606.473 151.793 610.287 158.962C610.287 164.624 608.824 171.752 605.536 173.762C599.141 152.567 586.325 138.485 565.966 138.485C548.977 138.485 534.387 149.301 528.908 164.443C527.821 167.449 525.519 173.213 525.142 173.213C520.585 173.213 521.122 163.71 521.122 157.683C524.953 150.481 526.392 145.258 526.817 135.782C527.75 114.924 544.921 98.3004 565.966 98.3004C587.01 98.3004 604.181 114.924 605.114 135.782Z" fill="#202020"/>
<path fill-rule="evenodd" clip-rule="evenodd" d="M604.749 215.08C605.14 223.825 606.107 231.091 609.921 238.26C609.921 243.922 608.458 251.05 605.171 253.06C598.776 231.865 585.96 217.783 565.6 217.783C548.612 217.783 534.021 228.599 528.543 243.741C527.455 246.747 525.153 252.512 524.776 252.512C520.219 252.512 520.756 243.008 520.756 236.981C524.588 229.779 526.027 224.556 526.451 215.08C527.385 194.222 544.555 177.599 565.6 177.599C586.645 177.599 603.815 194.222 604.749 215.08Z" fill="#202020"/>
<path fill-rule="evenodd" clip-rule="evenodd" d="M604.111 181.228C603.72 172.483 602.753 165.217 598.939 158.048C598.939 152.386 600.402 145.258 603.689 143.248C610.084 164.443 622.9 178.525 643.26 178.525C660.248 178.525 674.839 167.709 680.317 152.567C681.405 149.561 683.707 143.796 684.084 143.796C688.641 143.796 688.104 153.299 688.104 159.327C684.272 166.529 682.833 171.752 682.409 181.228C681.475 202.086 664.305 218.709 643.26 218.709C622.215 218.709 605.045 202.086 604.111 181.228Z" fill="#202020"/>
<path fill-rule="evenodd" clip-rule="evenodd" d="M603.746 260.526C603.354 251.781 602.387 244.515 598.573 237.346C598.573 231.684 600.036 224.556 603.324 222.546C609.719 243.741 622.534 257.823 642.894 257.823C659.882 257.823 674.473 247.007 679.952 231.865C681.039 228.859 683.341 223.094 683.718 223.094C688.275 223.094 687.738 232.597 687.738 238.625C683.906 245.827 682.467 251.05 682.043 260.526C681.11 281.384 663.939 298.007 642.894 298.007C621.85 298.007 604.679 281.384 603.746 260.526Z" fill="#202020"/>
<path fill-rule="evenodd" clip-rule="evenodd" d="M446.976 181.228C446.585 172.483 445.618 165.217 441.804 158.048C441.804 152.386 443.267 145.258 446.555 143.248C452.95 164.443 465.765 178.525 486.125 178.525C503.113 178.525 517.704 167.709 523.182 152.567C524.27 149.561 526.572 143.796 526.949 143.796C531.506 143.796 530.969 153.299 530.969 159.327C527.137 166.529 525.698 171.752 525.274 181.228C524.34 202.086 507.17 218.709 486.125 218.709C465.081 218.709 447.91 202.086 446.976 181.228Z" fill="#202020"/>
<path fill-rule="evenodd" clip-rule="evenodd" d="M446.611 260.526C446.22 251.781 445.253 244.515 441.439 237.346C441.439 231.684 442.902 224.556 446.189 222.546C452.584 243.741 465.4 257.823 485.76 257.823C502.748 257.823 517.339 247.007 522.817 231.865C523.905 228.859 526.207 223.094 526.584 223.094C531.141 223.094 530.604 232.597 530.604 238.625C526.772 245.827 525.333 251.05 524.909 260.526C523.975 281.384 506.805 298.007 485.76 298.007C464.715 298.007 447.545 281.384 446.611 260.526Z" fill="#202020"/>
</g>
<defs>
<clipPath id="clip0_1753_12797">
<rect width="157.5" height="158.596" fill="white"/>
</clipPath>
<clipPath id="clip1_1753_12797">
<rect width="157.5" height="158.596" fill="white" transform="translate(157.5)"/>
</clipPath>
<clipPath id="clip2_1753_12797">
<rect width="157.5" height="158.596" fill="white" transform="translate(315)"/>
</clipPath>
<clipPath id="clip3_1753_12797">
<rect width="157.5" height="158.596" fill="white" transform="translate(472.5)"/>
</clipPath>
<clipPath id="clip4_1753_12797">
<rect width="157.5" height="158.596" fill="white" transform="translate(0 158.596)"/>
</clipPath>
<clipPath id="clip5_1753_12797">
<rect width="157.5" height="158.596" fill="white" transform="translate(157.5 158.596)"/>
</clipPath>
<clipPath id="clip6_1753_12797">
<rect width="157.5" height="158.596" fill="white" transform="translate(315 158.596)"/>
</clipPath>
<clipPath id="clip7_1753_12797">
<rect width="157.5" height="158.596" fill="white" transform="translate(472.5 158.596)"/>
</clipPath>
</defs>
</svg>
