<svg width="556" height="109" viewBox="0 0 556 109" fill="none" xmlns="http://www.w3.org/2000/svg">
<path d="M65.2202 18.1959C67.7652 22.9923 68.3525 29.0613 66.9821 36.4028H66.8353C63.4093 36.9901 59.7385 37.3816 55.8231 37.5774C51.9076 37.6753 48.2369 37.2348 44.8108 36.2559C45.3982 33.613 44.8598 31.4105 43.1957 29.6486C41.5316 27.8866 39.525 26.7609 37.1757 26.2715C34.8264 25.7821 32.5261 26.0268 30.2747 27.0057C28.1212 27.9845 26.8487 29.8444 26.4571 32.5852C26.2614 33.2704 26.1635 33.9556 26.1635 34.6408C26.2614 35.2281 26.3593 35.8644 26.4571 36.5496C27.2402 38.8989 28.5128 40.465 30.2747 41.2481C32.0367 42.0312 33.9455 42.5696 36.0011 42.8633C41.189 43.4506 45.9855 45.1146 50.3904 47.8555C54.8931 50.5963 58.5639 54.0713 61.4026 58.2804C63.1645 60.5318 64.486 62.9789 65.367 65.6219C66.248 68.1669 66.7374 70.8098 66.8353 73.5507C67.0311 76.2915 66.8353 79.0812 66.248 81.9199C65.7585 84.6608 64.9265 87.3037 63.7519 89.8487C62.5772 92.8832 61.011 95.4772 59.0533 97.6307C57.0956 99.7842 54.8442 101.546 52.2992 102.917C49.852 104.287 47.1601 105.315 44.2235 106C41.3848 106.587 38.4482 106.832 35.4137 106.734C31.1067 106.636 26.7997 105.902 22.4927 104.532C18.2836 103.063 14.515 101.057 11.1869 98.5117C7.85872 95.9666 5.21579 92.8832 3.25806 89.2614C1.30033 85.5417 0.468296 81.3326 0.761955 76.6341V76.1936V75.7531C4.18798 75.2637 7.95661 75.1658 12.0678 75.4594C16.1791 75.6552 19.8988 75.7042 23.2269 75.6063C23.4227 78.7386 24.6462 81.0879 26.8976 82.6541C29.2469 84.2203 31.6941 85.0034 34.2391 85.0034C36.882 84.9055 39.1334 84.0245 40.9933 82.3604C42.951 80.6964 43.6362 78.1513 43.0489 74.7253C42.7552 72.376 41.8743 70.5162 40.406 69.1458C38.9377 67.6775 37.1757 66.5028 35.1201 65.6219C33.1624 64.7409 31.0089 64.1046 28.6596 63.7131C26.3103 63.2236 24.1079 62.7831 22.0523 62.3916C20.0945 62.0001 18.2836 61.3638 16.6196 60.4828C14.9555 59.6018 13.4382 58.574 12.0678 57.3994C7.56506 53.0924 4.62847 48.3449 3.25806 43.1569C1.98554 37.9689 1.93659 32.9278 3.11123 28.0335C4.28587 23.1391 6.48831 18.6853 9.71856 14.672C13.0467 10.6586 17.06 7.67309 21.7586 5.71537C24.1079 4.7365 26.7019 4.10024 29.5406 3.80658C32.3793 3.41503 35.218 3.31715 38.0567 3.51292C40.9933 3.61081 43.832 4.00235 46.5728 4.68755C49.4115 5.37276 52.0055 6.25374 54.3548 7.33049C59.0533 9.77765 62.6751 13.3994 65.2202 18.1959ZM134.575 19.6642C136.827 23.5796 138.099 28.3271 138.393 33.9067V34.0535C138.393 34.7387 138.393 35.4239 138.393 36.1091C138.393 36.6964 138.344 37.2837 138.246 37.8711C137.659 42.5696 136.093 46.8766 133.548 50.7921C131.1 54.7075 128.017 58.0357 124.297 60.7765C120.578 63.5173 116.466 65.524 111.964 66.7965C107.461 67.9711 102.86 68.1669 98.1616 67.3838C98.2595 68.7542 98.3084 70.1246 98.3084 71.495C98.3084 72.7676 98.3084 74.6763 98.3084 77.2214C98.3084 79.6686 98.3084 82.9967 98.3084 87.2058C98.4063 91.4149 98.5532 97.0923 98.7489 104.238V104.385C98.651 104.385 98.5532 104.434 98.4553 104.532C98.4553 104.532 98.4063 104.532 98.3084 104.532C96.938 104.923 95.1761 105.217 93.0226 105.413C90.967 105.511 88.7645 105.608 86.4152 105.706C84.1639 105.706 81.9125 105.657 79.6611 105.56C77.4097 105.462 75.452 105.315 73.7879 105.119C73.4942 97.9733 73.3474 90.2403 73.3474 81.9199C73.3474 73.5017 73.3474 64.8877 73.3474 56.0779C73.3474 47.2682 73.2985 38.4094 73.2006 29.5018C73.2006 20.5941 73.0537 12.078 72.7601 3.95341C76.7734 2.87666 81.1294 2.09357 85.8279 1.60414C90.6244 1.1147 95.3719 1.06576 100.07 1.45731C104.867 1.84885 109.516 2.72983 114.019 4.10024C118.522 5.37276 122.486 7.33049 125.912 9.97342C129.436 12.5185 132.324 15.7487 134.575 19.6642ZM115.634 30.6764C114.949 29.5018 113.97 28.5229 112.698 27.7398C110.251 25.7821 107.412 24.5585 104.182 24.0691C100.951 23.4818 97.7701 23.5796 94.6377 24.3627C94.4419 24.3627 94.2951 24.4117 94.1972 24.5096C94.2951 26.2715 94.2951 28.1314 94.1972 30.0891C94.1972 32.0468 94.1972 34.0045 94.1972 35.9623C94.2951 37.92 94.393 39.8288 94.4909 41.6886C94.6866 43.4506 95.0292 45.0657 95.5187 46.534H95.9592C97.5254 46.4361 99.1894 46.3872 100.951 46.3872C102.713 46.2893 104.426 46.1425 106.09 45.9467C107.852 45.7509 109.516 45.4083 111.083 44.9189C112.747 44.3316 114.166 43.4506 115.341 42.2759C116.124 41.1992 116.662 39.9756 116.956 38.6052C117.347 37.2348 117.396 35.8644 117.103 34.494C116.907 33.1236 116.417 31.851 115.634 30.6764ZM195.52 10.1202C198.359 12.6653 200.365 15.6508 201.54 19.0769C202.225 20.5452 202.715 22.0624 203.008 23.6286C203.4 25.0969 203.693 26.6141 203.889 28.1803C204.085 30.6275 204.183 33.0746 204.183 35.5218C204.281 37.8711 204.281 40.2693 204.183 42.7164C203.889 47.9044 203.791 52.9456 203.889 57.8399C203.987 62.7342 203.84 67.7264 203.449 72.8165L203.008 77.6619C202.813 81.0879 202.274 84.5629 201.393 88.0868C200.512 91.5128 199.191 94.6452 197.429 97.4839C195.765 99.8332 193.562 101.742 190.821 103.21C188.178 104.581 185.34 105.657 182.305 106.44C179.564 107.224 176.775 107.713 173.936 107.909C171.195 108.105 168.405 108.105 165.567 107.909C163.511 107.713 161.504 107.419 159.547 107.028C157.687 106.734 155.876 106.196 154.114 105.413C152.45 104.63 150.933 103.651 149.562 102.476C148.192 101.204 147.066 99.5884 146.185 97.6307C144.815 95.1836 143.885 92.5896 143.395 89.8487C143.004 87.01 142.759 84.1713 142.661 81.3326C142.368 73.6975 142.025 66.0623 141.634 58.4272C141.34 50.6942 141.438 42.9611 141.927 35.2281C142.025 30.8232 142.563 26.4183 143.542 22.0135C144.619 17.5107 146.675 13.5463 149.709 10.1202C150.688 9.14139 151.814 8.26041 153.086 7.47732C156.316 5.91114 159.791 4.78544 163.511 4.10024C167.329 3.31715 171.097 3.02349 174.817 3.21926C178.635 3.41503 182.305 4.10024 185.829 5.27487C189.451 6.35163 192.681 7.96675 195.52 10.1202ZM185.829 61.9511V54.9033L185.536 44.9189C185.536 44.821 185.438 43.8421 185.242 41.9823C185.144 40.0246 185.046 38.2137 184.948 36.5496C184.752 33.8088 183.969 31.3127 182.599 29.0613C181.326 26.8099 179.564 25.1458 177.313 24.0691C175.355 23.286 173.349 23.1391 171.293 23.6286C169.237 24.118 167.427 24.95 165.86 26.1247C162.434 28.7676 160.134 32.1447 158.959 36.2559C158.176 39.9756 157.687 43.8911 157.491 48.0023C157.393 52.1135 157.442 56.2248 157.638 60.336C158.127 63.762 158.47 67.2859 158.666 70.9077C158.862 74.4316 159.449 77.8087 160.428 81.039C161.407 82.9967 162.826 84.5139 164.686 85.5907C166.546 86.6674 168.552 87.3037 170.706 87.4995C172.859 87.5974 175.013 87.3037 177.166 86.6185C179.32 85.8354 181.131 84.6118 182.599 82.9477C183.48 81.7731 184.116 80.8432 184.508 80.158C184.899 79.3749 185.144 78.5429 185.242 77.6619C185.34 76.7809 185.34 75.7531 185.242 74.5785C185.242 73.3059 185.34 71.6419 185.536 69.5863C185.633 67.6285 185.682 65.9155 185.682 64.4472C185.78 62.9789 185.829 62.1469 185.829 61.9511ZM271.196 106.44C270.511 106.636 269.336 106.734 267.672 106.734C265.714 106.734 263.463 106.587 260.918 106.294C258.373 106.098 256.121 106 254.163 106C250.933 98.7564 247.703 91.7575 244.473 85.0034C241.34 78.1513 238.649 71.5929 236.397 65.3282L234.929 60.9233C234.537 59.8466 234.146 58.8677 233.754 57.9867C233.461 57.0078 233.216 56.5184 233.02 56.5184C232.922 56.5184 232.775 57.6931 232.58 60.0423C232.482 62.3916 232.384 65.3771 232.286 68.9989C232.188 72.6207 232.09 76.6341 231.992 81.039C231.992 85.4439 231.992 89.7019 231.992 93.8131C231.992 96.0645 231.992 98.267 231.992 100.42C231.992 102.476 232.041 104.336 232.139 106C231.062 106.294 229.986 106.489 228.909 106.587C227.832 106.685 226.755 106.734 225.679 106.734C223.329 106.734 220.931 106.587 218.484 106.294C216.135 106 213.834 105.853 211.583 105.853V95.5751C211.583 86.2759 211.485 77.4172 211.289 68.9989C211.191 60.5807 211.142 51.7709 211.142 42.5696C211.142 35.8154 211.24 29.1592 211.436 22.6008C211.632 15.9445 211.974 9.48399 212.464 3.21926C213.443 3.02349 214.471 2.87666 215.547 2.77878C216.722 2.68088 217.897 2.63194 219.071 2.63194C219.659 2.63194 220.637 2.68088 222.008 2.77878C223.378 2.77878 224.749 2.87666 226.119 3.07243C227.489 3.17032 228.664 3.31715 229.643 3.51292C230.72 3.70869 231.258 3.90447 231.258 4.10024C231.943 5.86219 232.58 7.33049 233.167 8.50513C233.754 9.67977 234.293 10.8055 234.782 11.8822C235.369 12.959 235.957 14.1825 236.544 15.5529C237.229 16.8255 238.012 18.4895 238.893 20.5452C239.089 21.0346 239.529 21.9645 240.215 23.3349C240.9 24.7053 241.683 26.3205 242.564 28.1803C243.445 29.9423 244.375 31.851 245.354 33.9067C246.333 35.8644 247.214 37.6753 247.997 39.3393C248.878 40.9055 249.612 42.2759 250.199 43.4506C250.786 44.5273 251.129 45.0657 251.227 45.0657C251.521 44.8699 251.765 43.8911 251.961 42.1291C252.157 40.3672 252.255 38.6541 252.255 36.9901C252.255 33.0746 252.157 29.4528 251.961 26.1247C251.863 22.6987 251.814 19.2237 251.814 15.6998C251.814 13.6442 251.814 11.5886 251.814 9.53294C251.912 7.37944 252.01 5.0791 252.108 2.63194C255.436 2.04462 258.96 1.75096 262.68 1.75096C266.301 1.75096 269.532 2.04462 272.37 2.63194V49.9111C272.468 54.0223 272.517 58.1825 272.517 62.3916C272.517 66.6007 272.517 70.8098 272.517 75.0189C272.517 77.8577 272.468 80.5985 272.37 83.2414C272.37 85.8843 272.37 88.5762 272.37 91.317C272.37 93.2748 272.37 95.2325 272.37 97.1902C272.468 99.148 272.517 101.106 272.517 103.063V106C272.321 106.098 271.881 106.245 271.196 106.44ZM341.828 18.1959C344.373 22.9923 344.96 29.0613 343.59 36.4028H343.443C340.017 36.9901 336.346 37.3816 332.431 37.5774C328.515 37.6753 324.844 37.2348 321.418 36.2559C322.006 33.613 321.467 31.4105 319.803 29.6486C318.139 27.8866 316.132 26.7609 313.783 26.2715C311.434 25.7821 309.134 26.0268 306.882 27.0057C304.729 27.9845 303.456 29.8444 303.065 32.5852C302.869 33.2704 302.771 33.9556 302.771 34.6408C302.869 35.2281 302.967 35.8644 303.065 36.5496C303.848 38.8989 305.12 40.465 306.882 41.2481C308.644 42.0312 310.553 42.5696 312.609 42.8633C317.797 43.4506 322.593 45.1146 326.998 47.8555C331.501 50.5963 335.171 54.0713 338.01 58.2804C339.772 60.5318 341.094 62.9789 341.975 65.6219C342.855 68.1669 343.345 70.8098 343.443 73.5507C343.639 76.2915 343.443 79.0812 342.855 81.9199C342.366 84.6608 341.534 87.3037 340.359 89.8487C339.185 92.8832 337.619 95.4772 335.661 97.6307C333.703 99.7842 331.452 101.546 328.907 102.917C326.46 104.287 323.768 105.315 320.831 106C317.992 106.587 315.056 106.832 312.021 106.734C307.714 106.636 303.407 105.902 299.1 104.532C294.891 103.063 291.123 101.057 287.794 98.5117C284.466 95.9666 281.823 92.8832 279.866 89.2614C277.908 85.5417 277.076 81.3326 277.369 76.6341V76.1936V75.7531C280.795 75.2637 284.564 75.1658 288.675 75.4594C292.787 75.6552 296.506 75.7042 299.834 75.6063C300.03 78.7386 301.254 81.0879 303.505 82.6541C305.854 84.2203 308.302 85.0034 310.847 85.0034C313.49 84.9055 315.741 84.0245 317.601 82.3604C319.559 80.6964 320.244 78.1513 319.656 74.7253C319.363 72.376 318.482 70.5162 317.013 69.1458C315.545 67.6775 313.783 66.5028 311.728 65.6219C309.77 64.7409 307.616 64.1046 305.267 63.7131C302.918 63.2236 300.715 62.7831 298.66 62.3916C296.702 62.0001 294.891 61.3638 293.227 60.4828C291.563 59.6018 290.046 58.574 288.675 57.3994C284.173 53.0924 281.236 48.3449 279.866 43.1569C278.593 37.9689 278.544 32.9278 279.719 28.0335C280.893 23.1391 283.096 18.6853 286.326 14.672C289.654 10.6586 293.668 7.67309 298.366 5.71537C300.715 4.7365 303.309 4.10024 306.148 3.80658C308.987 3.41503 311.825 3.31715 314.664 3.51292C317.601 3.61081 320.439 4.00235 323.18 4.68755C326.019 5.37276 328.613 6.25374 330.962 7.33049C335.661 9.77765 339.283 13.3994 341.828 18.1959ZM402.079 10.1202C404.918 12.6653 406.925 15.6508 408.099 19.0769C408.785 20.5452 409.274 22.0624 409.568 23.6286C409.959 25.0969 410.253 26.6141 410.449 28.1803C410.644 30.6275 410.742 33.0746 410.742 35.5218C410.84 37.8711 410.84 40.2693 410.742 42.7164C410.449 47.9044 410.351 52.9456 410.449 57.8399C410.547 62.7342 410.4 67.7264 410.008 72.8165L409.568 77.6619C409.372 81.0879 408.834 84.5629 407.953 88.0868C407.072 91.5128 405.75 94.6452 403.988 97.4839C402.324 99.8332 400.122 101.742 397.381 103.21C394.738 104.581 391.899 105.657 388.865 106.44C386.124 107.224 383.334 107.713 380.495 107.909C377.755 108.105 374.965 108.105 372.126 107.909C370.071 107.713 368.064 107.419 366.106 107.028C364.246 106.734 362.435 106.196 360.673 105.413C359.009 104.63 357.492 103.651 356.122 102.476C354.751 101.204 353.626 99.5884 352.745 97.6307C351.374 95.1836 350.444 92.5896 349.955 89.8487C349.563 87.01 349.319 84.1713 349.221 81.3326C348.927 73.6975 348.585 66.0623 348.193 58.4272C347.899 50.6942 347.997 42.9611 348.487 35.2281C348.585 30.8232 349.123 26.4183 350.102 22.0135C351.179 17.5107 353.234 13.5463 356.269 10.1202C357.247 9.14139 358.373 8.26041 359.646 7.47732C362.876 5.91114 366.351 4.78544 370.071 4.10024C373.888 3.31715 377.657 3.02349 381.376 3.21926C385.194 3.41503 388.865 4.10024 392.389 5.27487C396.01 6.35163 399.241 7.96675 402.079 10.1202ZM392.389 61.9511V54.9033L392.095 44.9189C392.095 44.821 391.997 43.8421 391.801 41.9823C391.703 40.0246 391.606 38.2137 391.508 36.5496C391.312 33.8088 390.529 31.3127 389.158 29.0613C387.886 26.8099 386.124 25.1458 383.873 24.0691C381.915 23.286 379.908 23.1391 377.853 23.6286C375.797 24.118 373.986 24.95 372.42 26.1247C368.994 28.7676 366.693 32.1447 365.519 36.2559C364.736 39.9756 364.246 43.8911 364.051 48.0023C363.953 52.1135 364.002 56.2248 364.197 60.336C364.687 63.762 365.029 67.2859 365.225 70.9077C365.421 74.4316 366.008 77.8087 366.987 81.039C367.966 82.9967 369.385 84.5139 371.245 85.5907C373.105 86.6674 375.112 87.3037 377.265 87.4995C379.419 87.5974 381.572 87.3037 383.726 86.6185C385.879 85.8354 387.69 84.6118 389.158 82.9477C390.039 81.7731 390.676 80.8432 391.067 80.158C391.459 79.3749 391.703 78.5429 391.801 77.6619C391.899 76.7809 391.899 75.7531 391.801 74.5785C391.801 73.3059 391.899 71.6419 392.095 69.5863C392.193 67.6285 392.242 65.9155 392.242 64.4472C392.34 62.9789 392.389 62.1469 392.389 61.9511ZM482.307 93.96C484.46 97.6797 486.271 101.546 487.74 105.56H487.886C484.46 105.56 480.643 105.706 476.434 106C472.225 106.196 467.918 106.147 463.513 105.853H463.366C462.387 103.602 461.163 100.91 459.695 97.7775C458.227 94.6452 456.612 91.366 454.85 87.94C453.088 84.5139 451.179 81.1369 449.123 77.8087C447.068 74.4806 445.012 71.544 442.957 68.9989L442.663 68.5584C442.369 70.8098 442.222 73.5996 442.222 76.9277C442.222 80.158 442.271 83.5351 442.369 87.059C442.565 90.485 442.761 93.7642 442.957 96.8966C443.152 100.029 443.299 102.525 443.397 104.385C441.733 105.07 439.531 105.511 436.79 105.706C434.147 105.902 431.504 106 428.861 106C426.218 106.098 423.82 106.098 421.666 106C419.611 105.902 418.338 105.902 417.849 106C418.044 106 418.191 104.679 418.289 102.036C418.387 99.2948 418.436 95.7219 418.436 91.317C418.436 86.9121 418.436 81.871 418.436 76.1936C418.436 70.4183 418.387 64.4962 418.289 58.4272C418.289 52.2604 418.191 46.1914 417.996 40.2203C417.898 34.1514 417.8 28.6208 417.702 23.6286C417.604 18.5385 417.457 14.2315 417.261 10.7076C417.164 7.08577 417.017 4.63861 416.821 3.36609C422.303 2.583 428.323 1.84885 434.881 1.16364C441.439 0.478442 448.291 0.527385 455.437 1.31047C461.212 1.60413 466.4 3.2682 471.001 6.30268C475.602 9.33717 479.175 13.1058 481.72 17.6086C484.265 22.1113 485.586 27.1035 485.684 32.5852C485.88 37.9689 484.46 43.2059 481.426 48.296C479.566 51.8199 477.07 54.7565 473.938 57.1057C470.903 59.455 467.037 60.7765 462.338 61.0701H461.751H461.604V61.217C463.66 64.8388 465.911 68.4606 468.358 72.0824C470.805 75.6063 473.203 79.1791 475.553 82.8009C477.902 86.4227 480.153 90.1424 482.307 93.96ZM448.389 21.7198C445.061 21.8177 441.684 22.5518 438.258 23.9222C438.356 25.1948 438.405 26.6631 438.405 28.3271C438.503 29.8933 438.552 31.5084 438.552 33.1725C438.552 34.8366 438.552 36.4517 438.552 38.0179C438.65 39.5841 438.796 40.9055 438.992 41.9823H439.139C441.39 42.1781 443.838 42.3249 446.48 42.4228C449.123 42.5207 451.62 42.3738 453.969 41.9823C455.829 41.5907 457.248 40.6608 458.227 39.1925C459.304 37.6263 459.94 35.9623 460.136 34.2003C460.331 32.3405 460.136 30.5296 459.548 28.7676C458.961 26.9078 457.982 25.4395 456.612 24.3627C454.458 22.405 451.717 21.524 448.389 21.7198ZM551.255 18.1959C553.8 22.9923 554.387 29.0613 553.017 36.4028H552.87C549.444 36.9901 545.773 37.3816 541.858 37.5774C537.942 37.6753 534.272 37.2348 530.846 36.2559C531.433 33.613 530.895 31.4105 529.23 29.6486C527.566 27.8866 525.56 26.7609 523.21 26.2715C520.861 25.7821 518.561 26.0268 516.309 27.0057C514.156 27.9845 512.883 29.8444 512.492 32.5852C512.296 33.2704 512.198 33.9556 512.198 34.6408C512.296 35.2281 512.394 35.8644 512.492 36.5496C513.275 38.8989 514.547 40.465 516.309 41.2481C518.071 42.0312 519.98 42.5696 522.036 42.8633C527.224 43.4506 532.02 45.1146 536.425 47.8555C540.928 50.5963 544.599 54.0713 547.437 58.2804C549.199 60.5318 550.521 62.9789 551.402 65.6219C552.283 68.1669 552.772 70.8098 552.87 73.5507C553.066 76.2915 552.87 79.0812 552.283 81.9199C551.793 84.6608 550.961 87.3037 549.787 89.8487C548.612 92.8832 547.046 95.4772 545.088 97.6307C543.13 99.7842 540.879 101.546 538.334 102.917C535.887 104.287 533.195 105.315 530.258 106C527.42 106.587 524.483 106.832 521.448 106.734C517.141 106.636 512.834 105.902 508.527 104.532C504.318 103.063 500.55 101.057 497.222 98.5117C493.893 95.9666 491.251 92.8832 489.293 89.2614C487.335 85.5417 486.503 81.3326 486.797 76.6341V76.1936V75.7531C490.223 75.2637 493.991 75.1658 498.103 75.4594C502.214 75.6552 505.933 75.7042 509.262 75.6063C509.457 78.7386 510.681 81.0879 512.932 82.6541C515.282 84.2203 517.729 85.0034 520.274 85.0034C522.917 84.9055 525.168 84.0245 527.028 82.3604C528.986 80.6964 529.671 78.1513 529.084 74.7253C528.79 72.376 527.909 70.5162 526.441 69.1458C524.972 67.6775 523.21 66.5028 521.155 65.6219C519.197 64.7409 517.044 64.1046 514.694 63.7131C512.345 63.2236 510.143 62.7831 508.087 62.3916C506.129 62.0001 504.318 61.3638 502.654 60.4828C500.99 59.6018 499.473 58.574 498.103 57.3994C493.6 53.0924 490.663 48.3449 489.293 43.1569C488.02 37.9689 487.971 32.9278 489.146 28.0335C490.321 23.1391 492.523 18.6853 495.753 14.672C499.081 10.6586 503.095 7.67309 507.793 5.71537C510.143 4.7365 512.737 4.10024 515.575 3.80658C518.414 3.41503 521.253 3.31715 524.091 3.51292C527.028 3.61081 529.867 4.00235 532.608 4.68755C535.446 5.37276 538.04 6.25374 540.389 7.33049C545.088 9.77765 548.71 13.3994 551.255 18.1959Z" fill="#202020"/>
</svg>
