<svg width="269" height="129" viewBox="0 0 269 129" fill="none" xmlns="http://www.w3.org/2000/svg">
<path d="M3.86383 13.5234C1.56806 12.3299 0 9.92979 0 7.16346C0 3.20719 3.20719 0 7.16346 0C9.92979 0 12.3299 1.56806 13.5234 3.86383C14.7169 1.56806 17.117 0 19.8833 0C22.6497 0 25.0498 1.56806 26.2433 3.86383C27.4368 1.56806 29.8369 0 32.6032 0C35.3695 0 37.7696 1.56806 38.9631 3.86384C40.1567 1.56806 42.5568 0 45.3231 0C48.0894 0 50.4895 1.56806 51.683 3.86383C52.8765 1.56806 55.2766 0 58.043 0C60.8093 0 63.2094 1.56806 64.4029 3.86384C65.5964 1.56806 67.9965 0 70.7628 0C73.5292 0 75.9293 1.56806 77.1228 3.86383C78.3163 1.56806 80.7164 0 83.4827 0C86.2491 0 88.6491 1.56806 89.8427 3.86383C91.0362 1.56806 93.4363 0 96.2026 0C98.9689 0 101.369 1.56806 102.563 3.86384C103.756 1.56806 106.156 0 108.922 0C111.689 0 114.089 1.56806 115.282 3.86383C116.476 1.56806 118.876 0 121.642 0C125.599 0 128.806 3.20719 128.806 7.16346C128.806 9.92979 127.238 12.3299 124.942 13.5234C127.238 14.7169 128.806 17.117 128.806 19.8833C128.806 22.6497 127.238 25.0498 124.942 26.2433C127.238 27.4368 128.806 29.8369 128.806 32.6032C128.806 35.3695 127.238 37.7696 124.942 38.9632C127.238 40.1567 128.806 42.5568 128.806 45.3231C128.806 48.0894 127.238 50.4895 124.942 51.683C127.238 52.8765 128.806 55.2766 128.806 58.043C128.806 60.8093 127.238 63.2094 124.942 64.4029C127.238 65.5964 128.806 67.9965 128.806 70.7628C128.806 73.5292 127.238 75.9293 124.942 77.1228C127.238 78.3163 128.806 80.7164 128.806 83.4827C128.806 86.2491 127.238 88.6492 124.942 89.8427C127.238 91.0362 128.806 93.4363 128.806 96.2026C128.806 98.9689 127.238 101.369 124.942 102.563C127.238 103.756 128.806 106.156 128.806 108.922C128.806 111.689 127.238 114.089 124.942 115.282C127.238 116.476 128.806 118.876 128.806 121.642C128.806 125.599 125.599 128.806 121.642 128.806C118.876 128.806 116.476 127.238 115.282 124.942C114.089 127.238 111.689 128.806 108.922 128.806C106.156 128.806 103.756 127.238 102.563 124.942C101.369 127.238 98.9689 128.806 96.2026 128.806C93.4363 128.806 91.0362 127.238 89.8427 124.942C88.6491 127.238 86.2491 128.806 83.4827 128.806C80.7164 128.806 78.3163 127.238 77.1228 124.942C75.9293 127.238 73.5292 128.806 70.7628 128.806C67.9965 128.806 65.5964 127.238 64.4029 124.942C63.2094 127.238 60.8093 128.806 58.043 128.806C55.2766 128.806 52.8765 127.238 51.683 124.942C50.4895 127.238 48.0894 128.806 45.3231 128.806C42.5568 128.806 40.1567 127.238 38.9632 124.942C37.7696 127.238 35.3695 128.806 32.6032 128.806C29.8369 128.806 27.4368 127.238 26.2433 124.942C25.0498 127.238 22.6497 128.806 19.8833 128.806C17.117 128.806 14.7169 127.238 13.5234 124.942C12.3299 127.238 9.92979 128.806 7.16346 128.806C3.20719 128.806 0 125.599 0 121.642C0 118.876 1.56806 116.476 3.86384 115.282C1.56806 114.089 0 111.689 0 108.922C0 106.156 1.56806 103.756 3.86383 102.563C1.56806 101.369 0 98.9689 0 96.2026C0 93.4363 1.56806 91.0362 3.86383 89.8427C1.56806 88.6492 0 86.2491 0 83.4827C0 80.7164 1.56806 78.3163 3.86384 77.1228C1.56806 75.9293 0 73.5292 0 70.7628C0 67.9965 1.56806 65.5964 3.86383 64.4029C1.56806 63.2094 0 60.8093 0 58.043C0 55.2766 1.56806 52.8765 3.86383 51.683C1.56806 50.4895 0 48.0894 0 45.3231C0 42.5568 1.56806 40.1567 3.86383 38.9631C1.56806 37.7696 0 35.3695 0 32.6032C0 29.8369 1.56806 27.4368 3.86383 26.2433C1.56806 25.0498 0 22.6497 0 19.8833C0 17.117 1.56806 14.7169 3.86383 13.5234Z" fill="#F2306B"/>
<path d="M30.2141 7.98931L36.8893 15.7211C37.3787 16.2879 38.2573 16.2879 38.7467 15.7211L45.5894 7.79527C46.0788 7.22842 46.9574 7.22842 47.4468 7.79527L54.2895 15.7211C54.7789 16.2879 55.6575 16.2879 56.1469 15.7211L62.9896 7.79526C63.479 7.22841 64.3576 7.22841 64.847 7.79526L71.6898 15.7211C72.1792 16.2879 73.0578 16.2879 73.5472 15.7211L80.39 7.79525C80.8794 7.22841 81.758 7.22841 82.2474 7.79525L89.0902 15.7211C89.5795 16.2879 90.4582 16.2879 90.9476 15.7211L97.6227 7.98933C98.1653 7.36087 99.1624 7.44151 99.5969 8.14899L107.266 20.6347C107.366 20.799 107.505 20.9371 107.669 21.038L119.882 28.5392C120.662 29.0182 120.662 30.1513 119.882 30.6302L109.121 37.2394C108.342 37.7183 108.342 38.8514 109.121 39.3304L119.882 45.9395C120.662 46.4184 120.662 47.5515 119.882 48.0304L109.121 54.6396C108.342 55.1185 108.342 56.2517 109.121 56.7306L119.882 63.3397C120.662 63.8186 120.662 64.9518 119.882 65.4307L109.121 72.0399C108.342 72.5189 108.342 73.652 109.121 74.1309L119.882 80.7401C120.662 81.219 120.662 82.3521 119.882 82.8311L109.121 89.4403C108.342 89.9192 108.342 91.0523 109.121 91.5312L119.882 98.1403C120.662 98.6192 120.662 99.7524 119.882 100.231L107.669 107.732C107.505 107.833 107.366 107.971 107.266 108.136L99.7644 120.349C99.2855 121.129 98.1524 121.129 97.6735 120.349L91.0643 109.588C90.5854 108.808 89.4523 108.808 88.9734 109.588L82.3642 120.349C81.8853 121.129 80.7521 121.129 80.2732 120.349L73.664 109.588C73.1851 108.808 72.0519 108.808 71.573 109.588L64.9638 120.349C64.4849 121.129 63.3517 121.129 62.8728 120.349L56.2637 109.588C55.7848 108.808 54.6517 108.808 54.1728 109.588L47.5636 120.349C47.0847 121.129 45.9515 121.129 45.4726 120.349L38.8635 109.588C38.3846 108.808 37.2514 108.808 36.7725 109.588L30.1633 120.349C29.6844 121.129 28.5513 121.129 28.0724 120.349L20.5712 108.136C20.4703 107.971 20.3321 107.833 20.1678 107.732L7.95496 100.231C7.17523 99.7523 7.17523 98.6192 7.95496 98.1403L18.7156 91.5311C19.4953 91.0522 19.4953 89.9191 18.7156 89.4402L7.95495 82.831C7.17523 82.3521 7.17522 81.2189 7.95495 80.74L18.7155 74.1308C19.4953 73.6519 19.4953 72.5188 18.7156 72.0399L7.95493 65.4306C7.17521 64.9517 7.17522 63.8186 7.95495 63.3396L18.7155 56.7305C19.4953 56.2516 19.4953 55.1184 18.7155 54.6395L7.95496 48.0304C7.17523 47.5514 7.17523 46.4183 7.95496 45.9394L18.7155 39.3302C19.4953 38.8513 19.4953 37.7182 18.7155 37.2393L7.95496 30.6301C7.17523 30.1512 7.17523 29.0181 7.95496 28.5392L20.1679 21.038C20.3322 20.9371 20.4703 20.7989 20.5712 20.6347L28.2399 8.14897C28.6745 7.4415 29.6715 7.36086 30.2141 7.98931Z" fill="#FDAF46"/>
<path d="M72.2951 61.5641C85.3881 61.9812 95 63.3615 95 65C95 66.6385 85.3881 68.0188 72.2951 68.4359C81.2583 77.9891 87.0789 85.7617 85.9203 86.9203C84.7617 88.0789 76.9891 82.2583 67.4359 73.2951C67.0188 86.3882 65.6385 96 64 96C62.3615 96 60.9812 86.3881 60.5641 73.2951C51.0109 82.2583 43.2383 88.0789 42.0797 86.9203C40.9211 85.7617 46.7417 77.9891 55.7049 68.4359C42.6118 68.0188 33 66.6385 33 65C33 63.3615 42.6118 61.9812 55.7049 61.5641C46.7417 52.0109 40.9211 44.2383 42.0797 43.0797C43.2383 41.9211 51.0109 47.7417 60.5641 56.7049C60.9812 43.6119 62.3615 34 64 34C65.6385 34 67.0188 43.6118 67.4359 56.7049C76.9891 47.7417 84.7617 41.9211 85.9203 43.0797C87.0789 44.2383 81.2583 52.0109 72.2951 61.5641Z" fill="#FF4E84"/>
<path d="M143.669 13.5234C141.374 12.3299 139.806 9.92979 139.806 7.16346C139.806 3.20719 143.013 0 146.969 0C149.735 0 152.136 1.56806 153.329 3.86383C154.523 1.56806 156.923 0 159.689 0C162.455 0 164.855 1.56806 166.049 3.86383C167.242 1.56806 169.643 0 172.409 0C175.175 0 177.575 1.56806 178.769 3.86384C179.962 1.56806 182.362 0 185.129 0C187.895 0 190.295 1.56806 191.489 3.86383C192.682 1.56806 195.082 0 197.849 0C200.615 0 203.015 1.56806 204.209 3.86384C205.402 1.56806 207.802 0 210.569 0C213.335 0 215.735 1.56806 216.928 3.86383C218.122 1.56806 220.522 0 223.288 0C226.055 0 228.455 1.56806 229.648 3.86383C230.842 1.56806 233.242 0 236.008 0C238.775 0 241.175 1.56806 242.368 3.86384C243.562 1.56806 245.962 0 248.728 0C251.494 0 253.895 1.56806 255.088 3.86383C256.282 1.56806 258.682 0 261.448 0C265.404 0 268.611 3.20719 268.611 7.16346C268.611 9.92979 267.043 12.3299 264.748 13.5234C267.043 14.7169 268.611 17.117 268.611 19.8833C268.611 22.6497 267.043 25.0498 264.748 26.2433C267.043 27.4368 268.611 29.8369 268.611 32.6032C268.611 35.3695 267.043 37.7696 264.748 38.9632C267.043 40.1567 268.611 42.5568 268.611 45.3231C268.611 48.0894 267.043 50.4895 264.748 51.683C267.043 52.8765 268.611 55.2766 268.611 58.043C268.611 60.8093 267.043 63.2094 264.748 64.4029C267.043 65.5964 268.611 67.9965 268.611 70.7628C268.611 73.5292 267.043 75.9293 264.748 77.1228C267.043 78.3163 268.611 80.7164 268.611 83.4827C268.611 86.2491 267.043 88.6492 264.748 89.8427C267.043 91.0362 268.611 93.4363 268.611 96.2026C268.611 98.9689 267.043 101.369 264.748 102.563C267.043 103.756 268.611 106.156 268.611 108.922C268.611 111.689 267.043 114.089 264.748 115.282C267.043 116.476 268.611 118.876 268.611 121.642C268.611 125.599 265.404 128.806 261.448 128.806C258.682 128.806 256.282 127.238 255.088 124.942C253.895 127.238 251.494 128.806 248.728 128.806C245.962 128.806 243.562 127.238 242.368 124.942C241.175 127.238 238.775 128.806 236.008 128.806C233.242 128.806 230.842 127.238 229.648 124.942C228.455 127.238 226.055 128.806 223.288 128.806C220.522 128.806 218.122 127.238 216.928 124.942C215.735 127.238 213.335 128.806 210.569 128.806C207.802 128.806 205.402 127.238 204.209 124.942C203.015 127.238 200.615 128.806 197.849 128.806C195.082 128.806 192.682 127.238 191.489 124.942C190.295 127.238 187.895 128.806 185.129 128.806C182.362 128.806 179.962 127.238 178.769 124.942C177.575 127.238 175.175 128.806 172.409 128.806C169.643 128.806 167.242 127.238 166.049 124.942C164.855 127.238 162.455 128.806 159.689 128.806C156.923 128.806 154.523 127.238 153.329 124.942C152.136 127.238 149.735 128.806 146.969 128.806C143.013 128.806 139.806 125.599 139.806 121.642C139.806 118.876 141.374 116.476 143.67 115.282C141.374 114.089 139.806 111.689 139.806 108.922C139.806 106.156 141.374 103.756 143.669 102.563C141.374 101.369 139.806 98.9689 139.806 96.2026C139.806 93.4363 141.374 91.0362 143.669 89.8427C141.374 88.6492 139.806 86.2491 139.806 83.4827C139.806 80.7164 141.374 78.3163 143.67 77.1228C141.374 75.9293 139.806 73.5292 139.806 70.7628C139.806 67.9965 141.374 65.5964 143.669 64.4029C141.374 63.2094 139.806 60.8093 139.806 58.043C139.806 55.2766 141.374 52.8765 143.669 51.683C141.374 50.4895 139.806 48.0894 139.806 45.3231C139.806 42.5568 141.374 40.1567 143.669 38.9631C141.374 37.7696 139.806 35.3695 139.806 32.6032C139.806 29.8369 141.374 27.4368 143.669 26.2433C141.374 25.0498 139.806 22.6497 139.806 19.8833C139.806 17.117 141.374 14.7169 143.669 13.5234Z" fill="#2E3192"/>
<path d="M170.023 7.98931L176.698 15.7211C177.187 16.2879 178.066 16.2879 178.555 15.7211L185.398 7.79527C185.887 7.22842 186.766 7.22842 187.255 7.79527L194.098 15.7211C194.587 16.2879 195.466 16.2879 195.955 15.7211L202.798 7.79526C203.287 7.22841 204.166 7.22841 204.655 7.79526L211.498 15.7211C211.988 16.2879 212.866 16.2879 213.356 15.7211L220.198 7.79525C220.688 7.22841 221.566 7.22841 222.056 7.79525L228.899 15.7211C229.388 16.2879 230.267 16.2879 230.756 15.7211L237.431 7.98933C237.974 7.36087 238.971 7.44151 239.405 8.14899L247.074 20.6347C247.175 20.799 247.313 20.9371 247.477 21.038L259.69 28.5392C260.47 29.0182 260.47 30.1513 259.69 30.6302L248.93 37.2394C248.15 37.7183 248.15 38.8514 248.93 39.3304L259.69 45.9395C260.47 46.4184 260.47 47.5515 259.69 48.0304L248.93 54.6396C248.15 55.1185 248.15 56.2517 248.93 56.7306L259.69 63.3397C260.47 63.8186 260.47 64.9518 259.69 65.4307L248.93 72.0399C248.15 72.5189 248.15 73.652 248.93 74.1309L259.69 80.7401C260.47 81.219 260.47 82.3521 259.69 82.8311L248.93 89.4403C248.15 89.9192 248.15 91.0523 248.93 91.5312L259.69 98.1403C260.47 98.6192 260.47 99.7524 259.69 100.231L247.477 107.732C247.313 107.833 247.175 107.971 247.074 108.136L239.573 120.349C239.094 121.129 237.961 121.129 237.482 120.349L230.873 109.588C230.394 108.808 229.261 108.808 228.782 109.588L222.173 120.349C221.694 121.129 220.561 121.129 220.082 120.349L213.472 109.588C212.994 108.808 211.86 108.808 211.381 109.588L204.772 120.349C204.293 121.129 203.16 121.129 202.681 120.349L196.072 109.588C195.593 108.808 194.46 108.808 193.981 109.588L187.372 120.349C186.893 121.129 185.76 121.129 185.281 120.349L178.672 109.588C178.193 108.808 177.06 108.808 176.581 109.588L169.972 120.349C169.493 121.129 168.36 121.129 167.881 120.349L160.38 108.136C160.279 107.971 160.141 107.833 159.976 107.732L147.763 100.231C146.984 99.7523 146.984 98.6192 147.763 98.1403L158.524 91.5311C159.304 91.0522 159.304 89.9191 158.524 89.4402L147.763 82.831C146.984 82.3521 146.984 81.2189 147.763 80.74L158.524 74.1308C159.304 73.6519 159.304 72.5188 158.524 72.0399L147.763 65.4306C146.984 64.9517 146.984 63.8186 147.763 63.3396L158.524 56.7305C159.304 56.2516 159.304 55.1184 158.524 54.6395L147.763 48.0304C146.984 47.5514 146.984 46.4183 147.763 45.9394L158.524 39.3302C159.304 38.8513 159.304 37.7182 158.524 37.2393L147.763 30.6301C146.984 30.1512 146.984 29.0181 147.763 28.5392L159.976 21.038C160.141 20.9371 160.279 20.7989 160.38 20.6347L168.048 8.14897C168.483 7.4415 169.48 7.36086 170.023 7.98931Z" fill="#FC6655"/>
<path d="M172.474 33.065C172.474 50.5523 186.651 64.7285 204.138 64.7285L204.138 33.065L172.474 33.065Z" fill="#2E3192"/>
<path d="M204.139 64.7285C221.626 64.7285 235.802 78.9048 235.802 96.3921L204.139 96.3921L204.139 64.7285Z" fill="#2E3192"/>
<path d="M204.138 64.729C204.138 47.2417 218.314 33.0654 235.801 33.0654L235.801 64.729L204.138 64.729Z" fill="#2E3192"/>
<path d="M172.474 96.3926C189.961 96.3926 204.138 82.2163 204.138 64.729L172.474 64.729L172.474 96.3926Z" fill="#2E3192"/>
</svg>
