<svg width="216" height="41" viewBox="0 0 216 41" fill="none" xmlns="http://www.w3.org/2000/svg">
<path d="M24.805 7.11C25.7583 8.90666 25.9783 11.18 25.465 13.93H25.41C24.1267 14.15 22.7517 14.2967 21.285 14.37C19.8183 14.4067 18.4433 14.2417 17.16 13.875C17.38 12.885 17.1783 12.06 16.555 11.4C15.9317 10.74 15.18 10.3183 14.3 10.135C13.42 9.95166 12.5583 10.0433 11.715 10.41C10.9083 10.7767 10.4317 11.4733 10.285 12.5C10.2117 12.7567 10.175 13.0133 10.175 13.27C10.2117 13.49 10.2483 13.7283 10.285 13.985C10.5783 14.865 11.055 15.4517 11.715 15.745C12.375 16.0383 13.09 16.24 13.86 16.35C15.8033 16.57 17.6 17.1933 19.25 18.22C20.9367 19.2467 22.3117 20.5483 23.375 22.125C24.035 22.9683 24.53 23.885 24.86 24.875C25.19 25.8283 25.3733 26.8183 25.41 27.845C25.4833 28.8717 25.41 29.9167 25.19 30.98C25.0067 32.0067 24.695 32.9967 24.255 33.95C23.815 35.0867 23.2283 36.0583 22.495 36.865C21.7617 37.6717 20.9183 38.3317 19.965 38.845C19.0483 39.3583 18.04 39.7433 16.94 40C15.8767 40.22 14.7767 40.3117 13.64 40.275C12.0267 40.2383 10.4133 39.9633 8.8 39.45C7.22333 38.9 5.81167 38.1483 4.565 37.195C3.31833 36.2417 2.32833 35.0867 1.595 33.73C0.861667 32.3367 0.55 30.76 0.66 29V28.835L0.66 28.67C1.94333 28.4867 3.355 28.45 4.895 28.56C6.435 28.6333 7.82833 28.6517 9.075 28.615C9.14833 29.7883 9.60667 30.6683 10.45 31.255C11.33 31.8417 12.2467 32.135 13.2 32.135C14.19 32.0983 15.0333 31.7683 15.73 31.145C16.4633 30.5217 16.72 29.5683 16.5 28.285C16.39 27.405 16.06 26.7083 15.51 26.195C14.96 25.645 14.3 25.205 13.53 24.875C12.7967 24.545 11.99 24.3067 11.11 24.16C10.23 23.9767 9.405 23.8117 8.635 23.665C7.90167 23.5183 7.22333 23.28 6.6 22.95C5.97667 22.62 5.40833 22.235 4.895 21.795C3.20833 20.1817 2.10833 18.4033 1.595 16.46C1.11833 14.5167 1.1 12.6283 1.54 10.795C1.98 8.96167 2.805 7.29333 4.015 5.79C5.26167 4.28666 6.765 3.16833 8.525 2.435C9.405 2.06833 10.3767 1.83 11.44 1.72C12.5033 1.57333 13.5667 1.53666 14.63 1.61C15.73 1.64667 16.7933 1.79333 17.82 2.05C18.8833 2.30666 19.855 2.63666 20.735 3.04C22.495 3.95667 23.8517 5.31333 24.805 7.11ZM51.8843 7.66C52.7277 9.12667 53.2043 10.905 53.3143 12.995V13.05C53.3143 13.3067 53.3143 13.5633 53.3143 13.82C53.3143 14.04 53.296 14.26 53.2593 14.48C53.0393 16.24 52.4527 17.8533 51.4993 19.32C50.5827 20.7867 49.4277 22.0333 48.0343 23.06C46.641 24.0867 45.101 24.8383 43.4143 25.315C41.7277 25.755 40.0043 25.8283 38.2443 25.535C38.281 26.0483 38.2993 26.5617 38.2993 27.075C38.2993 27.5517 38.2993 28.2667 38.2993 29.22C38.2993 30.1367 38.2993 31.3833 38.2993 32.96C38.336 34.5367 38.391 36.6633 38.4643 39.34V39.395C38.4277 39.395 38.391 39.4133 38.3543 39.45C38.3543 39.45 38.336 39.45 38.2993 39.45C37.786 39.5967 37.126 39.7067 36.3193 39.78C35.5493 39.8167 34.7243 39.8533 33.8443 39.89C33.001 39.89 32.1577 39.8717 31.3143 39.835C30.471 39.7983 29.7377 39.7433 29.1143 39.67C29.0043 36.9933 28.9493 34.0967 28.9493 30.98C28.9493 27.8267 28.9493 24.6 28.9493 21.3C28.9493 18 28.931 14.6817 28.8943 11.345C28.8943 8.00833 28.8393 4.81833 28.7293 1.775C30.2327 1.37166 31.8643 1.07833 33.6243 0.894999C35.421 0.711665 37.1993 0.693332 38.9593 0.839999C40.756 0.986666 42.4977 1.31667 44.1843 1.83C45.871 2.30666 47.356 3.04 48.6393 4.03C49.9593 4.98333 51.041 6.19333 51.8843 7.66ZM44.7893 11.785C44.5327 11.345 44.166 10.9783 43.6893 10.685C42.7727 9.95166 41.7093 9.49333 40.4993 9.31C39.2893 9.09 38.0977 9.12667 36.9243 9.42C36.851 9.42 36.796 9.43833 36.7593 9.475C36.796 10.135 36.796 10.8317 36.7593 11.565C36.7593 12.2983 36.7593 13.0317 36.7593 13.765C36.796 14.4983 36.8327 15.2133 36.8693 15.91C36.9427 16.57 37.071 17.175 37.2543 17.725H37.4193C38.006 17.6883 38.6293 17.67 39.2893 17.67C39.9493 17.6333 40.591 17.5783 41.2143 17.505C41.8743 17.4317 42.4977 17.3033 43.0843 17.12C43.7077 16.9 44.2393 16.57 44.6793 16.13C44.9727 15.7267 45.1743 15.2683 45.2843 14.755C45.431 14.2417 45.4493 13.7283 45.3393 13.215C45.266 12.7017 45.0827 12.225 44.7893 11.785ZM75.8132 4.085C76.8765 5.03833 77.6282 6.15667 78.0682 7.44C78.3249 7.99 78.5082 8.55833 78.6182 9.145C78.7649 9.695 78.8749 10.2633 78.9482 10.85C79.0215 11.7667 79.0582 12.6833 79.0582 13.6C79.0949 14.48 79.0949 15.3783 79.0582 16.295C78.9482 18.2383 78.9115 20.1267 78.9482 21.96C78.9849 23.7933 78.9299 25.6633 78.7832 27.57L78.6182 29.385C78.5449 30.6683 78.3432 31.97 78.0132 33.29C77.6832 34.5733 77.1882 35.7467 76.5282 36.81C75.9049 37.69 75.0799 38.405 74.0532 38.955C73.0632 39.4683 71.9999 39.8717 70.8632 40.165C69.8365 40.4583 68.7915 40.6417 67.7282 40.715C66.7015 40.7883 65.6565 40.7883 64.5932 40.715C63.8232 40.6417 63.0715 40.5317 62.3382 40.385C61.6415 40.275 60.9632 40.0733 60.3032 39.78C59.6799 39.4867 59.1115 39.12 58.5982 38.68C58.0849 38.2033 57.6632 37.5983 57.3332 36.865C56.8199 35.9483 56.4715 34.9767 56.2882 33.95C56.1415 32.8867 56.0499 31.8233 56.0132 30.76C55.9032 27.9 55.7749 25.04 55.6282 22.18C55.5182 19.2833 55.5549 16.3867 55.7382 13.49C55.7749 11.84 55.9765 10.19 56.3432 8.54C56.7465 6.85333 57.5165 5.36833 58.6532 4.085C59.0199 3.71833 59.4415 3.38833 59.9182 3.095C61.1282 2.50833 62.4299 2.08667 63.8232 1.83C65.2532 1.53667 66.6649 1.42666 68.0582 1.5C69.4882 1.57333 70.8632 1.83 72.1832 2.27C73.5399 2.67333 74.7499 3.27833 75.8132 4.085ZM72.1832 23.5V20.86L72.0732 17.12C72.0732 17.0833 72.0365 16.7167 71.9632 16.02C71.9265 15.2867 71.8899 14.6083 71.8532 13.985C71.7799 12.9583 71.4865 12.0233 70.9732 11.18C70.4965 10.3367 69.8365 9.71333 68.9932 9.31C68.2599 9.01666 67.5082 8.96166 66.7382 9.145C65.9682 9.32833 65.2899 9.64 64.7032 10.08C63.4199 11.07 62.5582 12.335 62.1182 13.875C61.8249 15.2683 61.6415 16.735 61.5682 18.275C61.5315 19.815 61.5499 21.355 61.6232 22.895C61.8065 24.1783 61.9349 25.4983 62.0082 26.855C62.0815 28.175 62.3015 29.44 62.6682 30.65C63.0349 31.3833 63.5665 31.9517 64.2632 32.355C64.9599 32.7583 65.7115 32.9967 66.5182 33.07C67.3249 33.1067 68.1315 32.9967 68.9382 32.74C69.7449 32.4467 70.4232 31.9883 70.9732 31.365C71.3032 30.925 71.5415 30.5767 71.6882 30.32C71.8349 30.0267 71.9265 29.715 71.9632 29.385C71.9999 29.055 71.9999 28.67 71.9632 28.23C71.9632 27.7533 71.9999 27.13 72.0732 26.36C72.1099 25.6267 72.1282 24.985 72.1282 24.435C72.1649 23.885 72.1832 23.5733 72.1832 23.5ZM105.26 40.165C105.003 40.2383 104.563 40.275 103.94 40.275C103.207 40.275 102.363 40.22 101.41 40.11C100.457 40.0367 99.6135 40 98.8801 40C97.6701 37.2867 96.4601 34.665 95.2501 32.135C94.0768 29.5683 93.0685 27.1117 92.2251 24.765L91.6751 23.115C91.5285 22.7117 91.3818 22.345 91.2351 22.015C91.1251 21.6483 91.0335 21.465 90.9601 21.465C90.9235 21.465 90.8685 21.905 90.7951 22.785C90.7585 23.665 90.7218 24.7833 90.6851 26.14C90.6485 27.4967 90.6118 29 90.5751 30.65C90.5751 32.3 90.5751 33.895 90.5751 35.435C90.5751 36.2783 90.5751 37.1033 90.5751 37.91C90.5751 38.68 90.5935 39.3767 90.6301 40C90.2268 40.11 89.8235 40.1833 89.4201 40.22C89.0168 40.2567 88.6135 40.275 88.2101 40.275C87.3301 40.275 86.4318 40.22 85.5151 40.11C84.6351 40 83.7735 39.945 82.9301 39.945V36.095C82.9301 32.6117 82.8935 29.2933 82.8201 26.14C82.7835 22.9867 82.7651 19.6867 82.7651 16.24C82.7651 13.71 82.8018 11.2167 82.8751 8.76C82.9485 6.26666 83.0768 3.84666 83.2601 1.5C83.6268 1.42666 84.0118 1.37167 84.4151 1.335C84.8551 1.29833 85.2951 1.28 85.7351 1.28C85.9551 1.28 86.3218 1.29833 86.8351 1.335C87.3485 1.335 87.8618 1.37167 88.3751 1.445C88.8885 1.48166 89.3285 1.53666 89.6951 1.61C90.0985 1.68333 90.3001 1.75667 90.3001 1.83C90.5568 2.49 90.7951 3.04 91.0151 3.48C91.2351 3.92 91.4368 4.34167 91.6201 4.745C91.8401 5.14833 92.0601 5.60666 92.2801 6.12C92.5368 6.59666 92.8301 7.22 93.1601 7.99C93.2335 8.17333 93.3985 8.52167 93.6551 9.035C93.9118 9.54833 94.2051 10.1533 94.5351 10.85C94.8651 11.51 95.2135 12.225 95.5801 12.995C95.9468 13.7283 96.2768 14.4067 96.5701 15.03C96.9001 15.6167 97.1751 16.13 97.3951 16.57C97.6151 16.9733 97.7435 17.175 97.7801 17.175C97.8901 17.1017 97.9818 16.735 98.0551 16.075C98.1285 15.415 98.1651 14.7733 98.1651 14.15C98.1651 12.6833 98.1285 11.3267 98.0551 10.08C98.0185 8.79666 98.0001 7.495 98.0001 6.175C98.0001 5.405 98.0001 4.635 98.0001 3.865C98.0368 3.05833 98.0735 2.19666 98.1101 1.28C99.3568 1.06 100.677 0.949998 102.07 0.949998C103.427 0.949998 104.637 1.06 105.7 1.28V18.99C105.737 20.53 105.755 22.0883 105.755 23.665C105.755 25.2417 105.755 26.8183 105.755 28.395C105.755 29.4583 105.737 30.485 105.7 31.475C105.7 32.465 105.7 33.4733 105.7 34.5C105.7 35.2333 105.7 35.9667 105.7 36.7C105.737 37.4333 105.755 38.1667 105.755 38.9V40C105.682 40.0367 105.517 40.0917 105.26 40.165ZM132.818 7.11C133.771 8.90666 133.991 11.18 133.478 13.93H133.423C132.139 14.15 130.764 14.2967 129.298 14.37C127.831 14.4067 126.456 14.2417 125.173 13.875C125.393 12.885 125.191 12.06 124.568 11.4C123.944 10.74 123.193 10.3183 122.313 10.135C121.433 9.95166 120.571 10.0433 119.728 10.41C118.921 10.7767 118.444 11.4733 118.298 12.5C118.224 12.7567 118.188 13.0133 118.188 13.27C118.224 13.49 118.261 13.7283 118.298 13.985C118.591 14.865 119.068 15.4517 119.728 15.745C120.388 16.0383 121.103 16.24 121.873 16.35C123.816 16.57 125.613 17.1933 127.263 18.22C128.949 19.2467 130.324 20.5483 131.388 22.125C132.048 22.9683 132.543 23.885 132.873 24.875C133.203 25.8283 133.386 26.8183 133.423 27.845C133.496 28.8717 133.423 29.9167 133.203 30.98C133.019 32.0067 132.708 32.9967 132.268 33.95C131.828 35.0867 131.241 36.0583 130.508 36.865C129.774 37.6717 128.931 38.3317 127.978 38.845C127.061 39.3583 126.053 39.7433 124.953 40C123.889 40.22 122.789 40.3117 121.653 40.275C120.039 40.2383 118.426 39.9633 116.813 39.45C115.236 38.9 113.824 38.1483 112.578 37.195C111.331 36.2417 110.341 35.0867 109.608 33.73C108.874 32.3367 108.563 30.76 108.673 29V28.835V28.67C109.956 28.4867 111.368 28.45 112.908 28.56C114.448 28.6333 115.841 28.6517 117.088 28.615C117.161 29.7883 117.619 30.6683 118.463 31.255C119.343 31.8417 120.259 32.135 121.213 32.135C122.203 32.0983 123.046 31.7683 123.743 31.145C124.476 30.5217 124.733 29.5683 124.513 28.285C124.403 27.405 124.073 26.7083 123.523 26.195C122.973 25.645 122.313 25.205 121.543 24.875C120.809 24.545 120.003 24.3067 119.123 24.16C118.243 23.9767 117.418 23.8117 116.648 23.665C115.914 23.5183 115.236 23.28 114.613 22.95C113.989 22.62 113.421 22.235 112.908 21.795C111.221 20.1817 110.121 18.4033 109.608 16.46C109.131 14.5167 109.113 12.6283 109.553 10.795C109.993 8.96167 110.818 7.29333 112.028 5.79C113.274 4.28666 114.778 3.16833 116.538 2.435C117.418 2.06833 118.389 1.83 119.453 1.72C120.516 1.57333 121.579 1.53666 122.643 1.61C123.743 1.64667 124.806 1.79333 125.833 2.05C126.896 2.30666 127.868 2.63666 128.748 3.04C130.508 3.95667 131.864 5.31333 132.818 7.11ZM156.487 4.085C157.55 5.03833 158.302 6.15667 158.742 7.44C158.999 7.99 159.182 8.55833 159.292 9.145C159.439 9.695 159.549 10.2633 159.622 10.85C159.695 11.7667 159.732 12.6833 159.732 13.6C159.769 14.48 159.769 15.3783 159.732 16.295C159.622 18.2383 159.585 20.1267 159.622 21.96C159.659 23.7933 159.604 25.6633 159.457 27.57L159.292 29.385C159.219 30.6683 159.017 31.97 158.687 33.29C158.357 34.5733 157.862 35.7467 157.202 36.81C156.579 37.69 155.754 38.405 154.727 38.955C153.737 39.4683 152.674 39.8717 151.537 40.165C150.51 40.4583 149.465 40.6417 148.402 40.715C147.375 40.7883 146.33 40.7883 145.267 40.715C144.497 40.6417 143.745 40.5317 143.012 40.385C142.315 40.275 141.637 40.0733 140.977 39.78C140.354 39.4867 139.785 39.12 139.272 38.68C138.759 38.2033 138.337 37.5983 138.007 36.865C137.494 35.9483 137.145 34.9767 136.962 33.95C136.815 32.8867 136.724 31.8233 136.687 30.76C136.577 27.9 136.449 25.04 136.302 22.18C136.192 19.2833 136.229 16.3867 136.412 13.49C136.449 11.84 136.65 10.19 137.017 8.54C137.42 6.85333 138.19 5.36833 139.327 4.085C139.694 3.71833 140.115 3.38833 140.592 3.095C141.802 2.50833 143.104 2.08667 144.497 1.83C145.927 1.53667 147.339 1.42666 148.732 1.5C150.162 1.57333 151.537 1.83 152.857 2.27C154.214 2.67333 155.424 3.27833 156.487 4.085ZM152.857 23.5V20.86L152.747 17.12C152.747 17.0833 152.71 16.7167 152.637 16.02C152.6 15.2867 152.564 14.6083 152.527 13.985C152.454 12.9583 152.16 12.0233 151.647 11.18C151.17 10.3367 150.51 9.71333 149.667 9.31C148.934 9.01666 148.182 8.96166 147.412 9.145C146.642 9.32833 145.964 9.64 145.377 10.08C144.094 11.07 143.232 12.335 142.792 13.875C142.499 15.2683 142.315 16.735 142.242 18.275C142.205 19.815 142.224 21.355 142.297 22.895C142.48 24.1783 142.609 25.4983 142.682 26.855C142.755 28.175 142.975 29.44 143.342 30.65C143.709 31.3833 144.24 31.9517 144.937 32.355C145.634 32.7583 146.385 32.9967 147.192 33.07C147.999 33.1067 148.805 32.9967 149.612 32.74C150.419 32.4467 151.097 31.9883 151.647 31.365C151.977 30.925 152.215 30.5767 152.362 30.32C152.509 30.0267 152.6 29.715 152.637 29.385C152.674 29.055 152.674 28.67 152.637 28.23C152.637 27.7533 152.674 27.13 152.747 26.36C152.784 25.6267 152.802 24.985 152.802 24.435C152.839 23.885 152.857 23.5733 152.857 23.5ZM187.639 35.49C188.446 36.8833 189.124 38.3317 189.674 39.835H189.729C188.446 39.835 187.016 39.89 185.439 40C183.862 40.0733 182.249 40.055 180.599 39.945H180.544C180.177 39.1017 179.719 38.0933 179.169 36.92C178.619 35.7467 178.014 34.5183 177.354 33.235C176.694 31.9517 175.979 30.6867 175.209 29.44C174.439 28.1933 173.669 27.0933 172.899 26.14L172.789 25.975C172.679 26.8183 172.624 27.8633 172.624 29.11C172.624 30.32 172.642 31.585 172.679 32.905C172.752 34.1883 172.826 35.4167 172.899 36.59C172.972 37.7633 173.027 38.6983 173.064 39.395C172.441 39.6517 171.616 39.8167 170.589 39.89C169.599 39.9633 168.609 40 167.619 40C166.629 40.0367 165.731 40.0367 164.924 40C164.154 39.9633 163.677 39.9633 163.494 40C163.567 40 163.622 39.505 163.659 38.515C163.696 37.4883 163.714 36.15 163.714 34.5C163.714 32.85 163.714 30.9617 163.714 28.835C163.714 26.6717 163.696 24.4533 163.659 22.18C163.659 19.87 163.622 17.5967 163.549 15.36C163.512 13.0867 163.476 11.015 163.439 9.145C163.402 7.23833 163.347 5.625 163.274 4.305C163.237 2.94833 163.182 2.03166 163.109 1.555C165.162 1.26166 167.417 0.986665 169.874 0.729997C172.331 0.473332 174.897 0.491665 177.574 0.784997C179.737 0.894998 181.681 1.51833 183.404 2.655C185.127 3.79167 186.466 5.20333 187.419 6.89C188.372 8.57666 188.867 10.4467 188.904 12.5C188.977 14.5167 188.446 16.4783 187.309 18.385C186.612 19.705 185.677 20.805 184.504 21.685C183.367 22.565 181.919 23.06 180.159 23.17H179.939H179.884V23.225C180.654 24.5817 181.497 25.9383 182.414 27.295C183.331 28.615 184.229 29.9533 185.109 31.31C185.989 32.6667 186.832 34.06 187.639 35.49ZM174.934 8.43C173.687 8.46667 172.422 8.74167 171.139 9.255C171.176 9.73167 171.194 10.2817 171.194 10.905C171.231 11.4917 171.249 12.0967 171.249 12.72C171.249 13.3433 171.249 13.9483 171.249 14.535C171.286 15.1217 171.341 15.6167 171.414 16.02H171.469C172.312 16.0933 173.229 16.1483 174.219 16.185C175.209 16.2217 176.144 16.1667 177.024 16.02C177.721 15.8733 178.252 15.525 178.619 14.975C179.022 14.3883 179.261 13.765 179.334 13.105C179.407 12.4083 179.334 11.73 179.114 11.07C178.894 10.3733 178.527 9.82333 178.014 9.42C177.207 8.68666 176.181 8.35667 174.934 8.43ZM214.566 7.11C215.519 8.90666 215.739 11.18 215.226 13.93H215.171C213.887 14.15 212.512 14.2967 211.046 14.37C209.579 14.4067 208.204 14.2417 206.921 13.875C207.141 12.885 206.939 12.06 206.316 11.4C205.692 10.74 204.941 10.3183 204.061 10.135C203.181 9.95166 202.319 10.0433 201.476 10.41C200.669 10.7767 200.192 11.4733 200.046 12.5C199.972 12.7567 199.936 13.0133 199.936 13.27C199.972 13.49 200.009 13.7283 200.046 13.985C200.339 14.865 200.816 15.4517 201.476 15.745C202.136 16.0383 202.851 16.24 203.621 16.35C205.564 16.57 207.361 17.1933 209.011 18.22C210.697 19.2467 212.072 20.5483 213.136 22.125C213.796 22.9683 214.291 23.885 214.621 24.875C214.951 25.8283 215.134 26.8183 215.171 27.845C215.244 28.8717 215.171 29.9167 214.951 30.98C214.767 32.0067 214.456 32.9967 214.016 33.95C213.576 35.0867 212.989 36.0583 212.256 36.865C211.522 37.6717 210.679 38.3317 209.726 38.845C208.809 39.3583 207.801 39.7433 206.701 40C205.637 40.22 204.537 40.3117 203.401 40.275C201.787 40.2383 200.174 39.9633 198.561 39.45C196.984 38.9 195.572 38.1483 194.326 37.195C193.079 36.2417 192.089 35.0867 191.356 33.73C190.622 32.3367 190.311 30.76 190.421 29V28.835V28.67C191.704 28.4867 193.116 28.45 194.656 28.56C196.196 28.6333 197.589 28.6517 198.836 28.615C198.909 29.7883 199.367 30.6683 200.211 31.255C201.091 31.8417 202.007 32.135 202.961 32.135C203.951 32.0983 204.794 31.7683 205.491 31.145C206.224 30.5217 206.481 29.5683 206.261 28.285C206.151 27.405 205.821 26.7083 205.271 26.195C204.721 25.645 204.061 25.205 203.291 24.875C202.557 24.545 201.751 24.3067 200.871 24.16C199.991 23.9767 199.166 23.8117 198.396 23.665C197.662 23.5183 196.984 23.28 196.361 22.95C195.737 22.62 195.169 22.235 194.656 21.795C192.969 20.1817 191.869 18.4033 191.356 16.46C190.879 14.5167 190.861 12.6283 191.301 10.795C191.741 8.96167 192.566 7.29333 193.776 5.79C195.022 4.28666 196.526 3.16833 198.286 2.435C199.166 2.06833 200.137 1.83 201.201 1.72C202.264 1.57333 203.327 1.53666 204.391 1.61C205.491 1.64667 206.554 1.79333 207.581 2.05C208.644 2.30666 209.616 2.63666 210.496 3.04C212.256 3.95667 213.612 5.31333 214.566 7.11Z" fill="#2E3192"/>
</svg>
