<svg width="73" height="73" viewBox="0 0 73 73" fill="none" xmlns="http://www.w3.org/2000/svg">
<path d="M26.1412 9.36971C36.1464 19.3745 36.2319 36.2389 36.2319 36.2389C36.2319 36.2389 20.0958 36.8823 10.0907 26.8775C0.0855281 16.8727 0 0.0083571 0 0.0083571C0 0.0083571 16.136 -0.635077 26.1412 9.36971Z" fill="#FBD13D"/>
<path d="M46.3226 9.36971C36.3174 19.3745 36.2319 36.2389 36.2319 36.2389C36.2319 36.2389 52.3679 36.8823 62.3731 26.8775C72.3782 16.8727 72.4638 0.0083571 72.4638 0.0083571C72.4638 0.0083571 56.3277 -0.635077 46.3226 9.36971Z" fill="#FBD13D"/>
<path d="M26.1412 63.0941C36.1464 53.0893 36.2319 36.2249 36.2319 36.2249C36.2319 36.2249 20.0958 35.5815 10.0907 45.5862C0.0855281 55.591 0 72.4554 0 72.4554C0 72.4554 16.136 73.0988 26.1412 63.0941Z" fill="#FBD13D"/>
<path d="M46.3226 63.0941C36.3174 53.0893 36.2319 36.2249 36.2319 36.2249C36.2319 36.2249 52.3679 35.5815 62.3731 45.5862C72.3782 55.591 72.4638 72.4554 72.4638 72.4554C72.4638 72.4554 56.3277 73.0988 46.3226 63.0941Z" fill="#FBD13D"/>
</svg>
