<svg width="288" height="66" viewBox="0 0 288 66" fill="none" xmlns="http://www.w3.org/2000/svg">
<path d="M19.2986 33.3336C19.2986 33.3336 19.3575 33.3041 19.4753 33.2452C20.2412 32.7739 21.4785 32.5088 23.1871 32.4498C24.9546 32.332 26.8105 32.3025 28.7548 32.3615C30.699 32.4204 32.496 32.5382 34.1457 32.715C35.8543 32.8328 37.0032 32.8917 37.5924 32.8917H37.7691L37.8575 32.9801C38.211 36.1027 38.4467 39.4315 38.5645 42.9666C38.6823 46.4427 38.4467 49.7715 37.8575 52.953C37.5629 55.9578 36.6497 58.2556 35.1178 59.8463C33.586 61.4371 31.7006 62.6449 29.4618 63.4697C27.9889 63.8822 26.457 64.2357 24.8662 64.5303C23.2755 64.8838 21.6553 65.1194 20.0056 65.2373C18.3559 65.414 16.7357 65.414 15.1449 65.2373C13.6131 65.0605 12.1401 64.6775 10.7261 64.0884C8.36943 63.0868 6.57245 61.7317 5.33519 60.0231C4.09793 58.3145 3.1258 56.1935 2.41879 53.66C2.24204 53.0119 2.03583 52.1282 1.80016 51.0088C1.62341 49.8304 1.47611 48.6521 1.35828 47.4737C1.18153 45.5884 1.03424 43.8798 0.916401 42.3479C0.798567 40.8161 0.680733 39.3137 0.562898 37.8408C0.503981 36.3089 0.445064 34.7182 0.386146 33.0685C0.386146 31.3599 0.415605 29.4156 0.474522 27.2357C0.533439 25.3503 0.621815 23.4355 0.73965 21.4912C0.857484 19.4881 1.06369 17.5438 1.35828 15.6584C1.65287 13.7142 2.15366 11.8288 2.86067 10.0024C3.62659 8.17596 4.86385 6.67357 6.57245 5.49522C7.7508 4.49363 9.07643 3.75717 10.5494 3.28583C12.0223 2.81449 13.5541 2.46098 15.1449 2.22532C18.3854 1.8129 21.4785 1.93073 24.4244 2.57882C27.3702 3.16799 29.9037 4.25796 32.0247 5.84872C34.1457 7.43949 35.7365 9.56051 36.797 12.2118C37.8575 14.8041 38.1815 17.8973 37.7691 21.4912L37.6807 22.0215C37.5629 22.1982 37.2978 22.2866 36.8854 22.2866C36.4729 22.2866 35.7954 22.3161 34.8527 22.375C33.9689 22.375 33.203 22.4045 32.5549 22.4634C31.9658 22.4634 31.3471 22.4634 30.699 22.4634C30.1099 22.4634 29.4912 22.4339 28.8432 22.375C28.1951 22.3161 27.4291 22.2277 26.5454 22.1099C26.3686 21.5207 26.1035 20.8137 25.75 19.9889C25.4554 19.1051 25.043 18.3097 24.5127 17.6027C24.0414 16.8368 23.4817 16.1887 22.8336 15.6584C22.1855 15.0693 21.4196 14.7747 20.5358 14.7747C19.5342 14.7158 18.5621 14.6863 17.6194 14.6863C16.6768 14.6863 15.8519 15.0398 15.1449 15.7468C15.0271 15.8646 14.8503 16.1887 14.6146 16.7189C14.4379 17.1903 14.2906 17.6616 14.1728 18.133C13.7604 19.547 13.4068 21.2556 13.1123 23.2588C12.8766 25.2619 12.6998 27.4124 12.582 29.7102C12.4642 31.949 12.4347 34.2763 12.4936 36.6919C12.5525 39.1075 12.6704 41.4053 12.8471 43.5852C12.965 44.8814 13.2006 46.2954 13.5541 47.8272C13.9076 49.3591 14.6441 50.5669 15.7635 51.4506C16.2938 51.8041 16.9713 52.0693 17.7962 52.246C18.6799 52.3639 19.5932 52.3344 20.5358 52.1576C21.5374 51.9809 22.4506 51.7452 23.2755 51.4506C23.9236 51.1561 24.4833 50.7731 24.9546 50.3018C25.426 49.7715 25.7795 49.0939 26.0151 48.2691C26.074 48.0334 26.133 47.6505 26.1919 47.1202C26.3097 46.5311 26.3686 45.9419 26.3686 45.3527C26.4275 44.7635 26.4275 44.2333 26.3686 43.7619C26.3686 43.2906 26.2803 43.0255 26.1035 42.9666C25.75 42.9076 25.2492 42.9076 24.6011 42.9666C24.0119 42.9666 23.3639 42.996 22.6568 43.0549C22.0088 43.0549 21.3901 43.0549 20.801 43.0549C20.2707 42.996 19.8583 42.9076 19.5637 42.7898C19.4459 41.8471 19.3575 41.0223 19.2986 40.3153C19.2986 39.6083 19.2986 38.9307 19.2986 38.2826C19.3575 37.5756 19.3869 36.8686 19.3869 36.1616C19.3869 35.4546 19.328 34.5709 19.2102 33.5103V33.422C19.2102 33.3631 19.2396 33.3336 19.2986 33.3336ZM70.9639 28.9148C71.3763 30.6234 71.7004 31.9785 71.936 32.9801L78.5642 63.9116V64C76.7967 64.3535 74.8524 64.4713 72.7314 64.3535C70.6104 64.2946 68.6072 64.0589 66.7218 63.6465H66.6335C66.28 62.7038 65.9265 61.5844 65.573 60.2882C65.2784 58.992 64.9543 57.6664 64.6008 56.3113C64.3062 54.9562 63.9822 53.66 63.6287 52.4228C63.2752 51.1855 62.8922 50.125 62.4798 49.2412C61.7139 49.1234 61.1247 49.0645 60.7123 49.0645C60.2999 49.0645 59.9169 49.0645 59.5634 49.0645C59.2688 49.0645 58.9153 49.0939 58.5029 49.1529C58.1494 49.1529 57.6486 49.1529 57.0005 49.1529C56.5881 50.0955 56.2346 51.215 55.94 52.5111C55.7043 53.7484 55.4392 55.074 55.1446 56.4881C54.9089 57.8432 54.6438 59.1688 54.3492 60.465C54.0547 61.7611 53.6422 62.91 53.112 63.9116C53.0531 63.9116 52.9941 63.9411 52.9352 64C52.9352 64 52.9058 64 52.8468 64C52.3755 64.1178 51.1972 64.1178 49.3118 64C47.4265 63.8822 44.4806 63.8527 40.4742 63.9116C40.4153 63.9116 40.3564 63.8822 40.2975 63.8232C40.4153 63.4108 40.6215 62.2619 40.9161 60.3766C41.2107 58.4912 41.6231 56.0462 42.1534 53.0414C42.6836 50.0366 43.3023 46.59 44.0093 42.7014C44.7752 38.754 45.6589 34.5709 46.6605 30.1521C47.6621 25.7333 48.7521 21.1377 49.9304 16.3654C51.1088 11.5932 52.405 6.85032 53.819 2.13694C54.2314 2.07802 54.6733 2.04857 55.1446 2.04857C55.616 2.04857 56.2346 2.04857 57.0005 2.04857C57.7664 2.04857 58.7386 2.04857 59.9169 2.04857C61.1542 1.98965 62.7449 1.87181 64.6892 1.69506C64.866 2.46099 65.1311 3.63933 65.4846 5.2301C65.897 6.76194 66.3094 8.52946 66.7218 10.5326C67.1932 12.4769 67.6645 14.5685 68.1359 16.8073C68.6661 19.0462 69.1669 21.1967 69.6383 23.2588C70.1096 25.3209 70.5515 27.2062 70.9639 28.9148ZM59.5634 38.8129C60.6828 38.754 61.8023 38.7245 62.9217 38.7245C62.3325 33.6576 61.8023 29.7102 61.3309 26.8822C60.9185 24.0541 60.5355 22.1393 60.182 21.1377C59.8875 20.1361 59.5634 19.9299 59.2099 20.5191C58.9153 21.0494 58.6207 22.1688 58.3261 23.8774C58.0905 25.586 57.7959 27.7365 57.4424 30.3288C57.1478 32.9212 56.7943 35.7197 56.3819 38.7245C57.3835 38.7834 58.444 38.8129 59.5634 38.8129ZM118.563 54.367C118.563 54.9562 118.592 55.4865 118.651 55.9578C118.769 58.0788 118.828 59.699 118.828 60.8185C118.828 61.879 118.739 62.6744 118.563 63.2046C118.445 63.676 118.209 63.9411 117.856 64C117.502 64 117.001 64 116.353 64C115.705 63.9411 114.851 63.9411 113.79 64C112.789 64.0589 111.051 64.1178 108.576 64.1768C106.16 64.2357 102.802 64.2651 98.5012 64.2651C94.2592 64.2651 88.5737 64.2062 81.4447 64.0884V62.4976C81.6214 58.0788 81.7687 54.1019 81.8866 50.5669C82.0044 46.9729 82.0633 43.6441 82.0633 40.5804C82.1222 37.4578 82.1517 34.453 82.1517 31.5661C82.1517 28.6791 82.1222 25.7333 82.0633 22.7285C82.0044 19.7237 81.9455 16.5422 81.8866 13.1839C81.8277 9.76672 81.7687 5.99602 81.7098 1.87182C82.299 1.63615 83.2122 1.45939 84.4495 1.34156C85.6867 1.16481 87.0124 1.07643 88.4264 1.07643C89.8404 1.07643 91.225 1.16481 92.58 1.34156C93.9351 1.51831 95.0251 1.78344 95.85 2.13694C95.7321 5.96656 95.6732 9.91401 95.6732 13.9793C95.7321 17.9857 95.791 22.0215 95.85 26.0868C95.9089 30.1521 95.9383 34.2174 95.9383 38.2826C95.9972 42.289 95.9972 46.1775 95.9383 49.9482V50.0366C96.3507 49.9188 97.1167 49.8893 98.2361 49.9482C99.4144 49.9482 100.77 49.9777 102.301 50.0366C103.833 50.0955 105.453 50.1839 107.162 50.3018C108.93 50.3607 110.579 50.4196 112.111 50.4785C113.702 50.5374 115.086 50.5963 116.265 50.6553C117.502 50.6553 118.356 50.6258 118.828 50.5669C118.828 51.215 118.798 51.8631 118.739 52.5111C118.68 53.1003 118.621 53.7189 118.563 54.367ZM159.298 54.367C159.298 54.9562 159.328 55.4865 159.387 55.9578C159.504 58.0788 159.563 59.699 159.563 60.8185C159.563 61.879 159.475 62.6744 159.298 63.2046C159.18 63.676 158.945 63.9411 158.591 64C158.238 64 157.737 64 157.089 64C156.441 63.9411 155.586 63.9411 154.526 64C153.524 64.0589 151.786 64.1178 149.312 64.1768C146.896 64.2357 143.538 64.2651 139.237 64.2651C134.995 64.2651 129.309 64.2062 122.18 64.0884V62.4976C122.357 58.0788 122.504 54.1019 122.622 50.5669C122.74 46.9729 122.799 43.6441 122.799 40.5804C122.858 37.4578 122.887 34.453 122.887 31.5661C122.887 28.6791 122.858 25.7333 122.799 22.7285C122.74 19.7237 122.681 16.5422 122.622 13.1839C122.563 9.76672 122.504 5.99602 122.446 1.87182C123.035 1.63615 123.948 1.45939 125.185 1.34156C126.422 1.16481 127.748 1.07643 129.162 1.07643C130.576 1.07643 131.961 1.16481 133.316 1.34156C134.671 1.51831 135.761 1.78344 136.586 2.13694C136.468 5.96656 136.409 9.91401 136.409 13.9793C136.468 17.9857 136.527 22.0215 136.586 26.0868C136.645 30.1521 136.674 34.2174 136.674 38.2826C136.733 42.289 136.733 46.1775 136.674 49.9482V50.0366C137.086 49.9188 137.852 49.8893 138.972 49.9482C140.15 49.9482 141.505 49.9777 143.037 50.0366C144.569 50.0955 146.189 50.1839 147.898 50.3018C149.665 50.3607 151.315 50.4196 152.847 50.4785C154.438 50.5374 155.822 50.5963 157 50.6553C158.238 50.6553 159.092 50.6258 159.563 50.5669C159.563 51.215 159.534 51.8631 159.475 52.5111C159.416 53.1003 159.357 53.7189 159.298 54.367ZM188.987 51.8925C192.758 52.0693 196.646 52.0987 200.653 51.9809V52.1576C200.77 54.043 200.8 56.0167 200.741 58.0788C200.682 60.082 200.417 61.9674 199.946 63.7349C193.936 63.676 187.809 63.7643 181.563 64C175.377 64.1768 169.426 64.0295 163.712 63.5581C163.712 58.4323 163.653 53.3654 163.535 48.3575C163.417 43.2906 163.329 38.2532 163.27 33.2452C163.211 28.2373 163.211 23.2293 163.27 18.2213C163.329 13.2134 163.505 8.17595 163.8 3.10908C166.098 2.99124 168.572 2.90286 171.223 2.84395C173.934 2.72612 176.644 2.63774 179.354 2.57882C182.064 2.5199 184.686 2.46099 187.219 2.40207C189.753 2.34315 191.992 2.31369 193.936 2.31369C195.88 2.31369 197.442 2.34315 198.62 2.40207C199.798 2.46099 200.387 2.5199 200.387 2.57882C200.682 4.64092 200.741 6.73248 200.564 8.8535C200.446 10.9745 200.387 13.0661 200.387 15.1282V15.2166C198.502 15.629 196.587 15.8941 194.643 16.0119C192.758 16.0709 190.843 16.1003 188.899 16.1003C186.954 16.0414 185.01 16.0119 183.066 16.0119C181.122 16.0119 179.177 16.1003 177.233 16.2771H176.968L176.88 16.3654C176.938 18.074 176.85 19.8416 176.614 21.668C176.438 23.4355 176.555 25.1146 176.968 26.7054L177.056 26.7938C178.824 26.9116 180.621 26.9705 182.447 26.9705C184.274 26.9705 186.1 27 187.926 27.0589V27.1473C188.221 29.1505 188.309 31.1537 188.192 33.1568C188.074 35.16 188.044 37.2516 188.103 39.4315C187.219 39.6672 186.218 39.8145 185.098 39.8734C183.979 39.8734 182.889 39.8734 181.829 39.8734C180.827 39.8734 179.914 39.9029 179.089 39.9618C178.264 40.0207 177.704 40.168 177.41 40.4037C177.115 42.1123 176.997 44.0271 177.056 46.1481C177.174 48.2691 177.292 50.0366 177.41 51.4506L177.498 51.539C181.387 51.539 185.216 51.6568 188.987 51.8925ZM244.615 56.7532C245.911 58.992 247.001 61.3193 247.885 63.7349H247.973C245.911 63.7349 243.613 63.8232 241.08 64C238.546 64.1178 235.954 64.0884 233.303 63.9116H233.214C232.625 62.5565 231.889 60.9363 231.005 59.051C230.121 57.1656 229.149 55.1919 228.088 53.1298C227.028 51.0677 225.879 49.035 224.642 47.0318C223.405 45.0287 222.167 43.2611 220.93 41.7293L220.753 41.4642C220.577 42.8193 220.488 44.4984 220.488 46.5016C220.488 48.4459 220.518 50.4785 220.577 52.5995C220.694 54.6616 220.812 56.6354 220.93 58.5207C221.048 60.4061 221.136 61.9084 221.195 63.0279C220.194 63.4403 218.868 63.7054 217.218 63.8232C215.627 63.9411 214.037 64 212.446 64C210.855 64.0589 209.412 64.0589 208.116 64C206.878 63.9411 206.112 63.9411 205.818 64C205.936 64 206.024 63.2046 206.083 61.6139C206.142 59.9642 206.171 57.8137 206.171 55.1624C206.171 52.5111 206.171 49.4769 206.171 46.0597C206.171 42.5836 206.142 39.0191 206.083 35.3662C206.083 31.6545 206.024 28.0016 205.906 24.4076C205.847 20.7548 205.788 17.426 205.729 14.4212C205.67 11.3575 205.582 8.76513 205.464 6.64411C205.405 4.46417 205.317 2.99124 205.199 2.22532C208.498 1.75398 212.122 1.3121 216.069 0.899679C220.017 0.487261 224.141 0.516719 228.442 0.988054C231.918 1.16481 235.041 2.1664 237.81 3.99283C240.579 5.81927 242.729 8.08758 244.261 10.7978C245.793 13.508 246.588 16.5127 246.647 19.8121C246.765 23.0525 245.911 26.2046 244.084 29.2683C242.965 31.3893 241.463 33.1568 239.577 34.5709C237.751 35.9849 235.424 36.7803 232.596 36.957H232.242H232.154V37.0454C233.391 39.2253 234.746 41.4053 236.219 43.5852C237.692 45.7062 239.135 47.8567 240.549 50.0366C241.963 52.2166 243.319 54.4554 244.615 56.7532ZM224.2 13.2723C222.197 13.3312 220.164 13.7731 218.102 14.5979C218.161 15.3639 218.19 16.2476 218.19 17.2492C218.249 18.1919 218.279 19.164 218.279 20.1656C218.279 21.1672 218.279 22.1393 218.279 23.082C218.338 24.0247 218.426 24.8201 218.544 25.4682H218.632C219.987 25.586 221.46 25.6744 223.051 25.7333C224.642 25.7922 226.144 25.7038 227.558 25.4682C228.678 25.2325 229.532 24.6728 230.121 23.789C230.769 22.8463 231.152 21.8447 231.27 20.7842C231.388 19.6648 231.27 18.5748 230.916 17.5143C230.563 16.3949 229.974 15.5111 229.149 14.8631C227.853 13.6847 226.203 13.1545 224.2 13.2723ZM286.379 2.6672C286.968 2.6672 287.44 2.69666 287.793 2.75557V2.84395C286.144 8.14649 284.199 13.3312 281.96 18.3981C279.722 23.465 277.394 28.5318 274.979 33.5987C272.563 38.6067 270.206 43.6441 267.909 48.711C265.611 53.7189 263.578 58.8153 261.811 64C261.457 63.9411 261.104 63.9116 260.75 63.9116C260.397 63.9116 260.014 63.9116 259.601 63.9116C258.364 63.9116 257.009 63.9411 255.536 64C254.063 64.1178 252.649 64.1768 251.294 64.1768C250.94 64.1768 250.587 64.1768 250.233 64.1768C249.88 64.1768 249.526 64.1473 249.173 64.0884H248.996C250.528 59.3161 252.325 54.3376 254.387 49.1529C256.449 43.9092 258.511 38.6951 260.573 33.5103V33.3336C259.925 30.7412 259.101 28.1783 258.099 25.6449C257.097 23.0525 256.037 20.4896 254.917 17.9562C253.857 15.4228 252.826 12.8893 251.824 10.3559C250.823 7.82245 250.027 5.31847 249.438 2.84395C250.616 2.84395 251.854 2.75557 253.15 2.57882C254.446 2.40207 255.742 2.31369 257.038 2.31369C257.745 2.31369 258.452 2.37261 259.159 2.49044C259.866 2.54936 260.544 2.72611 261.192 3.0207C261.487 4.31688 261.899 5.84873 262.429 7.61624C263.019 9.38376 263.608 11.1807 264.197 13.0072C264.845 14.8336 265.493 16.5717 266.141 18.2213C266.848 19.871 267.467 21.2556 267.997 22.375C268.586 21.3145 269.175 19.9594 269.765 18.3097C270.413 16.6011 271.031 14.8336 271.62 13.0072C272.269 11.1807 272.887 9.38376 273.476 7.61624C274.065 5.84873 274.625 4.37579 275.155 3.19745C276.216 2.96178 277.63 2.81449 279.398 2.75557C281.224 2.63774 282.903 2.57882 284.435 2.57882C285.142 2.57882 285.79 2.60828 286.379 2.6672Z" fill="white"/>
</svg>
