<svg width="117" height="50" viewBox="0 0 117 50" fill="none" xmlns="http://www.w3.org/2000/svg">
<path d="M0.695557 9.69284L0.695557 0.0515105C8.53224 0.214946 14.8348 6.61877 14.8348 14.4946L14.8348 33.6137C14.8348 38.1687 17.7648 40.3246 19.6462 40.3246C21.5276 40.3246 24.4576 38.1687 24.4576 33.6137V16.3941C24.4576 8.21524 30.1496 0.0483114 38.9039 0.0483114C47.6583 0.0483114 53.3502 8.21524 53.3502 16.3941V33.6137C53.3502 38.1687 56.2803 40.3246 58.1616 40.3246C60.043 40.3246 62.9731 38.1687 62.9731 33.6137V16.3941C62.9731 8.21524 68.665 0.0483114 77.4194 0.0483114C86.1737 0.0483114 91.8657 8.21524 91.8657 16.3941V33.6137C91.8657 38.1687 94.7957 40.3246 96.6771 40.3246C98.5585 40.3246 101.489 38.1687 101.489 33.6137V16.3941C101.489 8.21524 107.18 0.0483114 115.935 0.0483114C116.062 0.0483114 116.188 0.0500345 116.314 0.0534512V9.71064C116.184 9.69232 116.057 9.6832 115.935 9.6832C114.053 9.6832 111.123 11.8391 111.123 16.3941V33.6137C111.123 41.7926 105.431 49.9595 96.6771 49.9595C87.9227 49.9595 82.2308 41.7925 82.2308 33.6137V16.3941C82.2308 11.8391 79.3008 9.6832 77.4194 9.6832C75.538 9.6832 72.608 11.8391 72.608 16.3941V33.6137C72.608 41.7925 66.916 49.9595 58.1616 49.9595C49.4073 49.9595 43.7153 41.7925 43.7153 33.6137V16.3941C43.7153 11.8391 40.7853 9.6832 38.9039 9.6832C37.0225 9.6832 34.0925 11.8391 34.0925 16.3941V33.6137C34.0925 41.7925 28.4005 49.9595 19.6462 49.9595C10.8918 49.9595 5.19987 41.7925 5.19987 33.6137V14.4946C5.19987 11.9405 3.20973 9.85122 0.695557 9.69284Z" fill="#FFFCEA"/>
</svg>
