<svg width="887" height="552" viewBox="0 0 887 552" fill="none" xmlns="http://www.w3.org/2000/svg">
<path d="M272.812 453.729C268.382 432.271 254.551 415.272 236.836 410.272C254.551 405.272 268.382 388.273 272.812 366.815C277.242 388.273 291.072 405.272 308.788 410.272C291.072 415.272 277.242 432.271 272.812 453.729Z" stroke="#FBD13D" stroke-width="3"/>
<path d="M100.5 124.2C98.1961 116.945 93.4039 111.119 87.2848 108.5C93.4039 105.881 98.1961 100.055 100.5 92.8005C102.804 100.055 107.596 105.881 113.715 108.5C107.596 111.119 102.804 116.945 100.5 124.2Z" stroke="#F6800E" stroke-width="3"/>
<path d="M644.5 52.1462C641.724 42.4098 635.314 34.6362 627.106 31.5C635.314 28.3638 641.724 20.5902 644.5 10.8538C647.276 20.5902 653.686 28.3638 661.894 31.5C653.686 34.6362 647.276 42.4098 644.5 52.1462Z" stroke="#F6800E" stroke-width="3"/>
<path d="M756.5 399.2C754.196 391.945 749.404 386.119 743.285 383.5C749.404 380.881 754.196 375.055 756.5 367.8C758.804 375.055 763.596 380.881 769.715 383.5C763.596 386.119 758.804 391.945 756.5 399.2Z" stroke="#FBD13D" stroke-width="3"/>
<path d="M719.5 543.21C717.615 537.924 714.075 533.646 709.581 531.5C714.075 529.354 717.615 525.076 719.5 519.79C721.385 525.076 724.925 529.354 729.419 531.5C724.925 533.646 721.385 537.924 719.5 543.21Z" stroke="#F6800E" stroke-width="3"/>
<path d="M16.5 344.21C14.6148 338.924 11.0746 334.646 6.58134 332.5C11.0746 330.354 14.6148 326.076 16.5 320.79C18.3852 326.076 21.9254 330.354 26.4187 332.5C21.9254 334.646 18.3852 338.924 16.5 344.21Z" stroke="#FBD13D" stroke-width="3"/>
<path d="M872.5 117.76C870.841 113.422 867.906 109.89 864.199 108C867.906 106.11 870.841 102.578 872.5 98.2398C874.159 102.578 877.094 106.11 880.801 108C877.094 109.89 874.159 113.422 872.5 117.76Z" stroke="#FBD13D" stroke-width="3"/>
</svg>
