<svg width="887" height="552" viewBox="0 0 887 552" fill="none" xmlns="http://www.w3.org/2000/svg">
<path d="M263.812 459.729C259.382 438.271 245.551 421.272 227.836 416.272C245.551 411.272 259.382 394.273 263.812 372.815C268.242 394.273 282.072 411.272 299.788 416.272C282.072 421.272 268.242 438.271 263.812 459.729Z" stroke="#FBD13D" stroke-width="3"/>
<path d="M629.5 465.2C627.196 457.945 622.404 452.119 616.285 449.5C622.404 446.881 627.196 441.055 629.5 433.8C631.804 441.055 636.596 446.881 642.715 449.5C636.596 452.119 631.804 457.945 629.5 465.2Z" stroke="#F6800E" stroke-width="3"/>
<path d="M787.5 347.146C784.724 337.41 778.314 329.636 770.106 326.5C778.314 323.364 784.724 315.59 787.5 305.854C790.276 315.59 796.686 323.364 804.894 326.5C796.686 329.636 790.276 337.41 787.5 347.146Z" stroke="#F6800E" stroke-width="3"/>
<path d="M102.5 237.2C100.196 229.945 95.4039 224.119 89.2848 221.5C95.4039 218.881 100.196 213.055 102.5 205.8C104.804 213.055 109.596 218.881 115.715 221.5C109.596 224.119 104.804 229.945 102.5 237.2Z" stroke="#FBD13D" stroke-width="3"/>
<path d="M263.5 72.21C261.615 66.9242 258.075 62.6463 253.581 60.5C258.075 58.3537 261.615 54.0758 263.5 48.79C265.385 54.0758 268.925 58.3537 273.419 60.5C268.925 62.6463 265.385 66.9242 263.5 72.21Z" stroke="#F6800E" stroke-width="3"/>
<path d="M646.5 165.21C644.615 159.924 641.075 155.646 636.581 153.5C641.075 151.354 644.615 147.076 646.5 141.79C648.385 147.076 651.925 151.354 656.419 153.5C651.925 155.646 648.385 159.924 646.5 165.21Z" stroke="#FBD13D" stroke-width="3"/>
<path d="M776.5 90.7602C774.841 86.4218 771.906 82.8901 768.199 81C771.906 79.1099 774.841 75.5782 776.5 71.2398C778.159 75.5782 781.094 79.1099 784.801 81C781.094 82.8901 778.159 86.4218 776.5 90.7602Z" stroke="#FBD13D" stroke-width="3"/>
</svg>
