<svg width="887" height="552" viewBox="0 0 887 552" fill="none" xmlns="http://www.w3.org/2000/svg">
<path d="M292.812 426.729C288.382 405.271 274.551 388.272 256.836 383.272C274.551 378.272 288.382 361.273 292.812 339.815C297.242 361.273 311.072 378.272 328.788 383.272C311.072 388.272 297.242 405.271 292.812 426.729Z" stroke="#FBD13D" stroke-width="3"/>
<path d="M101.5 317.2C99.1961 309.945 94.4039 304.119 88.2848 301.5C94.4039 298.881 99.1961 293.055 101.5 285.8C103.804 293.055 108.596 298.881 114.715 301.5C108.596 304.119 103.804 309.945 101.5 317.2Z" stroke="#F6800E" stroke-width="3"/>
<path d="M632.5 109.146C629.724 99.4098 623.314 91.6362 615.106 88.5C623.314 85.3638 629.724 77.5902 632.5 67.8538C635.276 77.5902 641.686 85.3638 649.894 88.5C641.686 91.6362 635.276 99.4098 632.5 109.146Z" stroke="#F6800E" stroke-width="3"/>
<path d="M632.5 517.2C630.196 509.945 625.404 504.119 619.285 501.5C625.404 498.881 630.196 493.055 632.5 485.8C634.804 493.055 639.596 498.881 645.715 501.5C639.596 504.119 634.804 509.945 632.5 517.2Z" stroke="#FBD13D" stroke-width="3"/>
<path d="M790.5 374.21C788.615 368.924 785.075 364.646 780.581 362.5C785.075 360.354 788.615 356.076 790.5 350.79C792.385 356.076 795.925 360.354 800.419 362.5C795.925 364.646 792.385 368.924 790.5 374.21Z" stroke="#F6800E" stroke-width="3"/>
<path d="M157.5 102.21C155.615 96.9242 152.075 92.6463 147.581 90.5C152.075 88.3537 155.615 84.0758 157.5 78.79C159.385 84.0758 162.925 88.3537 167.419 90.5C162.925 92.6463 159.385 96.9242 157.5 102.21Z" stroke="#FBD13D" stroke-width="3"/>
<path d="M835.5 111.76C833.841 107.422 830.906 103.89 827.199 102C830.906 100.11 833.841 96.5782 835.5 92.2398C837.159 96.5782 840.094 100.11 843.801 102C840.094 103.89 837.159 107.422 835.5 111.76Z" stroke="#FBD13D" stroke-width="3"/>
</svg>
