<svg width="40" height="42" viewBox="0 0 40 42" fill="none" xmlns="http://www.w3.org/2000/svg">
<path d="M17.7601 35.1077C18.0157 34.9593 18.2624 34.8011 18.5 34.6338V39V40.5H20C26.043 40.5 31.109 35.8838 31.109 29.9897C31.109 29.6876 31.0955 29.3885 31.0691 29.0929L34.9107 31.2915L36.2111 32.0358L36.9568 30.7362C39.9636 25.4965 38.4689 18.8109 33.3507 15.8816C33.0892 15.732 32.8236 15.5954 32.5546 15.4717L36.3769 13.2514L37.6754 12.4971L36.9196 11.1994C33.8798 5.97998 27.3377 3.93101 22.2399 6.89225L22.9701 8.14945L22.2399 6.89225C21.9843 7.04072 21.7376 7.19892 21.5 7.36615V3V1.5H20C13.957 1.5 8.89099 6.1162 8.89099 12.0103C8.89099 12.3124 8.90449 12.6115 8.93093 12.9071L5.08925 10.7085L3.78887 9.96425L3.04315 11.2638C0.0364492 16.5035 1.53106 23.1891 6.64927 26.1184C6.91078 26.268 7.1764 26.4046 7.44543 26.5283L3.62314 28.7486L2.3246 29.5029L3.08038 30.8006C6.12022 36.02 12.6623 38.069 17.7601 35.1077Z" stroke="#FFFCEA" stroke-width="3"/>
</svg>
