<svg width="44" height="44" viewBox="0 0 44 44" fill="none" xmlns="http://www.w3.org/2000/svg">
<path d="M23.6011 1.79397C23.0843 1.62089 22.5674 1.5 22 1.5C21.4326 1.5 20.9157 1.62089 20.3989 1.79397C19.371 2.13824 18.7205 2.91862 18.3291 3.7461C17.9998 4.44223 17.8136 5.24696 17.7125 6.07055C17.2116 5.40898 16.6466 4.80645 16.0124 4.36967C15.2585 3.85047 14.3042 3.50201 13.2424 3.72023C12.7085 3.82994 12.2007 3.98485 11.71 4.26964C11.2193 4.55443 10.8329 4.91847 10.4728 5.32757C9.76712 6.12929 9.59049 7.11428 9.65938 8.01594C9.71673 8.76654 9.94625 9.53759 10.2572 10.2829C9.51115 9.97364 8.7396 9.74581 7.98887 9.69011C7.08706 9.6232 6.10247 9.802 5.30229 10.5094C4.89398 10.8704 4.5308 11.2576 4.24709 11.749C3.96338 12.2403 3.80958 12.7484 3.70105 13.2825C3.48669 14.3373 3.83087 15.2854 4.34592 16.0357C4.77702 16.6637 5.37074 17.2229 6.02283 17.7184C5.21031 17.8215 4.41652 18.0089 3.72916 18.3371C2.90795 18.7294 2.1358 19.3783 1.79397 20.3989C1.62089 20.9157 1.5 21.4326 1.5 22C1.5 22.5674 1.62089 23.0843 1.79397 23.6011C2.1358 24.6217 2.90794 25.2706 3.72916 25.6628C4.41652 25.9911 5.2103 26.1785 6.02282 26.2816C5.37073 26.7771 4.777 27.3363 4.34591 27.9643C3.83086 28.7146 3.48667 29.6627 3.70103 30.7175C3.80957 31.2516 3.96336 31.7597 4.24707 32.251C4.53078 32.7424 4.89397 33.1296 5.30228 33.4906C6.10244 34.198 7.08703 34.3768 7.98883 34.3099C8.73954 34.2542 9.5111 34.0264 10.2571 33.7171C9.94619 34.4624 9.71667 35.2335 9.65932 35.9841C9.59044 36.8857 9.76708 37.8707 10.4728 38.6724L11.5987 37.6814L10.4728 38.6724C10.8329 39.0815 11.2193 39.4456 11.71 39.7304C12.2007 40.0151 12.7084 40.1701 13.2423 40.2798C14.3042 40.498 15.2585 40.1495 16.0124 39.6303C16.6466 39.1935 17.2116 38.591 17.7125 37.9294C17.8136 38.753 17.9998 39.5577 18.3291 40.2539C18.7205 41.0814 19.371 41.8618 20.3989 42.206C20.9157 42.3791 21.4326 42.5 22 42.5C22.5674 42.5 23.0843 42.3791 23.6011 42.206C24.6291 41.8617 25.2795 41.0813 25.6709 40.2538C26.0002 39.5577 26.1865 38.7529 26.2875 37.9293C26.7884 38.5909 27.3534 39.1935 27.9876 39.6303C28.7416 40.1495 29.6959 40.498 30.7578 40.2798C31.2916 40.1701 31.7994 40.0151 32.2901 39.7304C32.7808 39.4456 33.1672 39.0815 33.5273 38.6724C34.233 37.8707 34.4096 36.8857 34.3407 35.9841C34.2834 35.2335 34.0539 34.4624 33.743 33.7171C34.489 34.0264 35.2605 34.2542 36.0112 34.3099C36.913 34.3768 37.8976 34.198 38.6978 33.4906C39.1061 33.1296 39.4693 32.7424 39.753 32.251C40.0367 31.7597 40.1905 31.2516 40.299 30.7175C40.5134 29.6627 40.1692 28.7146 39.6542 27.9643C39.2231 27.3363 38.6293 26.7771 37.9772 26.2816C38.7897 26.1785 39.5835 25.9911 40.2709 25.6628C41.0921 25.2706 41.8642 24.6217 42.206 23.6011C42.3791 23.0843 42.5 22.5674 42.5 22C42.5 21.4326 42.3791 20.9157 42.206 20.3989C41.8642 19.3783 41.0921 18.7294 40.2709 18.3372C39.5835 18.0089 38.7897 17.8215 37.9772 17.7184C38.6293 17.2229 39.2231 16.6637 39.6541 16.0357C40.1692 15.2854 40.5134 14.3373 40.299 13.2825C40.1905 12.7484 40.0367 12.2403 39.753 11.749C39.4693 11.2576 39.1061 10.8704 38.6978 10.5094C37.8976 9.802 36.913 9.6232 36.0112 9.69011C35.2605 9.74581 34.4889 9.97364 33.7429 10.2829C34.0538 9.53759 34.2833 8.76654 34.3407 8.01594C34.4096 7.11428 34.2329 6.12929 33.5273 5.32757L32.4462 6.27913L33.5272 5.32757C33.1672 4.91846 32.7807 4.55443 32.29 4.26964C31.7993 3.98485 31.2916 3.82994 30.7577 3.72023C29.6958 3.50201 28.7415 3.85048 27.9876 4.3697C27.3534 4.80649 26.7884 5.40903 26.2875 6.07062C26.1864 5.24702 26.0002 4.44228 25.6709 3.74615C25.2795 2.91865 24.629 2.13825 23.6011 1.79397Z" stroke="#FFFCEA" stroke-width="3"/>
</svg>
