<svg width="42" height="42" viewBox="0 0 42 42" fill="none" xmlns="http://www.w3.org/2000/svg">
<path d="M36.3586 27.3617C38.7984 26.2814 40.5 23.84 40.5 21C40.5 18.16 38.7984 15.7186 36.3586 14.6383C37.3199 12.1492 36.7968 9.21961 34.7886 7.21141C32.7804 5.20322 29.8508 4.6801 27.3617 5.64138C26.2814 3.2016 23.84 1.5 21 1.5C18.16 1.5 15.7186 3.2016 14.6383 5.64138C12.1492 4.6801 9.21962 5.20322 7.21142 7.21142C5.20323 9.21961 4.68011 12.1492 5.64139 14.6382C3.20161 15.7186 1.5 18.16 1.5 21C1.5 23.84 3.2016 26.2814 5.64139 27.3617C4.6801 29.8508 5.20323 32.7804 7.21142 34.7886C9.21961 36.7968 12.1492 37.3199 14.6383 36.3586C15.7186 38.7984 18.16 40.5 21 40.5C23.84 40.5 26.2814 38.7984 27.3617 36.3586C29.8508 37.3199 32.7804 36.7968 34.7886 34.7886C36.7968 32.7804 37.3199 29.8508 36.3586 27.3617Z" stroke="#FFFCEA" stroke-width="3" stroke-linecap="round"/>
</svg>
