<svg width="51" height="116" viewBox="0 0 51 116" fill="none" xmlns="http://www.w3.org/2000/svg">
<path d="M10.3276 115.619L0.686276 115.619C0.849712 107.782 7.25354 101.48 15.1294 101.48L34.2484 101.48C38.8034 101.48 40.9594 98.5495 40.9594 96.6682C40.9594 94.7868 38.8034 91.8567 34.2484 91.8567L17.0289 91.8567C8.85 91.8567 0.683077 86.1648 0.683078 77.4104C0.683078 68.6561 8.85001 62.9641 17.0289 62.9641L34.2484 62.9641C38.8034 62.9641 40.9594 60.0341 40.9594 58.1527C40.9594 56.2713 38.8034 53.3413 34.2484 53.3413L17.0289 53.3413C8.85001 53.3413 0.683078 47.6493 0.683078 38.895C0.683078 30.1406 8.85001 24.4487 17.0289 24.4487L34.2484 24.4487C38.8034 24.4487 40.9594 21.5186 40.9594 19.6372C40.9594 17.7558 38.8034 14.8258 34.2484 14.8258L17.0289 14.8258C8.85001 14.8258 0.683078 9.13385 0.683078 0.379489C0.683078 0.252385 0.684801 0.125927 0.688218 0.000115753L10.3454 0.000115868C10.3271 0.130279 10.318 0.257101 10.318 0.37949C10.318 2.26087 12.4739 5.19091 17.0289 5.19091L34.2484 5.19091C42.4273 5.19091 50.5942 10.8829 50.5942 19.6372C50.5942 28.3916 42.4273 34.0835 34.2484 34.0835L17.0289 34.0835C12.4739 34.0835 10.318 37.0136 10.318 38.895C10.318 40.7763 12.4739 43.7064 17.0289 43.7064L34.2484 43.7064C42.4273 43.7064 50.5942 49.3983 50.5942 58.1527C50.5942 66.9071 42.4273 72.599 34.2484 72.599L17.0289 72.599C12.4739 72.599 10.318 75.529 10.318 77.4104C10.318 79.2918 12.4739 82.2218 17.0289 82.2218L34.2484 82.2218C42.4273 82.2218 50.5942 87.9138 50.5942 96.6682C50.5942 105.423 42.4273 111.114 34.2484 111.114L15.1294 111.114C12.5753 111.114 10.486 113.105 10.3276 115.619Z" fill="#FFFCEA"/>
</svg>
