<svg width="708" height="331" viewBox="0 0 708 331" fill="none" xmlns="http://www.w3.org/2000/svg">
<g clip-path="url(#clip0_2035_13135)">
<rect width="177.093" height="165.407" fill="#C297F9"/>
<path d="M56.9169 156.548C56.7103 144.425 66.5306 134.513 78.6546 134.606L93.9188 134.723C105.628 134.813 115.128 144.228 115.325 155.936L115.941 192.719C116.148 205.035 106.018 215.024 93.7058 214.645L78.4461 214.176C66.9369 213.822 57.7342 204.492 57.5379 192.979L56.9169 156.548Z" fill="#9747FF"/>
<path fill-rule="evenodd" clip-rule="evenodd" d="M68.5023 83.7082C54.0148 83.8468 47.7759 73.3069 46.2027 59.3732H34.9658V117.356H47.1964C47.1964 105.669 56.4304 101.188 67.6713 100.97L103.356 100.281C115.289 100.05 128.457 106.343 130.206 117.356H136.997V59.3732H130.206C129.131 73.7564 118.897 83.2259 104.738 83.3614L68.5023 83.7082Z" fill="#9747FF"/>
<path fill-rule="evenodd" clip-rule="evenodd" d="M-19.5235 15.9492C-35.3704 16.1008 -48.1099 29.0407 -48.0141 44.8881L-47.4628 136.136C-47.3665 152.061 -34.3502 164.878 -18.4255 164.728L19.0717 164.374C35.0221 164.223 47.8045 151.123 47.5635 135.174L46.1852 43.9289C45.9462 28.1056 32.9712 15.4468 17.1468 15.5983L-19.5235 15.9492ZM-8.09371 49.6548C-20.2178 49.5615 -30.038 59.4741 -29.8314 71.5967L-29.2104 108.028C-29.0141 119.541 -19.8114 128.871 -8.30219 129.225L6.95753 129.694C19.2695 130.073 29.3993 120.084 29.1929 107.768L28.5764 70.9849C28.3801 59.2766 18.8801 49.8623 7.17053 49.7722L-8.09371 49.6548Z" fill="#9747FF"/>
<path fill-rule="evenodd" clip-rule="evenodd" d="M158.466 16.1278C142.798 16.4305 130.255 29.2182 130.255 44.8889V135.957C130.255 151.952 143.302 164.875 159.297 164.722L195.532 164.375C211.379 164.224 224.118 151.284 224.023 135.437L223.472 44.026C223.375 27.9894 210.184 15.1284 194.15 15.4382L158.466 16.1278ZM169.45 49.6548C157.325 49.5615 147.505 59.474 147.712 71.5967L148.333 108.028C148.529 119.541 157.732 128.871 169.241 129.225L184.501 129.694C196.813 130.073 206.943 120.084 206.736 107.768L206.12 70.9849C205.923 59.2765 196.423 49.8623 184.714 49.7722L169.45 49.6548Z" fill="#9747FF"/>
</g>
<g clip-path="url(#clip1_2035_13135)">
<rect width="177.093" height="165.407" transform="translate(177.094)" fill="#C297F9"/>
<path d="M234.011 156.548C233.804 144.425 243.624 134.513 255.748 134.606L271.013 134.723C282.722 134.813 292.222 144.228 292.418 155.936L293.035 192.719C293.241 205.035 283.112 215.024 270.8 214.645L255.54 214.176C244.031 213.822 234.828 204.492 234.632 192.979L234.011 156.548Z" fill="#9747FF"/>
<path fill-rule="evenodd" clip-rule="evenodd" d="M245.596 83.7082C231.109 83.8468 224.87 73.3069 223.296 59.3732H212.06V117.356H224.29C224.29 105.669 233.524 101.188 244.765 100.97L280.45 100.281C292.383 100.05 305.551 106.343 307.3 117.356H314.091V59.3732H307.3C306.225 73.7564 295.991 83.2259 281.831 83.3614L245.596 83.7082Z" fill="#9747FF"/>
<path fill-rule="evenodd" clip-rule="evenodd" d="M157.57 15.9492C141.723 16.1008 128.984 29.0407 129.08 44.8881L129.631 136.136C129.727 152.061 142.744 164.878 158.668 164.728L196.165 164.374C212.116 164.223 224.898 151.123 224.657 135.174L223.279 43.9289C223.04 28.1056 210.065 15.4468 194.241 15.5983L157.57 15.9492ZM169 49.6548C156.876 49.5615 147.056 59.4741 147.262 71.5967L147.883 108.028C148.08 119.541 157.282 128.871 168.792 129.225L184.051 129.694C196.363 130.073 206.493 120.084 206.287 107.768L205.67 70.9849C205.474 59.2766 195.974 49.8623 184.264 49.7722L169 49.6548Z" fill="#9747FF"/>
<path fill-rule="evenodd" clip-rule="evenodd" d="M335.559 16.1278C319.892 16.4305 307.349 29.2182 307.349 44.8889V135.957C307.349 151.952 320.396 164.875 336.39 164.722L372.626 164.375C388.472 164.224 401.212 151.284 401.116 135.437L400.566 44.026C400.469 27.9894 387.278 15.1284 371.244 15.4382L335.559 16.1278ZM346.543 49.6548C334.419 49.5615 324.599 59.474 324.806 71.5967L325.427 108.028C325.623 119.541 334.826 128.871 346.335 129.225L361.595 129.694C373.907 130.073 384.036 120.084 383.83 107.768L383.213 70.9849C383.017 59.2765 373.517 49.8623 361.808 49.7722L346.543 49.6548Z" fill="#9747FF"/>
</g>
<g clip-path="url(#clip2_2035_13135)">
<rect width="177.093" height="165.407" transform="translate(0 165.407)" fill="#C297F9"/>
<path d="M56.9169 156.098C56.7103 143.976 66.5306 134.063 78.6546 134.156L93.9188 134.274C105.628 134.364 115.128 143.778 115.325 155.486L115.941 192.27C116.148 204.586 106.018 214.575 93.7058 214.196L78.4461 213.726C66.9369 213.372 57.7342 204.043 57.5379 192.53L56.9169 156.098Z" fill="#9747FF"/>
<path fill-rule="evenodd" clip-rule="evenodd" d="M68.5023 249.115C54.0148 249.254 47.7759 238.714 46.2027 224.78H34.9658V282.763H47.1964C47.1964 271.076 56.4304 266.595 67.6713 266.378L103.356 265.688C115.289 265.457 128.457 271.75 130.206 282.763H136.997V224.78H130.206C129.131 239.163 118.897 248.633 104.738 248.769L68.5023 249.115Z" fill="#9747FF"/>
<path fill-rule="evenodd" clip-rule="evenodd" d="M-19.5235 181.356C-35.3704 181.508 -48.1099 194.448 -48.0141 210.295L-47.4628 301.543C-47.3665 317.469 -34.3502 330.285 -18.4255 330.135L19.0717 329.781C35.0221 329.631 47.8045 316.531 47.5635 300.581L46.1852 209.336C45.9462 193.513 32.9712 180.854 17.1468 181.005L-19.5235 181.356ZM-8.09371 215.062C-20.2178 214.969 -30.038 224.881 -29.8314 237.004L-29.2104 273.435C-29.0141 284.948 -19.8114 294.278 -8.30219 294.632L6.95753 295.102C19.2695 295.48 29.3993 285.492 29.1929 273.175L28.5764 236.392C28.3801 224.684 18.8801 215.269 7.17053 215.179L-8.09371 215.062Z" fill="#9747FF"/>
<path fill-rule="evenodd" clip-rule="evenodd" d="M158.466 181.535C142.798 181.838 130.255 194.625 130.255 210.296V301.364C130.255 317.359 143.302 330.282 159.297 330.129L195.532 329.782C211.379 329.631 224.118 316.691 224.023 300.844L223.472 209.433C223.375 193.397 210.184 180.536 194.15 180.845L158.466 181.535ZM169.45 215.062C157.325 214.969 147.505 224.881 147.712 237.004L148.333 273.435C148.529 284.948 157.732 294.278 169.241 294.632L184.501 295.102C196.813 295.481 206.943 285.492 206.736 273.176L206.12 236.392C205.923 224.684 196.423 215.269 184.714 215.179L169.45 215.062Z" fill="#9747FF"/>
</g>
<g clip-path="url(#clip3_2035_13135)">
<rect width="177.093" height="165.407" transform="translate(177.094 165.407)" fill="#C297F9"/>
<path d="M234.011 156.098C233.804 143.976 243.624 134.063 255.748 134.156L271.013 134.274C282.722 134.364 292.222 143.778 292.418 155.486L293.035 192.27C293.241 204.586 283.112 214.575 270.8 214.196L255.54 213.726C244.031 213.372 234.828 204.043 234.632 192.53L234.011 156.098Z" fill="#9747FF"/>
<path fill-rule="evenodd" clip-rule="evenodd" d="M245.596 249.115C231.109 249.254 224.87 238.714 223.296 224.78H212.06V282.763H224.29C224.29 271.076 233.524 266.595 244.765 266.378L280.45 265.688C292.383 265.457 305.551 271.75 307.3 282.763H314.091V224.78H307.3C306.225 239.163 295.991 248.633 281.831 248.769L245.596 249.115Z" fill="#9747FF"/>
<path fill-rule="evenodd" clip-rule="evenodd" d="M157.57 181.356C141.723 181.508 128.984 194.448 129.08 210.295L129.631 301.543C129.727 317.469 142.744 330.285 158.668 330.135L196.165 329.781C212.116 329.631 224.898 316.531 224.657 300.581L223.279 209.336C223.04 193.513 210.065 180.854 194.241 181.005L157.57 181.356ZM169 215.062C156.876 214.969 147.056 224.881 147.262 237.004L147.883 273.435C148.08 284.948 157.282 294.278 168.792 294.632L184.051 295.102C196.363 295.48 206.493 285.492 206.287 273.175L205.67 236.392C205.474 224.684 195.974 215.269 184.264 215.179L169 215.062Z" fill="#9747FF"/>
<path fill-rule="evenodd" clip-rule="evenodd" d="M335.559 181.535C319.892 181.838 307.349 194.625 307.349 210.296V301.364C307.349 317.359 320.396 330.282 336.39 330.129L372.626 329.782C388.472 329.631 401.212 316.691 401.116 300.844L400.566 209.433C400.469 193.397 387.278 180.536 371.244 180.845L335.559 181.535ZM346.543 215.062C334.419 214.969 324.599 224.881 324.806 237.004L325.427 273.435C325.623 284.948 334.826 294.278 346.335 294.632L361.595 295.102C373.907 295.481 384.036 285.492 383.83 273.176L383.213 236.392C383.017 224.684 373.517 215.269 361.808 215.179L346.543 215.062Z" fill="#9747FF"/>
</g>
<g clip-path="url(#clip4_2035_13135)">
<rect width="177.093" height="165.407" transform="translate(354.014)" fill="#C297F9"/>
<path d="M410.931 156.548C410.724 144.425 420.544 134.513 432.668 134.606L447.933 134.723C459.642 134.813 469.142 144.228 469.338 155.936L469.955 192.719C470.161 205.035 460.032 215.024 447.72 214.645L432.46 214.176C420.951 213.822 411.748 204.492 411.552 192.979L410.931 156.548Z" fill="#9747FF"/>
<path fill-rule="evenodd" clip-rule="evenodd" d="M422.516 83.7082C408.028 83.8468 401.79 73.3069 400.216 59.3732H388.979V117.356H401.21C401.21 105.669 410.444 101.188 421.685 100.97L457.37 100.281C469.303 100.05 482.47 106.343 484.219 117.356H491.01V59.3732H484.219C483.145 73.7564 472.911 83.2259 458.751 83.3614L422.516 83.7082Z" fill="#9747FF"/>
<path fill-rule="evenodd" clip-rule="evenodd" d="M334.49 15.9492C318.643 16.1008 305.904 29.0407 306 44.8881L306.551 136.136C306.647 152.061 319.663 164.878 335.588 164.728L373.085 164.374C389.036 164.223 401.818 151.123 401.577 135.174L400.199 43.9289C399.96 28.1056 386.985 15.4468 371.16 15.5983L334.49 15.9492ZM345.92 49.6548C333.796 49.5615 323.976 59.4741 324.182 71.5967L324.803 108.028C325 119.541 334.202 128.871 345.711 129.225L360.971 129.694C373.283 130.073 383.413 120.084 383.207 107.768L382.59 70.9849C382.394 59.2766 372.894 49.8623 361.184 49.7722L345.92 49.6548Z" fill="#9747FF"/>
<path fill-rule="evenodd" clip-rule="evenodd" d="M512.479 16.1278C496.812 16.4305 484.269 29.2182 484.269 44.8889V135.957C484.269 151.952 497.316 164.875 513.31 164.722L549.546 164.375C565.392 164.224 578.132 151.284 578.036 135.437L577.486 44.026C577.389 27.9894 564.198 15.1284 548.164 15.4382L512.479 16.1278ZM523.463 49.6548C511.339 49.5615 501.519 59.474 501.726 71.5967L502.347 108.028C502.543 119.541 511.746 128.871 523.255 129.225L538.514 129.694C550.826 130.073 560.956 120.084 560.75 107.768L560.133 70.9849C559.937 59.2765 550.437 49.8623 538.727 49.7722L523.463 49.6548Z" fill="#9747FF"/>
</g>
<g clip-path="url(#clip5_2035_13135)">
<rect width="177.093" height="165.407" transform="translate(531.107)" fill="#C297F9"/>
<path d="M588.024 156.548C587.818 144.425 597.638 134.513 609.762 134.606L625.026 134.723C636.736 134.813 646.236 144.228 646.432 155.936L647.049 192.719C647.255 205.035 637.125 215.024 624.813 214.645L609.554 214.176C598.044 213.822 588.842 204.492 588.645 192.979L588.024 156.548Z" fill="#9747FF"/>
<path fill-rule="evenodd" clip-rule="evenodd" d="M599.61 83.7082C585.122 83.8468 578.883 73.3069 577.31 59.3732H566.073V117.356H578.304C578.304 105.669 587.538 101.188 598.779 100.97L634.463 100.281C646.397 100.05 659.564 106.343 661.313 117.356H668.104V59.3732H661.313C660.238 73.7564 650.005 83.2259 635.845 83.3614L599.61 83.7082Z" fill="#9747FF"/>
<path fill-rule="evenodd" clip-rule="evenodd" d="M511.584 15.9492C495.737 16.1008 482.998 29.0407 483.093 44.8881L483.645 136.136C483.741 152.061 496.757 164.878 512.682 164.728L550.179 164.374C566.129 164.223 578.912 151.123 578.671 135.174L577.293 43.9289C577.054 28.1056 564.079 15.4468 548.254 15.5983L511.584 15.9492ZM523.014 49.6548C510.89 49.5615 501.069 59.4741 501.276 71.5967L501.897 108.028C502.093 119.541 511.296 128.871 522.805 129.225L538.065 129.694C550.377 130.073 560.507 120.084 560.3 107.768L559.684 70.9849C559.488 59.2766 549.988 49.8623 538.278 49.7722L523.014 49.6548Z" fill="#9747FF"/>
<path fill-rule="evenodd" clip-rule="evenodd" d="M689.573 16.1278C673.905 16.4305 661.362 29.2182 661.362 44.8889V135.957C661.362 151.952 674.41 164.875 690.404 164.722L726.639 164.375C742.486 164.224 755.226 151.284 755.13 135.437L754.579 44.026C754.483 27.9894 741.292 15.1284 725.258 15.4382L689.573 16.1278ZM700.557 49.6548C688.433 49.5615 678.613 59.474 678.819 71.5967L679.44 108.028C679.637 119.541 688.839 128.871 700.348 129.225L715.608 129.694C727.92 130.073 738.05 120.084 737.844 107.768L737.227 70.9849C737.031 59.2765 727.531 49.8623 715.821 49.7722L700.557 49.6548Z" fill="#9747FF"/>
</g>
<g clip-path="url(#clip6_2035_13135)">
<rect width="177.093" height="165.407" transform="translate(354.014 165.407)" fill="#C297F9"/>
<path d="M410.931 156.098C410.724 143.976 420.544 134.063 432.668 134.156L447.933 134.274C459.642 134.364 469.142 143.778 469.338 155.486L469.955 192.27C470.161 204.586 460.032 214.575 447.72 214.196L432.46 213.726C420.951 213.372 411.748 204.043 411.552 192.53L410.931 156.098Z" fill="#9747FF"/>
<path fill-rule="evenodd" clip-rule="evenodd" d="M422.516 249.115C408.028 249.254 401.79 238.714 400.216 224.78H388.979V282.763H401.21C401.21 271.076 410.444 266.595 421.685 266.378L457.37 265.688C469.303 265.457 482.47 271.75 484.219 282.763H491.01V224.78H484.219C483.145 239.163 472.911 248.633 458.751 248.769L422.516 249.115Z" fill="#9747FF"/>
<path fill-rule="evenodd" clip-rule="evenodd" d="M334.49 181.356C318.643 181.508 305.904 194.448 306 210.295L306.551 301.543C306.647 317.469 319.663 330.285 335.588 330.135L373.085 329.781C389.036 329.631 401.818 316.531 401.577 300.581L400.199 209.336C399.96 193.513 386.985 180.854 371.16 181.005L334.49 181.356ZM345.92 215.062C333.796 214.969 323.976 224.881 324.182 237.004L324.803 273.435C325 284.948 334.202 294.278 345.711 294.632L360.971 295.102C373.283 295.48 383.413 285.492 383.207 273.175L382.59 236.392C382.394 224.684 372.894 215.269 361.184 215.179L345.92 215.062Z" fill="#9747FF"/>
<path fill-rule="evenodd" clip-rule="evenodd" d="M512.479 181.535C496.812 181.838 484.269 194.625 484.269 210.296V301.364C484.269 317.359 497.316 330.282 513.31 330.129L549.546 329.782C565.392 329.631 578.132 316.691 578.036 300.844L577.486 209.433C577.389 193.397 564.198 180.536 548.164 180.845L512.479 181.535ZM523.463 215.062C511.339 214.969 501.519 224.881 501.726 237.004L502.347 273.435C502.543 284.948 511.746 294.278 523.255 294.632L538.514 295.102C550.826 295.481 560.956 285.492 560.75 273.176L560.133 236.392C559.937 224.684 550.437 215.269 538.727 215.179L523.463 215.062Z" fill="#9747FF"/>
</g>
<g clip-path="url(#clip7_2035_13135)">
<rect width="177.093" height="165.407" transform="translate(531.107 165.407)" fill="#C297F9"/>
<path d="M588.024 156.098C587.818 143.976 597.638 134.063 609.762 134.156L625.026 134.274C636.736 134.364 646.236 143.778 646.432 155.486L647.049 192.27C647.255 204.586 637.125 214.575 624.813 214.196L609.554 213.726C598.044 213.372 588.842 204.043 588.645 192.53L588.024 156.098Z" fill="#9747FF"/>
<path fill-rule="evenodd" clip-rule="evenodd" d="M599.61 249.115C585.122 249.254 578.883 238.714 577.31 224.78H566.073V282.763H578.304C578.304 271.076 587.538 266.595 598.779 266.378L634.463 265.688C646.397 265.457 659.564 271.75 661.313 282.763H668.104V224.78H661.313C660.238 239.163 650.005 248.633 635.845 248.769L599.61 249.115Z" fill="#9747FF"/>
<path fill-rule="evenodd" clip-rule="evenodd" d="M511.584 181.356C495.737 181.508 482.998 194.448 483.093 210.295L483.645 301.543C483.741 317.469 496.757 330.285 512.682 330.135L550.179 329.781C566.129 329.631 578.912 316.531 578.671 300.581L577.293 209.336C577.054 193.513 564.079 180.854 548.254 181.005L511.584 181.356ZM523.014 215.062C510.89 214.969 501.069 224.881 501.276 237.004L501.897 273.435C502.093 284.948 511.296 294.278 522.805 294.632L538.065 295.102C550.377 295.48 560.507 285.492 560.3 273.175L559.684 236.392C559.488 224.684 549.988 215.269 538.278 215.179L523.014 215.062Z" fill="#9747FF"/>
<path fill-rule="evenodd" clip-rule="evenodd" d="M689.573 181.535C673.905 181.838 661.362 194.625 661.362 210.296V301.364C661.362 317.359 674.41 330.282 690.404 330.129L726.639 329.782C742.486 329.631 755.226 316.691 755.13 300.844L754.579 209.433C754.483 193.397 741.292 180.536 725.258 180.845L689.573 181.535ZM700.557 215.062C688.433 214.969 678.613 224.881 678.819 237.004L679.44 273.435C679.637 284.948 688.839 294.278 700.348 294.632L715.608 295.102C727.92 295.481 738.05 285.492 737.844 273.176L737.227 236.392C737.031 224.684 727.531 215.269 715.821 215.179L700.557 215.062Z" fill="#9747FF"/>
</g>
<defs>
<clipPath id="clip0_2035_13135">
<rect width="177.093" height="165.407" fill="white"/>
</clipPath>
<clipPath id="clip1_2035_13135">
<rect width="177.093" height="165.407" fill="white" transform="translate(177.094)"/>
</clipPath>
<clipPath id="clip2_2035_13135">
<rect width="177.093" height="165.407" fill="white" transform="translate(0 165.407)"/>
</clipPath>
<clipPath id="clip3_2035_13135">
<rect width="177.093" height="165.407" fill="white" transform="translate(177.094 165.407)"/>
</clipPath>
<clipPath id="clip4_2035_13135">
<rect width="177.093" height="165.407" fill="white" transform="translate(354.014)"/>
</clipPath>
<clipPath id="clip5_2035_13135">
<rect width="177.093" height="165.407" fill="white" transform="translate(531.107)"/>
</clipPath>
<clipPath id="clip6_2035_13135">
<rect width="177.093" height="165.407" fill="white" transform="translate(354.014 165.407)"/>
</clipPath>
<clipPath id="clip7_2035_13135">
<rect width="177.093" height="165.407" fill="white" transform="translate(531.107 165.407)"/>
</clipPath>
</defs>
</svg>
